<?xml version="1.0" encoding="utf-8"?>
<svg xmlns="http://www.w3.org/2000/svg" xmlns:xlink="http://www.w3.org/1999/xlink" width="600" height="400" viewBox="0 0 2400 1600">
<defs>
  <clipPath id="clip310">
    <rect x="0" y="0" width="2400" height="1600"/>
  </clipPath>
</defs>
<path clip-path="url(#clip310)" d="
M0 1600 L2400 1600 L2400 0 L0 0  Z
  " fill="#ffffff" fill-rule="evenodd" fill-opacity="1"/>
<defs>
  <clipPath id="clip311">
    <rect x="480" y="0" width="1681" height="1600"/>
  </clipPath>
</defs>
<path clip-path="url(#clip310)" d="
M184.191 1423.18 L2352.76 1423.18 L2352.76 47.2441 L184.191 47.2441  Z
  " fill="#ffffff" fill-rule="evenodd" fill-opacity="1"/>
<defs>
  <clipPath id="clip312">
    <rect x="184" y="47" width="2170" height="1377"/>
  </clipPath>
</defs>
<polyline clip-path="url(#clip312)" style="stroke:#000000; stroke-linecap:butt; stroke-linejoin:round; stroke-width:2; stroke-opacity:0.1; fill:none" points="
  245.565,1423.18 245.565,47.2441 
  "/>
<polyline clip-path="url(#clip312)" style="stroke:#000000; stroke-linecap:butt; stroke-linejoin:round; stroke-width:2; stroke-opacity:0.1; fill:none" points="
  757.019,1423.18 757.019,47.2441 
  "/>
<polyline clip-path="url(#clip312)" style="stroke:#000000; stroke-linecap:butt; stroke-linejoin:round; stroke-width:2; stroke-opacity:0.1; fill:none" points="
  1268.47,1423.18 1268.47,47.2441 
  "/>
<polyline clip-path="url(#clip312)" style="stroke:#000000; stroke-linecap:butt; stroke-linejoin:round; stroke-width:2; stroke-opacity:0.1; fill:none" points="
  1779.93,1423.18 1779.93,47.2441 
  "/>
<polyline clip-path="url(#clip312)" style="stroke:#000000; stroke-linecap:butt; stroke-linejoin:round; stroke-width:2; stroke-opacity:0.1; fill:none" points="
  2291.38,1423.18 2291.38,47.2441 
  "/>
<polyline clip-path="url(#clip310)" style="stroke:#000000; stroke-linecap:butt; stroke-linejoin:round; stroke-width:4; stroke-opacity:1; fill:none" points="
  184.191,1423.18 2352.76,1423.18 
  "/>
<polyline clip-path="url(#clip310)" style="stroke:#000000; stroke-linecap:butt; stroke-linejoin:round; stroke-width:4; stroke-opacity:1; fill:none" points="
  245.565,1423.18 245.565,1404.28 
  "/>
<polyline clip-path="url(#clip310)" style="stroke:#000000; stroke-linecap:butt; stroke-linejoin:round; stroke-width:4; stroke-opacity:1; fill:none" points="
  757.019,1423.18 757.019,1404.28 
  "/>
<polyline clip-path="url(#clip310)" style="stroke:#000000; stroke-linecap:butt; stroke-linejoin:round; stroke-width:4; stroke-opacity:1; fill:none" points="
  1268.47,1423.18 1268.47,1404.28 
  "/>
<polyline clip-path="url(#clip310)" style="stroke:#000000; stroke-linecap:butt; stroke-linejoin:round; stroke-width:4; stroke-opacity:1; fill:none" points="
  1779.93,1423.18 1779.93,1404.28 
  "/>
<polyline clip-path="url(#clip310)" style="stroke:#000000; stroke-linecap:butt; stroke-linejoin:round; stroke-width:4; stroke-opacity:1; fill:none" points="
  2291.38,1423.18 2291.38,1404.28 
  "/>
<path clip-path="url(#clip310)" d="M207.869 1454.1 Q204.258 1454.1 202.429 1457.66 Q200.623 1461.2 200.623 1468.33 Q200.623 1475.44 202.429 1479.01 Q204.258 1482.55 207.869 1482.55 Q211.503 1482.55 213.308 1479.01 Q215.137 1475.44 215.137 1468.33 Q215.137 1461.2 213.308 1457.66 Q211.503 1454.1 207.869 1454.1 M207.869 1450.39 Q213.679 1450.39 216.734 1455 Q219.813 1459.58 219.813 1468.33 Q219.813 1477.06 216.734 1481.67 Q213.679 1486.25 207.869 1486.25 Q202.058 1486.25 198.98 1481.67 Q195.924 1477.06 195.924 1468.33 Q195.924 1459.58 198.98 1455 Q202.058 1450.39 207.869 1450.39 Z" fill="#000000" fill-rule="evenodd" fill-opacity="1" /><path clip-path="url(#clip310)" d="M228.031 1479.7 L232.915 1479.7 L232.915 1485.58 L228.031 1485.58 L228.031 1479.7 Z" fill="#000000" fill-rule="evenodd" fill-opacity="1" /><path clip-path="url(#clip310)" d="M253.1 1454.1 Q249.489 1454.1 247.66 1457.66 Q245.855 1461.2 245.855 1468.33 Q245.855 1475.44 247.66 1479.01 Q249.489 1482.55 253.1 1482.55 Q256.734 1482.55 258.54 1479.01 Q260.368 1475.44 260.368 1468.33 Q260.368 1461.2 258.54 1457.66 Q256.734 1454.1 253.1 1454.1 M253.1 1450.39 Q258.91 1450.39 261.966 1455 Q265.044 1459.58 265.044 1468.33 Q265.044 1477.06 261.966 1481.67 Q258.91 1486.25 253.1 1486.25 Q247.29 1486.25 244.211 1481.67 Q241.155 1477.06 241.155 1468.33 Q241.155 1459.58 244.211 1455 Q247.29 1450.39 253.1 1450.39 Z" fill="#000000" fill-rule="evenodd" fill-opacity="1" /><path clip-path="url(#clip310)" d="M283.262 1454.1 Q279.651 1454.1 277.822 1457.66 Q276.016 1461.2 276.016 1468.33 Q276.016 1475.44 277.822 1479.01 Q279.651 1482.55 283.262 1482.55 Q286.896 1482.55 288.702 1479.01 Q290.53 1475.44 290.53 1468.33 Q290.53 1461.2 288.702 1457.66 Q286.896 1454.1 283.262 1454.1 M283.262 1450.39 Q289.072 1450.39 292.127 1455 Q295.206 1459.58 295.206 1468.33 Q295.206 1477.06 292.127 1481.67 Q289.072 1486.25 283.262 1486.25 Q277.452 1486.25 274.373 1481.67 Q271.317 1477.06 271.317 1468.33 Q271.317 1459.58 274.373 1455 Q277.452 1450.39 283.262 1450.39 Z" fill="#000000" fill-rule="evenodd" fill-opacity="1" /><path clip-path="url(#clip310)" d="M719.82 1454.1 Q716.209 1454.1 714.381 1457.66 Q712.575 1461.2 712.575 1468.33 Q712.575 1475.44 714.381 1479.01 Q716.209 1482.55 719.82 1482.55 Q723.455 1482.55 725.26 1479.01 Q727.089 1475.44 727.089 1468.33 Q727.089 1461.2 725.26 1457.66 Q723.455 1454.1 719.82 1454.1 M719.82 1450.39 Q725.631 1450.39 728.686 1455 Q731.765 1459.58 731.765 1468.33 Q731.765 1477.06 728.686 1481.67 Q725.631 1486.25 719.82 1486.25 Q714.01 1486.25 710.932 1481.67 Q707.876 1477.06 707.876 1468.33 Q707.876 1459.58 710.932 1455 Q714.01 1450.39 719.82 1450.39 Z" fill="#000000" fill-rule="evenodd" fill-opacity="1" /><path clip-path="url(#clip310)" d="M739.982 1479.7 L744.867 1479.7 L744.867 1485.58 L739.982 1485.58 L739.982 1479.7 Z" fill="#000000" fill-rule="evenodd" fill-opacity="1" /><path clip-path="url(#clip310)" d="M759.079 1481.64 L775.399 1481.64 L775.399 1485.58 L753.454 1485.58 L753.454 1481.64 Q756.116 1478.89 760.7 1474.26 Q765.306 1469.61 766.487 1468.27 Q768.732 1465.74 769.612 1464.01 Q770.515 1462.25 770.515 1460.56 Q770.515 1457.8 768.57 1456.07 Q766.649 1454.33 763.547 1454.33 Q761.348 1454.33 758.894 1455.09 Q756.464 1455.86 753.686 1457.41 L753.686 1452.69 Q756.51 1451.55 758.964 1450.97 Q761.417 1450.39 763.454 1450.39 Q768.825 1450.39 772.019 1453.08 Q775.214 1455.77 775.214 1460.26 Q775.214 1462.39 774.403 1464.31 Q773.616 1466.2 771.51 1468.8 Q770.931 1469.47 767.829 1472.69 Q764.728 1475.88 759.079 1481.64 Z" fill="#000000" fill-rule="evenodd" fill-opacity="1" /><path clip-path="url(#clip310)" d="M785.26 1451.02 L803.616 1451.02 L803.616 1454.96 L789.542 1454.96 L789.542 1463.43 Q790.561 1463.08 791.579 1462.92 Q792.598 1462.73 793.616 1462.73 Q799.403 1462.73 802.783 1465.9 Q806.162 1469.08 806.162 1474.49 Q806.162 1480.07 802.69 1483.17 Q799.218 1486.25 792.899 1486.25 Q790.723 1486.25 788.454 1485.88 Q786.209 1485.51 783.801 1484.77 L783.801 1480.07 Q785.885 1481.2 788.107 1481.76 Q790.329 1482.32 792.806 1482.32 Q796.811 1482.32 799.149 1480.21 Q801.487 1478.1 801.487 1474.49 Q801.487 1470.88 799.149 1468.77 Q796.811 1466.67 792.806 1466.67 Q790.931 1466.67 789.056 1467.08 Q787.204 1467.5 785.26 1468.38 L785.26 1451.02 Z" fill="#000000" fill-rule="evenodd" fill-opacity="1" /><path clip-path="url(#clip310)" d="M1230.78 1454.1 Q1227.17 1454.1 1225.34 1457.66 Q1223.53 1461.2 1223.53 1468.33 Q1223.53 1475.44 1225.34 1479.01 Q1227.17 1482.55 1230.78 1482.55 Q1234.41 1482.55 1236.22 1479.01 Q1238.05 1475.44 1238.05 1468.33 Q1238.05 1461.2 1236.22 1457.66 Q1234.41 1454.1 1230.78 1454.1 M1230.78 1450.39 Q1236.59 1450.39 1239.64 1455 Q1242.72 1459.58 1242.72 1468.33 Q1242.72 1477.06 1239.64 1481.67 Q1236.59 1486.25 1230.78 1486.25 Q1224.97 1486.25 1221.89 1481.67 Q1218.83 1477.06 1218.83 1468.33 Q1218.83 1459.58 1221.89 1455 Q1224.97 1450.39 1230.78 1450.39 Z" fill="#000000" fill-rule="evenodd" fill-opacity="1" /><path clip-path="url(#clip310)" d="M1250.94 1479.7 L1255.82 1479.7 L1255.82 1485.58 L1250.94 1485.58 L1250.94 1479.7 Z" fill="#000000" fill-rule="evenodd" fill-opacity="1" /><path clip-path="url(#clip310)" d="M1266.05 1451.02 L1284.41 1451.02 L1284.41 1454.96 L1270.34 1454.96 L1270.34 1463.43 Q1271.36 1463.08 1272.37 1462.92 Q1273.39 1462.73 1274.41 1462.73 Q1280.2 1462.73 1283.58 1465.9 Q1286.96 1469.08 1286.96 1474.49 Q1286.96 1480.07 1283.48 1483.17 Q1280.01 1486.25 1273.69 1486.25 Q1271.52 1486.25 1269.25 1485.88 Q1267 1485.51 1264.6 1484.77 L1264.6 1480.07 Q1266.68 1481.2 1268.9 1481.76 Q1271.12 1482.32 1273.6 1482.32 Q1277.61 1482.32 1279.94 1480.21 Q1282.28 1478.1 1282.28 1474.49 Q1282.28 1470.88 1279.94 1468.77 Q1277.61 1466.67 1273.6 1466.67 Q1271.73 1466.67 1269.85 1467.08 Q1268 1467.5 1266.05 1468.38 L1266.05 1451.02 Z" fill="#000000" fill-rule="evenodd" fill-opacity="1" /><path clip-path="url(#clip310)" d="M1306.17 1454.1 Q1302.56 1454.1 1300.73 1457.66 Q1298.92 1461.2 1298.92 1468.33 Q1298.92 1475.44 1300.73 1479.01 Q1302.56 1482.55 1306.17 1482.55 Q1309.8 1482.55 1311.61 1479.01 Q1313.44 1475.44 1313.44 1468.33 Q1313.44 1461.2 1311.61 1457.66 Q1309.8 1454.1 1306.17 1454.1 M1306.17 1450.39 Q1311.98 1450.39 1315.04 1455 Q1318.11 1459.58 1318.11 1468.33 Q1318.11 1477.06 1315.04 1481.67 Q1311.98 1486.25 1306.17 1486.25 Q1300.36 1486.25 1297.28 1481.67 Q1294.23 1477.06 1294.23 1468.33 Q1294.23 1459.58 1297.28 1455 Q1300.36 1450.39 1306.17 1450.39 Z" fill="#000000" fill-rule="evenodd" fill-opacity="1" /><path clip-path="url(#clip310)" d="M1742.73 1454.1 Q1739.12 1454.1 1737.29 1457.66 Q1735.48 1461.2 1735.48 1468.33 Q1735.48 1475.44 1737.29 1479.01 Q1739.12 1482.55 1742.73 1482.55 Q1746.36 1482.55 1748.17 1479.01 Q1750 1475.44 1750 1468.33 Q1750 1461.2 1748.17 1457.66 Q1746.36 1454.1 1742.73 1454.1 M1742.73 1450.39 Q1748.54 1450.39 1751.59 1455 Q1754.67 1459.58 1754.67 1468.33 Q1754.67 1477.06 1751.59 1481.67 Q1748.54 1486.25 1742.73 1486.25 Q1736.92 1486.25 1733.84 1481.67 Q1730.78 1477.06 1730.78 1468.33 Q1730.78 1459.58 1733.84 1455 Q1736.92 1450.39 1742.73 1450.39 Z" fill="#000000" fill-rule="evenodd" fill-opacity="1" /><path clip-path="url(#clip310)" d="M1762.89 1479.7 L1767.77 1479.7 L1767.77 1485.58 L1762.89 1485.58 L1762.89 1479.7 Z" fill="#000000" fill-rule="evenodd" fill-opacity="1" /><path clip-path="url(#clip310)" d="M1776.78 1451.02 L1799 1451.02 L1799 1453.01 L1786.46 1485.58 L1781.57 1485.58 L1793.38 1454.96 L1776.78 1454.96 L1776.78 1451.02 Z" fill="#000000" fill-rule="evenodd" fill-opacity="1" /><path clip-path="url(#clip310)" d="M1808.17 1451.02 L1826.52 1451.02 L1826.52 1454.96 L1812.45 1454.96 L1812.45 1463.43 Q1813.47 1463.08 1814.49 1462.92 Q1815.51 1462.73 1816.52 1462.73 Q1822.31 1462.73 1825.69 1465.9 Q1829.07 1469.08 1829.07 1474.49 Q1829.07 1480.07 1825.6 1483.17 Q1822.13 1486.25 1815.81 1486.25 Q1813.63 1486.25 1811.36 1485.88 Q1809.12 1485.51 1806.71 1484.77 L1806.71 1480.07 Q1808.79 1481.2 1811.02 1481.76 Q1813.24 1482.32 1815.71 1482.32 Q1819.72 1482.32 1822.06 1480.21 Q1824.39 1478.1 1824.39 1474.49 Q1824.39 1470.88 1822.06 1468.77 Q1819.72 1466.67 1815.71 1466.67 Q1813.84 1466.67 1811.96 1467.08 Q1810.11 1467.5 1808.17 1468.38 L1808.17 1451.02 Z" fill="#000000" fill-rule="evenodd" fill-opacity="1" /><path clip-path="url(#clip310)" d="M2243.45 1481.64 L2251.09 1481.64 L2251.09 1455.28 L2242.78 1456.95 L2242.78 1452.69 L2251.05 1451.02 L2255.72 1451.02 L2255.72 1481.64 L2263.36 1481.64 L2263.36 1485.58 L2243.45 1485.58 L2243.45 1481.64 Z" fill="#000000" fill-rule="evenodd" fill-opacity="1" /><path clip-path="url(#clip310)" d="M2272.81 1479.7 L2277.69 1479.7 L2277.69 1485.58 L2272.81 1485.58 L2272.81 1479.7 Z" fill="#000000" fill-rule="evenodd" fill-opacity="1" /><path clip-path="url(#clip310)" d="M2297.87 1454.1 Q2294.26 1454.1 2292.43 1457.66 Q2290.63 1461.2 2290.63 1468.33 Q2290.63 1475.44 2292.43 1479.01 Q2294.26 1482.55 2297.87 1482.55 Q2301.51 1482.55 2303.31 1479.01 Q2305.14 1475.44 2305.14 1468.33 Q2305.14 1461.2 2303.31 1457.66 Q2301.51 1454.1 2297.87 1454.1 M2297.87 1450.39 Q2303.68 1450.39 2306.74 1455 Q2309.82 1459.58 2309.82 1468.33 Q2309.82 1477.06 2306.74 1481.67 Q2303.68 1486.25 2297.87 1486.25 Q2292.06 1486.25 2288.99 1481.67 Q2285.93 1477.06 2285.93 1468.33 Q2285.93 1459.58 2288.99 1455 Q2292.06 1450.39 2297.87 1450.39 Z" fill="#000000" fill-rule="evenodd" fill-opacity="1" /><path clip-path="url(#clip310)" d="M2328.04 1454.1 Q2324.43 1454.1 2322.6 1457.66 Q2320.79 1461.2 2320.79 1468.33 Q2320.79 1475.44 2322.6 1479.01 Q2324.43 1482.55 2328.04 1482.55 Q2331.67 1482.55 2333.48 1479.01 Q2335.3 1475.44 2335.3 1468.33 Q2335.3 1461.2 2333.48 1457.66 Q2331.67 1454.1 2328.04 1454.1 M2328.04 1450.39 Q2333.85 1450.39 2336.9 1455 Q2339.98 1459.58 2339.98 1468.33 Q2339.98 1477.06 2336.9 1481.67 Q2333.85 1486.25 2328.04 1486.25 Q2322.23 1486.25 2319.15 1481.67 Q2316.09 1477.06 2316.09 1468.33 Q2316.09 1459.58 2319.15 1455 Q2322.23 1450.39 2328.04 1450.39 Z" fill="#000000" fill-rule="evenodd" fill-opacity="1" /><path clip-path="url(#clip310)" d="M1117.22 1532.4 L1123.08 1532.4 L1123.08 1568.04 L1117.22 1568.04 L1117.22 1532.4 M1117.22 1518.52 L1123.08 1518.52 L1123.08 1525.93 L1117.22 1525.93 L1117.22 1518.52 Z" fill="#000000" fill-rule="evenodd" fill-opacity="1" /><path clip-path="url(#clip310)" d="M1164.97 1546.53 L1164.97 1568.04 L1159.11 1568.04 L1159.11 1546.72 Q1159.11 1541.66 1157.14 1539.14 Q1155.16 1536.63 1151.22 1536.63 Q1146.47 1536.63 1143.74 1539.65 Q1141 1542.68 1141 1547.9 L1141 1568.04 L1135.11 1568.04 L1135.11 1532.4 L1141 1532.4 L1141 1537.93 Q1143.1 1534.72 1145.93 1533.13 Q1148.8 1531.54 1152.52 1531.54 Q1158.66 1531.54 1161.82 1535.36 Q1164.97 1539.14 1164.97 1546.53 Z" fill="#000000" fill-rule="evenodd" fill-opacity="1" /><path clip-path="url(#clip310)" d="M1202.3 1533.76 L1202.3 1539.24 Q1199.82 1537.87 1197.3 1537.2 Q1194.82 1536.5 1192.28 1536.5 Q1186.58 1536.5 1183.43 1540.13 Q1180.28 1543.73 1180.28 1550.25 Q1180.28 1556.78 1183.43 1560.4 Q1186.58 1564 1192.28 1564 Q1194.82 1564 1197.3 1563.33 Q1199.82 1562.63 1202.3 1561.26 L1202.3 1566.68 Q1199.85 1567.82 1197.21 1568.39 Q1194.6 1568.97 1191.64 1568.97 Q1183.59 1568.97 1178.84 1563.91 Q1174.1 1558.85 1174.1 1550.25 Q1174.1 1541.53 1178.88 1536.53 Q1183.68 1531.54 1192.02 1531.54 Q1194.73 1531.54 1197.3 1532.11 Q1199.88 1532.65 1202.3 1533.76 Z" fill="#000000" fill-rule="evenodd" fill-opacity="1" /><path clip-path="url(#clip310)" d="M1212.49 1532.4 L1218.34 1532.4 L1218.34 1568.04 L1212.49 1568.04 L1212.49 1532.4 M1212.49 1518.52 L1218.34 1518.52 L1218.34 1525.93 L1212.49 1525.93 L1212.49 1518.52 Z" fill="#000000" fill-rule="evenodd" fill-opacity="1" /><path clip-path="url(#clip310)" d="M1254.05 1537.81 L1254.05 1518.52 L1259.91 1518.52 L1259.91 1568.04 L1254.05 1568.04 L1254.05 1562.7 Q1252.21 1565.88 1249.38 1567.44 Q1246.58 1568.97 1242.63 1568.97 Q1236.17 1568.97 1232.09 1563.81 Q1228.05 1558.65 1228.05 1550.25 Q1228.05 1541.85 1232.09 1536.69 Q1236.17 1531.54 1242.63 1531.54 Q1246.58 1531.54 1249.38 1533.1 Q1252.21 1534.62 1254.05 1537.81 M1234.1 1550.25 Q1234.1 1556.71 1236.74 1560.4 Q1239.41 1564.07 1244.06 1564.07 Q1248.71 1564.07 1251.38 1560.4 Q1254.05 1556.71 1254.05 1550.25 Q1254.05 1543.79 1251.38 1540.13 Q1248.71 1536.44 1244.06 1536.44 Q1239.41 1536.44 1236.74 1540.13 Q1234.1 1543.79 1234.1 1550.25 Z" fill="#000000" fill-rule="evenodd" fill-opacity="1" /><path clip-path="url(#clip310)" d="M1302.47 1548.76 L1302.47 1551.62 L1275.54 1551.62 Q1275.92 1557.67 1279.17 1560.85 Q1282.45 1564 1288.27 1564 Q1291.64 1564 1294.8 1563.17 Q1297.98 1562.35 1301.1 1560.69 L1301.1 1566.23 Q1297.95 1567.57 1294.64 1568.27 Q1291.33 1568.97 1287.92 1568.97 Q1279.39 1568.97 1274.39 1564 Q1269.43 1559.04 1269.43 1550.57 Q1269.43 1541.82 1274.14 1536.69 Q1278.88 1531.54 1286.9 1531.54 Q1294.1 1531.54 1298.26 1536.18 Q1302.47 1540.8 1302.47 1548.76 M1296.61 1547.04 Q1296.55 1542.23 1293.9 1539.37 Q1291.29 1536.5 1286.97 1536.5 Q1282.06 1536.5 1279.1 1539.27 Q1276.18 1542.04 1275.73 1547.07 L1296.61 1547.04 Z" fill="#000000" fill-rule="evenodd" fill-opacity="1" /><path clip-path="url(#clip310)" d="M1341.71 1546.53 L1341.71 1568.04 L1335.85 1568.04 L1335.85 1546.72 Q1335.85 1541.66 1333.88 1539.14 Q1331.91 1536.63 1327.96 1536.63 Q1323.22 1536.63 1320.48 1539.65 Q1317.74 1542.68 1317.74 1547.9 L1317.74 1568.04 L1311.86 1568.04 L1311.86 1532.4 L1317.74 1532.4 L1317.74 1537.93 Q1319.84 1534.72 1322.68 1533.13 Q1325.54 1531.54 1329.27 1531.54 Q1335.41 1531.54 1338.56 1535.36 Q1341.71 1539.14 1341.71 1546.53 Z" fill="#000000" fill-rule="evenodd" fill-opacity="1" /><path clip-path="url(#clip310)" d="M1379.05 1533.76 L1379.05 1539.24 Q1376.56 1537.87 1374.05 1537.2 Q1371.57 1536.5 1369.02 1536.5 Q1363.32 1536.5 1360.17 1540.13 Q1357.02 1543.73 1357.02 1550.25 Q1357.02 1556.78 1360.17 1560.4 Q1363.32 1564 1369.02 1564 Q1371.57 1564 1374.05 1563.33 Q1376.56 1562.63 1379.05 1561.26 L1379.05 1566.68 Q1376.59 1567.82 1373.95 1568.39 Q1371.34 1568.97 1368.38 1568.97 Q1360.33 1568.97 1355.59 1563.91 Q1350.85 1558.85 1350.85 1550.25 Q1350.85 1541.53 1355.62 1536.53 Q1360.43 1531.54 1368.77 1531.54 Q1371.47 1531.54 1374.05 1532.11 Q1376.63 1532.65 1379.05 1533.76 Z" fill="#000000" fill-rule="evenodd" fill-opacity="1" /><path clip-path="url(#clip310)" d="M1419.72 1548.76 L1419.72 1551.62 L1392.8 1551.62 Q1393.18 1557.67 1396.42 1560.85 Q1399.7 1564 1405.53 1564 Q1408.9 1564 1412.05 1563.17 Q1415.23 1562.35 1418.35 1560.69 L1418.35 1566.23 Q1415.2 1567.57 1411.89 1568.27 Q1408.58 1568.97 1405.18 1568.97 Q1396.65 1568.97 1391.65 1564 Q1386.68 1559.04 1386.68 1550.57 Q1386.68 1541.82 1391.4 1536.69 Q1396.14 1531.54 1404.16 1531.54 Q1411.35 1531.54 1415.52 1536.18 Q1419.72 1540.8 1419.72 1548.76 M1413.87 1547.04 Q1413.8 1542.23 1411.16 1539.37 Q1408.55 1536.5 1404.22 1536.5 Q1399.32 1536.5 1396.36 1539.27 Q1393.43 1542.04 1392.99 1547.07 L1413.87 1547.04 Z" fill="#000000" fill-rule="evenodd" fill-opacity="1" /><polyline clip-path="url(#clip312)" style="stroke:#000000; stroke-linecap:butt; stroke-linejoin:round; stroke-width:2; stroke-opacity:0.1; fill:none" points="
  184.191,1384.24 2352.76,1384.24 
  "/>
<polyline clip-path="url(#clip312)" style="stroke:#000000; stroke-linecap:butt; stroke-linejoin:round; stroke-width:2; stroke-opacity:0.1; fill:none" points="
  184.191,1059.73 2352.76,1059.73 
  "/>
<polyline clip-path="url(#clip312)" style="stroke:#000000; stroke-linecap:butt; stroke-linejoin:round; stroke-width:2; stroke-opacity:0.1; fill:none" points="
  184.191,735.212 2352.76,735.212 
  "/>
<polyline clip-path="url(#clip312)" style="stroke:#000000; stroke-linecap:butt; stroke-linejoin:round; stroke-width:2; stroke-opacity:0.1; fill:none" points="
  184.191,410.699 2352.76,410.699 
  "/>
<polyline clip-path="url(#clip312)" style="stroke:#000000; stroke-linecap:butt; stroke-linejoin:round; stroke-width:2; stroke-opacity:0.1; fill:none" points="
  184.191,86.1857 2352.76,86.1857 
  "/>
<polyline clip-path="url(#clip310)" style="stroke:#000000; stroke-linecap:butt; stroke-linejoin:round; stroke-width:4; stroke-opacity:1; fill:none" points="
  184.191,1423.18 184.191,47.2441 
  "/>
<polyline clip-path="url(#clip310)" style="stroke:#000000; stroke-linecap:butt; stroke-linejoin:round; stroke-width:4; stroke-opacity:1; fill:none" points="
  184.191,1384.24 203.088,1384.24 
  "/>
<polyline clip-path="url(#clip310)" style="stroke:#000000; stroke-linecap:butt; stroke-linejoin:round; stroke-width:4; stroke-opacity:1; fill:none" points="
  184.191,1059.73 203.088,1059.73 
  "/>
<polyline clip-path="url(#clip310)" style="stroke:#000000; stroke-linecap:butt; stroke-linejoin:round; stroke-width:4; stroke-opacity:1; fill:none" points="
  184.191,735.212 203.088,735.212 
  "/>
<polyline clip-path="url(#clip310)" style="stroke:#000000; stroke-linecap:butt; stroke-linejoin:round; stroke-width:4; stroke-opacity:1; fill:none" points="
  184.191,410.699 203.088,410.699 
  "/>
<polyline clip-path="url(#clip310)" style="stroke:#000000; stroke-linecap:butt; stroke-linejoin:round; stroke-width:4; stroke-opacity:1; fill:none" points="
  184.191,86.1857 203.088,86.1857 
  "/>
<path clip-path="url(#clip310)" d="M91.0151 1370.04 Q87.404 1370.04 85.5753 1373.6 Q83.7697 1377.14 83.7697 1384.27 Q83.7697 1391.38 85.5753 1394.94 Q87.404 1398.49 91.0151 1398.49 Q94.6493 1398.49 96.4548 1394.94 Q98.2835 1391.38 98.2835 1384.27 Q98.2835 1377.14 96.4548 1373.6 Q94.6493 1370.04 91.0151 1370.04 M91.0151 1366.33 Q96.8252 1366.33 99.8808 1370.94 Q102.959 1375.52 102.959 1384.27 Q102.959 1393 99.8808 1397.61 Q96.8252 1402.19 91.0151 1402.19 Q85.2049 1402.19 82.1262 1397.61 Q79.0707 1393 79.0707 1384.27 Q79.0707 1375.52 82.1262 1370.94 Q85.2049 1366.33 91.0151 1366.33 Z" fill="#000000" fill-rule="evenodd" fill-opacity="1" /><path clip-path="url(#clip310)" d="M111.177 1395.64 L116.061 1395.64 L116.061 1401.52 L111.177 1401.52 L111.177 1395.64 Z" fill="#000000" fill-rule="evenodd" fill-opacity="1" /><path clip-path="url(#clip310)" d="M136.246 1370.04 Q132.635 1370.04 130.807 1373.6 Q129.001 1377.14 129.001 1384.27 Q129.001 1391.38 130.807 1394.94 Q132.635 1398.49 136.246 1398.49 Q139.881 1398.49 141.686 1394.94 Q143.515 1391.38 143.515 1384.27 Q143.515 1377.14 141.686 1373.6 Q139.881 1370.04 136.246 1370.04 M136.246 1366.33 Q142.056 1366.33 145.112 1370.94 Q148.191 1375.52 148.191 1384.27 Q148.191 1393 145.112 1397.61 Q142.056 1402.19 136.246 1402.19 Q130.436 1402.19 127.357 1397.61 Q124.302 1393 124.302 1384.27 Q124.302 1375.52 127.357 1370.94 Q130.436 1366.33 136.246 1366.33 Z" fill="#000000" fill-rule="evenodd" fill-opacity="1" /><path clip-path="url(#clip310)" d="M86.0382 1073.07 L102.358 1073.07 L102.358 1077.01 L80.4133 1077.01 L80.4133 1073.07 Q83.0753 1070.32 87.6586 1065.69 Q92.2651 1061.03 93.4456 1059.69 Q95.691 1057.17 96.5706 1055.43 Q97.4734 1053.67 97.4734 1051.98 Q97.4734 1049.23 95.5289 1047.49 Q93.6076 1045.76 90.5058 1045.76 Q88.3067 1045.76 85.8531 1046.52 Q83.4225 1047.28 80.6447 1048.83 L80.6447 1044.11 Q83.4688 1042.98 85.9225 1042.4 Q88.3762 1041.82 90.4132 1041.82 Q95.7836 1041.82 98.978 1044.51 Q102.172 1047.19 102.172 1051.68 Q102.172 1053.81 101.362 1055.73 Q100.575 1057.63 98.4687 1060.22 Q97.89 1060.89 94.7882 1064.11 Q91.6864 1067.31 86.0382 1073.07 Z" fill="#000000" fill-rule="evenodd" fill-opacity="1" /><path clip-path="url(#clip310)" d="M112.172 1071.13 L117.057 1071.13 L117.057 1077.01 L112.172 1077.01 L112.172 1071.13 Z" fill="#000000" fill-rule="evenodd" fill-opacity="1" /><path clip-path="url(#clip310)" d="M127.288 1042.45 L145.644 1042.45 L145.644 1046.38 L131.57 1046.38 L131.57 1054.85 Q132.589 1054.51 133.607 1054.34 Q134.626 1054.16 135.644 1054.16 Q141.431 1054.16 144.811 1057.33 Q148.191 1060.5 148.191 1065.92 Q148.191 1071.5 144.718 1074.6 Q141.246 1077.68 134.927 1077.68 Q132.751 1077.68 130.482 1077.31 Q128.237 1076.94 125.83 1076.19 L125.83 1071.5 Q127.913 1072.63 130.135 1073.19 Q132.357 1073.74 134.834 1073.74 Q138.839 1073.74 141.177 1071.63 Q143.515 1069.53 143.515 1065.92 Q143.515 1062.31 141.177 1060.2 Q138.839 1058.09 134.834 1058.09 Q132.959 1058.09 131.084 1058.51 Q129.232 1058.93 127.288 1059.81 L127.288 1042.45 Z" fill="#000000" fill-rule="evenodd" fill-opacity="1" /><path clip-path="url(#clip310)" d="M81.0614 717.932 L99.4178 717.932 L99.4178 721.867 L85.3438 721.867 L85.3438 730.339 Q86.3623 729.992 87.3808 729.83 Q88.3993 729.645 89.4178 729.645 Q95.2049 729.645 98.5845 732.816 Q101.964 735.987 101.964 741.404 Q101.964 746.983 98.4919 750.085 Q95.0197 753.163 88.7003 753.163 Q86.5243 753.163 84.2558 752.793 Q82.0105 752.423 79.6031 751.682 L79.6031 746.983 Q81.6864 748.117 83.9086 748.673 Q86.1308 749.228 88.6077 749.228 Q92.6123 749.228 94.9502 747.122 Q97.2882 745.015 97.2882 741.404 Q97.2882 737.793 94.9502 735.687 Q92.6123 733.58 88.6077 733.58 Q86.7327 733.58 84.8577 733.997 Q83.0058 734.413 81.0614 735.293 L81.0614 717.932 Z" fill="#000000" fill-rule="evenodd" fill-opacity="1" /><path clip-path="url(#clip310)" d="M111.177 746.612 L116.061 746.612 L116.061 752.492 L111.177 752.492 L111.177 746.612 Z" fill="#000000" fill-rule="evenodd" fill-opacity="1" /><path clip-path="url(#clip310)" d="M136.246 721.011 Q132.635 721.011 130.807 724.575 Q129.001 728.117 129.001 735.247 Q129.001 742.353 130.807 745.918 Q132.635 749.46 136.246 749.46 Q139.881 749.46 141.686 745.918 Q143.515 742.353 143.515 735.247 Q143.515 728.117 141.686 724.575 Q139.881 721.011 136.246 721.011 M136.246 717.307 Q142.056 717.307 145.112 721.913 Q148.191 726.497 148.191 735.247 Q148.191 743.973 145.112 748.58 Q142.056 753.163 136.246 753.163 Q130.436 753.163 127.357 748.58 Q124.302 743.973 124.302 735.247 Q124.302 726.497 127.357 721.913 Q130.436 717.307 136.246 717.307 Z" fill="#000000" fill-rule="evenodd" fill-opacity="1" /><path clip-path="url(#clip310)" d="M80.8299 393.419 L103.052 393.419 L103.052 395.41 L90.5058 427.979 L85.6216 427.979 L97.4271 397.354 L80.8299 397.354 L80.8299 393.419 Z" fill="#000000" fill-rule="evenodd" fill-opacity="1" /><path clip-path="url(#clip310)" d="M112.172 422.099 L117.057 422.099 L117.057 427.979 L112.172 427.979 L112.172 422.099 Z" fill="#000000" fill-rule="evenodd" fill-opacity="1" /><path clip-path="url(#clip310)" d="M127.288 393.419 L145.644 393.419 L145.644 397.354 L131.57 397.354 L131.57 405.826 Q132.589 405.479 133.607 405.317 Q134.626 405.132 135.644 405.132 Q141.431 405.132 144.811 408.303 Q148.191 411.474 148.191 416.891 Q148.191 422.47 144.718 425.571 Q141.246 428.65 134.927 428.65 Q132.751 428.65 130.482 428.28 Q128.237 427.909 125.83 427.169 L125.83 422.47 Q127.913 423.604 130.135 424.159 Q132.357 424.715 134.834 424.715 Q138.839 424.715 141.177 422.608 Q143.515 420.502 143.515 416.891 Q143.515 413.28 141.177 411.173 Q138.839 409.067 134.834 409.067 Q132.959 409.067 131.084 409.484 Q129.232 409.9 127.288 410.78 L127.288 393.419 Z" fill="#000000" fill-rule="evenodd" fill-opacity="1" /><path clip-path="url(#clip310)" d="M51.6634 99.5305 L59.3023 99.5305 L59.3023 73.1649 L50.9921 74.8316 L50.9921 70.5723 L59.256 68.9057 L63.9319 68.9057 L63.9319 99.5305 L71.5707 99.5305 L71.5707 103.466 L51.6634 103.466 L51.6634 99.5305 Z" fill="#000000" fill-rule="evenodd" fill-opacity="1" /><path clip-path="url(#clip310)" d="M91.0151 71.9844 Q87.404 71.9844 85.5753 75.5492 Q83.7697 79.0908 83.7697 86.2204 Q83.7697 93.3268 85.5753 96.8916 Q87.404 100.433 91.0151 100.433 Q94.6493 100.433 96.4548 96.8916 Q98.2835 93.3268 98.2835 86.2204 Q98.2835 79.0908 96.4548 75.5492 Q94.6493 71.9844 91.0151 71.9844 M91.0151 68.2807 Q96.8252 68.2807 99.8808 72.8871 Q102.959 77.4704 102.959 86.2204 Q102.959 94.9472 99.8808 99.5537 Q96.8252 104.137 91.0151 104.137 Q85.2049 104.137 82.1262 99.5537 Q79.0707 94.9472 79.0707 86.2204 Q79.0707 77.4704 82.1262 72.8871 Q85.2049 68.2807 91.0151 68.2807 Z" fill="#000000" fill-rule="evenodd" fill-opacity="1" /><path clip-path="url(#clip310)" d="M111.177 97.5861 L116.061 97.5861 L116.061 103.466 L111.177 103.466 L111.177 97.5861 Z" fill="#000000" fill-rule="evenodd" fill-opacity="1" /><path clip-path="url(#clip310)" d="M136.246 71.9844 Q132.635 71.9844 130.807 75.5492 Q129.001 79.0908 129.001 86.2204 Q129.001 93.3268 130.807 96.8916 Q132.635 100.433 136.246 100.433 Q139.881 100.433 141.686 96.8916 Q143.515 93.3268 143.515 86.2204 Q143.515 79.0908 141.686 75.5492 Q139.881 71.9844 136.246 71.9844 M136.246 68.2807 Q142.056 68.2807 145.112 72.8871 Q148.191 77.4704 148.191 86.2204 Q148.191 94.9472 145.112 99.5537 Q142.056 104.137 136.246 104.137 Q130.436 104.137 127.357 99.5537 Q124.302 94.9472 124.302 86.2204 Q124.302 77.4704 127.357 72.8871 Q130.436 68.2807 136.246 68.2807 Z" fill="#000000" fill-rule="evenodd" fill-opacity="1" /><path clip-path="url(#clip312)" d="
M245.565 86.1857 L248.895 105.077 L252.225 123.724 L255.555 142.129 L258.885 160.294 L266.582 201.385 L274.279 241.244 L281.976 279.906 L289.674 317.4 L297.371 353.759 
  L305.068 389.012 L312.766 423.189 L320.463 456.318 L328.16 488.429 L335.858 519.548 L343.555 549.702 L351.252 578.918 L366.647 634.637 L382.041 686.902 L391.293 716.729 
  L400.544 745.417 L409.796 773.003 L419.048 799.526 L428.299 825.02 L437.551 849.522 L446.802 873.064 L456.054 895.681 L471.698 931.908 L487.342 965.727 L502.986 997.279 
  L518.63 1026.7 L535.624 1056.39 L552.618 1083.87 L569.612 1109.28 L586.605 1132.76 L602.272 1152.81 L617.939 1171.43 L633.606 1188.7 L649.273 1204.72 L666.069 1220.59 
  L682.866 1235.19 L699.662 1248.63 L716.459 1260.98 L735.919 1274.03 L755.38 1285.83 L774.84 1296.5 L794.3 1306.13 L828.889 1320.95 L863.477 1333.21 L893.808 1342.18 
  L924.138 1349.72 L957.207 1356.54 L990.276 1362.14 L1023.54 1366.74 L1056.81 1370.46 L1130.36 1376.31 L1200.35 1379.71 L1273.12 1381.8 L1334.38 1382.85 L1409.17 1383.57 
  L1477.68 1383.91 L1540.96 1384.08 L1605.06 1384.17 L1676.89 1384.21 L1741.98 1384.23 L1816.51 1384.24 L1885.52 1384.24 L1953.55 1384.24 L2019.6 1384.24 L2087.32 1384.24 
  L2161.5 1384.24 L2269.27 1384.24 L2291.38 1384.24 L2291.38 1384.24 L2269.27 1384.24 L2161.5 1384.24 L2087.32 1384.24 L2019.6 1384.24 L1953.55 1384.24 L1885.52 1384.24 
  L1816.51 1384.24 L1741.98 1384.24 L1676.89 1384.24 L1605.06 1384.24 L1540.96 1384.24 L1477.68 1384.24 L1409.17 1384.24 L1334.38 1384.24 L1273.12 1384.24 L1200.35 1384.24 
  L1130.36 1384.24 L1056.81 1384.24 L1023.54 1384.24 L990.276 1384.24 L957.207 1384.24 L924.138 1384.24 L893.808 1384.24 L863.477 1384.24 L828.889 1384.24 L794.3 1384.24 
  L774.84 1384.24 L755.38 1384.24 L735.919 1384.24 L716.459 1384.24 L699.662 1384.24 L682.866 1384.24 L666.069 1384.24 L649.273 1384.24 L633.606 1384.24 L617.939 1384.24 
  L602.272 1384.24 L586.605 1384.24 L569.612 1384.24 L552.618 1384.24 L535.624 1384.24 L518.63 1384.24 L502.986 1384.24 L487.342 1384.24 L471.698 1384.24 L456.054 1384.24 
  L446.802 1384.24 L437.551 1384.24 L428.299 1384.24 L419.048 1384.24 L409.796 1384.24 L400.544 1384.24 L391.293 1384.24 L382.041 1384.24 L366.647 1384.24 L351.252 1384.24 
  L343.555 1384.24 L335.858 1384.24 L328.16 1384.24 L320.463 1384.24 L312.766 1384.24 L305.068 1384.24 L297.371 1384.24 L289.674 1384.24 L281.976 1384.24 L274.279 1384.24 
  L266.582 1384.24 L258.885 1384.24 L255.555 1384.24 L252.225 1384.24 L248.895 1384.24 L245.565 1384.24  Z
  " fill="#009af9" fill-rule="evenodd" fill-opacity="1"/>
<polyline clip-path="url(#clip312)" style="stroke:#009af9; stroke-linecap:butt; stroke-linejoin:round; stroke-width:12; stroke-opacity:1; fill:none" points="
  245.565,86.1857 248.895,105.077 252.225,123.724 255.555,142.129 258.885,160.294 266.582,201.385 274.279,241.244 281.976,279.906 289.674,317.4 297.371,353.759 
  305.068,389.012 312.766,423.189 320.463,456.318 328.16,488.429 335.858,519.548 343.555,549.702 351.252,578.918 366.647,634.637 382.041,686.902 391.293,716.729 
  400.544,745.417 409.796,773.003 419.048,799.526 428.299,825.02 437.551,849.522 446.802,873.064 456.054,895.681 471.698,931.908 487.342,965.727 502.986,997.279 
  518.63,1026.7 535.624,1056.39 552.618,1083.87 569.612,1109.28 586.605,1132.76 602.272,1152.81 617.939,1171.43 633.606,1188.7 649.273,1204.72 666.069,1220.59 
  682.866,1235.19 699.662,1248.63 716.459,1260.98 735.919,1274.03 755.38,1285.83 774.84,1296.5 794.3,1306.13 828.889,1320.95 863.477,1333.21 893.808,1342.18 
  924.138,1349.72 957.207,1356.54 990.276,1362.14 1023.54,1366.74 1056.81,1370.46 1130.36,1376.31 1200.35,1379.71 1273.12,1381.8 1334.38,1382.85 1409.17,1383.57 
  1477.68,1383.91 1540.96,1384.08 1605.06,1384.17 1676.89,1384.21 1741.98,1384.23 1816.51,1384.24 1885.52,1384.24 1953.55,1384.24 2019.6,1384.24 2087.32,1384.24 
  2161.5,1384.24 2269.27,1384.24 2291.38,1384.24 
  "/>
<path clip-path="url(#clip310)" d="
M1935.26 196.789 L2280.47 196.789 L2280.47 93.1086 L1935.26 93.1086  Z
  " fill="#ffffff" fill-rule="evenodd" fill-opacity="1"/>
<polyline clip-path="url(#clip310)" style="stroke:#000000; stroke-linecap:butt; stroke-linejoin:round; stroke-width:4; stroke-opacity:1; fill:none" points="
  1935.26,196.789 2280.47,196.789 2280.47,93.1086 1935.26,93.1086 1935.26,196.789 
  "/>
<path clip-path="url(#clip310)" d="
M1959.36 165.685 L2103.93 165.685 L2103.93 124.213 L1959.36 124.213 L1959.36 165.685  Z
  " fill="#009af9" fill-rule="evenodd" fill-opacity="1"/>
<polyline clip-path="url(#clip310)" style="stroke:#009af9; stroke-linecap:butt; stroke-linejoin:round; stroke-width:12; stroke-opacity:1; fill:none" points="
  1959.36,124.213 2103.93,124.213 
  "/>
<path clip-path="url(#clip310)" d="M2132.7 131.511 L2132.7 144.497 L2138.58 144.497 Q2141.84 144.497 2143.62 142.807 Q2145.41 141.118 2145.41 137.993 Q2145.41 134.891 2143.62 133.201 Q2141.84 131.511 2138.58 131.511 L2132.7 131.511 M2128.02 127.669 L2138.58 127.669 Q2144.39 127.669 2147.35 130.307 Q2150.34 132.923 2150.34 137.993 Q2150.34 143.108 2147.35 145.724 Q2144.39 148.34 2138.58 148.34 L2132.7 148.34 L2132.7 162.229 L2128.02 162.229 L2128.02 127.669 Z" fill="#000000" fill-rule="evenodd" fill-opacity="1" /><path clip-path="url(#clip310)" d="M2170.61 140.284 Q2169.9 139.868 2169.04 139.682 Q2168.21 139.474 2167.19 139.474 Q2163.58 139.474 2161.63 141.835 Q2159.71 144.173 2159.71 148.571 L2159.71 162.229 L2155.43 162.229 L2155.43 136.303 L2159.71 136.303 L2159.71 140.331 Q2161.05 137.969 2163.21 136.835 Q2165.36 135.678 2168.44 135.678 Q2168.88 135.678 2169.41 135.747 Q2169.94 135.794 2170.59 135.909 L2170.61 140.284 Z" fill="#000000" fill-rule="evenodd" fill-opacity="1" /><path clip-path="url(#clip310)" d="M2175.08 136.303 L2179.34 136.303 L2179.34 162.229 L2175.08 162.229 L2175.08 136.303 M2175.08 126.21 L2179.34 126.21 L2179.34 131.604 L2175.08 131.604 L2175.08 126.21 Z" fill="#000000" fill-rule="evenodd" fill-opacity="1" /><path clip-path="url(#clip310)" d="M2198.3 139.289 Q2194.87 139.289 2192.88 141.974 Q2190.89 144.636 2190.89 149.289 Q2190.89 153.942 2192.86 156.627 Q2194.85 159.289 2198.3 159.289 Q2201.7 159.289 2203.69 156.604 Q2205.68 153.918 2205.68 149.289 Q2205.68 144.682 2203.69 141.997 Q2201.7 139.289 2198.3 139.289 M2198.3 135.678 Q2203.85 135.678 2207.03 139.289 Q2210.2 142.9 2210.2 149.289 Q2210.2 155.655 2207.03 159.289 Q2203.85 162.9 2198.3 162.9 Q2192.72 162.9 2189.55 159.289 Q2186.4 155.655 2186.4 149.289 Q2186.4 142.9 2189.55 139.289 Q2192.72 135.678 2198.3 135.678 Z" fill="#000000" fill-rule="evenodd" fill-opacity="1" /><path clip-path="url(#clip310)" d="M2232.28 140.284 Q2231.56 139.868 2230.71 139.682 Q2229.87 139.474 2228.85 139.474 Q2225.24 139.474 2223.3 141.835 Q2221.38 144.173 2221.38 148.571 L2221.38 162.229 L2217.09 162.229 L2217.09 136.303 L2221.38 136.303 L2221.38 140.331 Q2222.72 137.969 2224.87 136.835 Q2227.03 135.678 2230.1 135.678 Q2230.54 135.678 2231.08 135.747 Q2231.61 135.794 2232.26 135.909 L2232.28 140.284 Z" fill="#000000" fill-rule="evenodd" fill-opacity="1" /></svg>
