<?xml version="1.0" encoding="utf-8"?>
<svg xmlns="http://www.w3.org/2000/svg" xmlns:xlink="http://www.w3.org/1999/xlink" width="600" height="400" viewBox="0 0 2400 1600">
<defs>
  <clipPath id="clip190">
    <rect x="0" y="0" width="2400" height="1600"/>
  </clipPath>
</defs>
<path clip-path="url(#clip190)" d="
M0 1600 L2400 1600 L2400 0 L0 0  Z
  " fill="#ffffff" fill-rule="evenodd" fill-opacity="1"/>
<defs>
  <clipPath id="clip191">
    <rect x="480" y="0" width="1681" height="1600"/>
  </clipPath>
</defs>
<path clip-path="url(#clip190)" d="
M249.542 1423.18 L2352.76 1423.18 L2352.76 47.2441 L249.542 47.2441  Z
  " fill="#ffffff" fill-rule="evenodd" fill-opacity="1"/>
<defs>
  <clipPath id="clip192">
    <rect x="249" y="47" width="2104" height="1377"/>
  </clipPath>
</defs>
<polyline clip-path="url(#clip192)" style="stroke:#000000; stroke-linecap:butt; stroke-linejoin:round; stroke-width:2; stroke-opacity:0.1; fill:none" points="
  249.542,1423.18 249.542,47.2441 
  "/>
<polyline clip-path="url(#clip192)" style="stroke:#000000; stroke-linecap:butt; stroke-linejoin:round; stroke-width:2; stroke-opacity:0.1; fill:none" points="
  670.185,1423.18 670.185,47.2441 
  "/>
<polyline clip-path="url(#clip192)" style="stroke:#000000; stroke-linecap:butt; stroke-linejoin:round; stroke-width:2; stroke-opacity:0.1; fill:none" points="
  1090.83,1423.18 1090.83,47.2441 
  "/>
<polyline clip-path="url(#clip192)" style="stroke:#000000; stroke-linecap:butt; stroke-linejoin:round; stroke-width:2; stroke-opacity:0.1; fill:none" points="
  1511.47,1423.18 1511.47,47.2441 
  "/>
<polyline clip-path="url(#clip192)" style="stroke:#000000; stroke-linecap:butt; stroke-linejoin:round; stroke-width:2; stroke-opacity:0.1; fill:none" points="
  1932.11,1423.18 1932.11,47.2441 
  "/>
<polyline clip-path="url(#clip192)" style="stroke:#000000; stroke-linecap:butt; stroke-linejoin:round; stroke-width:2; stroke-opacity:0.1; fill:none" points="
  2352.76,1423.18 2352.76,47.2441 
  "/>
<polyline clip-path="url(#clip190)" style="stroke:#000000; stroke-linecap:butt; stroke-linejoin:round; stroke-width:4; stroke-opacity:1; fill:none" points="
  249.542,1423.18 2352.76,1423.18 
  "/>
<polyline clip-path="url(#clip190)" style="stroke:#000000; stroke-linecap:butt; stroke-linejoin:round; stroke-width:4; stroke-opacity:1; fill:none" points="
  249.542,1423.18 249.542,1404.28 
  "/>
<polyline clip-path="url(#clip190)" style="stroke:#000000; stroke-linecap:butt; stroke-linejoin:round; stroke-width:4; stroke-opacity:1; fill:none" points="
  670.185,1423.18 670.185,1404.28 
  "/>
<polyline clip-path="url(#clip190)" style="stroke:#000000; stroke-linecap:butt; stroke-linejoin:round; stroke-width:4; stroke-opacity:1; fill:none" points="
  1090.83,1423.18 1090.83,1404.28 
  "/>
<polyline clip-path="url(#clip190)" style="stroke:#000000; stroke-linecap:butt; stroke-linejoin:round; stroke-width:4; stroke-opacity:1; fill:none" points="
  1511.47,1423.18 1511.47,1404.28 
  "/>
<polyline clip-path="url(#clip190)" style="stroke:#000000; stroke-linecap:butt; stroke-linejoin:round; stroke-width:4; stroke-opacity:1; fill:none" points="
  1932.11,1423.18 1932.11,1404.28 
  "/>
<polyline clip-path="url(#clip190)" style="stroke:#000000; stroke-linecap:butt; stroke-linejoin:round; stroke-width:4; stroke-opacity:1; fill:none" points="
  2352.76,1423.18 2352.76,1404.28 
  "/>
<path clip-path="url(#clip190)" d="M211.845 1454.1 Q208.234 1454.1 206.406 1457.66 Q204.6 1461.2 204.6 1468.33 Q204.6 1475.44 206.406 1479.01 Q208.234 1482.55 211.845 1482.55 Q215.48 1482.55 217.285 1479.01 Q219.114 1475.44 219.114 1468.33 Q219.114 1461.2 217.285 1457.66 Q215.48 1454.1 211.845 1454.1 M211.845 1450.39 Q217.656 1450.39 220.711 1455 Q223.79 1459.58 223.79 1468.33 Q223.79 1477.06 220.711 1481.67 Q217.656 1486.25 211.845 1486.25 Q206.035 1486.25 202.957 1481.67 Q199.901 1477.06 199.901 1468.33 Q199.901 1459.58 202.957 1455 Q206.035 1450.39 211.845 1450.39 Z" fill="#000000" fill-rule="evenodd" fill-opacity="1" /><path clip-path="url(#clip190)" d="M232.007 1479.7 L236.892 1479.7 L236.892 1485.58 L232.007 1485.58 L232.007 1479.7 Z" fill="#000000" fill-rule="evenodd" fill-opacity="1" /><path clip-path="url(#clip190)" d="M257.077 1454.1 Q253.466 1454.1 251.637 1457.66 Q249.831 1461.2 249.831 1468.33 Q249.831 1475.44 251.637 1479.01 Q253.466 1482.55 257.077 1482.55 Q260.711 1482.55 262.517 1479.01 Q264.345 1475.44 264.345 1468.33 Q264.345 1461.2 262.517 1457.66 Q260.711 1454.1 257.077 1454.1 M257.077 1450.39 Q262.887 1450.39 265.942 1455 Q269.021 1459.58 269.021 1468.33 Q269.021 1477.06 265.942 1481.67 Q262.887 1486.25 257.077 1486.25 Q251.267 1486.25 248.188 1481.67 Q245.132 1477.06 245.132 1468.33 Q245.132 1459.58 248.188 1455 Q251.267 1450.39 257.077 1450.39 Z" fill="#000000" fill-rule="evenodd" fill-opacity="1" /><path clip-path="url(#clip190)" d="M287.239 1454.1 Q283.627 1454.1 281.799 1457.66 Q279.993 1461.2 279.993 1468.33 Q279.993 1475.44 281.799 1479.01 Q283.627 1482.55 287.239 1482.55 Q290.873 1482.55 292.678 1479.01 Q294.507 1475.44 294.507 1468.33 Q294.507 1461.2 292.678 1457.66 Q290.873 1454.1 287.239 1454.1 M287.239 1450.39 Q293.049 1450.39 296.104 1455 Q299.183 1459.58 299.183 1468.33 Q299.183 1477.06 296.104 1481.67 Q293.049 1486.25 287.239 1486.25 Q281.428 1486.25 278.35 1481.67 Q275.294 1477.06 275.294 1468.33 Q275.294 1459.58 278.35 1455 Q281.428 1450.39 287.239 1450.39 Z" fill="#000000" fill-rule="evenodd" fill-opacity="1" /><path clip-path="url(#clip190)" d="M633.287 1454.1 Q629.676 1454.1 627.847 1457.66 Q626.042 1461.2 626.042 1468.33 Q626.042 1475.44 627.847 1479.01 Q629.676 1482.55 633.287 1482.55 Q636.921 1482.55 638.727 1479.01 Q640.555 1475.44 640.555 1468.33 Q640.555 1461.2 638.727 1457.66 Q636.921 1454.1 633.287 1454.1 M633.287 1450.39 Q639.097 1450.39 642.153 1455 Q645.231 1459.58 645.231 1468.33 Q645.231 1477.06 642.153 1481.67 Q639.097 1486.25 633.287 1486.25 Q627.477 1486.25 624.398 1481.67 Q621.342 1477.06 621.342 1468.33 Q621.342 1459.58 624.398 1455 Q627.477 1450.39 633.287 1450.39 Z" fill="#000000" fill-rule="evenodd" fill-opacity="1" /><path clip-path="url(#clip190)" d="M653.449 1479.7 L658.333 1479.7 L658.333 1485.58 L653.449 1485.58 L653.449 1479.7 Z" fill="#000000" fill-rule="evenodd" fill-opacity="1" /><path clip-path="url(#clip190)" d="M678.518 1454.1 Q674.907 1454.1 673.078 1457.66 Q671.273 1461.2 671.273 1468.33 Q671.273 1475.44 673.078 1479.01 Q674.907 1482.55 678.518 1482.55 Q682.152 1482.55 683.958 1479.01 Q685.787 1475.44 685.787 1468.33 Q685.787 1461.2 683.958 1457.66 Q682.152 1454.1 678.518 1454.1 M678.518 1450.39 Q684.328 1450.39 687.384 1455 Q690.462 1459.58 690.462 1468.33 Q690.462 1477.06 687.384 1481.67 Q684.328 1486.25 678.518 1486.25 Q672.708 1486.25 669.629 1481.67 Q666.574 1477.06 666.574 1468.33 Q666.574 1459.58 669.629 1455 Q672.708 1450.39 678.518 1450.39 Z" fill="#000000" fill-rule="evenodd" fill-opacity="1" /><path clip-path="url(#clip190)" d="M702.708 1481.64 L719.027 1481.64 L719.027 1485.58 L697.083 1485.58 L697.083 1481.64 Q699.745 1478.89 704.328 1474.26 Q708.935 1469.61 710.115 1468.27 Q712.361 1465.74 713.24 1464.01 Q714.143 1462.25 714.143 1460.56 Q714.143 1457.8 712.198 1456.07 Q710.277 1454.33 707.175 1454.33 Q704.976 1454.33 702.523 1455.09 Q700.092 1455.86 697.314 1457.41 L697.314 1452.69 Q700.138 1451.55 702.592 1450.97 Q705.046 1450.39 707.083 1450.39 Q712.453 1450.39 715.648 1453.08 Q718.842 1455.77 718.842 1460.26 Q718.842 1462.39 718.032 1464.31 Q717.245 1466.2 715.138 1468.8 Q714.56 1469.47 711.458 1472.69 Q708.356 1475.88 702.708 1481.64 Z" fill="#000000" fill-rule="evenodd" fill-opacity="1" /><path clip-path="url(#clip190)" d="M1052.89 1454.1 Q1049.28 1454.1 1047.45 1457.66 Q1045.64 1461.2 1045.64 1468.33 Q1045.64 1475.44 1047.45 1479.01 Q1049.28 1482.55 1052.89 1482.55 Q1056.52 1482.55 1058.33 1479.01 Q1060.16 1475.44 1060.16 1468.33 Q1060.16 1461.2 1058.33 1457.66 Q1056.52 1454.1 1052.89 1454.1 M1052.89 1450.39 Q1058.7 1450.39 1061.75 1455 Q1064.83 1459.58 1064.83 1468.33 Q1064.83 1477.06 1061.75 1481.67 Q1058.7 1486.25 1052.89 1486.25 Q1047.08 1486.25 1044 1481.67 Q1040.94 1477.06 1040.94 1468.33 Q1040.94 1459.58 1044 1455 Q1047.08 1450.39 1052.89 1450.39 Z" fill="#000000" fill-rule="evenodd" fill-opacity="1" /><path clip-path="url(#clip190)" d="M1073.05 1479.7 L1077.93 1479.7 L1077.93 1485.58 L1073.05 1485.58 L1073.05 1479.7 Z" fill="#000000" fill-rule="evenodd" fill-opacity="1" /><path clip-path="url(#clip190)" d="M1098.12 1454.1 Q1094.51 1454.1 1092.68 1457.66 Q1090.87 1461.2 1090.87 1468.33 Q1090.87 1475.44 1092.68 1479.01 Q1094.51 1482.55 1098.12 1482.55 Q1101.75 1482.55 1103.56 1479.01 Q1105.39 1475.44 1105.39 1468.33 Q1105.39 1461.2 1103.56 1457.66 Q1101.75 1454.1 1098.12 1454.1 M1098.12 1450.39 Q1103.93 1450.39 1106.98 1455 Q1110.06 1459.58 1110.06 1468.33 Q1110.06 1477.06 1106.98 1481.67 Q1103.93 1486.25 1098.12 1486.25 Q1092.31 1486.25 1089.23 1481.67 Q1086.17 1477.06 1086.17 1468.33 Q1086.17 1459.58 1089.23 1455 Q1092.31 1450.39 1098.12 1450.39 Z" fill="#000000" fill-rule="evenodd" fill-opacity="1" /><path clip-path="url(#clip190)" d="M1131.13 1455.09 L1119.32 1473.54 L1131.13 1473.54 L1131.13 1455.09 M1129.9 1451.02 L1135.78 1451.02 L1135.78 1473.54 L1140.71 1473.54 L1140.71 1477.43 L1135.78 1477.43 L1135.78 1485.58 L1131.13 1485.58 L1131.13 1477.43 L1115.53 1477.43 L1115.53 1472.92 L1129.9 1451.02 Z" fill="#000000" fill-rule="evenodd" fill-opacity="1" /><path clip-path="url(#clip190)" d="M1473.69 1454.1 Q1470.08 1454.1 1468.25 1457.66 Q1466.45 1461.2 1466.45 1468.33 Q1466.45 1475.44 1468.25 1479.01 Q1470.08 1482.55 1473.69 1482.55 Q1477.33 1482.55 1479.13 1479.01 Q1480.96 1475.44 1480.96 1468.33 Q1480.96 1461.2 1479.13 1457.66 Q1477.33 1454.1 1473.69 1454.1 M1473.69 1450.39 Q1479.5 1450.39 1482.56 1455 Q1485.64 1459.58 1485.64 1468.33 Q1485.64 1477.06 1482.56 1481.67 Q1479.5 1486.25 1473.69 1486.25 Q1467.88 1486.25 1464.8 1481.67 Q1461.75 1477.06 1461.75 1468.33 Q1461.75 1459.58 1464.8 1455 Q1467.88 1450.39 1473.69 1450.39 Z" fill="#000000" fill-rule="evenodd" fill-opacity="1" /><path clip-path="url(#clip190)" d="M1493.85 1479.7 L1498.74 1479.7 L1498.74 1485.58 L1493.85 1485.58 L1493.85 1479.7 Z" fill="#000000" fill-rule="evenodd" fill-opacity="1" /><path clip-path="url(#clip190)" d="M1518.92 1454.1 Q1515.31 1454.1 1513.48 1457.66 Q1511.68 1461.2 1511.68 1468.33 Q1511.68 1475.44 1513.48 1479.01 Q1515.31 1482.55 1518.92 1482.55 Q1522.56 1482.55 1524.36 1479.01 Q1526.19 1475.44 1526.19 1468.33 Q1526.19 1461.2 1524.36 1457.66 Q1522.56 1454.1 1518.92 1454.1 M1518.92 1450.39 Q1524.73 1450.39 1527.79 1455 Q1530.87 1459.58 1530.87 1468.33 Q1530.87 1477.06 1527.79 1481.67 Q1524.73 1486.25 1518.92 1486.25 Q1513.11 1486.25 1510.04 1481.67 Q1506.98 1477.06 1506.98 1468.33 Q1506.98 1459.58 1510.04 1455 Q1513.11 1450.39 1518.92 1450.39 Z" fill="#000000" fill-rule="evenodd" fill-opacity="1" /><path clip-path="url(#clip190)" d="M1549.66 1466.44 Q1546.52 1466.44 1544.66 1468.59 Q1542.84 1470.74 1542.84 1474.49 Q1542.84 1478.22 1544.66 1480.39 Q1546.52 1482.55 1549.66 1482.55 Q1552.81 1482.55 1554.64 1480.39 Q1556.49 1478.22 1556.49 1474.49 Q1556.49 1470.74 1554.64 1468.59 Q1552.81 1466.44 1549.66 1466.44 M1558.95 1451.78 L1558.95 1456.04 Q1557.19 1455.21 1555.38 1454.77 Q1553.6 1454.33 1551.84 1454.33 Q1547.21 1454.33 1544.76 1457.45 Q1542.33 1460.58 1541.98 1466.9 Q1543.35 1464.89 1545.41 1463.82 Q1547.47 1462.73 1549.94 1462.73 Q1555.15 1462.73 1558.16 1465.9 Q1561.19 1469.05 1561.19 1474.49 Q1561.19 1479.82 1558.04 1483.03 Q1554.9 1486.25 1549.66 1486.25 Q1543.67 1486.25 1540.5 1481.67 Q1537.33 1477.06 1537.33 1468.33 Q1537.33 1460.14 1541.22 1455.28 Q1545.1 1450.39 1551.66 1450.39 Q1553.41 1450.39 1555.2 1450.74 Q1557 1451.09 1558.95 1451.78 Z" fill="#000000" fill-rule="evenodd" fill-opacity="1" /><path clip-path="url(#clip190)" d="M1894.46 1454.1 Q1890.85 1454.1 1889.02 1457.66 Q1887.22 1461.2 1887.22 1468.33 Q1887.22 1475.44 1889.02 1479.01 Q1890.85 1482.55 1894.46 1482.55 Q1898.1 1482.55 1899.9 1479.01 Q1901.73 1475.44 1901.73 1468.33 Q1901.73 1461.2 1899.9 1457.66 Q1898.1 1454.1 1894.46 1454.1 M1894.46 1450.39 Q1900.27 1450.39 1903.33 1455 Q1906.41 1459.58 1906.41 1468.33 Q1906.41 1477.06 1903.33 1481.67 Q1900.27 1486.25 1894.46 1486.25 Q1888.65 1486.25 1885.57 1481.67 Q1882.52 1477.06 1882.52 1468.33 Q1882.52 1459.58 1885.57 1455 Q1888.65 1450.39 1894.46 1450.39 Z" fill="#000000" fill-rule="evenodd" fill-opacity="1" /><path clip-path="url(#clip190)" d="M1914.62 1479.7 L1919.51 1479.7 L1919.51 1485.58 L1914.62 1485.58 L1914.62 1479.7 Z" fill="#000000" fill-rule="evenodd" fill-opacity="1" /><path clip-path="url(#clip190)" d="M1939.69 1454.1 Q1936.08 1454.1 1934.25 1457.66 Q1932.45 1461.2 1932.45 1468.33 Q1932.45 1475.44 1934.25 1479.01 Q1936.08 1482.55 1939.69 1482.55 Q1943.33 1482.55 1945.13 1479.01 Q1946.96 1475.44 1946.96 1468.33 Q1946.96 1461.2 1945.13 1457.66 Q1943.33 1454.1 1939.69 1454.1 M1939.69 1450.39 Q1945.5 1450.39 1948.56 1455 Q1951.64 1459.58 1951.64 1468.33 Q1951.64 1477.06 1948.56 1481.67 Q1945.5 1486.25 1939.69 1486.25 Q1933.88 1486.25 1930.81 1481.67 Q1927.75 1477.06 1927.75 1468.33 Q1927.75 1459.58 1930.81 1455 Q1933.88 1450.39 1939.69 1450.39 Z" fill="#000000" fill-rule="evenodd" fill-opacity="1" /><path clip-path="url(#clip190)" d="M1969.86 1469.17 Q1966.52 1469.17 1964.6 1470.95 Q1962.7 1472.73 1962.7 1475.86 Q1962.7 1478.98 1964.6 1480.77 Q1966.52 1482.55 1969.86 1482.55 Q1973.19 1482.55 1975.11 1480.77 Q1977.03 1478.96 1977.03 1475.86 Q1977.03 1472.73 1975.11 1470.95 Q1973.21 1469.17 1969.86 1469.17 M1965.18 1467.18 Q1962.17 1466.44 1960.48 1464.38 Q1958.81 1462.32 1958.81 1459.35 Q1958.81 1455.21 1961.75 1452.8 Q1964.72 1450.39 1969.86 1450.39 Q1975.02 1450.39 1977.96 1452.8 Q1980.9 1455.21 1980.9 1459.35 Q1980.9 1462.32 1979.21 1464.38 Q1977.54 1466.44 1974.56 1467.18 Q1977.93 1467.96 1979.81 1470.26 Q1981.71 1472.55 1981.71 1475.86 Q1981.71 1480.88 1978.63 1483.57 Q1975.57 1486.25 1969.86 1486.25 Q1964.14 1486.25 1961.06 1483.57 Q1958 1480.88 1958 1475.86 Q1958 1472.55 1959.9 1470.26 Q1961.8 1467.96 1965.18 1467.18 M1963.47 1459.79 Q1963.47 1462.48 1965.13 1463.98 Q1966.82 1465.49 1969.86 1465.49 Q1972.87 1465.49 1974.56 1463.98 Q1976.27 1462.48 1976.27 1459.79 Q1976.27 1457.11 1974.56 1455.6 Q1972.87 1454.1 1969.86 1454.1 Q1966.82 1454.1 1965.13 1455.6 Q1963.47 1457.11 1963.47 1459.79 Z" fill="#000000" fill-rule="evenodd" fill-opacity="1" /><path clip-path="url(#clip190)" d="M2315.06 1454.1 Q2311.45 1454.1 2309.62 1457.66 Q2307.81 1461.2 2307.81 1468.33 Q2307.81 1475.44 2309.62 1479.01 Q2311.45 1482.55 2315.06 1482.55 Q2318.69 1482.55 2320.5 1479.01 Q2322.33 1475.44 2322.33 1468.33 Q2322.33 1461.2 2320.5 1457.66 Q2318.69 1454.1 2315.06 1454.1 M2315.06 1450.39 Q2320.87 1450.39 2323.93 1455 Q2327 1459.58 2327 1468.33 Q2327 1477.06 2323.93 1481.67 Q2320.87 1486.25 2315.06 1486.25 Q2309.25 1486.25 2306.17 1481.67 Q2303.11 1477.06 2303.11 1468.33 Q2303.11 1459.58 2306.17 1455 Q2309.25 1450.39 2315.06 1450.39 Z" fill="#000000" fill-rule="evenodd" fill-opacity="1" /><path clip-path="url(#clip190)" d="M2335.22 1479.7 L2340.11 1479.7 L2340.11 1485.58 L2335.22 1485.58 L2335.22 1479.7 Z" fill="#000000" fill-rule="evenodd" fill-opacity="1" /><path clip-path="url(#clip190)" d="M2351.1 1481.64 L2358.74 1481.64 L2358.74 1455.28 L2350.43 1456.95 L2350.43 1452.69 L2358.69 1451.02 L2363.37 1451.02 L2363.37 1481.64 L2371.01 1481.64 L2371.01 1485.58 L2351.1 1485.58 L2351.1 1481.64 Z" fill="#000000" fill-rule="evenodd" fill-opacity="1" /><path clip-path="url(#clip190)" d="M2390.45 1454.1 Q2386.84 1454.1 2385.01 1457.66 Q2383.21 1461.2 2383.21 1468.33 Q2383.21 1475.44 2385.01 1479.01 Q2386.84 1482.55 2390.45 1482.55 Q2394.09 1482.55 2395.89 1479.01 Q2397.72 1475.44 2397.72 1468.33 Q2397.72 1461.2 2395.89 1457.66 Q2394.09 1454.1 2390.45 1454.1 M2390.45 1450.39 Q2396.26 1450.39 2399.32 1455 Q2402.4 1459.58 2402.4 1468.33 Q2402.4 1477.06 2399.32 1481.67 Q2396.26 1486.25 2390.45 1486.25 Q2384.64 1486.25 2381.56 1481.67 Q2378.51 1477.06 2378.51 1468.33 Q2378.51 1459.58 2381.56 1455 Q2384.64 1450.39 2390.45 1450.39 Z" fill="#000000" fill-rule="evenodd" fill-opacity="1" /><path clip-path="url(#clip190)" d="M1149.9 1532.4 L1155.76 1532.4 L1155.76 1568.04 L1149.9 1568.04 L1149.9 1532.4 M1149.9 1518.52 L1155.76 1518.52 L1155.76 1525.93 L1149.9 1525.93 L1149.9 1518.52 Z" fill="#000000" fill-rule="evenodd" fill-opacity="1" /><path clip-path="url(#clip190)" d="M1197.64 1546.53 L1197.64 1568.04 L1191.79 1568.04 L1191.79 1546.72 Q1191.79 1541.66 1189.81 1539.14 Q1187.84 1536.63 1183.89 1536.63 Q1179.15 1536.63 1176.41 1539.65 Q1173.68 1542.68 1173.68 1547.9 L1173.68 1568.04 L1167.79 1568.04 L1167.79 1532.4 L1173.68 1532.4 L1173.68 1537.93 Q1175.78 1534.72 1178.61 1533.13 Q1181.47 1531.54 1185.2 1531.54 Q1191.34 1531.54 1194.49 1535.36 Q1197.64 1539.14 1197.64 1546.53 Z" fill="#000000" fill-rule="evenodd" fill-opacity="1" /><path clip-path="url(#clip190)" d="M1234.98 1533.76 L1234.98 1539.24 Q1232.49 1537.87 1229.98 1537.2 Q1227.5 1536.5 1224.95 1536.5 Q1219.25 1536.5 1216.1 1540.13 Q1212.95 1543.73 1212.95 1550.25 Q1212.95 1556.78 1216.1 1560.4 Q1219.25 1564 1224.95 1564 Q1227.5 1564 1229.98 1563.33 Q1232.49 1562.63 1234.98 1561.26 L1234.98 1566.68 Q1232.53 1567.82 1229.88 1568.39 Q1227.27 1568.97 1224.31 1568.97 Q1216.26 1568.97 1211.52 1563.91 Q1206.78 1558.85 1206.78 1550.25 Q1206.78 1541.53 1211.55 1536.53 Q1216.36 1531.54 1224.7 1531.54 Q1227.4 1531.54 1229.98 1532.11 Q1232.56 1532.65 1234.98 1533.76 Z" fill="#000000" fill-rule="evenodd" fill-opacity="1" /><path clip-path="url(#clip190)" d="M1245.16 1532.4 L1251.02 1532.4 L1251.02 1568.04 L1245.16 1568.04 L1245.16 1532.4 M1245.16 1518.52 L1251.02 1518.52 L1251.02 1525.93 L1245.16 1525.93 L1245.16 1518.52 Z" fill="#000000" fill-rule="evenodd" fill-opacity="1" /><path clip-path="url(#clip190)" d="M1286.73 1537.81 L1286.73 1518.52 L1292.59 1518.52 L1292.59 1568.04 L1286.73 1568.04 L1286.73 1562.7 Q1284.88 1565.88 1282.05 1567.44 Q1279.25 1568.97 1275.3 1568.97 Q1268.84 1568.97 1264.77 1563.81 Q1260.73 1558.65 1260.73 1550.25 Q1260.73 1541.85 1264.77 1536.69 Q1268.84 1531.54 1275.3 1531.54 Q1279.25 1531.54 1282.05 1533.1 Q1284.88 1534.62 1286.73 1537.81 M1266.77 1550.25 Q1266.77 1556.71 1269.42 1560.4 Q1272.09 1564.07 1276.74 1564.07 Q1281.38 1564.07 1284.06 1560.4 Q1286.73 1556.71 1286.73 1550.25 Q1286.73 1543.79 1284.06 1540.13 Q1281.38 1536.44 1276.74 1536.44 Q1272.09 1536.44 1269.42 1540.13 Q1266.77 1543.79 1266.77 1550.25 Z" fill="#000000" fill-rule="evenodd" fill-opacity="1" /><path clip-path="url(#clip190)" d="M1335.14 1548.76 L1335.14 1551.62 L1308.21 1551.62 Q1308.6 1557.67 1311.84 1560.85 Q1315.12 1564 1320.95 1564 Q1324.32 1564 1327.47 1563.17 Q1330.65 1562.35 1333.77 1560.69 L1333.77 1566.23 Q1330.62 1567.57 1327.31 1568.27 Q1324 1568.97 1320.6 1568.97 Q1312.07 1568.97 1307.07 1564 Q1302.1 1559.04 1302.1 1550.57 Q1302.1 1541.82 1306.81 1536.69 Q1311.56 1531.54 1319.58 1531.54 Q1326.77 1531.54 1330.94 1536.18 Q1335.14 1540.8 1335.14 1548.76 M1329.29 1547.04 Q1329.22 1542.23 1326.58 1539.37 Q1323.97 1536.5 1319.64 1536.5 Q1314.74 1536.5 1311.78 1539.27 Q1308.85 1542.04 1308.41 1547.07 L1329.29 1547.04 Z" fill="#000000" fill-rule="evenodd" fill-opacity="1" /><path clip-path="url(#clip190)" d="M1374.39 1546.53 L1374.39 1568.04 L1368.53 1568.04 L1368.53 1546.72 Q1368.53 1541.66 1366.56 1539.14 Q1364.58 1536.63 1360.64 1536.63 Q1355.89 1536.63 1353.16 1539.65 Q1350.42 1542.68 1350.42 1547.9 L1350.42 1568.04 L1344.53 1568.04 L1344.53 1532.4 L1350.42 1532.4 L1350.42 1537.93 Q1352.52 1534.72 1355.35 1533.13 Q1358.22 1531.54 1361.94 1531.54 Q1368.08 1531.54 1371.24 1535.36 Q1374.39 1539.14 1374.39 1546.53 Z" fill="#000000" fill-rule="evenodd" fill-opacity="1" /><path clip-path="url(#clip190)" d="M1411.72 1533.76 L1411.72 1539.24 Q1409.24 1537.87 1406.72 1537.2 Q1404.24 1536.5 1401.7 1536.5 Q1396 1536.5 1392.85 1540.13 Q1389.7 1543.73 1389.7 1550.25 Q1389.7 1556.78 1392.85 1560.4 Q1396 1564 1401.7 1564 Q1404.24 1564 1406.72 1563.33 Q1409.24 1562.63 1411.72 1561.26 L1411.72 1566.68 Q1409.27 1567.82 1406.63 1568.39 Q1404.02 1568.97 1401.06 1568.97 Q1393.01 1568.97 1388.26 1563.91 Q1383.52 1558.85 1383.52 1550.25 Q1383.52 1541.53 1388.3 1536.53 Q1393.1 1531.54 1401.44 1531.54 Q1404.15 1531.54 1406.72 1532.11 Q1409.3 1532.65 1411.72 1533.76 Z" fill="#000000" fill-rule="evenodd" fill-opacity="1" /><path clip-path="url(#clip190)" d="M1452.4 1548.76 L1452.4 1551.62 L1425.47 1551.62 Q1425.85 1557.67 1429.1 1560.85 Q1432.38 1564 1438.2 1564 Q1441.58 1564 1444.73 1563.17 Q1447.91 1562.35 1451.03 1560.69 L1451.03 1566.23 Q1447.88 1567.57 1444.57 1568.27 Q1441.26 1568.97 1437.85 1568.97 Q1429.32 1568.97 1424.33 1564 Q1419.36 1559.04 1419.36 1550.57 Q1419.36 1541.82 1424.07 1536.69 Q1428.81 1531.54 1436.83 1531.54 Q1444.03 1531.54 1448.2 1536.18 Q1452.4 1540.8 1452.4 1548.76 M1446.54 1547.04 Q1446.48 1542.23 1443.84 1539.37 Q1441.23 1536.5 1436.9 1536.5 Q1432 1536.5 1429.04 1539.27 Q1426.11 1542.04 1425.66 1547.07 L1446.54 1547.04 Z" fill="#000000" fill-rule="evenodd" fill-opacity="1" /><polyline clip-path="url(#clip192)" style="stroke:#000000; stroke-linecap:butt; stroke-linejoin:round; stroke-width:2; stroke-opacity:0.1; fill:none" points="
  249.542,1384.24 2352.76,1384.24 
  "/>
<polyline clip-path="url(#clip192)" style="stroke:#000000; stroke-linecap:butt; stroke-linejoin:round; stroke-width:2; stroke-opacity:0.1; fill:none" points="
  249.542,1059.73 2352.76,1059.73 
  "/>
<polyline clip-path="url(#clip192)" style="stroke:#000000; stroke-linecap:butt; stroke-linejoin:round; stroke-width:2; stroke-opacity:0.1; fill:none" points="
  249.542,735.212 2352.76,735.212 
  "/>
<polyline clip-path="url(#clip192)" style="stroke:#000000; stroke-linecap:butt; stroke-linejoin:round; stroke-width:2; stroke-opacity:0.1; fill:none" points="
  249.542,410.699 2352.76,410.699 
  "/>
<polyline clip-path="url(#clip192)" style="stroke:#000000; stroke-linecap:butt; stroke-linejoin:round; stroke-width:2; stroke-opacity:0.1; fill:none" points="
  249.542,86.1857 2352.76,86.1857 
  "/>
<polyline clip-path="url(#clip190)" style="stroke:#000000; stroke-linecap:butt; stroke-linejoin:round; stroke-width:4; stroke-opacity:1; fill:none" points="
  249.542,1423.18 249.542,47.2441 
  "/>
<polyline clip-path="url(#clip190)" style="stroke:#000000; stroke-linecap:butt; stroke-linejoin:round; stroke-width:4; stroke-opacity:1; fill:none" points="
  249.542,1384.24 268.44,1384.24 
  "/>
<polyline clip-path="url(#clip190)" style="stroke:#000000; stroke-linecap:butt; stroke-linejoin:round; stroke-width:4; stroke-opacity:1; fill:none" points="
  249.542,1059.73 268.44,1059.73 
  "/>
<polyline clip-path="url(#clip190)" style="stroke:#000000; stroke-linecap:butt; stroke-linejoin:round; stroke-width:4; stroke-opacity:1; fill:none" points="
  249.542,735.212 268.44,735.212 
  "/>
<polyline clip-path="url(#clip190)" style="stroke:#000000; stroke-linecap:butt; stroke-linejoin:round; stroke-width:4; stroke-opacity:1; fill:none" points="
  249.542,410.699 268.44,410.699 
  "/>
<polyline clip-path="url(#clip190)" style="stroke:#000000; stroke-linecap:butt; stroke-linejoin:round; stroke-width:4; stroke-opacity:1; fill:none" points="
  249.542,86.1857 268.44,86.1857 
  "/>
<path clip-path="url(#clip190)" d="M126.205 1370.04 Q122.593 1370.04 120.765 1373.6 Q118.959 1377.14 118.959 1384.27 Q118.959 1391.38 120.765 1394.94 Q122.593 1398.49 126.205 1398.49 Q129.839 1398.49 131.644 1394.94 Q133.473 1391.38 133.473 1384.27 Q133.473 1377.14 131.644 1373.6 Q129.839 1370.04 126.205 1370.04 M126.205 1366.33 Q132.015 1366.33 135.07 1370.94 Q138.149 1375.52 138.149 1384.27 Q138.149 1393 135.07 1397.61 Q132.015 1402.19 126.205 1402.19 Q120.394 1402.19 117.316 1397.61 Q114.26 1393 114.26 1384.27 Q114.26 1375.52 117.316 1370.94 Q120.394 1366.33 126.205 1366.33 Z" fill="#000000" fill-rule="evenodd" fill-opacity="1" /><path clip-path="url(#clip190)" d="M146.366 1395.64 L151.251 1395.64 L151.251 1401.52 L146.366 1401.52 L146.366 1395.64 Z" fill="#000000" fill-rule="evenodd" fill-opacity="1" /><path clip-path="url(#clip190)" d="M171.436 1370.04 Q167.825 1370.04 165.996 1373.6 Q164.19 1377.14 164.19 1384.27 Q164.19 1391.38 165.996 1394.94 Q167.825 1398.49 171.436 1398.49 Q175.07 1398.49 176.876 1394.94 Q178.704 1391.38 178.704 1384.27 Q178.704 1377.14 176.876 1373.6 Q175.07 1370.04 171.436 1370.04 M171.436 1366.33 Q177.246 1366.33 180.301 1370.94 Q183.38 1375.52 183.38 1384.27 Q183.38 1393 180.301 1397.61 Q177.246 1402.19 171.436 1402.19 Q165.626 1402.19 162.547 1397.61 Q159.491 1393 159.491 1384.27 Q159.491 1375.52 162.547 1370.94 Q165.626 1366.33 171.436 1366.33 Z" fill="#000000" fill-rule="evenodd" fill-opacity="1" /><path clip-path="url(#clip190)" d="M201.598 1370.04 Q197.987 1370.04 196.158 1373.6 Q194.352 1377.14 194.352 1384.27 Q194.352 1391.38 196.158 1394.94 Q197.987 1398.49 201.598 1398.49 Q205.232 1398.49 207.037 1394.94 Q208.866 1391.38 208.866 1384.27 Q208.866 1377.14 207.037 1373.6 Q205.232 1370.04 201.598 1370.04 M201.598 1366.33 Q207.408 1366.33 210.463 1370.94 Q213.542 1375.52 213.542 1384.27 Q213.542 1393 210.463 1397.61 Q207.408 1402.19 201.598 1402.19 Q195.787 1402.19 192.709 1397.61 Q189.653 1393 189.653 1384.27 Q189.653 1375.52 192.709 1370.94 Q195.787 1366.33 201.598 1366.33 Z" fill="#000000" fill-rule="evenodd" fill-opacity="1" /><path clip-path="url(#clip190)" d="M127.2 1045.52 Q123.589 1045.52 121.76 1049.09 Q119.955 1052.63 119.955 1059.76 Q119.955 1066.87 121.76 1070.43 Q123.589 1073.97 127.2 1073.97 Q130.834 1073.97 132.64 1070.43 Q134.468 1066.87 134.468 1059.76 Q134.468 1052.63 132.64 1049.09 Q130.834 1045.52 127.2 1045.52 M127.2 1041.82 Q133.01 1041.82 136.066 1046.43 Q139.144 1051.01 139.144 1059.76 Q139.144 1068.49 136.066 1073.09 Q133.01 1077.68 127.2 1077.68 Q121.39 1077.68 118.311 1073.09 Q115.256 1068.49 115.256 1059.76 Q115.256 1051.01 118.311 1046.43 Q121.39 1041.82 127.2 1041.82 Z" fill="#000000" fill-rule="evenodd" fill-opacity="1" /><path clip-path="url(#clip190)" d="M147.362 1071.13 L152.246 1071.13 L152.246 1077.01 L147.362 1077.01 L147.362 1071.13 Z" fill="#000000" fill-rule="evenodd" fill-opacity="1" /><path clip-path="url(#clip190)" d="M166.459 1073.07 L182.778 1073.07 L182.778 1077.01 L160.834 1077.01 L160.834 1073.07 Q163.496 1070.32 168.079 1065.69 Q172.686 1061.03 173.866 1059.69 Q176.112 1057.17 176.991 1055.43 Q177.894 1053.67 177.894 1051.98 Q177.894 1049.23 175.95 1047.49 Q174.028 1045.76 170.927 1045.76 Q168.727 1045.76 166.274 1046.52 Q163.843 1047.28 161.065 1048.83 L161.065 1044.11 Q163.89 1042.98 166.343 1042.4 Q168.797 1041.82 170.834 1041.82 Q176.204 1041.82 179.399 1044.51 Q182.593 1047.19 182.593 1051.68 Q182.593 1053.81 181.783 1055.73 Q180.996 1057.63 178.889 1060.22 Q178.311 1060.89 175.209 1064.11 Q172.107 1067.31 166.459 1073.07 Z" fill="#000000" fill-rule="evenodd" fill-opacity="1" /><path clip-path="url(#clip190)" d="M192.639 1042.45 L210.996 1042.45 L210.996 1046.38 L196.922 1046.38 L196.922 1054.85 Q197.94 1054.51 198.959 1054.34 Q199.977 1054.16 200.996 1054.16 Q206.783 1054.16 210.162 1057.33 Q213.542 1060.5 213.542 1065.92 Q213.542 1071.5 210.07 1074.6 Q206.598 1077.68 200.278 1077.68 Q198.102 1077.68 195.834 1077.31 Q193.588 1076.94 191.181 1076.19 L191.181 1071.5 Q193.264 1072.63 195.487 1073.19 Q197.709 1073.74 200.186 1073.74 Q204.19 1073.74 206.528 1071.63 Q208.866 1069.53 208.866 1065.92 Q208.866 1062.31 206.528 1060.2 Q204.19 1058.09 200.186 1058.09 Q198.311 1058.09 196.436 1058.51 Q194.584 1058.93 192.639 1059.81 L192.639 1042.45 Z" fill="#000000" fill-rule="evenodd" fill-opacity="1" /><path clip-path="url(#clip190)" d="M126.205 721.011 Q122.593 721.011 120.765 724.575 Q118.959 728.117 118.959 735.247 Q118.959 742.353 120.765 745.918 Q122.593 749.46 126.205 749.46 Q129.839 749.46 131.644 745.918 Q133.473 742.353 133.473 735.247 Q133.473 728.117 131.644 724.575 Q129.839 721.011 126.205 721.011 M126.205 717.307 Q132.015 717.307 135.07 721.913 Q138.149 726.497 138.149 735.247 Q138.149 743.973 135.07 748.58 Q132.015 753.163 126.205 753.163 Q120.394 753.163 117.316 748.58 Q114.26 743.973 114.26 735.247 Q114.26 726.497 117.316 721.913 Q120.394 717.307 126.205 717.307 Z" fill="#000000" fill-rule="evenodd" fill-opacity="1" /><path clip-path="url(#clip190)" d="M146.366 746.612 L151.251 746.612 L151.251 752.492 L146.366 752.492 L146.366 746.612 Z" fill="#000000" fill-rule="evenodd" fill-opacity="1" /><path clip-path="url(#clip190)" d="M161.482 717.932 L179.839 717.932 L179.839 721.867 L165.765 721.867 L165.765 730.339 Q166.783 729.992 167.802 729.83 Q168.82 729.645 169.839 729.645 Q175.626 729.645 179.005 732.816 Q182.385 735.987 182.385 741.404 Q182.385 746.983 178.913 750.085 Q175.44 753.163 169.121 753.163 Q166.945 753.163 164.677 752.793 Q162.431 752.423 160.024 751.682 L160.024 746.983 Q162.107 748.117 164.329 748.673 Q166.552 749.228 169.028 749.228 Q173.033 749.228 175.371 747.122 Q177.709 745.015 177.709 741.404 Q177.709 737.793 175.371 735.687 Q173.033 733.58 169.028 733.58 Q167.153 733.58 165.278 733.997 Q163.427 734.413 161.482 735.293 L161.482 717.932 Z" fill="#000000" fill-rule="evenodd" fill-opacity="1" /><path clip-path="url(#clip190)" d="M201.598 721.011 Q197.987 721.011 196.158 724.575 Q194.352 728.117 194.352 735.247 Q194.352 742.353 196.158 745.918 Q197.987 749.46 201.598 749.46 Q205.232 749.46 207.037 745.918 Q208.866 742.353 208.866 735.247 Q208.866 728.117 207.037 724.575 Q205.232 721.011 201.598 721.011 M201.598 717.307 Q207.408 717.307 210.463 721.913 Q213.542 726.497 213.542 735.247 Q213.542 743.973 210.463 748.58 Q207.408 753.163 201.598 753.163 Q195.787 753.163 192.709 748.58 Q189.653 743.973 189.653 735.247 Q189.653 726.497 192.709 721.913 Q195.787 717.307 201.598 717.307 Z" fill="#000000" fill-rule="evenodd" fill-opacity="1" /><path clip-path="url(#clip190)" d="M127.2 396.498 Q123.589 396.498 121.76 400.062 Q119.955 403.604 119.955 410.734 Q119.955 417.84 121.76 421.405 Q123.589 424.946 127.2 424.946 Q130.834 424.946 132.64 421.405 Q134.468 417.84 134.468 410.734 Q134.468 403.604 132.64 400.062 Q130.834 396.498 127.2 396.498 M127.2 392.794 Q133.01 392.794 136.066 397.4 Q139.144 401.984 139.144 410.734 Q139.144 419.46 136.066 424.067 Q133.01 428.65 127.2 428.65 Q121.39 428.65 118.311 424.067 Q115.256 419.46 115.256 410.734 Q115.256 401.984 118.311 397.4 Q121.39 392.794 127.2 392.794 Z" fill="#000000" fill-rule="evenodd" fill-opacity="1" /><path clip-path="url(#clip190)" d="M147.362 422.099 L152.246 422.099 L152.246 427.979 L147.362 427.979 L147.362 422.099 Z" fill="#000000" fill-rule="evenodd" fill-opacity="1" /><path clip-path="url(#clip190)" d="M161.251 393.419 L183.473 393.419 L183.473 395.41 L170.927 427.979 L166.042 427.979 L177.848 397.354 L161.251 397.354 L161.251 393.419 Z" fill="#000000" fill-rule="evenodd" fill-opacity="1" /><path clip-path="url(#clip190)" d="M192.639 393.419 L210.996 393.419 L210.996 397.354 L196.922 397.354 L196.922 405.826 Q197.94 405.479 198.959 405.317 Q199.977 405.132 200.996 405.132 Q206.783 405.132 210.162 408.303 Q213.542 411.474 213.542 416.891 Q213.542 422.47 210.07 425.571 Q206.598 428.65 200.278 428.65 Q198.102 428.65 195.834 428.28 Q193.588 427.909 191.181 427.169 L191.181 422.47 Q193.264 423.604 195.487 424.159 Q197.709 424.715 200.186 424.715 Q204.19 424.715 206.528 422.608 Q208.866 420.502 208.866 416.891 Q208.866 413.28 206.528 411.173 Q204.19 409.067 200.186 409.067 Q198.311 409.067 196.436 409.484 Q194.584 409.9 192.639 410.78 L192.639 393.419 Z" fill="#000000" fill-rule="evenodd" fill-opacity="1" /><path clip-path="url(#clip190)" d="M117.015 99.5305 L124.654 99.5305 L124.654 73.1649 L116.343 74.8316 L116.343 70.5723 L124.607 68.9057 L129.283 68.9057 L129.283 99.5305 L136.922 99.5305 L136.922 103.466 L117.015 103.466 L117.015 99.5305 Z" fill="#000000" fill-rule="evenodd" fill-opacity="1" /><path clip-path="url(#clip190)" d="M146.366 97.5861 L151.251 97.5861 L151.251 103.466 L146.366 103.466 L146.366 97.5861 Z" fill="#000000" fill-rule="evenodd" fill-opacity="1" /><path clip-path="url(#clip190)" d="M171.436 71.9844 Q167.825 71.9844 165.996 75.5492 Q164.19 79.0908 164.19 86.2204 Q164.19 93.3268 165.996 96.8916 Q167.825 100.433 171.436 100.433 Q175.07 100.433 176.876 96.8916 Q178.704 93.3268 178.704 86.2204 Q178.704 79.0908 176.876 75.5492 Q175.07 71.9844 171.436 71.9844 M171.436 68.2807 Q177.246 68.2807 180.301 72.8871 Q183.38 77.4704 183.38 86.2204 Q183.38 94.9472 180.301 99.5537 Q177.246 104.137 171.436 104.137 Q165.626 104.137 162.547 99.5537 Q159.491 94.9472 159.491 86.2204 Q159.491 77.4704 162.547 72.8871 Q165.626 68.2807 171.436 68.2807 Z" fill="#000000" fill-rule="evenodd" fill-opacity="1" /><path clip-path="url(#clip190)" d="M201.598 71.9844 Q197.987 71.9844 196.158 75.5492 Q194.352 79.0908 194.352 86.2204 Q194.352 93.3268 196.158 96.8916 Q197.987 100.433 201.598 100.433 Q205.232 100.433 207.037 96.8916 Q208.866 93.3268 208.866 86.2204 Q208.866 79.0908 207.037 75.5492 Q205.232 71.9844 201.598 71.9844 M201.598 68.2807 Q207.408 68.2807 210.463 72.8871 Q213.542 77.4704 213.542 86.2204 Q213.542 94.9472 210.463 99.5537 Q207.408 104.137 201.598 104.137 Q195.787 104.137 192.709 99.5537 Q189.653 94.9472 189.653 86.2204 Q189.653 77.4704 192.709 72.8871 Q195.787 68.2807 201.598 68.2807 Z" fill="#000000" fill-rule="evenodd" fill-opacity="1" /><path clip-path="url(#clip190)" d="M14.479 884.392 L14.479 878.536 L64.0042 878.536 L64.0042 884.392 L14.479 884.392 Z" fill="#000000" fill-rule="evenodd" fill-opacity="1" /><path clip-path="url(#clip190)" d="M28.3562 866.282 L28.3562 860.425 L64.0042 860.425 L64.0042 866.282 L28.3562 866.282 M14.479 866.282 L14.479 860.425 L21.895 860.425 L21.895 866.282 L14.479 866.282 Z" fill="#000000" fill-rule="evenodd" fill-opacity="1" /><path clip-path="url(#clip190)" d="M14.479 848.394 L14.479 842.506 L43.7294 842.506 L28.3562 825.032 L28.3562 817.552 L45.0344 836.459 L64.0042 816.757 L64.0042 824.396 L46.5939 842.506 L64.0042 842.506 L64.0042 848.394 L14.479 848.394 Z" fill="#000000" fill-rule="evenodd" fill-opacity="1" /><path clip-path="url(#clip190)" d="M44.7161 782.255 L47.5806 782.255 L47.5806 809.181 Q53.6281 808.8 56.8109 805.553 Q59.9619 802.275 59.9619 796.45 Q59.9619 793.076 59.1344 789.925 Q58.3069 786.742 56.6518 783.623 L62.1899 783.623 Q63.5267 786.774 64.227 790.084 Q64.9272 793.395 64.9272 796.8 Q64.9272 805.33 59.9619 810.327 Q54.9967 815.293 46.5303 815.293 Q37.7774 815.293 32.6531 810.582 Q27.4968 805.839 27.4968 797.819 Q27.4968 790.625 32.1438 786.456 Q36.7589 782.255 44.7161 782.255 M42.9973 788.111 Q38.1912 788.175 35.3266 790.816 Q32.4621 793.426 32.4621 797.755 Q32.4621 802.657 35.2312 805.617 Q38.0002 808.545 43.0292 808.991 L42.9973 788.111 Z" fill="#000000" fill-rule="evenodd" fill-opacity="1" /><path clip-path="url(#clip190)" d="M14.479 772.642 L14.479 766.786 L64.0042 766.786 L64.0042 772.642 L14.479 772.642 Z" fill="#000000" fill-rule="evenodd" fill-opacity="1" /><path clip-path="url(#clip190)" d="M28.3562 754.532 L28.3562 748.675 L64.0042 748.675 L64.0042 754.532 L28.3562 754.532 M14.479 754.532 L14.479 748.675 L21.895 748.675 L21.895 754.532 L14.479 754.532 Z" fill="#000000" fill-rule="evenodd" fill-opacity="1" /><path clip-path="url(#clip190)" d="M42.4881 706.789 L64.0042 706.789 L64.0042 712.646 L42.679 712.646 Q37.6183 712.646 35.1038 714.619 Q32.5894 716.592 32.5894 720.539 Q32.5894 725.281 35.6131 728.019 Q38.6368 730.756 43.8567 730.756 L64.0042 730.756 L64.0042 736.644 L14.479 736.644 L14.479 730.756 L33.8944 730.756 Q30.6797 728.655 29.0883 725.823 Q27.4968 722.958 27.4968 719.234 Q27.4968 713.091 31.3163 709.94 Q35.1038 706.789 42.4881 706.789 Z" fill="#000000" fill-rule="evenodd" fill-opacity="1" /><path clip-path="url(#clip190)" d="M32.4621 681.294 Q32.4621 686.005 36.1542 688.742 Q39.8145 691.48 46.212 691.48 Q52.6095 691.48 56.3017 688.774 Q59.9619 686.037 59.9619 681.294 Q59.9619 676.616 56.2698 673.878 Q52.5777 671.141 46.212 671.141 Q39.8781 671.141 36.186 673.878 Q32.4621 676.616 32.4621 681.294 M27.4968 681.294 Q27.4968 673.656 32.4621 669.295 Q37.4273 664.935 46.212 664.935 Q54.9649 664.935 59.9619 669.295 Q64.9272 673.656 64.9272 681.294 Q64.9272 688.965 59.9619 693.326 Q54.9649 697.654 46.212 697.654 Q37.4273 697.654 32.4621 693.326 Q27.4968 688.965 27.4968 681.294 Z" fill="#000000" fill-rule="evenodd" fill-opacity="1" /><path clip-path="url(#clip190)" d="M32.4621 641.413 Q32.4621 646.124 36.1542 648.861 Q39.8145 651.598 46.212 651.598 Q52.6095 651.598 56.3017 648.893 Q59.9619 646.156 59.9619 641.413 Q59.9619 636.734 56.2698 633.997 Q52.5777 631.26 46.212 631.26 Q39.8781 631.26 36.186 633.997 Q32.4621 636.734 32.4621 641.413 M27.4968 641.413 Q27.4968 633.774 32.4621 629.414 Q37.4273 625.053 46.212 625.053 Q54.9649 625.053 59.9619 629.414 Q64.9272 633.774 64.9272 641.413 Q64.9272 649.084 59.9619 653.444 Q54.9649 657.773 46.212 657.773 Q37.4273 657.773 32.4621 653.444 Q27.4968 649.084 27.4968 641.413 Z" fill="#000000" fill-rule="evenodd" fill-opacity="1" /><path clip-path="url(#clip190)" d="M33.7671 591.888 L14.479 591.888 L14.479 586.032 L64.0042 586.032 L64.0042 591.888 L58.657 591.888 Q61.8398 593.734 63.3994 596.567 Q64.9272 599.368 64.9272 603.315 Q64.9272 609.776 59.771 613.85 Q54.6147 617.892 46.212 617.892 Q37.8093 617.892 32.6531 613.85 Q27.4968 609.776 27.4968 603.315 Q27.4968 599.368 29.0564 596.567 Q30.5842 593.734 33.7671 591.888 M46.212 611.845 Q52.6732 611.845 56.3653 609.203 Q60.0256 606.529 60.0256 601.882 Q60.0256 597.235 56.3653 594.562 Q52.6732 591.888 46.212 591.888 Q39.7508 591.888 36.0905 594.562 Q32.3984 597.235 32.3984 601.882 Q32.3984 606.529 36.0905 609.203 Q39.7508 611.845 46.212 611.845 Z" fill="#000000" fill-rule="evenodd" fill-opacity="1" /><path clip-path="url(#clip192)" d="
M249.542 86.1857 L270.574 258.1 L291.606 407.385 L312.638 537.002 L333.671 649.524 L354.703 747.194 L375.735 831.959 L396.767 905.514 L417.799 969.332 L438.831 1024.69 
  L459.863 1072.72 L480.896 1114.36 L501.928 1150.47 L522.96 1181.78 L543.992 1208.93 L565.024 1232.45 L586.056 1252.84 L607.088 1270.5 L628.121 1285.81 L649.153 1299.07 
  L670.185 1310.55 L691.217 1320.49 L712.249 1329.11 L733.281 1336.56 L754.313 1343.01 L775.346 1348.6 L796.378 1353.43 L817.41 1357.61 L838.442 1361.23 L859.474 1364.36 
  L880.506 1367.06 L901.538 1369.4 L922.57 1371.43 L943.603 1373.18 L964.635 1374.69 L985.667 1375.99 L1006.7 1377.12 L1027.73 1378.1 L1048.76 1378.94 L1069.8 1379.67 
  L1090.83 1380.3 L1111.86 1380.84 L1132.89 1381.31 L1153.92 1381.71 L1174.96 1382.06 L1195.99 1382.36 L1217.02 1382.62 L1238.05 1382.84 L1259.08 1383.04 L1280.12 1383.2 
  L1301.15 1383.35 L1322.18 1383.47 L1343.21 1383.58 L1364.25 1383.67 L1385.28 1383.75 L1406.31 1383.82 L1427.34 1383.88 L1448.37 1383.93 L1469.41 1383.97 L1490.44 1384.01 
  L1511.47 1384.04 L1532.5 1384.07 L1553.53 1384.09 L1574.57 1384.11 L1595.6 1384.13 L1616.63 1384.15 L1637.66 1384.16 L1658.7 1384.17 L1679.73 1384.18 L1700.76 1384.19 
  L1721.79 1384.19 L1742.82 1384.2 L1763.86 1384.21 L1784.89 1384.21 L1805.92 1384.21 L1826.95 1384.22 L1847.98 1384.22 L1869.02 1384.22 L1890.05 1384.23 L1911.08 1384.23 
  L1932.11 1384.23 L1953.15 1384.23 L1974.18 1384.23 L1995.21 1384.23 L2016.24 1384.23 L2037.27 1384.23 L2058.31 1384.23 L2079.34 1384.24 L2100.37 1384.24 L2121.4 1384.24 
  L2142.43 1384.24 L2163.47 1384.24 L2184.5 1384.24 L2205.53 1384.24 L2226.56 1384.24 L2247.6 1384.24 L2268.63 1384.24 L2289.66 1384.24 L2310.69 1384.24 L2331.72 1384.24 
  L2352.76 1384.24 L2373.79 1384.24 L2394.82 1384.24 L2415.85 1384.24 L2436.88 1384.24 L2457.92 1384.24 L2478.95 1384.24 L2499.98 1384.24 L2521.01 1384.24 L2542.05 1384.24 
  L2563.08 1384.24 L2584.11 1384.24 L2605.14 1384.24 L2626.17 1384.24 L2647.21 1384.24 L2668.24 1384.24 L2689.27 1384.24 L2710.3 1384.24 L2731.33 1384.24 L2752.37 1384.24 
  L2773.4 1384.24 L2794.43 1384.24 L2815.46 1384.24 L2836.5 1384.24 L2857.53 1384.24 L2878.56 1384.24 L2899.59 1384.24 L2920.62 1384.24 L2941.66 1384.24 L2962.69 1384.24 
  L2983.72 1384.24 L3004.75 1384.24 L3025.78 1384.24 L3046.82 1384.24 L3067.85 1384.24 L3088.88 1384.24 L3109.91 1384.24 L3130.95 1384.24 L3151.98 1384.24 L3173.01 1384.24 
  L3194.04 1384.24 L3215.07 1384.24 L3236.11 1384.24 L3257.14 1384.24 L3278.17 1384.24 L3299.2 1384.24 L3320.23 1384.24 L3341.27 1384.24 L3362.3 1384.24 L3383.33 1384.24 
  L3404.36 1384.24 L3425.39 1384.24 L3446.43 1384.24 L3467.46 1384.24 L3488.49 1384.24 L3509.52 1384.24 L3530.56 1384.24 L3551.59 1384.24 L3572.62 1384.24 L3593.65 1384.24 
  L3614.68 1384.24 L3635.72 1384.24 L3656.75 1384.24 L3677.78 1384.24 L3698.81 1384.24 L3719.84 1384.24 L3740.88 1384.24 L3761.91 1384.24 L3782.94 1384.24 L3803.97 1384.24 
  L3825.01 1384.24 L3846.04 1384.24 L3867.07 1384.24 L3888.1 1384.24 L3909.13 1384.24 L3930.17 1384.24 L3951.2 1384.24 L3972.23 1384.24 L3993.26 1384.24 L4014.29 1384.24 
  L4035.33 1384.24 L4056.36 1384.24 L4077.39 1384.24 L4098.42 1384.24 L4119.46 1384.24 L4140.49 1384.24 L4161.52 1384.24 L4182.55 1384.24 L4203.58 1384.24 L4224.62 1384.24 
  L4245.65 1384.24 L4266.68 1384.24 L4287.71 1384.24 L4308.74 1384.24 L4329.78 1384.24 L4350.81 1384.24 L4371.84 1384.24 L4392.87 1384.24 L4413.91 1384.24 L4434.94 1384.24 
  L4455.97 1384.24 L4477 1384.24 L4498.03 1384.24 L4519.07 1384.24 L4540.1 1384.24 L4561.13 1384.24 L4582.16 1384.24 L4603.19 1384.24 L4624.23 1384.24 L4645.26 1384.24 
  L4666.29 1384.24 L4687.32 1384.24 L4708.36 1384.24 L4729.39 1384.24 L4750.42 1384.24 L4771.45 1384.24 L4792.48 1384.24 L4813.52 1384.24 L4834.55 1384.24 L4855.58 1384.24 
  L4876.61 1384.24 L4897.64 1384.24 L4918.68 1384.24 L4939.71 1384.24 L4960.74 1384.24 L4981.77 1384.24 L5002.81 1384.24 L5023.84 1384.24 L5044.87 1384.24 L5065.9 1384.24 
  L5086.93 1384.24 L5107.97 1384.24 L5129 1384.24 L5150.03 1384.24 L5171.06 1384.24 L5192.09 1384.24 L5213.13 1384.24 L5234.16 1384.24 L5255.19 1384.24 L5276.22 1384.24 
  L5297.26 1384.24 L5318.29 1384.24 L5339.32 1384.24 L5360.35 1384.24 L5381.38 1384.24 L5402.42 1384.24 L5423.45 1384.24 L5444.48 1384.24 L5465.51 1384.24 L5486.54 1384.24 
  L5507.58 1384.24 L5528.61 1384.24 L5549.64 1384.24 L5570.67 1384.24 L5591.71 1384.24 L5612.74 1384.24 L5633.77 1384.24 L5654.8 1384.24 L5675.83 1384.24 L5696.87 1384.24 
  L5717.9 1384.24 L5738.93 1384.24 L5759.96 1384.24 L5780.99 1384.24 L5802.03 1384.24 L5823.06 1384.24 L5844.09 1384.24 L5865.12 1384.24 L5886.16 1384.24 L5907.19 1384.24 
  L5928.22 1384.24 L5949.25 1384.24 L5970.28 1384.24 L5991.32 1384.24 L6012.35 1384.24 L6033.38 1384.24 L6054.41 1384.24 L6075.44 1384.24 L6096.48 1384.24 L6117.51 1384.24 
  L6138.54 1384.24 L6159.57 1384.24 L6180.61 1384.24 L6201.64 1384.24 L6222.67 1384.24 L6243.7 1384.24 L6264.73 1384.24 L6285.77 1384.24 L6306.8 1384.24 L6327.83 1384.24 
  L6348.86 1384.24 L6369.89 1384.24 L6390.93 1384.24 L6411.96 1384.24 L6432.99 1384.24 L6454.02 1384.24 L6475.06 1384.24 L6496.09 1384.24 L6517.12 1384.24 L6538.15 1384.24 
  L6559.18 1384.24 L6580.22 1384.24 L6601.25 1384.24 L6622.28 1384.24 L6643.31 1384.24 L6664.34 1384.24 L6685.38 1384.24 L6706.41 1384.24 L6727.44 1384.24 L6748.47 1384.24 
  L6769.51 1384.24 L6790.54 1384.24 L6811.57 1384.24 L6832.6 1384.24 L6853.63 1384.24 L6874.67 1384.24 L6895.7 1384.24 L6916.73 1384.24 L6937.76 1384.24 L6958.79 1384.24 
  L6979.83 1384.24 L7000.86 1384.24 L7021.89 1384.24 L7042.92 1384.24 L7063.95 1384.24 L7084.99 1384.24 L7106.02 1384.24 L7127.05 1384.24 L7148.08 1384.24 L7169.12 1384.24 
  L7190.15 1384.24 L7211.18 1384.24 L7232.21 1384.24 L7253.24 1384.24 L7274.28 1384.24 L7295.31 1384.24 L7316.34 1384.24 L7337.37 1384.24 L7358.4 1384.24 L7379.44 1384.24 
  L7400.47 1384.24 L7421.5 1384.24 L7442.53 1384.24 L7463.57 1384.24 L7484.6 1384.24 L7505.63 1384.24 L7526.66 1384.24 L7547.69 1384.24 L7568.73 1384.24 L7589.76 1384.24 
  L7610.79 1384.24 L7631.82 1384.24 L7652.85 1384.24 L7673.89 1384.24 L7694.92 1384.24 L7715.95 1384.24 L7736.98 1384.24 L7758.02 1384.24 L7779.05 1384.24 L7800.08 1384.24 
  L7821.11 1384.24 L7842.14 1384.24 L7863.18 1384.24 L7884.21 1384.24 L7905.24 1384.24 L7926.27 1384.24 L7947.3 1384.24 L7968.34 1384.24 L7989.37 1384.24 L8010.4 1384.24 
  L8031.43 1384.24 L8052.47 1384.24 L8073.5 1384.24 L8094.53 1384.24 L8115.56 1384.24 L8136.59 1384.24 L8157.63 1384.24 L8178.66 1384.24 L8199.69 1384.24 L8220.72 1384.24 
  L8241.75 1384.24 L8262.79 1384.24 L8283.82 1384.24 L8304.85 1384.24 L8325.88 1384.24 L8346.92 1384.24 L8367.95 1384.24 L8388.98 1384.24 L8410.01 1384.24 L8431.04 1384.24 
  L8452.08 1384.24 L8473.11 1384.24 L8494.14 1384.24 L8515.17 1384.24 L8536.2 1384.24 L8557.24 1384.24 L8578.27 1384.24 L8599.3 1384.24 L8620.33 1384.24 L8641.37 1384.24 
  L8662.4 1384.24 L8683.43 1384.24 L8704.46 1384.24 L8725.49 1384.24 L8746.53 1384.24 L8767.56 1384.24 L8788.59 1384.24 L8809.62 1384.24 L8830.65 1384.24 L8851.69 1384.24 
  L8872.72 1384.24 L8893.75 1384.24 L8914.78 1384.24 L8935.82 1384.24 L8956.85 1384.24 L8977.88 1384.24 L8998.91 1384.24 L9019.94 1384.24 L9040.98 1384.24 L9062.01 1384.24 
  L9083.04 1384.24 L9104.07 1384.24 L9125.1 1384.24 L9146.14 1384.24 L9167.17 1384.24 L9188.2 1384.24 L9209.23 1384.24 L9230.27 1384.24 L9251.3 1384.24 L9272.33 1384.24 
  L9293.36 1384.24 L9314.39 1384.24 L9335.43 1384.24 L9356.46 1384.24 L9377.49 1384.24 L9398.52 1384.24 L9419.55 1384.24 L9440.59 1384.24 L9461.62 1384.24 L9482.65 1384.24 
  L9503.68 1384.24 L9524.72 1384.24 L9545.75 1384.24 L9566.78 1384.24 L9587.81 1384.24 L9608.84 1384.24 L9629.88 1384.24 L9650.91 1384.24 L9671.94 1384.24 L9692.97 1384.24 
  L9714 1384.24 L9735.04 1384.24 L9756.07 1384.24 L9777.1 1384.24 L9798.13 1384.24 L9819.17 1384.24 L9840.2 1384.24 L9861.23 1384.24 L9882.26 1384.24 L9903.29 1384.24 
  L9924.33 1384.24 L9945.36 1384.24 L9966.39 1384.24 L9987.42 1384.24 L10008.5 1384.24 L10029.5 1384.24 L10050.5 1384.24 L10071.6 1384.24 L10092.6 1384.24 L10113.6 1384.24 
  L10134.6 1384.24 L10155.7 1384.24 L10176.7 1384.24 L10197.7 1384.24 L10218.8 1384.24 L10239.8 1384.24 L10260.8 1384.24 L10281.9 1384.24 L10302.9 1384.24 L10323.9 1384.24 
  L10345 1384.24 L10366 1384.24 L10387 1384.24 L10408.1 1384.24 L10429.1 1384.24 L10450.1 1384.24 L10471.2 1384.24 L10492.2 1384.24 L10513.2 1384.24 L10534.3 1384.24 
  L10555.3 1384.24 L10576.3 1384.24 L10597.4 1384.24 L10618.4 1384.24 L10639.4 1384.24 L10660.5 1384.24 L10681.5 1384.24 L10702.5 1384.24 L10723.5 1384.24 L10744.6 1384.24 
  L10765.6 1384.24 L10786.6 1384.24 L10807.7 1384.24 L10828.7 1384.24 L10849.7 1384.24 L10870.8 1384.24 L10891.8 1384.24 L10912.8 1384.24 L10933.9 1384.24 L10954.9 1384.24 
  L10975.9 1384.24 L10997 1384.24 L11018 1384.24 L11039 1384.24 L11060.1 1384.24 L11081.1 1384.24 L11102.1 1384.24 L11123.2 1384.24 L11144.2 1384.24 L11165.2 1384.24 
  L11186.3 1384.24 L11207.3 1384.24 L11228.3 1384.24 L11249.4 1384.24 L11270.4 1384.24 L11291.4 1384.24 L11312.4 1384.24 L11333.5 1384.24 L11354.5 1384.24 L11375.5 1384.24 
  L11396.6 1384.24 L11417.6 1384.24 L11438.6 1384.24 L11459.7 1384.24 L11480.7 1384.24 L11501.7 1384.24 L11522.8 1384.24 L11543.8 1384.24 L11564.8 1384.24 L11585.9 1384.24 
  L11606.9 1384.24 L11627.9 1384.24 L11649 1384.24 L11670 1384.24 L11691 1384.24 L11712.1 1384.24 L11733.1 1384.24 L11754.1 1384.24 L11775.2 1384.24 L11796.2 1384.24 
  L11817.2 1384.24 L11838.3 1384.24 L11859.3 1384.24 L11880.3 1384.24 L11901.3 1384.24 L11922.4 1384.24 L11943.4 1384.24 L11964.4 1384.24 L11985.5 1384.24 L12006.5 1384.24 
  L12027.5 1384.24 L12048.6 1384.24 L12069.6 1384.24 L12090.6 1384.24 L12111.7 1384.24 L12132.7 1384.24 L12153.7 1384.24 L12174.8 1384.24 L12195.8 1384.24 L12216.8 1384.24 
  L12237.9 1384.24 L12258.9 1384.24 L12279.9 1384.24 L12301 1384.24 L12322 1384.24 L12343 1384.24 L12364.1 1384.24 L12385.1 1384.24 L12406.1 1384.24 L12427.2 1384.24 
  L12448.2 1384.24 L12469.2 1384.24 L12490.2 1384.24 L12511.3 1384.24 L12532.3 1384.24 L12553.3 1384.24 L12574.4 1384.24 L12595.4 1384.24 L12616.4 1384.24 L12637.5 1384.24 
  L12658.5 1384.24 L12679.5 1384.24 L12700.6 1384.24 L12721.6 1384.24 L12742.6 1384.24 L12763.7 1384.24 L12784.7 1384.24 L12805.7 1384.24 L12826.8 1384.24 L12847.8 1384.24 
  L12868.8 1384.24 L12889.9 1384.24 L12910.9 1384.24 L12931.9 1384.24 L12953 1384.24 L12974 1384.24 L12995 1384.24 L13016.1 1384.24 L13037.1 1384.24 L13058.1 1384.24 
  L13079.1 1384.24 L13100.2 1384.24 L13121.2 1384.24 L13142.2 1384.24 L13163.3 1384.24 L13184.3 1384.24 L13205.3 1384.24 L13226.4 1384.24 L13247.4 1384.24 L13268.4 1384.24 
  L13289.5 1384.24 L13310.5 1384.24 L13331.5 1384.24 L13352.6 1384.24 L13373.6 1384.24 L13394.6 1384.24 L13415.7 1384.24 L13436.7 1384.24 L13457.7 1384.24 L13478.8 1384.24 
  L13499.8 1384.24 L13520.8 1384.24 L13541.9 1384.24 L13562.9 1384.24 L13583.9 1384.24 L13605 1384.24 L13626 1384.24 L13647 1384.24 L13668 1384.24 L13689.1 1384.24 
  L13710.1 1384.24 L13731.1 1384.24 L13752.2 1384.24 L13773.2 1384.24 L13794.2 1384.24 L13815.3 1384.24 L13836.3 1384.24 L13857.3 1384.24 L13878.4 1384.24 L13899.4 1384.24 
  L13920.4 1384.24 L13941.5 1384.24 L13962.5 1384.24 L13983.5 1384.24 L14004.6 1384.24 L14025.6 1384.24 L14046.6 1384.24 L14067.7 1384.24 L14088.7 1384.24 L14109.7 1384.24 
  L14130.8 1384.24 L14151.8 1384.24 L14172.8 1384.24 L14193.9 1384.24 L14214.9 1384.24 L14235.9 1384.24 L14256.9 1384.24 L14278 1384.24 L14299 1384.24 L14320 1384.24 
  L14341.1 1384.24 L14362.1 1384.24 L14383.1 1384.24 L14404.2 1384.24 L14425.2 1384.24 L14446.2 1384.24 L14467.3 1384.24 L14488.3 1384.24 L14509.3 1384.24 L14530.4 1384.24 
  L14551.4 1384.24 L14572.4 1384.24 L14593.5 1384.24 L14614.5 1384.24 L14635.5 1384.24 L14656.6 1384.24 L14677.6 1384.24 L14698.6 1384.24 L14719.7 1384.24 L14740.7 1384.24 
  L14761.7 1384.24 L14782.7 1384.24 L14803.8 1384.24 L14824.8 1384.24 L14845.8 1384.24 L14866.9 1384.24 L14887.9 1384.24 L14908.9 1384.24 L14930 1384.24 L14951 1384.24 
  L14972 1384.24 L14993.1 1384.24 L15014.1 1384.24 L15035.1 1384.24 L15056.2 1384.24 L15077.2 1384.24 L15098.2 1384.24 L15119.3 1384.24 L15140.3 1384.24 L15161.3 1384.24 
  L15182.4 1384.24 L15203.4 1384.24 L15224.4 1384.24 L15245.5 1384.24 L15266.5 1384.24 L15287.5 1384.24 L15308.6 1384.24 L15329.6 1384.24 L15350.6 1384.24 L15371.6 1384.24 
  L15392.7 1384.24 L15413.7 1384.24 L15434.7 1384.24 L15455.8 1384.24 L15476.8 1384.24 L15497.8 1384.24 L15518.9 1384.24 L15539.9 1384.24 L15560.9 1384.24 L15582 1384.24 
  L15603 1384.24 L15624 1384.24 L15645.1 1384.24 L15666.1 1384.24 L15687.1 1384.24 L15708.2 1384.24 L15729.2 1384.24 L15750.2 1384.24 L15771.3 1384.24 L15792.3 1384.24 
  L15813.3 1384.24 L15834.4 1384.24 L15855.4 1384.24 L15876.4 1384.24 L15897.5 1384.24 L15918.5 1384.24 L15939.5 1384.24 L15960.5 1384.24 L15981.6 1384.24 L16002.6 1384.24 
  L16023.6 1384.24 L16044.7 1384.24 L16065.7 1384.24 L16086.7 1384.24 L16107.8 1384.24 L16128.8 1384.24 L16149.8 1384.24 L16170.9 1384.24 L16191.9 1384.24 L16212.9 1384.24 
  L16234 1384.24 L16255 1384.24 L16276 1384.24 L16297.1 1384.24 L16318.1 1384.24 L16339.1 1384.24 L16360.2 1384.24 L16381.2 1384.24 L16402.2 1384.24 L16423.3 1384.24 
  L16444.3 1384.24 L16465.3 1384.24 L16486.4 1384.24 L16507.4 1384.24 L16528.4 1384.24 L16549.4 1384.24 L16570.5 1384.24 L16591.5 1384.24 L16612.5 1384.24 L16633.6 1384.24 
  L16654.6 1384.24 L16675.6 1384.24 L16696.7 1384.24 L16717.7 1384.24 L16738.7 1384.24 L16759.8 1384.24 L16780.8 1384.24 L16801.8 1384.24 L16822.9 1384.24 L16843.9 1384.24 
  L16864.9 1384.24 L16886 1384.24 L16907 1384.24 L16928 1384.24 L16949.1 1384.24 L16970.1 1384.24 L16991.1 1384.24 L17012.2 1384.24 L17033.2 1384.24 L17054.2 1384.24 
  L17075.3 1384.24 L17096.3 1384.24 L17117.3 1384.24 L17138.3 1384.24 L17159.4 1384.24 L17180.4 1384.24 L17201.4 1384.24 L17222.5 1384.24 L17243.5 1384.24 L17264.5 1384.24 
  L17285.6 1384.24 L17306.6 1384.24 L17327.6 1384.24 L17348.7 1384.24 L17369.7 1384.24 L17390.7 1384.24 L17411.8 1384.24 L17432.8 1384.24 L17453.8 1384.24 L17474.9 1384.24 
  L17495.9 1384.24 L17516.9 1384.24 L17538 1384.24 L17559 1384.24 L17580 1384.24 L17601.1 1384.24 L17622.1 1384.24 L17643.1 1384.24 L17664.2 1384.24 L17685.2 1384.24 
  L17706.2 1384.24 L17727.2 1384.24 L17748.3 1384.24 L17769.3 1384.24 L17790.3 1384.24 L17811.4 1384.24 L17832.4 1384.24 L17853.4 1384.24 L17874.5 1384.24 L17895.5 1384.24 
  L17916.5 1384.24 L17937.6 1384.24 L17958.6 1384.24 L17979.6 1384.24 L18000.7 1384.24 L18021.7 1384.24 L18042.7 1384.24 L18063.8 1384.24 L18084.8 1384.24 L18105.8 1384.24 
  L18126.9 1384.24 L18147.9 1384.24 L18168.9 1384.24 L18190 1384.24 L18211 1384.24 L18232 1384.24 L18253.1 1384.24 L18274.1 1384.24 L18295.1 1384.24 L18316.1 1384.24 
  L18337.2 1384.24 L18358.2 1384.24 L18379.2 1384.24 L18400.3 1384.24 L18421.3 1384.24 L18442.3 1384.24 L18463.4 1384.24 L18484.4 1384.24 L18505.4 1384.24 L18526.5 1384.24 
  L18547.5 1384.24 L18568.5 1384.24 L18589.6 1384.24 L18610.6 1384.24 L18631.6 1384.24 L18652.7 1384.24 L18673.7 1384.24 L18694.7 1384.24 L18715.8 1384.24 L18736.8 1384.24 
  L18757.8 1384.24 L18778.9 1384.24 L18799.9 1384.24 L18820.9 1384.24 L18842 1384.24 L18863 1384.24 L18884 1384.24 L18905 1384.24 L18926.1 1384.24 L18947.1 1384.24 
  L18968.1 1384.24 L18989.2 1384.24 L19010.2 1384.24 L19031.2 1384.24 L19052.3 1384.24 L19073.3 1384.24 L19094.3 1384.24 L19115.4 1384.24 L19136.4 1384.24 L19157.4 1384.24 
  L19178.5 1384.24 L19199.5 1384.24 L19220.5 1384.24 L19241.6 1384.24 L19262.6 1384.24 L19283.6 1384.24 L19304.7 1384.24 L19325.7 1384.24 L19346.7 1384.24 L19367.8 1384.24 
  L19388.8 1384.24 L19409.8 1384.24 L19430.9 1384.24 L19451.9 1384.24 L19472.9 1384.24 L19493.9 1384.24 L19515 1384.24 L19536 1384.24 L19557 1384.24 L19578.1 1384.24 
  L19599.1 1384.24 L19620.1 1384.24 L19641.2 1384.24 L19662.2 1384.24 L19683.2 1384.24 L19704.3 1384.24 L19725.3 1384.24 L19746.3 1384.24 L19767.4 1384.24 L19788.4 1384.24 
  L19809.4 1384.24 L19830.5 1384.24 L19851.5 1384.24 L19872.5 1384.24 L19893.6 1384.24 L19914.6 1384.24 L19935.6 1384.24 L19956.7 1384.24 L19977.7 1384.24 L19998.7 1384.24 
  L20019.8 1384.24 L20040.8 1384.24 L20061.8 1384.24 L20082.8 1384.24 L20103.9 1384.24 L20124.9 1384.24 L20145.9 1384.24 L20167 1384.24 L20188 1384.24 L20209 1384.24 
  L20230.1 1384.24 L20251.1 1384.24 L20272.1 1384.24 L20293.2 1384.24 L20314.2 1384.24 L20335.2 1384.24 L20356.3 1384.24 L20377.3 1384.24 L20398.3 1384.24 L20419.4 1384.24 
  L20440.4 1384.24 L20461.4 1384.24 L20482.5 1384.24 L20503.5 1384.24 L20524.5 1384.24 L20545.6 1384.24 L20566.6 1384.24 L20587.6 1384.24 L20608.7 1384.24 L20629.7 1384.24 
  L20650.7 1384.24 L20671.7 1384.24 L20692.8 1384.24 L20713.8 1384.24 L20734.8 1384.24 L20755.9 1384.24 L20776.9 1384.24 L20797.9 1384.24 L20819 1384.24 L20840 1384.24 
  L20861 1384.24 L20882.1 1384.24 L20903.1 1384.24 L20924.1 1384.24 L20945.2 1384.24 L20966.2 1384.24 L20987.2 1384.24 L21008.3 1384.24 L21029.3 1384.24 L21050.3 1384.24 
  L21071.4 1384.24 L21092.4 1384.24 L21113.4 1384.24 L21134.5 1384.24 L21155.5 1384.24 L21176.5 1384.24 L21197.6 1384.24 L21218.6 1384.24 L21239.6 1384.24 L21260.6 1384.24 
  L21281.7 1384.24 L21281.7 1384.24 L21260.6 1384.24 L21239.6 1384.24 L21218.6 1384.24 L21197.6 1384.24 L21176.5 1384.24 L21155.5 1384.24 L21134.5 1384.24 L21113.4 1384.24 
  L21092.4 1384.24 L21071.4 1384.24 L21050.3 1384.24 L21029.3 1384.24 L21008.3 1384.24 L20987.2 1384.24 L20966.2 1384.24 L20945.2 1384.24 L20924.1 1384.24 L20903.1 1384.24 
  L20882.1 1384.24 L20861 1384.24 L20840 1384.24 L20819 1384.24 L20797.9 1384.24 L20776.9 1384.24 L20755.9 1384.24 L20734.8 1384.24 L20713.8 1384.24 L20692.8 1384.24 
  L20671.7 1384.24 L20650.7 1384.24 L20629.7 1384.24 L20608.7 1384.24 L20587.6 1384.24 L20566.6 1384.24 L20545.6 1384.24 L20524.5 1384.24 L20503.5 1384.24 L20482.5 1384.24 
  L20461.4 1384.24 L20440.4 1384.24 L20419.4 1384.24 L20398.3 1384.24 L20377.3 1384.24 L20356.3 1384.24 L20335.2 1384.24 L20314.2 1384.24 L20293.2 1384.24 L20272.1 1384.24 
  L20251.1 1384.24 L20230.1 1384.24 L20209 1384.24 L20188 1384.24 L20167 1384.24 L20145.9 1384.24 L20124.9 1384.24 L20103.9 1384.24 L20082.8 1384.24 L20061.8 1384.24 
  L20040.8 1384.24 L20019.8 1384.24 L19998.7 1384.24 L19977.7 1384.24 L19956.7 1384.24 L19935.6 1384.24 L19914.6 1384.24 L19893.6 1384.24 L19872.5 1384.24 L19851.5 1384.24 
  L19830.5 1384.24 L19809.4 1384.24 L19788.4 1384.24 L19767.4 1384.24 L19746.3 1384.24 L19725.3 1384.24 L19704.3 1384.24 L19683.2 1384.24 L19662.2 1384.24 L19641.2 1384.24 
  L19620.1 1384.24 L19599.1 1384.24 L19578.1 1384.24 L19557 1384.24 L19536 1384.24 L19515 1384.24 L19493.9 1384.24 L19472.9 1384.24 L19451.9 1384.24 L19430.9 1384.24 
  L19409.8 1384.24 L19388.8 1384.24 L19367.8 1384.24 L19346.7 1384.24 L19325.7 1384.24 L19304.7 1384.24 L19283.6 1384.24 L19262.6 1384.24 L19241.6 1384.24 L19220.5 1384.24 
  L19199.5 1384.24 L19178.5 1384.24 L19157.4 1384.24 L19136.4 1384.24 L19115.4 1384.24 L19094.3 1384.24 L19073.3 1384.24 L19052.3 1384.24 L19031.2 1384.24 L19010.2 1384.24 
  L18989.2 1384.24 L18968.1 1384.24 L18947.1 1384.24 L18926.1 1384.24 L18905 1384.24 L18884 1384.24 L18863 1384.24 L18842 1384.24 L18820.9 1384.24 L18799.9 1384.24 
  L18778.9 1384.24 L18757.8 1384.24 L18736.8 1384.24 L18715.8 1384.24 L18694.7 1384.24 L18673.7 1384.24 L18652.7 1384.24 L18631.6 1384.24 L18610.6 1384.24 L18589.6 1384.24 
  L18568.5 1384.24 L18547.5 1384.24 L18526.5 1384.24 L18505.4 1384.24 L18484.4 1384.24 L18463.4 1384.24 L18442.3 1384.24 L18421.3 1384.24 L18400.3 1384.24 L18379.2 1384.24 
  L18358.2 1384.24 L18337.2 1384.24 L18316.1 1384.24 L18295.1 1384.24 L18274.1 1384.24 L18253.1 1384.24 L18232 1384.24 L18211 1384.24 L18190 1384.24 L18168.9 1384.24 
  L18147.9 1384.24 L18126.9 1384.24 L18105.8 1384.24 L18084.8 1384.24 L18063.8 1384.24 L18042.7 1384.24 L18021.7 1384.24 L18000.7 1384.24 L17979.6 1384.24 L17958.6 1384.24 
  L17937.6 1384.24 L17916.5 1384.24 L17895.5 1384.24 L17874.5 1384.24 L17853.4 1384.24 L17832.4 1384.24 L17811.4 1384.24 L17790.3 1384.24 L17769.3 1384.24 L17748.3 1384.24 
  L17727.2 1384.24 L17706.2 1384.24 L17685.2 1384.24 L17664.2 1384.24 L17643.1 1384.24 L17622.1 1384.24 L17601.1 1384.24 L17580 1384.24 L17559 1384.24 L17538 1384.24 
  L17516.9 1384.24 L17495.9 1384.24 L17474.9 1384.24 L17453.8 1384.24 L17432.8 1384.24 L17411.8 1384.24 L17390.7 1384.24 L17369.7 1384.24 L17348.7 1384.24 L17327.6 1384.24 
  L17306.6 1384.24 L17285.6 1384.24 L17264.5 1384.24 L17243.5 1384.24 L17222.5 1384.24 L17201.4 1384.24 L17180.4 1384.24 L17159.4 1384.24 L17138.3 1384.24 L17117.3 1384.24 
  L17096.3 1384.24 L17075.3 1384.24 L17054.2 1384.24 L17033.2 1384.24 L17012.2 1384.24 L16991.1 1384.24 L16970.1 1384.24 L16949.1 1384.24 L16928 1384.24 L16907 1384.24 
  L16886 1384.24 L16864.9 1384.24 L16843.9 1384.24 L16822.9 1384.24 L16801.8 1384.24 L16780.8 1384.24 L16759.8 1384.24 L16738.7 1384.24 L16717.7 1384.24 L16696.7 1384.24 
  L16675.6 1384.24 L16654.6 1384.24 L16633.6 1384.24 L16612.5 1384.24 L16591.5 1384.24 L16570.5 1384.24 L16549.4 1384.24 L16528.4 1384.24 L16507.4 1384.24 L16486.4 1384.24 
  L16465.3 1384.24 L16444.3 1384.24 L16423.3 1384.24 L16402.2 1384.24 L16381.2 1384.24 L16360.2 1384.24 L16339.1 1384.24 L16318.1 1384.24 L16297.1 1384.24 L16276 1384.24 
  L16255 1384.24 L16234 1384.24 L16212.9 1384.24 L16191.9 1384.24 L16170.9 1384.24 L16149.8 1384.24 L16128.8 1384.24 L16107.8 1384.24 L16086.7 1384.24 L16065.7 1384.24 
  L16044.7 1384.24 L16023.6 1384.24 L16002.6 1384.24 L15981.6 1384.24 L15960.5 1384.24 L15939.5 1384.24 L15918.5 1384.24 L15897.5 1384.24 L15876.4 1384.24 L15855.4 1384.24 
  L15834.4 1384.24 L15813.3 1384.24 L15792.3 1384.24 L15771.3 1384.24 L15750.2 1384.24 L15729.2 1384.24 L15708.2 1384.24 L15687.1 1384.24 L15666.1 1384.24 L15645.1 1384.24 
  L15624 1384.24 L15603 1384.24 L15582 1384.24 L15560.9 1384.24 L15539.9 1384.24 L15518.9 1384.24 L15497.8 1384.24 L15476.8 1384.24 L15455.8 1384.24 L15434.7 1384.24 
  L15413.7 1384.24 L15392.7 1384.24 L15371.6 1384.24 L15350.6 1384.24 L15329.6 1384.24 L15308.6 1384.24 L15287.5 1384.24 L15266.5 1384.24 L15245.5 1384.24 L15224.4 1384.24 
  L15203.4 1384.24 L15182.4 1384.24 L15161.3 1384.24 L15140.3 1384.24 L15119.3 1384.24 L15098.2 1384.24 L15077.2 1384.24 L15056.2 1384.24 L15035.1 1384.24 L15014.1 1384.24 
  L14993.1 1384.24 L14972 1384.24 L14951 1384.24 L14930 1384.24 L14908.9 1384.24 L14887.9 1384.24 L14866.9 1384.24 L14845.8 1384.24 L14824.8 1384.24 L14803.8 1384.24 
  L14782.7 1384.24 L14761.7 1384.24 L14740.7 1384.24 L14719.7 1384.24 L14698.6 1384.24 L14677.6 1384.24 L14656.6 1384.24 L14635.5 1384.24 L14614.5 1384.24 L14593.5 1384.24 
  L14572.4 1384.24 L14551.4 1384.24 L14530.4 1384.24 L14509.3 1384.24 L14488.3 1384.24 L14467.3 1384.24 L14446.2 1384.24 L14425.2 1384.24 L14404.2 1384.24 L14383.1 1384.24 
  L14362.1 1384.24 L14341.1 1384.24 L14320 1384.24 L14299 1384.24 L14278 1384.24 L14256.9 1384.24 L14235.9 1384.24 L14214.9 1384.24 L14193.9 1384.24 L14172.8 1384.24 
  L14151.8 1384.24 L14130.8 1384.24 L14109.7 1384.24 L14088.7 1384.24 L14067.7 1384.24 L14046.6 1384.24 L14025.6 1384.24 L14004.6 1384.24 L13983.5 1384.24 L13962.5 1384.24 
  L13941.5 1384.24 L13920.4 1384.24 L13899.4 1384.24 L13878.4 1384.24 L13857.3 1384.24 L13836.3 1384.24 L13815.3 1384.24 L13794.2 1384.24 L13773.2 1384.24 L13752.2 1384.24 
  L13731.1 1384.24 L13710.1 1384.24 L13689.1 1384.24 L13668 1384.24 L13647 1384.24 L13626 1384.24 L13605 1384.24 L13583.9 1384.24 L13562.9 1384.24 L13541.9 1384.24 
  L13520.8 1384.24 L13499.8 1384.24 L13478.8 1384.24 L13457.7 1384.24 L13436.7 1384.24 L13415.7 1384.24 L13394.6 1384.24 L13373.6 1384.24 L13352.6 1384.24 L13331.5 1384.24 
  L13310.5 1384.24 L13289.5 1384.24 L13268.4 1384.24 L13247.4 1384.24 L13226.4 1384.24 L13205.3 1384.24 L13184.3 1384.24 L13163.3 1384.24 L13142.2 1384.24 L13121.2 1384.24 
  L13100.2 1384.24 L13079.1 1384.24 L13058.1 1384.24 L13037.1 1384.24 L13016.1 1384.24 L12995 1384.24 L12974 1384.24 L12953 1384.24 L12931.9 1384.24 L12910.9 1384.24 
  L12889.9 1384.24 L12868.8 1384.24 L12847.8 1384.24 L12826.8 1384.24 L12805.7 1384.24 L12784.7 1384.24 L12763.7 1384.24 L12742.6 1384.24 L12721.6 1384.24 L12700.6 1384.24 
  L12679.5 1384.24 L12658.5 1384.24 L12637.5 1384.24 L12616.4 1384.24 L12595.4 1384.24 L12574.4 1384.24 L12553.3 1384.24 L12532.3 1384.24 L12511.3 1384.24 L12490.2 1384.24 
  L12469.2 1384.24 L12448.2 1384.24 L12427.2 1384.24 L12406.1 1384.24 L12385.1 1384.24 L12364.1 1384.24 L12343 1384.24 L12322 1384.24 L12301 1384.24 L12279.9 1384.24 
  L12258.9 1384.24 L12237.9 1384.24 L12216.8 1384.24 L12195.8 1384.24 L12174.8 1384.24 L12153.7 1384.24 L12132.7 1384.24 L12111.7 1384.24 L12090.6 1384.24 L12069.6 1384.24 
  L12048.6 1384.24 L12027.5 1384.24 L12006.5 1384.24 L11985.5 1384.24 L11964.4 1384.24 L11943.4 1384.24 L11922.4 1384.24 L11901.3 1384.24 L11880.3 1384.24 L11859.3 1384.24 
  L11838.3 1384.24 L11817.2 1384.24 L11796.2 1384.24 L11775.2 1384.24 L11754.1 1384.24 L11733.1 1384.24 L11712.1 1384.24 L11691 1384.24 L11670 1384.24 L11649 1384.24 
  L11627.9 1384.24 L11606.9 1384.24 L11585.9 1384.24 L11564.8 1384.24 L11543.8 1384.24 L11522.8 1384.24 L11501.7 1384.24 L11480.7 1384.24 L11459.7 1384.24 L11438.6 1384.24 
  L11417.6 1384.24 L11396.6 1384.24 L11375.5 1384.24 L11354.5 1384.24 L11333.5 1384.24 L11312.4 1384.24 L11291.4 1384.24 L11270.4 1384.24 L11249.4 1384.24 L11228.3 1384.24 
  L11207.3 1384.24 L11186.3 1384.24 L11165.2 1384.24 L11144.2 1384.24 L11123.2 1384.24 L11102.1 1384.24 L11081.1 1384.24 L11060.1 1384.24 L11039 1384.24 L11018 1384.24 
  L10997 1384.24 L10975.9 1384.24 L10954.9 1384.24 L10933.9 1384.24 L10912.8 1384.24 L10891.8 1384.24 L10870.8 1384.24 L10849.7 1384.24 L10828.7 1384.24 L10807.7 1384.24 
  L10786.6 1384.24 L10765.6 1384.24 L10744.6 1384.24 L10723.5 1384.24 L10702.5 1384.24 L10681.5 1384.24 L10660.5 1384.24 L10639.4 1384.24 L10618.4 1384.24 L10597.4 1384.24 
  L10576.3 1384.24 L10555.3 1384.24 L10534.3 1384.24 L10513.2 1384.24 L10492.2 1384.24 L10471.2 1384.24 L10450.1 1384.24 L10429.1 1384.24 L10408.1 1384.24 L10387 1384.24 
  L10366 1384.24 L10345 1384.24 L10323.9 1384.24 L10302.9 1384.24 L10281.9 1384.24 L10260.8 1384.24 L10239.8 1384.24 L10218.8 1384.24 L10197.7 1384.24 L10176.7 1384.24 
  L10155.7 1384.24 L10134.6 1384.24 L10113.6 1384.24 L10092.6 1384.24 L10071.6 1384.24 L10050.5 1384.24 L10029.5 1384.24 L10008.5 1384.24 L9987.42 1384.24 L9966.39 1384.24 
  L9945.36 1384.24 L9924.33 1384.24 L9903.29 1384.24 L9882.26 1384.24 L9861.23 1384.24 L9840.2 1384.24 L9819.17 1384.24 L9798.13 1384.24 L9777.1 1384.24 L9756.07 1384.24 
  L9735.04 1384.24 L9714 1384.24 L9692.97 1384.24 L9671.94 1384.24 L9650.91 1384.24 L9629.88 1384.24 L9608.84 1384.24 L9587.81 1384.24 L9566.78 1384.24 L9545.75 1384.24 
  L9524.72 1384.24 L9503.68 1384.24 L9482.65 1384.24 L9461.62 1384.24 L9440.59 1384.24 L9419.55 1384.24 L9398.52 1384.24 L9377.49 1384.24 L9356.46 1384.24 L9335.43 1384.24 
  L9314.39 1384.24 L9293.36 1384.24 L9272.33 1384.24 L9251.3 1384.24 L9230.27 1384.24 L9209.23 1384.24 L9188.2 1384.24 L9167.17 1384.24 L9146.14 1384.24 L9125.1 1384.24 
  L9104.07 1384.24 L9083.04 1384.24 L9062.01 1384.24 L9040.98 1384.24 L9019.94 1384.24 L8998.91 1384.24 L8977.88 1384.24 L8956.85 1384.24 L8935.82 1384.24 L8914.78 1384.24 
  L8893.75 1384.24 L8872.72 1384.24 L8851.69 1384.24 L8830.65 1384.24 L8809.62 1384.24 L8788.59 1384.24 L8767.56 1384.24 L8746.53 1384.24 L8725.49 1384.24 L8704.46 1384.24 
  L8683.43 1384.24 L8662.4 1384.24 L8641.37 1384.24 L8620.33 1384.24 L8599.3 1384.24 L8578.27 1384.24 L8557.24 1384.24 L8536.2 1384.24 L8515.17 1384.24 L8494.14 1384.24 
  L8473.11 1384.24 L8452.08 1384.24 L8431.04 1384.24 L8410.01 1384.24 L8388.98 1384.24 L8367.95 1384.24 L8346.92 1384.24 L8325.88 1384.24 L8304.85 1384.24 L8283.82 1384.24 
  L8262.79 1384.24 L8241.75 1384.24 L8220.72 1384.24 L8199.69 1384.24 L8178.66 1384.24 L8157.63 1384.24 L8136.59 1384.24 L8115.56 1384.24 L8094.53 1384.24 L8073.5 1384.24 
  L8052.47 1384.24 L8031.43 1384.24 L8010.4 1384.24 L7989.37 1384.24 L7968.34 1384.24 L7947.3 1384.24 L7926.27 1384.24 L7905.24 1384.24 L7884.21 1384.24 L7863.18 1384.24 
  L7842.14 1384.24 L7821.11 1384.24 L7800.08 1384.24 L7779.05 1384.24 L7758.02 1384.24 L7736.98 1384.24 L7715.95 1384.24 L7694.92 1384.24 L7673.89 1384.24 L7652.85 1384.24 
  L7631.82 1384.24 L7610.79 1384.24 L7589.76 1384.24 L7568.73 1384.24 L7547.69 1384.24 L7526.66 1384.24 L7505.63 1384.24 L7484.6 1384.24 L7463.57 1384.24 L7442.53 1384.24 
  L7421.5 1384.24 L7400.47 1384.24 L7379.44 1384.24 L7358.4 1384.24 L7337.37 1384.24 L7316.34 1384.24 L7295.31 1384.24 L7274.28 1384.24 L7253.24 1384.24 L7232.21 1384.24 
  L7211.18 1384.24 L7190.15 1384.24 L7169.12 1384.24 L7148.08 1384.24 L7127.05 1384.24 L7106.02 1384.24 L7084.99 1384.24 L7063.95 1384.24 L7042.92 1384.24 L7021.89 1384.24 
  L7000.86 1384.24 L6979.83 1384.24 L6958.79 1384.24 L6937.76 1384.24 L6916.73 1384.24 L6895.7 1384.24 L6874.67 1384.24 L6853.63 1384.24 L6832.6 1384.24 L6811.57 1384.24 
  L6790.54 1384.24 L6769.51 1384.24 L6748.47 1384.24 L6727.44 1384.24 L6706.41 1384.24 L6685.38 1384.24 L6664.34 1384.24 L6643.31 1384.24 L6622.28 1384.24 L6601.25 1384.24 
  L6580.22 1384.24 L6559.18 1384.24 L6538.15 1384.24 L6517.12 1384.24 L6496.09 1384.24 L6475.06 1384.24 L6454.02 1384.24 L6432.99 1384.24 L6411.96 1384.24 L6390.93 1384.24 
  L6369.89 1384.24 L6348.86 1384.24 L6327.83 1384.24 L6306.8 1384.24 L6285.77 1384.24 L6264.73 1384.24 L6243.7 1384.24 L6222.67 1384.24 L6201.64 1384.24 L6180.61 1384.24 
  L6159.57 1384.24 L6138.54 1384.24 L6117.51 1384.24 L6096.48 1384.24 L6075.44 1384.24 L6054.41 1384.24 L6033.38 1384.24 L6012.35 1384.24 L5991.32 1384.24 L5970.28 1384.24 
  L5949.25 1384.24 L5928.22 1384.24 L5907.19 1384.24 L5886.16 1384.24 L5865.12 1384.24 L5844.09 1384.24 L5823.06 1384.24 L5802.03 1384.24 L5780.99 1384.24 L5759.96 1384.24 
  L5738.93 1384.24 L5717.9 1384.24 L5696.87 1384.24 L5675.83 1384.24 L5654.8 1384.24 L5633.77 1384.24 L5612.74 1384.24 L5591.71 1384.24 L5570.67 1384.24 L5549.64 1384.24 
  L5528.61 1384.24 L5507.58 1384.24 L5486.54 1384.24 L5465.51 1384.24 L5444.48 1384.24 L5423.45 1384.24 L5402.42 1384.24 L5381.38 1384.24 L5360.35 1384.24 L5339.32 1384.24 
  L5318.29 1384.24 L5297.26 1384.24 L5276.22 1384.24 L5255.19 1384.24 L5234.16 1384.24 L5213.13 1384.24 L5192.09 1384.24 L5171.06 1384.24 L5150.03 1384.24 L5129 1384.24 
  L5107.97 1384.24 L5086.93 1384.24 L5065.9 1384.24 L5044.87 1384.24 L5023.84 1384.24 L5002.81 1384.24 L4981.77 1384.24 L4960.74 1384.24 L4939.71 1384.24 L4918.68 1384.24 
  L4897.64 1384.24 L4876.61 1384.24 L4855.58 1384.24 L4834.55 1384.24 L4813.52 1384.24 L4792.48 1384.24 L4771.45 1384.24 L4750.42 1384.24 L4729.39 1384.24 L4708.36 1384.24 
  L4687.32 1384.24 L4666.29 1384.24 L4645.26 1384.24 L4624.23 1384.24 L4603.19 1384.24 L4582.16 1384.24 L4561.13 1384.24 L4540.1 1384.24 L4519.07 1384.24 L4498.03 1384.24 
  L4477 1384.24 L4455.97 1384.24 L4434.94 1384.24 L4413.91 1384.24 L4392.87 1384.24 L4371.84 1384.24 L4350.81 1384.24 L4329.78 1384.24 L4308.74 1384.24 L4287.71 1384.24 
  L4266.68 1384.24 L4245.65 1384.24 L4224.62 1384.24 L4203.58 1384.24 L4182.55 1384.24 L4161.52 1384.24 L4140.49 1384.24 L4119.46 1384.24 L4098.42 1384.24 L4077.39 1384.24 
  L4056.36 1384.24 L4035.33 1384.24 L4014.29 1384.24 L3993.26 1384.24 L3972.23 1384.24 L3951.2 1384.24 L3930.17 1384.24 L3909.13 1384.24 L3888.1 1384.24 L3867.07 1384.24 
  L3846.04 1384.24 L3825.01 1384.24 L3803.97 1384.24 L3782.94 1384.24 L3761.91 1384.24 L3740.88 1384.24 L3719.84 1384.24 L3698.81 1384.24 L3677.78 1384.24 L3656.75 1384.24 
  L3635.72 1384.24 L3614.68 1384.24 L3593.65 1384.24 L3572.62 1384.24 L3551.59 1384.24 L3530.56 1384.24 L3509.52 1384.24 L3488.49 1384.24 L3467.46 1384.24 L3446.43 1384.24 
  L3425.39 1384.24 L3404.36 1384.24 L3383.33 1384.24 L3362.3 1384.24 L3341.27 1384.24 L3320.23 1384.24 L3299.2 1384.24 L3278.17 1384.24 L3257.14 1384.24 L3236.11 1384.24 
  L3215.07 1384.24 L3194.04 1384.24 L3173.01 1384.24 L3151.98 1384.24 L3130.95 1384.24 L3109.91 1384.24 L3088.88 1384.24 L3067.85 1384.24 L3046.82 1384.24 L3025.78 1384.24 
  L3004.75 1384.24 L2983.72 1384.24 L2962.69 1384.24 L2941.66 1384.24 L2920.62 1384.24 L2899.59 1384.24 L2878.56 1384.24 L2857.53 1384.24 L2836.5 1384.24 L2815.46 1384.24 
  L2794.43 1384.24 L2773.4 1384.24 L2752.37 1384.24 L2731.33 1384.24 L2710.3 1384.24 L2689.27 1384.24 L2668.24 1384.24 L2647.21 1384.24 L2626.17 1384.24 L2605.14 1384.24 
  L2584.11 1384.24 L2563.08 1384.24 L2542.05 1384.24 L2521.01 1384.24 L2499.98 1384.24 L2478.95 1384.24 L2457.92 1384.24 L2436.88 1384.24 L2415.85 1384.24 L2394.82 1384.24 
  L2373.79 1384.24 L2352.76 1384.24 L2331.72 1384.24 L2310.69 1384.24 L2289.66 1384.24 L2268.63 1384.24 L2247.6 1384.24 L2226.56 1384.24 L2205.53 1384.24 L2184.5 1384.24 
  L2163.47 1384.24 L2142.43 1384.24 L2121.4 1384.24 L2100.37 1384.24 L2079.34 1384.24 L2058.31 1384.24 L2037.27 1384.24 L2016.24 1384.24 L1995.21 1384.24 L1974.18 1384.24 
  L1953.15 1384.24 L1932.11 1384.24 L1911.08 1384.24 L1890.05 1384.24 L1869.02 1384.24 L1847.98 1384.24 L1826.95 1384.24 L1805.92 1384.24 L1784.89 1384.24 L1763.86 1384.24 
  L1742.82 1384.24 L1721.79 1384.24 L1700.76 1384.24 L1679.73 1384.24 L1658.7 1384.24 L1637.66 1384.24 L1616.63 1384.24 L1595.6 1384.24 L1574.57 1384.24 L1553.53 1384.24 
  L1532.5 1384.24 L1511.47 1384.24 L1490.44 1384.24 L1469.41 1384.24 L1448.37 1384.24 L1427.34 1384.24 L1406.31 1384.24 L1385.28 1384.24 L1364.25 1384.24 L1343.21 1384.24 
  L1322.18 1384.24 L1301.15 1384.24 L1280.12 1384.24 L1259.08 1384.24 L1238.05 1384.24 L1217.02 1384.24 L1195.99 1384.24 L1174.96 1384.24 L1153.92 1384.24 L1132.89 1384.24 
  L1111.86 1384.24 L1090.83 1384.24 L1069.8 1384.24 L1048.76 1384.24 L1027.73 1384.24 L1006.7 1384.24 L985.667 1384.24 L964.635 1384.24 L943.603 1384.24 L922.57 1384.24 
  L901.538 1384.24 L880.506 1384.24 L859.474 1384.24 L838.442 1384.24 L817.41 1384.24 L796.378 1384.24 L775.346 1384.24 L754.313 1384.24 L733.281 1384.24 L712.249 1384.24 
  L691.217 1384.24 L670.185 1384.24 L649.153 1384.24 L628.121 1384.24 L607.088 1384.24 L586.056 1384.24 L565.024 1384.24 L543.992 1384.24 L522.96 1384.24 L501.928 1384.24 
  L480.896 1384.24 L459.863 1384.24 L438.831 1384.24 L417.799 1384.24 L396.767 1384.24 L375.735 1384.24 L354.703 1384.24 L333.671 1384.24 L312.638 1384.24 L291.606 1384.24 
  L270.574 1384.24 L249.542 1384.24  Z
  " fill="#009af9" fill-rule="evenodd" fill-opacity="1"/>
<polyline clip-path="url(#clip192)" style="stroke:#009af9; stroke-linecap:butt; stroke-linejoin:round; stroke-width:4; stroke-opacity:1; fill:none" points="
  249.542,86.1857 270.574,258.1 291.606,407.385 312.638,537.002 333.671,649.524 354.703,747.194 375.735,831.959 396.767,905.514 417.799,969.332 438.831,1024.69 
  459.863,1072.72 480.896,1114.36 501.928,1150.47 522.96,1181.78 543.992,1208.93 565.024,1232.45 586.056,1252.84 607.088,1270.5 628.121,1285.81 649.153,1299.07 
  670.185,1310.55 691.217,1320.49 712.249,1329.11 733.281,1336.56 754.313,1343.01 775.346,1348.6 796.378,1353.43 817.41,1357.61 838.442,1361.23 859.474,1364.36 
  880.506,1367.06 901.538,1369.4 922.57,1371.43 943.603,1373.18 964.635,1374.69 985.667,1375.99 1006.7,1377.12 1027.73,1378.1 1048.76,1378.94 1069.8,1379.67 
  1090.83,1380.3 1111.86,1380.84 1132.89,1381.31 1153.92,1381.71 1174.96,1382.06 1195.99,1382.36 1217.02,1382.62 1238.05,1382.84 1259.08,1383.04 1280.12,1383.2 
  1301.15,1383.35 1322.18,1383.47 1343.21,1383.58 1364.25,1383.67 1385.28,1383.75 1406.31,1383.82 1427.34,1383.88 1448.37,1383.93 1469.41,1383.97 1490.44,1384.01 
  1511.47,1384.04 1532.5,1384.07 1553.53,1384.09 1574.57,1384.11 1595.6,1384.13 1616.63,1384.15 1637.66,1384.16 1658.7,1384.17 1679.73,1384.18 1700.76,1384.19 
  1721.79,1384.19 1742.82,1384.2 1763.86,1384.21 1784.89,1384.21 1805.92,1384.21 1826.95,1384.22 1847.98,1384.22 1869.02,1384.22 1890.05,1384.23 1911.08,1384.23 
  1932.11,1384.23 1953.15,1384.23 1974.18,1384.23 1995.21,1384.23 2016.24,1384.23 2037.27,1384.23 2058.31,1384.23 2079.34,1384.24 2100.37,1384.24 2121.4,1384.24 
  2142.43,1384.24 2163.47,1384.24 2184.5,1384.24 2205.53,1384.24 2226.56,1384.24 2247.6,1384.24 2268.63,1384.24 2289.66,1384.24 2310.69,1384.24 2331.72,1384.24 
  2352.76,1384.24 2373.79,1384.24 2394.82,1384.24 2415.85,1384.24 2436.88,1384.24 2457.92,1384.24 2478.95,1384.24 2499.98,1384.24 2521.01,1384.24 2542.05,1384.24 
  2563.08,1384.24 2584.11,1384.24 2605.14,1384.24 2626.17,1384.24 2647.21,1384.24 2668.24,1384.24 2689.27,1384.24 2710.3,1384.24 2731.33,1384.24 2752.37,1384.24 
  2773.4,1384.24 2794.43,1384.24 2815.46,1384.24 2836.5,1384.24 2857.53,1384.24 2878.56,1384.24 2899.59,1384.24 2920.62,1384.24 2941.66,1384.24 2962.69,1384.24 
  2983.72,1384.24 3004.75,1384.24 3025.78,1384.24 3046.82,1384.24 3067.85,1384.24 3088.88,1384.24 3109.91,1384.24 3130.95,1384.24 3151.98,1384.24 3173.01,1384.24 
  3194.04,1384.24 3215.07,1384.24 3236.11,1384.24 3257.14,1384.24 3278.17,1384.24 3299.2,1384.24 3320.23,1384.24 3341.27,1384.24 3362.3,1384.24 3383.33,1384.24 
  3404.36,1384.24 3425.39,1384.24 3446.43,1384.24 3467.46,1384.24 3488.49,1384.24 3509.52,1384.24 3530.56,1384.24 3551.59,1384.24 3572.62,1384.24 3593.65,1384.24 
  3614.68,1384.24 3635.72,1384.24 3656.75,1384.24 3677.78,1384.24 3698.81,1384.24 3719.84,1384.24 3740.88,1384.24 3761.91,1384.24 3782.94,1384.24 3803.97,1384.24 
  3825.01,1384.24 3846.04,1384.24 3867.07,1384.24 3888.1,1384.24 3909.13,1384.24 3930.17,1384.24 3951.2,1384.24 3972.23,1384.24 3993.26,1384.24 4014.29,1384.24 
  4035.33,1384.24 4056.36,1384.24 4077.39,1384.24 4098.42,1384.24 4119.46,1384.24 4140.49,1384.24 4161.52,1384.24 4182.55,1384.24 4203.58,1384.24 4224.62,1384.24 
  4245.65,1384.24 4266.68,1384.24 4287.71,1384.24 4308.74,1384.24 4329.78,1384.24 4350.81,1384.24 4371.84,1384.24 4392.87,1384.24 4413.91,1384.24 4434.94,1384.24 
  4455.97,1384.24 4477,1384.24 4498.03,1384.24 4519.07,1384.24 4540.1,1384.24 4561.13,1384.24 4582.16,1384.24 4603.19,1384.24 4624.23,1384.24 4645.26,1384.24 
  4666.29,1384.24 4687.32,1384.24 4708.36,1384.24 4729.39,1384.24 4750.42,1384.24 4771.45,1384.24 4792.48,1384.24 4813.52,1384.24 4834.55,1384.24 4855.58,1384.24 
  4876.61,1384.24 4897.64,1384.24 4918.68,1384.24 4939.71,1384.24 4960.74,1384.24 4981.77,1384.24 5002.81,1384.24 5023.84,1384.24 5044.87,1384.24 5065.9,1384.24 
  5086.93,1384.24 5107.97,1384.24 5129,1384.24 5150.03,1384.24 5171.06,1384.24 5192.09,1384.24 5213.13,1384.24 5234.16,1384.24 5255.19,1384.24 5276.22,1384.24 
  5297.26,1384.24 5318.29,1384.24 5339.32,1384.24 5360.35,1384.24 5381.38,1384.24 5402.42,1384.24 5423.45,1384.24 5444.48,1384.24 5465.51,1384.24 5486.54,1384.24 
  5507.58,1384.24 5528.61,1384.24 5549.64,1384.24 5570.67,1384.24 5591.71,1384.24 5612.74,1384.24 5633.77,1384.24 5654.8,1384.24 5675.83,1384.24 5696.87,1384.24 
  5717.9,1384.24 5738.93,1384.24 5759.96,1384.24 5780.99,1384.24 5802.03,1384.24 5823.06,1384.24 5844.09,1384.24 5865.12,1384.24 5886.16,1384.24 5907.19,1384.24 
  5928.22,1384.24 5949.25,1384.24 5970.28,1384.24 5991.32,1384.24 6012.35,1384.24 6033.38,1384.24 6054.41,1384.24 6075.44,1384.24 6096.48,1384.24 6117.51,1384.24 
  6138.54,1384.24 6159.57,1384.24 6180.61,1384.24 6201.64,1384.24 6222.67,1384.24 6243.7,1384.24 6264.73,1384.24 6285.77,1384.24 6306.8,1384.24 6327.83,1384.24 
  6348.86,1384.24 6369.89,1384.24 6390.93,1384.24 6411.96,1384.24 6432.99,1384.24 6454.02,1384.24 6475.06,1384.24 6496.09,1384.24 6517.12,1384.24 6538.15,1384.24 
  6559.18,1384.24 6580.22,1384.24 6601.25,1384.24 6622.28,1384.24 6643.31,1384.24 6664.34,1384.24 6685.38,1384.24 6706.41,1384.24 6727.44,1384.24 6748.47,1384.24 
  6769.51,1384.24 6790.54,1384.24 6811.57,1384.24 6832.6,1384.24 6853.63,1384.24 6874.67,1384.24 6895.7,1384.24 6916.73,1384.24 6937.76,1384.24 6958.79,1384.24 
  6979.83,1384.24 7000.86,1384.24 7021.89,1384.24 7042.92,1384.24 7063.95,1384.24 7084.99,1384.24 7106.02,1384.24 7127.05,1384.24 7148.08,1384.24 7169.12,1384.24 
  7190.15,1384.24 7211.18,1384.24 7232.21,1384.24 7253.24,1384.24 7274.28,1384.24 7295.31,1384.24 7316.34,1384.24 7337.37,1384.24 7358.4,1384.24 7379.44,1384.24 
  7400.47,1384.24 7421.5,1384.24 7442.53,1384.24 7463.57,1384.24 7484.6,1384.24 7505.63,1384.24 7526.66,1384.24 7547.69,1384.24 7568.73,1384.24 7589.76,1384.24 
  7610.79,1384.24 7631.82,1384.24 7652.85,1384.24 7673.89,1384.24 7694.92,1384.24 7715.95,1384.24 7736.98,1384.24 7758.02,1384.24 7779.05,1384.24 7800.08,1384.24 
  7821.11,1384.24 7842.14,1384.24 7863.18,1384.24 7884.21,1384.24 7905.24,1384.24 7926.27,1384.24 7947.3,1384.24 7968.34,1384.24 7989.37,1384.24 8010.4,1384.24 
  8031.43,1384.24 8052.47,1384.24 8073.5,1384.24 8094.53,1384.24 8115.56,1384.24 8136.59,1384.24 8157.63,1384.24 8178.66,1384.24 8199.69,1384.24 8220.72,1384.24 
  8241.75,1384.24 8262.79,1384.24 8283.82,1384.24 8304.85,1384.24 8325.88,1384.24 8346.92,1384.24 8367.95,1384.24 8388.98,1384.24 8410.01,1384.24 8431.04,1384.24 
  8452.08,1384.24 8473.11,1384.24 8494.14,1384.24 8515.17,1384.24 8536.2,1384.24 8557.24,1384.24 8578.27,1384.24 8599.3,1384.24 8620.33,1384.24 8641.37,1384.24 
  8662.4,1384.24 8683.43,1384.24 8704.46,1384.24 8725.49,1384.24 8746.53,1384.24 8767.56,1384.24 8788.59,1384.24 8809.62,1384.24 8830.65,1384.24 8851.69,1384.24 
  8872.72,1384.24 8893.75,1384.24 8914.78,1384.24 8935.82,1384.24 8956.85,1384.24 8977.88,1384.24 8998.91,1384.24 9019.94,1384.24 9040.98,1384.24 9062.01,1384.24 
  9083.04,1384.24 9104.07,1384.24 9125.1,1384.24 9146.14,1384.24 9167.17,1384.24 9188.2,1384.24 9209.23,1384.24 9230.27,1384.24 9251.3,1384.24 9272.33,1384.24 
  9293.36,1384.24 9314.39,1384.24 9335.43,1384.24 9356.46,1384.24 9377.49,1384.24 9398.52,1384.24 9419.55,1384.24 9440.59,1384.24 9461.62,1384.24 9482.65,1384.24 
  9503.68,1384.24 9524.72,1384.24 9545.75,1384.24 9566.78,1384.24 9587.81,1384.24 9608.84,1384.24 9629.88,1384.24 9650.91,1384.24 9671.94,1384.24 9692.97,1384.24 
  9714,1384.24 9735.04,1384.24 9756.07,1384.24 9777.1,1384.24 9798.13,1384.24 9819.17,1384.24 9840.2,1384.24 9861.23,1384.24 9882.26,1384.24 9903.29,1384.24 
  9924.33,1384.24 9945.36,1384.24 9966.39,1384.24 9987.42,1384.24 10008.5,1384.24 10029.5,1384.24 10050.5,1384.24 10071.6,1384.24 10092.6,1384.24 10113.6,1384.24 
  10134.6,1384.24 10155.7,1384.24 10176.7,1384.24 10197.7,1384.24 10218.8,1384.24 10239.8,1384.24 10260.8,1384.24 10281.9,1384.24 10302.9,1384.24 10323.9,1384.24 
  10345,1384.24 10366,1384.24 10387,1384.24 10408.1,1384.24 10429.1,1384.24 10450.1,1384.24 10471.2,1384.24 10492.2,1384.24 10513.2,1384.24 10534.3,1384.24 
  10555.3,1384.24 10576.3,1384.24 10597.4,1384.24 10618.4,1384.24 10639.4,1384.24 10660.5,1384.24 10681.5,1384.24 10702.5,1384.24 10723.5,1384.24 10744.6,1384.24 
  10765.6,1384.24 10786.6,1384.24 10807.7,1384.24 10828.7,1384.24 10849.7,1384.24 10870.8,1384.24 10891.8,1384.24 10912.8,1384.24 10933.9,1384.24 10954.9,1384.24 
  10975.9,1384.24 10997,1384.24 11018,1384.24 11039,1384.24 11060.1,1384.24 11081.1,1384.24 11102.1,1384.24 11123.2,1384.24 11144.2,1384.24 11165.2,1384.24 
  11186.3,1384.24 11207.3,1384.24 11228.3,1384.24 11249.4,1384.24 11270.4,1384.24 11291.4,1384.24 11312.4,1384.24 11333.5,1384.24 11354.5,1384.24 11375.5,1384.24 
  11396.6,1384.24 11417.6,1384.24 11438.6,1384.24 11459.7,1384.24 11480.7,1384.24 11501.7,1384.24 11522.8,1384.24 11543.8,1384.24 11564.8,1384.24 11585.9,1384.24 
  11606.9,1384.24 11627.9,1384.24 11649,1384.24 11670,1384.24 11691,1384.24 11712.1,1384.24 11733.1,1384.24 11754.1,1384.24 11775.2,1384.24 11796.2,1384.24 
  11817.2,1384.24 11838.3,1384.24 11859.3,1384.24 11880.3,1384.24 11901.3,1384.24 11922.4,1384.24 11943.4,1384.24 11964.4,1384.24 11985.5,1384.24 12006.5,1384.24 
  12027.5,1384.24 12048.6,1384.24 12069.6,1384.24 12090.6,1384.24 12111.7,1384.24 12132.7,1384.24 12153.7,1384.24 12174.8,1384.24 12195.8,1384.24 12216.8,1384.24 
  12237.9,1384.24 12258.9,1384.24 12279.9,1384.24 12301,1384.24 12322,1384.24 12343,1384.24 12364.1,1384.24 12385.1,1384.24 12406.1,1384.24 12427.2,1384.24 
  12448.2,1384.24 12469.2,1384.24 12490.2,1384.24 12511.3,1384.24 12532.3,1384.24 12553.3,1384.24 12574.4,1384.24 12595.4,1384.24 12616.4,1384.24 12637.5,1384.24 
  12658.5,1384.24 12679.5,1384.24 12700.6,1384.24 12721.6,1384.24 12742.6,1384.24 12763.7,1384.24 12784.7,1384.24 12805.7,1384.24 12826.8,1384.24 12847.8,1384.24 
  12868.8,1384.24 12889.9,1384.24 12910.9,1384.24 12931.9,1384.24 12953,1384.24 12974,1384.24 12995,1384.24 13016.1,1384.24 13037.1,1384.24 13058.1,1384.24 
  13079.1,1384.24 13100.2,1384.24 13121.2,1384.24 13142.2,1384.24 13163.3,1384.24 13184.3,1384.24 13205.3,1384.24 13226.4,1384.24 13247.4,1384.24 13268.4,1384.24 
  13289.5,1384.24 13310.5,1384.24 13331.5,1384.24 13352.6,1384.24 13373.6,1384.24 13394.6,1384.24 13415.7,1384.24 13436.7,1384.24 13457.7,1384.24 13478.8,1384.24 
  13499.8,1384.24 13520.8,1384.24 13541.9,1384.24 13562.9,1384.24 13583.9,1384.24 13605,1384.24 13626,1384.24 13647,1384.24 13668,1384.24 13689.1,1384.24 
  13710.1,1384.24 13731.1,1384.24 13752.2,1384.24 13773.2,1384.24 13794.2,1384.24 13815.3,1384.24 13836.3,1384.24 13857.3,1384.24 13878.4,1384.24 13899.4,1384.24 
  13920.4,1384.24 13941.5,1384.24 13962.5,1384.24 13983.5,1384.24 14004.6,1384.24 14025.6,1384.24 14046.6,1384.24 14067.7,1384.24 14088.7,1384.24 14109.7,1384.24 
  14130.8,1384.24 14151.8,1384.24 14172.8,1384.24 14193.9,1384.24 14214.9,1384.24 14235.9,1384.24 14256.9,1384.24 14278,1384.24 14299,1384.24 14320,1384.24 
  14341.1,1384.24 14362.1,1384.24 14383.1,1384.24 14404.2,1384.24 14425.2,1384.24 14446.2,1384.24 14467.3,1384.24 14488.3,1384.24 14509.3,1384.24 14530.4,1384.24 
  14551.4,1384.24 14572.4,1384.24 14593.5,1384.24 14614.5,1384.24 14635.5,1384.24 14656.6,1384.24 14677.6,1384.24 14698.6,1384.24 14719.7,1384.24 14740.7,1384.24 
  14761.7,1384.24 14782.7,1384.24 14803.8,1384.24 14824.8,1384.24 14845.8,1384.24 14866.9,1384.24 14887.9,1384.24 14908.9,1384.24 14930,1384.24 14951,1384.24 
  14972,1384.24 14993.1,1384.24 15014.1,1384.24 15035.1,1384.24 15056.2,1384.24 15077.2,1384.24 15098.2,1384.24 15119.3,1384.24 15140.3,1384.24 15161.3,1384.24 
  15182.4,1384.24 15203.4,1384.24 15224.4,1384.24 15245.5,1384.24 15266.5,1384.24 15287.5,1384.24 15308.6,1384.24 15329.6,1384.24 15350.6,1384.24 15371.6,1384.24 
  15392.7,1384.24 15413.7,1384.24 15434.7,1384.24 15455.8,1384.24 15476.8,1384.24 15497.8,1384.24 15518.9,1384.24 15539.9,1384.24 15560.9,1384.24 15582,1384.24 
  15603,1384.24 15624,1384.24 15645.1,1384.24 15666.1,1384.24 15687.1,1384.24 15708.2,1384.24 15729.2,1384.24 15750.2,1384.24 15771.3,1384.24 15792.3,1384.24 
  15813.3,1384.24 15834.4,1384.24 15855.4,1384.24 15876.4,1384.24 15897.5,1384.24 15918.5,1384.24 15939.5,1384.24 15960.5,1384.24 15981.6,1384.24 16002.6,1384.24 
  16023.6,1384.24 16044.7,1384.24 16065.7,1384.24 16086.7,1384.24 16107.8,1384.24 16128.8,1384.24 16149.8,1384.24 16170.9,1384.24 16191.9,1384.24 16212.9,1384.24 
  16234,1384.24 16255,1384.24 16276,1384.24 16297.1,1384.24 16318.1,1384.24 16339.1,1384.24 16360.2,1384.24 16381.2,1384.24 16402.2,1384.24 16423.3,1384.24 
  16444.3,1384.24 16465.3,1384.24 16486.4,1384.24 16507.4,1384.24 16528.4,1384.24 16549.4,1384.24 16570.5,1384.24 16591.5,1384.24 16612.5,1384.24 16633.6,1384.24 
  16654.6,1384.24 16675.6,1384.24 16696.7,1384.24 16717.7,1384.24 16738.7,1384.24 16759.8,1384.24 16780.8,1384.24 16801.8,1384.24 16822.9,1384.24 16843.9,1384.24 
  16864.9,1384.24 16886,1384.24 16907,1384.24 16928,1384.24 16949.1,1384.24 16970.1,1384.24 16991.1,1384.24 17012.2,1384.24 17033.2,1384.24 17054.2,1384.24 
  17075.3,1384.24 17096.3,1384.24 17117.3,1384.24 17138.3,1384.24 17159.4,1384.24 17180.4,1384.24 17201.4,1384.24 17222.5,1384.24 17243.5,1384.24 17264.5,1384.24 
  17285.6,1384.24 17306.6,1384.24 17327.6,1384.24 17348.7,1384.24 17369.7,1384.24 17390.7,1384.24 17411.8,1384.24 17432.8,1384.24 17453.8,1384.24 17474.9,1384.24 
  17495.9,1384.24 17516.9,1384.24 17538,1384.24 17559,1384.24 17580,1384.24 17601.1,1384.24 17622.1,1384.24 17643.1,1384.24 17664.2,1384.24 17685.2,1384.24 
  17706.2,1384.24 17727.2,1384.24 17748.3,1384.24 17769.3,1384.24 17790.3,1384.24 17811.4,1384.24 17832.4,1384.24 17853.4,1384.24 17874.5,1384.24 17895.5,1384.24 
  17916.5,1384.24 17937.6,1384.24 17958.6,1384.24 17979.6,1384.24 18000.7,1384.24 18021.7,1384.24 18042.7,1384.24 18063.8,1384.24 18084.8,1384.24 18105.8,1384.24 
  18126.9,1384.24 18147.9,1384.24 18168.9,1384.24 18190,1384.24 18211,1384.24 18232,1384.24 18253.1,1384.24 18274.1,1384.24 18295.1,1384.24 18316.1,1384.24 
  18337.2,1384.24 18358.2,1384.24 18379.2,1384.24 18400.3,1384.24 18421.3,1384.24 18442.3,1384.24 18463.4,1384.24 18484.4,1384.24 18505.4,1384.24 18526.5,1384.24 
  18547.5,1384.24 18568.5,1384.24 18589.6,1384.24 18610.6,1384.24 18631.6,1384.24 18652.7,1384.24 18673.7,1384.24 18694.7,1384.24 18715.8,1384.24 18736.8,1384.24 
  18757.8,1384.24 18778.9,1384.24 18799.9,1384.24 18820.9,1384.24 18842,1384.24 18863,1384.24 18884,1384.24 18905,1384.24 18926.1,1384.24 18947.1,1384.24 
  18968.1,1384.24 18989.2,1384.24 19010.2,1384.24 19031.2,1384.24 19052.3,1384.24 19073.3,1384.24 19094.3,1384.24 19115.4,1384.24 19136.4,1384.24 19157.4,1384.24 
  19178.5,1384.24 19199.5,1384.24 19220.5,1384.24 19241.6,1384.24 19262.6,1384.24 19283.6,1384.24 19304.7,1384.24 19325.7,1384.24 19346.7,1384.24 19367.8,1384.24 
  19388.8,1384.24 19409.8,1384.24 19430.9,1384.24 19451.9,1384.24 19472.9,1384.24 19493.9,1384.24 19515,1384.24 19536,1384.24 19557,1384.24 19578.1,1384.24 
  19599.1,1384.24 19620.1,1384.24 19641.2,1384.24 19662.2,1384.24 19683.2,1384.24 19704.3,1384.24 19725.3,1384.24 19746.3,1384.24 19767.4,1384.24 19788.4,1384.24 
  19809.4,1384.24 19830.5,1384.24 19851.5,1384.24 19872.5,1384.24 19893.6,1384.24 19914.6,1384.24 19935.6,1384.24 19956.7,1384.24 19977.7,1384.24 19998.7,1384.24 
  20019.8,1384.24 20040.8,1384.24 20061.8,1384.24 20082.8,1384.24 20103.9,1384.24 20124.9,1384.24 20145.9,1384.24 20167,1384.24 20188,1384.24 20209,1384.24 
  20230.1,1384.24 20251.1,1384.24 20272.1,1384.24 20293.2,1384.24 20314.2,1384.24 20335.2,1384.24 20356.3,1384.24 20377.3,1384.24 20398.3,1384.24 20419.4,1384.24 
  20440.4,1384.24 20461.4,1384.24 20482.5,1384.24 20503.5,1384.24 20524.5,1384.24 20545.6,1384.24 20566.6,1384.24 20587.6,1384.24 20608.7,1384.24 20629.7,1384.24 
  20650.7,1384.24 20671.7,1384.24 20692.8,1384.24 20713.8,1384.24 20734.8,1384.24 20755.9,1384.24 20776.9,1384.24 20797.9,1384.24 20819,1384.24 20840,1384.24 
  20861,1384.24 20882.1,1384.24 20903.1,1384.24 20924.1,1384.24 20945.2,1384.24 20966.2,1384.24 20987.2,1384.24 21008.3,1384.24 21029.3,1384.24 21050.3,1384.24 
  21071.4,1384.24 21092.4,1384.24 21113.4,1384.24 21134.5,1384.24 21155.5,1384.24 21176.5,1384.24 21197.6,1384.24 21218.6,1384.24 21239.6,1384.24 21260.6,1384.24 
  21281.7,1384.24 
  "/>
<path clip-path="url(#clip190)" d="
M1927.08 196.789 L2282.65 196.789 L2282.65 93.1086 L1927.08 93.1086  Z
  " fill="#ffffff" fill-rule="evenodd" fill-opacity="1"/>
<polyline clip-path="url(#clip190)" style="stroke:#000000; stroke-linecap:butt; stroke-linejoin:round; stroke-width:4; stroke-opacity:1; fill:none" points="
  1927.08,196.789 2282.65,196.789 2282.65,93.1086 1927.08,93.1086 1927.08,196.789 
  "/>
<path clip-path="url(#clip190)" d="
M1950.45 165.685 L2090.67 165.685 L2090.67 124.213 L1950.45 124.213 L1950.45 165.685  Z
  " fill="#009af9" fill-rule="evenodd" fill-opacity="1"/>
<polyline clip-path="url(#clip190)" style="stroke:#009af9; stroke-linecap:butt; stroke-linejoin:round; stroke-width:4; stroke-opacity:1; fill:none" points="
  1950.45,124.213 2090.67,124.213 
  "/>
<path clip-path="url(#clip190)" d="M2114.04 127.669 L2118.71 127.669 L2118.71 141.835 L2135.7 141.835 L2135.7 127.669 L2140.38 127.669 L2140.38 162.229 L2135.7 162.229 L2135.7 145.77 L2118.71 145.77 L2118.71 162.229 L2114.04 162.229 L2114.04 127.669 Z" fill="#000000" fill-rule="evenodd" fill-opacity="1" /><path clip-path="url(#clip190)" d="M2154.36 131.511 L2154.36 144.497 L2160.24 144.497 Q2163.5 144.497 2165.29 142.807 Q2167.07 141.118 2167.07 137.993 Q2167.07 134.891 2165.29 133.201 Q2163.5 131.511 2160.24 131.511 L2154.36 131.511 M2149.68 127.669 L2160.24 127.669 Q2166.05 127.669 2169.01 130.307 Q2172 132.923 2172 137.993 Q2172 143.108 2169.01 145.724 Q2166.05 148.34 2160.24 148.34 L2154.36 148.34 L2154.36 162.229 L2149.68 162.229 L2149.68 127.669 Z" fill="#000000" fill-rule="evenodd" fill-opacity="1" /><path clip-path="url(#clip190)" d="M2182.95 131.511 L2182.95 144.497 L2188.83 144.497 Q2192.09 144.497 2193.87 142.807 Q2195.66 141.118 2195.66 137.993 Q2195.66 134.891 2193.87 133.201 Q2192.09 131.511 2188.83 131.511 L2182.95 131.511 M2178.27 127.669 L2188.83 127.669 Q2194.64 127.669 2197.6 130.307 Q2200.59 132.923 2200.59 137.993 Q2200.59 143.108 2197.6 145.724 Q2194.64 148.34 2188.83 148.34 L2182.95 148.34 L2182.95 162.229 L2178.27 162.229 L2178.27 127.669 Z" fill="#000000" fill-rule="evenodd" fill-opacity="1" /><path clip-path="url(#clip190)" d="M2211.54 131.511 L2211.54 158.386 L2217.18 158.386 Q2224.34 158.386 2227.65 155.145 Q2230.98 151.905 2230.98 144.914 Q2230.98 137.969 2227.65 134.752 Q2224.34 131.511 2217.18 131.511 L2211.54 131.511 M2206.86 127.669 L2216.47 127.669 Q2226.51 127.669 2231.21 131.858 Q2235.91 136.025 2235.91 144.914 Q2235.91 153.849 2231.19 158.039 Q2226.47 162.229 2216.47 162.229 L2206.86 162.229 L2206.86 127.669 Z" fill="#000000" fill-rule="evenodd" fill-opacity="1" /></svg>
