<?xml version="1.0" encoding="utf-8"?>
<svg xmlns="http://www.w3.org/2000/svg" xmlns:xlink="http://www.w3.org/1999/xlink" width="600" height="400" viewBox="0 0 2400 1600">
<defs>
  <clipPath id="clip390">
    <rect x="0" y="0" width="2400" height="1600"/>
  </clipPath>
</defs>
<path clip-path="url(#clip390)" d="
M0 1600 L2400 1600 L2400 0 L0 0  Z
  " fill="#ffffff" fill-rule="evenodd" fill-opacity="1"/>
<defs>
  <clipPath id="clip391">
    <rect x="480" y="0" width="1681" height="1600"/>
  </clipPath>
</defs>
<path clip-path="url(#clip390)" d="
M156.112 1486.45 L2352.76 1486.45 L2352.76 47.2441 L156.112 47.2441  Z
  " fill="#ffffff" fill-rule="evenodd" fill-opacity="1"/>
<defs>
  <clipPath id="clip392">
    <rect x="156" y="47" width="2198" height="1440"/>
  </clipPath>
</defs>
<polyline clip-path="url(#clip392)" style="stroke:#000000; stroke-linecap:butt; stroke-linejoin:round; stroke-width:2; stroke-opacity:0.1; fill:none" points="
  156.112,1486.45 156.112,47.2441 
  "/>
<polyline clip-path="url(#clip392)" style="stroke:#000000; stroke-linecap:butt; stroke-linejoin:round; stroke-width:2; stroke-opacity:0.1; fill:none" points="
  595.441,1486.45 595.441,47.2441 
  "/>
<polyline clip-path="url(#clip392)" style="stroke:#000000; stroke-linecap:butt; stroke-linejoin:round; stroke-width:2; stroke-opacity:0.1; fill:none" points="
  1034.77,1486.45 1034.77,47.2441 
  "/>
<polyline clip-path="url(#clip392)" style="stroke:#000000; stroke-linecap:butt; stroke-linejoin:round; stroke-width:2; stroke-opacity:0.1; fill:none" points="
  1474.1,1486.45 1474.1,47.2441 
  "/>
<polyline clip-path="url(#clip392)" style="stroke:#000000; stroke-linecap:butt; stroke-linejoin:round; stroke-width:2; stroke-opacity:0.1; fill:none" points="
  1913.43,1486.45 1913.43,47.2441 
  "/>
<polyline clip-path="url(#clip392)" style="stroke:#000000; stroke-linecap:butt; stroke-linejoin:round; stroke-width:2; stroke-opacity:0.1; fill:none" points="
  2352.76,1486.45 2352.76,47.2441 
  "/>
<polyline clip-path="url(#clip390)" style="stroke:#000000; stroke-linecap:butt; stroke-linejoin:round; stroke-width:4; stroke-opacity:1; fill:none" points="
  156.112,1486.45 2352.76,1486.45 
  "/>
<polyline clip-path="url(#clip390)" style="stroke:#000000; stroke-linecap:butt; stroke-linejoin:round; stroke-width:4; stroke-opacity:1; fill:none" points="
  156.112,1486.45 156.112,1467.55 
  "/>
<polyline clip-path="url(#clip390)" style="stroke:#000000; stroke-linecap:butt; stroke-linejoin:round; stroke-width:4; stroke-opacity:1; fill:none" points="
  595.441,1486.45 595.441,1467.55 
  "/>
<polyline clip-path="url(#clip390)" style="stroke:#000000; stroke-linecap:butt; stroke-linejoin:round; stroke-width:4; stroke-opacity:1; fill:none" points="
  1034.77,1486.45 1034.77,1467.55 
  "/>
<polyline clip-path="url(#clip390)" style="stroke:#000000; stroke-linecap:butt; stroke-linejoin:round; stroke-width:4; stroke-opacity:1; fill:none" points="
  1474.1,1486.45 1474.1,1467.55 
  "/>
<polyline clip-path="url(#clip390)" style="stroke:#000000; stroke-linecap:butt; stroke-linejoin:round; stroke-width:4; stroke-opacity:1; fill:none" points="
  1913.43,1486.45 1913.43,1467.55 
  "/>
<polyline clip-path="url(#clip390)" style="stroke:#000000; stroke-linecap:butt; stroke-linejoin:round; stroke-width:4; stroke-opacity:1; fill:none" points="
  2352.76,1486.45 2352.76,1467.55 
  "/>
<path clip-path="url(#clip390)" d="M133.497 1517.37 Q129.885 1517.37 128.057 1520.93 Q126.251 1524.47 126.251 1531.6 Q126.251 1538.71 128.057 1542.27 Q129.885 1545.82 133.497 1545.82 Q137.131 1545.82 138.936 1542.27 Q140.765 1538.71 140.765 1531.6 Q140.765 1524.47 138.936 1520.93 Q137.131 1517.37 133.497 1517.37 M133.497 1513.66 Q139.307 1513.66 142.362 1518.27 Q145.441 1522.85 145.441 1531.6 Q145.441 1540.33 142.362 1544.94 Q139.307 1549.52 133.497 1549.52 Q127.686 1549.52 124.608 1544.94 Q121.552 1540.33 121.552 1531.6 Q121.552 1522.85 124.608 1518.27 Q127.686 1513.66 133.497 1513.66 Z" fill="#000000" fill-rule="evenodd" fill-opacity="1" /><path clip-path="url(#clip390)" d="M153.658 1542.97 L158.543 1542.97 L158.543 1548.85 L153.658 1548.85 L153.658 1542.97 Z" fill="#000000" fill-rule="evenodd" fill-opacity="1" /><path clip-path="url(#clip390)" d="M178.728 1517.37 Q175.117 1517.37 173.288 1520.93 Q171.482 1524.47 171.482 1531.6 Q171.482 1538.71 173.288 1542.27 Q175.117 1545.82 178.728 1545.82 Q182.362 1545.82 184.168 1542.27 Q185.996 1538.71 185.996 1531.6 Q185.996 1524.47 184.168 1520.93 Q182.362 1517.37 178.728 1517.37 M178.728 1513.66 Q184.538 1513.66 187.593 1518.27 Q190.672 1522.85 190.672 1531.6 Q190.672 1540.33 187.593 1544.94 Q184.538 1549.52 178.728 1549.52 Q172.918 1549.52 169.839 1544.94 Q166.783 1540.33 166.783 1531.6 Q166.783 1522.85 169.839 1518.27 Q172.918 1513.66 178.728 1513.66 Z" fill="#000000" fill-rule="evenodd" fill-opacity="1" /><path clip-path="url(#clip390)" d="M573.624 1517.37 Q570.013 1517.37 568.184 1520.93 Q566.379 1524.47 566.379 1531.6 Q566.379 1538.71 568.184 1542.27 Q570.013 1545.82 573.624 1545.82 Q577.258 1545.82 579.064 1542.27 Q580.892 1538.71 580.892 1531.6 Q580.892 1524.47 579.064 1520.93 Q577.258 1517.37 573.624 1517.37 M573.624 1513.66 Q579.434 1513.66 582.49 1518.27 Q585.568 1522.85 585.568 1531.6 Q585.568 1540.33 582.49 1544.94 Q579.434 1549.52 573.624 1549.52 Q567.814 1549.52 564.735 1544.94 Q561.679 1540.33 561.679 1531.6 Q561.679 1522.85 564.735 1518.27 Q567.814 1513.66 573.624 1513.66 Z" fill="#000000" fill-rule="evenodd" fill-opacity="1" /><path clip-path="url(#clip390)" d="M593.786 1542.97 L598.67 1542.97 L598.67 1548.85 L593.786 1548.85 L593.786 1542.97 Z" fill="#000000" fill-rule="evenodd" fill-opacity="1" /><path clip-path="url(#clip390)" d="M612.883 1544.91 L629.202 1544.91 L629.202 1548.85 L607.258 1548.85 L607.258 1544.91 Q609.92 1542.16 614.503 1537.53 Q619.11 1532.88 620.29 1531.53 Q622.536 1529.01 623.415 1527.27 Q624.318 1525.51 624.318 1523.82 Q624.318 1521.07 622.374 1519.33 Q620.452 1517.6 617.35 1517.6 Q615.151 1517.6 612.698 1518.36 Q610.267 1519.13 607.489 1520.68 L607.489 1515.95 Q610.313 1514.82 612.767 1514.24 Q615.221 1513.66 617.258 1513.66 Q622.628 1513.66 625.823 1516.35 Q629.017 1519.03 629.017 1523.52 Q629.017 1525.65 628.207 1527.57 Q627.42 1529.47 625.313 1532.07 Q624.735 1532.74 621.633 1535.95 Q618.531 1539.15 612.883 1544.91 Z" fill="#000000" fill-rule="evenodd" fill-opacity="1" /><path clip-path="url(#clip390)" d="M1011.91 1517.37 Q1008.3 1517.37 1006.47 1520.93 Q1004.67 1524.47 1004.67 1531.6 Q1004.67 1538.71 1006.47 1542.27 Q1008.3 1545.82 1011.91 1545.82 Q1015.55 1545.82 1017.35 1542.27 Q1019.18 1538.71 1019.18 1531.6 Q1019.18 1524.47 1017.35 1520.93 Q1015.55 1517.37 1011.91 1517.37 M1011.91 1513.66 Q1017.72 1513.66 1020.78 1518.27 Q1023.86 1522.85 1023.86 1531.6 Q1023.86 1540.33 1020.78 1544.94 Q1017.72 1549.52 1011.91 1549.52 Q1006.1 1549.52 1003.02 1544.94 Q999.967 1540.33 999.967 1531.6 Q999.967 1522.85 1003.02 1518.27 Q1006.1 1513.66 1011.91 1513.66 Z" fill="#000000" fill-rule="evenodd" fill-opacity="1" /><path clip-path="url(#clip390)" d="M1032.07 1542.97 L1036.96 1542.97 L1036.96 1548.85 L1032.07 1548.85 L1032.07 1542.97 Z" fill="#000000" fill-rule="evenodd" fill-opacity="1" /><path clip-path="url(#clip390)" d="M1059.99 1518.36 L1048.18 1536.81 L1059.99 1536.81 L1059.99 1518.36 M1058.76 1514.29 L1064.64 1514.29 L1064.64 1536.81 L1069.57 1536.81 L1069.57 1540.7 L1064.64 1540.7 L1064.64 1548.85 L1059.99 1548.85 L1059.99 1540.7 L1044.39 1540.7 L1044.39 1536.19 L1058.76 1514.29 Z" fill="#000000" fill-rule="evenodd" fill-opacity="1" /><path clip-path="url(#clip390)" d="M1451.4 1517.37 Q1447.79 1517.37 1445.96 1520.93 Q1444.16 1524.47 1444.16 1531.6 Q1444.16 1538.71 1445.96 1542.27 Q1447.79 1545.82 1451.4 1545.82 Q1455.04 1545.82 1456.84 1542.27 Q1458.67 1538.71 1458.67 1531.6 Q1458.67 1524.47 1456.84 1520.93 Q1455.04 1517.37 1451.4 1517.37 M1451.4 1513.66 Q1457.21 1513.66 1460.27 1518.27 Q1463.35 1522.85 1463.35 1531.6 Q1463.35 1540.33 1460.27 1544.94 Q1457.21 1549.52 1451.4 1549.52 Q1445.59 1549.52 1442.51 1544.94 Q1439.46 1540.33 1439.46 1531.6 Q1439.46 1522.85 1442.51 1518.27 Q1445.59 1513.66 1451.4 1513.66 Z" fill="#000000" fill-rule="evenodd" fill-opacity="1" /><path clip-path="url(#clip390)" d="M1471.56 1542.97 L1476.45 1542.97 L1476.45 1548.85 L1471.56 1548.85 L1471.56 1542.97 Z" fill="#000000" fill-rule="evenodd" fill-opacity="1" /><path clip-path="url(#clip390)" d="M1497.21 1529.7 Q1494.06 1529.7 1492.21 1531.86 Q1490.38 1534.01 1490.38 1537.76 Q1490.38 1541.49 1492.21 1543.66 Q1494.06 1545.82 1497.21 1545.82 Q1500.36 1545.82 1502.19 1543.66 Q1504.04 1541.49 1504.04 1537.76 Q1504.04 1534.01 1502.19 1531.86 Q1500.36 1529.7 1497.21 1529.7 M1506.49 1515.05 L1506.49 1519.31 Q1504.73 1518.48 1502.93 1518.04 Q1501.15 1517.6 1499.39 1517.6 Q1494.76 1517.6 1492.3 1520.72 Q1489.87 1523.85 1489.53 1530.17 Q1490.89 1528.15 1492.95 1527.09 Q1495.01 1526 1497.49 1526 Q1502.7 1526 1505.71 1529.17 Q1508.74 1532.32 1508.74 1537.76 Q1508.74 1543.08 1505.59 1546.3 Q1502.44 1549.52 1497.21 1549.52 Q1491.22 1549.52 1488.05 1544.94 Q1484.87 1540.33 1484.87 1531.6 Q1484.87 1523.41 1488.76 1518.55 Q1492.65 1513.66 1499.2 1513.66 Q1500.96 1513.66 1502.74 1514.01 Q1504.55 1514.36 1506.49 1515.05 Z" fill="#000000" fill-rule="evenodd" fill-opacity="1" /><path clip-path="url(#clip390)" d="M1890.86 1517.37 Q1887.25 1517.37 1885.42 1520.93 Q1883.61 1524.47 1883.61 1531.6 Q1883.61 1538.71 1885.42 1542.27 Q1887.25 1545.82 1890.86 1545.82 Q1894.49 1545.82 1896.3 1542.27 Q1898.13 1538.71 1898.13 1531.6 Q1898.13 1524.47 1896.3 1520.93 Q1894.49 1517.37 1890.86 1517.37 M1890.86 1513.66 Q1896.67 1513.66 1899.72 1518.27 Q1902.8 1522.85 1902.8 1531.6 Q1902.8 1540.33 1899.72 1544.94 Q1896.67 1549.52 1890.86 1549.52 Q1885.05 1549.52 1881.97 1544.94 Q1878.91 1540.33 1878.91 1531.6 Q1878.91 1522.85 1881.97 1518.27 Q1885.05 1513.66 1890.86 1513.66 Z" fill="#000000" fill-rule="evenodd" fill-opacity="1" /><path clip-path="url(#clip390)" d="M1911.02 1542.97 L1915.9 1542.97 L1915.9 1548.85 L1911.02 1548.85 L1911.02 1542.97 Z" fill="#000000" fill-rule="evenodd" fill-opacity="1" /><path clip-path="url(#clip390)" d="M1936.09 1532.44 Q1932.76 1532.44 1930.83 1534.22 Q1928.94 1536 1928.94 1539.13 Q1928.94 1542.25 1930.83 1544.03 Q1932.76 1545.82 1936.09 1545.82 Q1939.42 1545.82 1941.34 1544.03 Q1943.26 1542.23 1943.26 1539.13 Q1943.26 1536 1941.34 1534.22 Q1939.45 1532.44 1936.09 1532.44 M1931.41 1530.45 Q1928.4 1529.7 1926.71 1527.64 Q1925.05 1525.58 1925.05 1522.62 Q1925.05 1518.48 1927.99 1516.07 Q1930.95 1513.66 1936.09 1513.66 Q1941.25 1513.66 1944.19 1516.07 Q1947.13 1518.48 1947.13 1522.62 Q1947.13 1525.58 1945.44 1527.64 Q1943.77 1529.7 1940.79 1530.45 Q1944.17 1531.23 1946.04 1533.52 Q1947.94 1535.82 1947.94 1539.13 Q1947.94 1544.15 1944.86 1546.83 Q1941.81 1549.52 1936.09 1549.52 Q1930.37 1549.52 1927.29 1546.83 Q1924.24 1544.15 1924.24 1539.13 Q1924.24 1535.82 1926.14 1533.52 Q1928.03 1531.23 1931.41 1530.45 M1929.7 1523.06 Q1929.7 1525.75 1931.37 1527.25 Q1933.06 1528.76 1936.09 1528.76 Q1939.1 1528.76 1940.79 1527.25 Q1942.5 1525.75 1942.5 1523.06 Q1942.5 1520.38 1940.79 1518.87 Q1939.1 1517.37 1936.09 1517.37 Q1933.06 1517.37 1931.37 1518.87 Q1929.7 1520.38 1929.7 1523.06 Z" fill="#000000" fill-rule="evenodd" fill-opacity="1" /><path clip-path="url(#clip390)" d="M2319.91 1544.91 L2327.55 1544.91 L2327.55 1518.55 L2319.24 1520.21 L2319.24 1515.95 L2327.5 1514.29 L2332.18 1514.29 L2332.18 1544.91 L2339.82 1544.91 L2339.82 1548.85 L2319.91 1548.85 L2319.91 1544.91 Z" fill="#000000" fill-rule="evenodd" fill-opacity="1" /><path clip-path="url(#clip390)" d="M2349.26 1542.97 L2354.14 1542.97 L2354.14 1548.85 L2349.26 1548.85 L2349.26 1542.97 Z" fill="#000000" fill-rule="evenodd" fill-opacity="1" /><path clip-path="url(#clip390)" d="M2374.33 1517.37 Q2370.72 1517.37 2368.89 1520.93 Q2367.08 1524.47 2367.08 1531.6 Q2367.08 1538.71 2368.89 1542.27 Q2370.72 1545.82 2374.33 1545.82 Q2377.96 1545.82 2379.77 1542.27 Q2381.6 1538.71 2381.6 1531.6 Q2381.6 1524.47 2379.77 1520.93 Q2377.96 1517.37 2374.33 1517.37 M2374.33 1513.66 Q2380.14 1513.66 2383.2 1518.27 Q2386.27 1522.85 2386.27 1531.6 Q2386.27 1540.33 2383.2 1544.94 Q2380.14 1549.52 2374.33 1549.52 Q2368.52 1549.52 2365.44 1544.94 Q2362.39 1540.33 2362.39 1531.6 Q2362.39 1522.85 2365.44 1518.27 Q2368.52 1513.66 2374.33 1513.66 Z" fill="#000000" fill-rule="evenodd" fill-opacity="1" /><polyline clip-path="url(#clip392)" style="stroke:#000000; stroke-linecap:butt; stroke-linejoin:round; stroke-width:2; stroke-opacity:0.1; fill:none" points="
  156.112,1445.72 2352.76,1445.72 
  "/>
<polyline clip-path="url(#clip392)" style="stroke:#000000; stroke-linecap:butt; stroke-linejoin:round; stroke-width:2; stroke-opacity:0.1; fill:none" points="
  156.112,1189.51 2352.76,1189.51 
  "/>
<polyline clip-path="url(#clip392)" style="stroke:#000000; stroke-linecap:butt; stroke-linejoin:round; stroke-width:2; stroke-opacity:0.1; fill:none" points="
  156.112,933.301 2352.76,933.301 
  "/>
<polyline clip-path="url(#clip392)" style="stroke:#000000; stroke-linecap:butt; stroke-linejoin:round; stroke-width:2; stroke-opacity:0.1; fill:none" points="
  156.112,677.094 2352.76,677.094 
  "/>
<polyline clip-path="url(#clip392)" style="stroke:#000000; stroke-linecap:butt; stroke-linejoin:round; stroke-width:2; stroke-opacity:0.1; fill:none" points="
  156.112,420.886 2352.76,420.886 
  "/>
<polyline clip-path="url(#clip392)" style="stroke:#000000; stroke-linecap:butt; stroke-linejoin:round; stroke-width:2; stroke-opacity:0.1; fill:none" points="
  156.112,164.679 2352.76,164.679 
  "/>
<polyline clip-path="url(#clip390)" style="stroke:#000000; stroke-linecap:butt; stroke-linejoin:round; stroke-width:4; stroke-opacity:1; fill:none" points="
  156.112,1486.45 156.112,47.2441 
  "/>
<polyline clip-path="url(#clip390)" style="stroke:#000000; stroke-linecap:butt; stroke-linejoin:round; stroke-width:4; stroke-opacity:1; fill:none" points="
  156.112,1445.72 175.01,1445.72 
  "/>
<polyline clip-path="url(#clip390)" style="stroke:#000000; stroke-linecap:butt; stroke-linejoin:round; stroke-width:4; stroke-opacity:1; fill:none" points="
  156.112,1189.51 175.01,1189.51 
  "/>
<polyline clip-path="url(#clip390)" style="stroke:#000000; stroke-linecap:butt; stroke-linejoin:round; stroke-width:4; stroke-opacity:1; fill:none" points="
  156.112,933.301 175.01,933.301 
  "/>
<polyline clip-path="url(#clip390)" style="stroke:#000000; stroke-linecap:butt; stroke-linejoin:round; stroke-width:4; stroke-opacity:1; fill:none" points="
  156.112,677.094 175.01,677.094 
  "/>
<polyline clip-path="url(#clip390)" style="stroke:#000000; stroke-linecap:butt; stroke-linejoin:round; stroke-width:4; stroke-opacity:1; fill:none" points="
  156.112,420.886 175.01,420.886 
  "/>
<polyline clip-path="url(#clip390)" style="stroke:#000000; stroke-linecap:butt; stroke-linejoin:round; stroke-width:4; stroke-opacity:1; fill:none" points="
  156.112,164.679 175.01,164.679 
  "/>
<path clip-path="url(#clip390)" d="M62.9365 1431.51 Q59.3254 1431.51 57.4967 1435.08 Q55.6912 1438.62 55.6912 1445.75 Q55.6912 1452.86 57.4967 1456.42 Q59.3254 1459.96 62.9365 1459.96 Q66.5707 1459.96 68.3763 1456.42 Q70.205 1452.86 70.205 1445.75 Q70.205 1438.62 68.3763 1435.08 Q66.5707 1431.51 62.9365 1431.51 M62.9365 1427.81 Q68.7467 1427.81 71.8022 1432.42 Q74.8809 1437 74.8809 1445.75 Q74.8809 1454.48 71.8022 1459.08 Q68.7467 1463.67 62.9365 1463.67 Q57.1264 1463.67 54.0477 1459.08 Q50.9921 1454.48 50.9921 1445.75 Q50.9921 1437 54.0477 1432.42 Q57.1264 1427.81 62.9365 1427.81 Z" fill="#000000" fill-rule="evenodd" fill-opacity="1" /><path clip-path="url(#clip390)" d="M83.0984 1457.12 L87.9827 1457.12 L87.9827 1463 L83.0984 1463 L83.0984 1457.12 Z" fill="#000000" fill-rule="evenodd" fill-opacity="1" /><path clip-path="url(#clip390)" d="M108.168 1431.51 Q104.557 1431.51 102.728 1435.08 Q100.922 1438.62 100.922 1445.75 Q100.922 1452.86 102.728 1456.42 Q104.557 1459.96 108.168 1459.96 Q111.802 1459.96 113.608 1456.42 Q115.436 1452.86 115.436 1445.75 Q115.436 1438.62 113.608 1435.08 Q111.802 1431.51 108.168 1431.51 M108.168 1427.81 Q113.978 1427.81 117.033 1432.42 Q120.112 1437 120.112 1445.75 Q120.112 1454.48 117.033 1459.08 Q113.978 1463.67 108.168 1463.67 Q102.358 1463.67 99.2789 1459.08 Q96.2234 1454.48 96.2234 1445.75 Q96.2234 1437 99.2789 1432.42 Q102.358 1427.81 108.168 1427.81 Z" fill="#000000" fill-rule="evenodd" fill-opacity="1" /><path clip-path="url(#clip390)" d="M63.9319 1175.31 Q60.3208 1175.31 58.4921 1178.87 Q56.6865 1182.41 56.6865 1189.54 Q56.6865 1196.65 58.4921 1200.21 Q60.3208 1203.76 63.9319 1203.76 Q67.5661 1203.76 69.3717 1200.21 Q71.2004 1196.65 71.2004 1189.54 Q71.2004 1182.41 69.3717 1178.87 Q67.5661 1175.31 63.9319 1175.31 M63.9319 1171.6 Q69.742 1171.6 72.7976 1176.21 Q75.8763 1180.79 75.8763 1189.54 Q75.8763 1198.27 72.7976 1202.88 Q69.742 1207.46 63.9319 1207.46 Q58.1217 1207.46 55.043 1202.88 Q51.9875 1198.27 51.9875 1189.54 Q51.9875 1180.79 55.043 1176.21 Q58.1217 1171.6 63.9319 1171.6 Z" fill="#000000" fill-rule="evenodd" fill-opacity="1" /><path clip-path="url(#clip390)" d="M84.0938 1200.91 L88.978 1200.91 L88.978 1206.79 L84.0938 1206.79 L84.0938 1200.91 Z" fill="#000000" fill-rule="evenodd" fill-opacity="1" /><path clip-path="url(#clip390)" d="M99.2095 1172.23 L117.566 1172.23 L117.566 1176.16 L103.492 1176.16 L103.492 1184.64 Q104.51 1184.29 105.529 1184.13 Q106.547 1183.94 107.566 1183.94 Q113.353 1183.94 116.733 1187.11 Q120.112 1190.28 120.112 1195.7 Q120.112 1201.28 116.64 1204.38 Q113.168 1207.46 106.848 1207.46 Q104.672 1207.46 102.404 1207.09 Q100.159 1206.72 97.7511 1205.98 L97.7511 1201.28 Q99.8345 1202.41 102.057 1202.97 Q104.279 1203.52 106.756 1203.52 Q110.76 1203.52 113.098 1201.42 Q115.436 1199.31 115.436 1195.7 Q115.436 1192.09 113.098 1189.98 Q110.76 1187.88 106.756 1187.88 Q104.881 1187.88 103.006 1188.29 Q101.154 1188.71 99.2095 1189.59 L99.2095 1172.23 Z" fill="#000000" fill-rule="evenodd" fill-opacity="1" /><path clip-path="url(#clip390)" d="M53.7467 946.646 L61.3856 946.646 L61.3856 920.28 L53.0754 921.947 L53.0754 917.688 L61.3393 916.021 L66.0152 916.021 L66.0152 946.646 L73.654 946.646 L73.654 950.581 L53.7467 950.581 L53.7467 946.646 Z" fill="#000000" fill-rule="evenodd" fill-opacity="1" /><path clip-path="url(#clip390)" d="M83.0984 944.701 L87.9827 944.701 L87.9827 950.581 L83.0984 950.581 L83.0984 944.701 Z" fill="#000000" fill-rule="evenodd" fill-opacity="1" /><path clip-path="url(#clip390)" d="M108.168 919.1 Q104.557 919.1 102.728 922.665 Q100.922 926.206 100.922 933.336 Q100.922 940.442 102.728 944.007 Q104.557 947.549 108.168 947.549 Q111.802 947.549 113.608 944.007 Q115.436 940.442 115.436 933.336 Q115.436 926.206 113.608 922.665 Q111.802 919.1 108.168 919.1 M108.168 915.396 Q113.978 915.396 117.033 920.003 Q120.112 924.586 120.112 933.336 Q120.112 942.063 117.033 946.669 Q113.978 951.252 108.168 951.252 Q102.358 951.252 99.2789 946.669 Q96.2234 942.063 96.2234 933.336 Q96.2234 924.586 99.2789 920.003 Q102.358 915.396 108.168 915.396 Z" fill="#000000" fill-rule="evenodd" fill-opacity="1" /><path clip-path="url(#clip390)" d="M54.7421 690.439 L62.381 690.439 L62.381 664.073 L54.0708 665.74 L54.0708 661.48 L62.3347 659.814 L67.0106 659.814 L67.0106 690.439 L74.6494 690.439 L74.6494 694.374 L54.7421 694.374 L54.7421 690.439 Z" fill="#000000" fill-rule="evenodd" fill-opacity="1" /><path clip-path="url(#clip390)" d="M84.0938 688.494 L88.978 688.494 L88.978 694.374 L84.0938 694.374 L84.0938 688.494 Z" fill="#000000" fill-rule="evenodd" fill-opacity="1" /><path clip-path="url(#clip390)" d="M99.2095 659.814 L117.566 659.814 L117.566 663.749 L103.492 663.749 L103.492 672.221 Q104.51 671.874 105.529 671.712 Q106.547 671.527 107.566 671.527 Q113.353 671.527 116.733 674.698 Q120.112 677.869 120.112 683.286 Q120.112 688.865 116.64 691.966 Q113.168 695.045 106.848 695.045 Q104.672 695.045 102.404 694.675 Q100.159 694.304 97.7511 693.564 L97.7511 688.865 Q99.8345 689.999 102.057 690.554 Q104.279 691.11 106.756 691.11 Q110.76 691.11 113.098 689.003 Q115.436 686.897 115.436 683.286 Q115.436 679.675 113.098 677.568 Q110.76 675.462 106.756 675.462 Q104.881 675.462 103.006 675.879 Q101.154 676.295 99.2095 677.175 L99.2095 659.814 Z" fill="#000000" fill-rule="evenodd" fill-opacity="1" /><path clip-path="url(#clip390)" d="M56.9643 434.231 L73.2837 434.231 L73.2837 438.166 L51.3393 438.166 L51.3393 434.231 Q54.0014 431.477 58.5847 426.847 Q63.1911 422.194 64.3717 420.852 Q66.617 418.329 67.4967 416.593 Q68.3994 414.833 68.3994 413.143 Q68.3994 410.389 66.455 408.653 Q64.5337 406.917 61.4319 406.917 Q59.2328 406.917 56.7791 407.681 Q54.3486 408.444 51.5708 409.995 L51.5708 405.273 Q54.3949 404.139 56.8486 403.56 Q59.3023 402.981 61.3393 402.981 Q66.7096 402.981 69.9041 405.667 Q73.0985 408.352 73.0985 412.843 Q73.0985 414.972 72.2883 416.893 Q71.5013 418.792 69.3948 421.384 Q68.8161 422.055 65.7143 425.273 Q62.6124 428.467 56.9643 434.231 Z" fill="#000000" fill-rule="evenodd" fill-opacity="1" /><path clip-path="url(#clip390)" d="M83.0984 432.287 L87.9827 432.287 L87.9827 438.166 L83.0984 438.166 L83.0984 432.287 Z" fill="#000000" fill-rule="evenodd" fill-opacity="1" /><path clip-path="url(#clip390)" d="M108.168 406.685 Q104.557 406.685 102.728 410.25 Q100.922 413.792 100.922 420.921 Q100.922 428.028 102.728 431.592 Q104.557 435.134 108.168 435.134 Q111.802 435.134 113.608 431.592 Q115.436 428.028 115.436 420.921 Q115.436 413.792 113.608 410.25 Q111.802 406.685 108.168 406.685 M108.168 402.981 Q113.978 402.981 117.033 407.588 Q120.112 412.171 120.112 420.921 Q120.112 429.648 117.033 434.254 Q113.978 438.838 108.168 438.838 Q102.358 438.838 99.2789 434.254 Q96.2234 429.648 96.2234 420.921 Q96.2234 412.171 99.2789 407.588 Q102.358 402.981 108.168 402.981 Z" fill="#000000" fill-rule="evenodd" fill-opacity="1" /><path clip-path="url(#clip390)" d="M57.9597 178.024 L74.279 178.024 L74.279 181.959 L52.3347 181.959 L52.3347 178.024 Q54.9967 175.269 59.58 170.64 Q64.1865 165.987 65.367 164.644 Q67.6124 162.121 68.492 160.385 Q69.3948 158.626 69.3948 156.936 Q69.3948 154.182 67.4504 152.445 Q65.5291 150.709 62.4272 150.709 Q60.2282 150.709 57.7745 151.473 Q55.344 152.237 52.5662 153.788 L52.5662 149.066 Q55.3903 147.932 57.8439 147.353 Q60.2976 146.774 62.3347 146.774 Q67.705 146.774 70.8994 149.459 Q74.0939 152.145 74.0939 156.635 Q74.0939 158.765 73.2837 160.686 Q72.4966 162.584 70.3902 165.177 Q69.8115 165.848 66.7096 169.066 Q63.6078 172.26 57.9597 178.024 Z" fill="#000000" fill-rule="evenodd" fill-opacity="1" /><path clip-path="url(#clip390)" d="M84.0938 176.08 L88.978 176.08 L88.978 181.959 L84.0938 181.959 L84.0938 176.08 Z" fill="#000000" fill-rule="evenodd" fill-opacity="1" /><path clip-path="url(#clip390)" d="M99.2095 147.399 L117.566 147.399 L117.566 151.334 L103.492 151.334 L103.492 159.807 Q104.51 159.459 105.529 159.297 Q106.547 159.112 107.566 159.112 Q113.353 159.112 116.733 162.283 Q120.112 165.455 120.112 170.871 Q120.112 176.45 116.64 179.552 Q113.168 182.63 106.848 182.63 Q104.672 182.63 102.404 182.26 Q100.159 181.89 97.7511 181.149 L97.7511 176.45 Q99.8345 177.584 102.057 178.14 Q104.279 178.695 106.756 178.695 Q110.76 178.695 113.098 176.589 Q115.436 174.482 115.436 170.871 Q115.436 167.26 113.098 165.154 Q110.76 163.047 106.756 163.047 Q104.881 163.047 103.006 163.464 Q101.154 163.881 99.2095 164.76 L99.2095 147.399 Z" fill="#000000" fill-rule="evenodd" fill-opacity="1" /><path clip-path="url(#clip392)" d="
M-177.245 1445.56 L-162.859 1445.4 L-148.473 1445.11 L-134.088 1444.58 L-119.702 1443.63 L-105.316 1442 L-90.9297 1439.29 L-76.5438 1434.91 L-62.1579 1428.05 L-47.7719 1417.63 
  L-33.386 1402.29 L-19.0001 1380.43 L-4.61415 1350.25 L9.77178 1309.88 L24.1577 1257.63 L38.5436 1192.21 L52.9296 1113.01 L67.3155 1020.36 L81.7014 915.762 L96.0874 801.938 
  L110.473 682.761 L124.859 563.002 L139.245 447.929 L153.631 342.79 L168.017 252.28 L182.403 180.053 L196.789 128.374 L211.175 97.9509 L225.561 87.9763 L239.947 96.3448 
  L254.333 120.008 L268.718 155.391 L283.104 198.806 L297.49 246.804 L311.876 296.423 L326.262 345.328 L340.648 391.852 L355.034 434.943 L369.42 474.072 L383.806 509.109 
  L398.192 540.196 L412.578 567.643 L426.964 591.833 L441.35 613.167 L455.736 632.02 L470.121 648.724 L484.507 663.561 L498.893 676.773 L513.279 688.566 L527.665 699.132 
  L542.051 708.656 L556.437 717.329 L570.823 725.352 L585.209 732.939 L599.595 740.309 L613.981 747.678 L628.367 755.239 L642.753 763.15 L657.139 771.518 L671.524 780.385 
  L685.91 789.73 L700.296 799.469 L714.682 809.471 L729.068 819.58 L743.454 829.636 L757.84 839.505 L772.226 849.096 L786.612 858.37 L800.998 867.346 L815.384 876.091 
  L829.77 884.699 L844.156 893.276 L858.542 901.916 L872.927 910.689 L887.313 919.623 L901.699 928.703 L916.085 937.872 L930.471 947.039 L944.857 956.08 L959.243 964.858 
  L973.629 973.229 L988.015 981.059 L1002.4 988.233 L1016.79 994.671 L1031.17 1000.34 L1045.56 1005.24 L1059.94 1009.46 L1074.33 1013.09 L1088.72 1016.29 L1103.1 1019.23 
  L1117.49 1022.09 L1131.87 1025.04 L1146.26 1028.25 L1160.65 1031.82 L1175.03 1035.85 L1189.42 1040.36 L1203.8 1045.36 L1218.19 1050.78 L1232.58 1056.56 L1246.96 1062.59 
  L1261.35 1068.75 L1275.73 1074.93 L1290.12 1081 L1304.51 1086.89 L1318.89 1092.53 L1333.28 1097.87 L1347.66 1102.92 L1362.05 1107.67 L1376.43 1112.16 L1390.82 1116.41 
  L1405.21 1120.46 L1419.59 1124.33 L1433.98 1128.04 L1448.36 1131.61 L1462.75 1135.07 L1477.14 1138.45 L1491.52 1141.82 L1505.91 1145.24 L1520.29 1148.8 L1534.68 1152.58 
  L1549.07 1156.66 L1563.45 1161.11 L1577.84 1165.95 L1592.22 1171.17 L1606.61 1176.73 L1621 1182.55 L1635.38 1188.52 L1649.77 1194.53 L1664.15 1200.45 L1678.54 1206.18 
  L1692.93 1211.6 L1707.31 1216.65 L1721.7 1221.26 L1736.08 1225.37 L1750.47 1228.98 L1764.86 1232.07 L1779.24 1234.67 L1793.63 1236.83 L1808.01 1238.63 L1822.4 1240.15 
  L1836.78 1241.5 L1851.17 1242.82 L1865.56 1244.2 L1879.94 1245.76 L1894.33 1247.56 L1908.71 1249.65 L1923.1 1252.06 L1937.49 1254.76 L1951.87 1257.74 L1966.26 1260.93 
  L1980.64 1264.28 L1995.03 1267.72 L2009.42 1271.17 L2023.8 1274.57 L2038.19 1277.85 L2052.57 1280.95 L2066.96 1283.82 L2081.35 1286.42 L2095.73 1288.71 L2110.12 1290.7 
  L2124.5 1292.38 L2138.89 1293.8 L2153.28 1295.04 L2167.66 1296.18 L2182.05 1297.36 L2196.43 1298.75 L2210.82 1300.52 L2225.2 1302.87 L2239.59 1305.99 L2253.98 1310.06 
  L2268.36 1315.19 L2282.75 1321.47 L2297.13 1328.9 L2311.52 1337.4 L2325.91 1346.81 L2340.29 1356.89 L2354.68 1367.37 L2369.06 1377.91 L2383.45 1388.21 L2397.84 1397.96 
  L2412.22 1406.91 L2426.61 1414.9 L2440.99 1421.8 L2455.38 1427.6 L2469.77 1432.33 L2484.15 1436.07 L2498.54 1438.93 L2512.92 1441.07 L2527.31 1442.62 L2541.7 1443.7 
  L2556.08 1444.44 L2570.47 1444.93 L2584.85 1445.25 L2599.24 1445.44 L2613.62 1445.56 L2628.01 1445.63 L2642.4 1445.66 L2656.78 1445.68 L2671.17 1445.67 L2685.55 1445.63 
  L2685.55 1445.72 L2671.17 1445.72 L2656.78 1445.72 L2642.4 1445.72 L2628.01 1445.72 L2613.62 1445.72 L2599.24 1445.72 L2584.85 1445.72 L2570.47 1445.72 L2556.08 1445.72 
  L2541.7 1445.72 L2527.31 1445.72 L2512.92 1445.72 L2498.54 1445.72 L2484.15 1445.72 L2469.77 1445.72 L2455.38 1445.72 L2440.99 1445.72 L2426.61 1445.72 L2412.22 1445.72 
  L2397.84 1445.72 L2383.45 1445.72 L2369.06 1445.72 L2354.68 1445.72 L2340.29 1445.72 L2325.91 1445.72 L2311.52 1445.72 L2297.13 1445.72 L2282.75 1445.72 L2268.36 1445.72 
  L2253.98 1445.72 L2239.59 1445.72 L2225.2 1445.72 L2210.82 1445.72 L2196.43 1445.72 L2182.05 1445.72 L2167.66 1445.72 L2153.28 1445.72 L2138.89 1445.72 L2124.5 1445.72 
  L2110.12 1445.72 L2095.73 1445.72 L2081.35 1445.72 L2066.96 1445.72 L2052.57 1445.72 L2038.19 1445.72 L2023.8 1445.72 L2009.42 1445.72 L1995.03 1445.72 L1980.64 1445.72 
  L1966.26 1445.72 L1951.87 1445.72 L1937.49 1445.72 L1923.1 1445.72 L1908.71 1445.72 L1894.33 1445.72 L1879.94 1445.72 L1865.56 1445.72 L1851.17 1445.72 L1836.78 1445.72 
  L1822.4 1445.72 L1808.01 1445.72 L1793.63 1445.72 L1779.24 1445.72 L1764.86 1445.72 L1750.47 1445.72 L1736.08 1445.72 L1721.7 1445.72 L1707.31 1445.72 L1692.93 1445.72 
  L1678.54 1445.72 L1664.15 1445.72 L1649.77 1445.72 L1635.38 1445.72 L1621 1445.72 L1606.61 1445.72 L1592.22 1445.72 L1577.84 1445.72 L1563.45 1445.72 L1549.07 1445.72 
  L1534.68 1445.72 L1520.29 1445.72 L1505.91 1445.72 L1491.52 1445.72 L1477.14 1445.72 L1462.75 1445.72 L1448.36 1445.72 L1433.98 1445.72 L1419.59 1445.72 L1405.21 1445.72 
  L1390.82 1445.72 L1376.43 1445.72 L1362.05 1445.72 L1347.66 1445.72 L1333.28 1445.72 L1318.89 1445.72 L1304.51 1445.72 L1290.12 1445.72 L1275.73 1445.72 L1261.35 1445.72 
  L1246.96 1445.72 L1232.58 1445.72 L1218.19 1445.72 L1203.8 1445.72 L1189.42 1445.72 L1175.03 1445.72 L1160.65 1445.72 L1146.26 1445.72 L1131.87 1445.72 L1117.49 1445.72 
  L1103.1 1445.72 L1088.72 1445.72 L1074.33 1445.72 L1059.94 1445.72 L1045.56 1445.72 L1031.17 1445.72 L1016.79 1445.72 L1002.4 1445.72 L988.015 1445.72 L973.629 1445.72 
  L959.243 1445.72 L944.857 1445.72 L930.471 1445.72 L916.085 1445.72 L901.699 1445.72 L887.313 1445.72 L872.927 1445.72 L858.542 1445.72 L844.156 1445.72 L829.77 1445.72 
  L815.384 1445.72 L800.998 1445.72 L786.612 1445.72 L772.226 1445.72 L757.84 1445.72 L743.454 1445.72 L729.068 1445.72 L714.682 1445.72 L700.296 1445.72 L685.91 1445.72 
  L671.524 1445.72 L657.139 1445.72 L642.753 1445.72 L628.367 1445.72 L613.981 1445.72 L599.595 1445.72 L585.209 1445.72 L570.823 1445.72 L556.437 1445.72 L542.051 1445.72 
  L527.665 1445.72 L513.279 1445.72 L498.893 1445.72 L484.507 1445.72 L470.121 1445.72 L455.736 1445.72 L441.35 1445.72 L426.964 1445.72 L412.578 1445.72 L398.192 1445.72 
  L383.806 1445.72 L369.42 1445.72 L355.034 1445.72 L340.648 1445.72 L326.262 1445.72 L311.876 1445.72 L297.49 1445.72 L283.104 1445.72 L268.718 1445.72 L254.333 1445.72 
  L239.947 1445.72 L225.561 1445.72 L211.175 1445.72 L196.789 1445.72 L182.403 1445.72 L168.017 1445.72 L153.631 1445.72 L139.245 1445.72 L124.859 1445.72 L110.473 1445.72 
  L96.0874 1445.72 L81.7014 1445.72 L67.3155 1445.72 L52.9296 1445.72 L38.5436 1445.72 L24.1577 1445.72 L9.77178 1445.72 L-4.61415 1445.72 L-19.0001 1445.72 L-33.386 1445.72 
  L-47.7719 1445.72 L-62.1579 1445.72 L-76.5438 1445.72 L-90.9297 1445.72 L-105.316 1445.72 L-119.702 1445.72 L-134.088 1445.72 L-148.473 1445.72 L-162.859 1445.72 L-177.245 1445.72 
   Z
  " fill="#009af9" fill-rule="evenodd" fill-opacity="1"/>
<polyline clip-path="url(#clip392)" style="stroke:#009af9; stroke-linecap:butt; stroke-linejoin:round; stroke-width:12; stroke-opacity:1; fill:none" points="
  -177.245,1445.56 -162.859,1445.4 -148.473,1445.11 -134.088,1444.58 -119.702,1443.63 -105.316,1442 -90.9297,1439.29 -76.5438,1434.91 -62.1579,1428.05 -47.7719,1417.63 
  -33.386,1402.29 -19.0001,1380.43 -4.61415,1350.25 9.77178,1309.88 24.1577,1257.63 38.5436,1192.21 52.9296,1113.01 67.3155,1020.36 81.7014,915.762 96.0874,801.938 
  110.473,682.761 124.859,563.002 139.245,447.929 153.631,342.79 168.017,252.28 182.403,180.053 196.789,128.374 211.175,97.9509 225.561,87.9763 239.947,96.3448 
  254.333,120.008 268.718,155.391 283.104,198.806 297.49,246.804 311.876,296.423 326.262,345.328 340.648,391.852 355.034,434.943 369.42,474.072 383.806,509.109 
  398.192,540.196 412.578,567.643 426.964,591.833 441.35,613.167 455.736,632.02 470.121,648.724 484.507,663.561 498.893,676.773 513.279,688.566 527.665,699.132 
  542.051,708.656 556.437,717.329 570.823,725.352 585.209,732.939 599.595,740.309 613.981,747.678 628.367,755.239 642.753,763.15 657.139,771.518 671.524,780.385 
  685.91,789.73 700.296,799.469 714.682,809.471 729.068,819.58 743.454,829.636 757.84,839.505 772.226,849.096 786.612,858.37 800.998,867.346 815.384,876.091 
  829.77,884.699 844.156,893.276 858.542,901.916 872.927,910.689 887.313,919.623 901.699,928.703 916.085,937.872 930.471,947.039 944.857,956.08 959.243,964.858 
  973.629,973.229 988.015,981.059 1002.4,988.233 1016.79,994.671 1031.17,1000.34 1045.56,1005.24 1059.94,1009.46 1074.33,1013.09 1088.72,1016.29 1103.1,1019.23 
  1117.49,1022.09 1131.87,1025.04 1146.26,1028.25 1160.65,1031.82 1175.03,1035.85 1189.42,1040.36 1203.8,1045.36 1218.19,1050.78 1232.58,1056.56 1246.96,1062.59 
  1261.35,1068.75 1275.73,1074.93 1290.12,1081 1304.51,1086.89 1318.89,1092.53 1333.28,1097.87 1347.66,1102.92 1362.05,1107.67 1376.43,1112.16 1390.82,1116.41 
  1405.21,1120.46 1419.59,1124.33 1433.98,1128.04 1448.36,1131.61 1462.75,1135.07 1477.14,1138.45 1491.52,1141.82 1505.91,1145.24 1520.29,1148.8 1534.68,1152.58 
  1549.07,1156.66 1563.45,1161.11 1577.84,1165.95 1592.22,1171.17 1606.61,1176.73 1621,1182.55 1635.38,1188.52 1649.77,1194.53 1664.15,1200.45 1678.54,1206.18 
  1692.93,1211.6 1707.31,1216.65 1721.7,1221.26 1736.08,1225.37 1750.47,1228.98 1764.86,1232.07 1779.24,1234.67 1793.63,1236.83 1808.01,1238.63 1822.4,1240.15 
  1836.78,1241.5 1851.17,1242.82 1865.56,1244.2 1879.94,1245.76 1894.33,1247.56 1908.71,1249.65 1923.1,1252.06 1937.49,1254.76 1951.87,1257.74 1966.26,1260.93 
  1980.64,1264.28 1995.03,1267.72 2009.42,1271.17 2023.8,1274.57 2038.19,1277.85 2052.57,1280.95 2066.96,1283.82 2081.35,1286.42 2095.73,1288.71 2110.12,1290.7 
  2124.5,1292.38 2138.89,1293.8 2153.28,1295.04 2167.66,1296.18 2182.05,1297.36 2196.43,1298.75 2210.82,1300.52 2225.2,1302.87 2239.59,1305.99 2253.98,1310.06 
  2268.36,1315.19 2282.75,1321.47 2297.13,1328.9 2311.52,1337.4 2325.91,1346.81 2340.29,1356.89 2354.68,1367.37 2369.06,1377.91 2383.45,1388.21 2397.84,1397.96 
  2412.22,1406.91 2426.61,1414.9 2440.99,1421.8 2455.38,1427.6 2469.77,1432.33 2484.15,1436.07 2498.54,1438.93 2512.92,1441.07 2527.31,1442.62 2541.7,1443.7 
  2556.08,1444.44 2570.47,1444.93 2584.85,1445.25 2599.24,1445.44 2613.62,1445.56 2628.01,1445.63 2642.4,1445.66 2656.78,1445.68 2671.17,1445.67 2685.55,1445.63 
  
  "/>
<polyline clip-path="url(#clip392)" style="stroke:#000000; stroke-linecap:butt; stroke-linejoin:round; stroke-width:8; stroke-opacity:1; fill:none" points="
  375.777,2925.65 375.777,-1391.96 
  "/>
<polyline clip-path="url(#clip392)" style="stroke:#000000; stroke-linecap:butt; stroke-linejoin:round; stroke-width:8; stroke-opacity:1; fill:none" points="
  661.34,2925.65 661.34,-1391.96 
  "/>
<polyline clip-path="url(#clip392)" style="stroke:#000000; stroke-linecap:butt; stroke-linejoin:round; stroke-width:8; stroke-opacity:1; fill:none" points="
  298.894,2925.65 298.894,-1391.96 
  "/>
<polyline clip-path="url(#clip392)" style="stroke:#000000; stroke-linecap:butt; stroke-linejoin:round; stroke-width:8; stroke-opacity:1; fill:none" points="
  248.371,2925.65 248.371,-1391.96 
  "/>
<polyline clip-path="url(#clip392)" style="stroke:#000000; stroke-linecap:butt; stroke-linejoin:round; stroke-width:8; stroke-opacity:1; fill:none" points="
  485.609,2925.65 485.609,-1391.96 
  "/>
<polyline clip-path="url(#clip392)" style="stroke:#000000; stroke-linecap:butt; stroke-linejoin:round; stroke-width:8; stroke-opacity:1; fill:none" points="
  1803.59,2925.65 1803.59,-1391.96 
  "/>
<path clip-path="url(#clip390)" d="
M1296.74 250.738 L2279.53 250.738 L2279.53 95.2176 L1296.74 95.2176  Z
  " fill="#ffffff" fill-rule="evenodd" fill-opacity="1"/>
<polyline clip-path="url(#clip390)" style="stroke:#000000; stroke-linecap:butt; stroke-linejoin:round; stroke-width:4; stroke-opacity:1; fill:none" points="
  1296.74,250.738 2279.53,250.738 2279.53,95.2176 1296.74,95.2176 1296.74,250.738 
  "/>
<path clip-path="url(#clip390)" d="
M1321.15 167.794 L1467.59 167.794 L1467.59 126.322 L1321.15 126.322 L1321.15 167.794  Z
  " fill="#009af9" fill-rule="evenodd" fill-opacity="1"/>
<polyline clip-path="url(#clip390)" style="stroke:#009af9; stroke-linecap:butt; stroke-linejoin:round; stroke-width:12; stroke-opacity:1; fill:none" points="
  1321.15,126.322 1467.59,126.322 
  "/>
<path clip-path="url(#clip390)" d="M1492 129.778 L1513.85 129.778 L1513.85 133.713 L1496.67 133.713 L1496.67 143.944 L1513.13 143.944 L1513.13 147.879 L1496.67 147.879 L1496.67 160.402 L1514.27 160.402 L1514.27 164.338 L1492 164.338 L1492 129.778 Z" fill="#000000" fill-rule="evenodd" fill-opacity="1" /><path clip-path="url(#clip390)" d="M1538.29 139.176 L1538.29 143.203 Q1536.49 142.277 1534.54 141.815 Q1532.6 141.352 1530.52 141.352 Q1527.34 141.352 1525.75 142.324 Q1524.17 143.296 1524.17 145.24 Q1524.17 146.722 1525.31 147.578 Q1526.44 148.412 1529.87 149.176 L1531.33 149.5 Q1535.86 150.472 1537.76 152.254 Q1539.68 154.014 1539.68 157.185 Q1539.68 160.796 1536.81 162.902 Q1533.96 165.009 1528.96 165.009 Q1526.88 165.009 1524.61 164.592 Q1522.37 164.199 1519.87 163.388 L1519.87 158.99 Q1522.23 160.217 1524.52 160.842 Q1526.81 161.444 1529.06 161.444 Q1532.07 161.444 1533.69 160.426 Q1535.31 159.384 1535.31 157.509 Q1535.31 155.773 1534.13 154.847 Q1532.97 153.921 1529.01 153.064 L1527.53 152.717 Q1523.57 151.884 1521.81 150.171 Q1520.05 148.435 1520.05 145.426 Q1520.05 141.768 1522.65 139.778 Q1525.24 137.787 1530.01 137.787 Q1532.37 137.787 1534.45 138.134 Q1536.53 138.481 1538.29 139.176 Z" fill="#000000" fill-rule="evenodd" fill-opacity="1" /><path clip-path="url(#clip390)" d="M1550.68 131.051 L1550.68 138.412 L1559.45 138.412 L1559.45 141.722 L1550.68 141.722 L1550.68 155.796 Q1550.68 158.967 1551.53 159.87 Q1552.41 160.773 1555.08 160.773 L1559.45 160.773 L1559.45 164.338 L1555.08 164.338 Q1550.15 164.338 1548.27 162.509 Q1546.4 160.657 1546.4 155.796 L1546.4 141.722 L1543.27 141.722 L1543.27 138.412 L1546.4 138.412 L1546.4 131.051 L1550.68 131.051 Z" fill="#000000" fill-rule="evenodd" fill-opacity="1" /><path clip-path="url(#clip390)" d="M1565.05 138.412 L1569.31 138.412 L1569.31 164.338 L1565.05 164.338 L1565.05 138.412 M1565.05 128.319 L1569.31 128.319 L1569.31 133.713 L1565.05 133.713 L1565.05 128.319 Z" fill="#000000" fill-rule="evenodd" fill-opacity="1" /><path clip-path="url(#clip390)" d="M1598.41 143.389 Q1600.01 140.518 1602.23 139.153 Q1604.45 137.787 1607.46 137.787 Q1611.51 137.787 1613.71 140.634 Q1615.91 143.458 1615.91 148.689 L1615.91 164.338 L1611.63 164.338 L1611.63 148.828 Q1611.63 145.102 1610.31 143.296 Q1608.99 141.49 1606.28 141.49 Q1602.97 141.49 1601.05 143.69 Q1599.13 145.889 1599.13 149.685 L1599.13 164.338 L1594.84 164.338 L1594.84 148.828 Q1594.84 145.078 1593.52 143.296 Q1592.21 141.49 1589.45 141.49 Q1586.19 141.49 1584.27 143.713 Q1582.34 145.912 1582.34 149.685 L1582.34 164.338 L1578.06 164.338 L1578.06 138.412 L1582.34 138.412 L1582.34 142.44 Q1583.8 140.055 1585.84 138.921 Q1587.88 137.787 1590.68 137.787 Q1593.5 137.787 1595.47 139.222 Q1597.46 140.657 1598.41 143.389 Z" fill="#000000" fill-rule="evenodd" fill-opacity="1" /><path clip-path="url(#clip390)" d="M1636.19 151.305 Q1631.02 151.305 1629.03 152.486 Q1627.04 153.666 1627.04 156.514 Q1627.04 158.782 1628.52 160.125 Q1630.03 161.444 1632.6 161.444 Q1636.14 161.444 1638.27 158.944 Q1640.42 156.421 1640.42 152.254 L1640.42 151.305 L1636.19 151.305 M1644.68 149.546 L1644.68 164.338 L1640.42 164.338 L1640.42 160.402 Q1638.96 162.763 1636.79 163.898 Q1634.61 165.009 1631.46 165.009 Q1627.48 165.009 1625.12 162.787 Q1622.78 160.541 1622.78 156.791 Q1622.78 152.416 1625.7 150.194 Q1628.64 147.972 1634.45 147.972 L1640.42 147.972 L1640.42 147.555 Q1640.42 144.615 1638.48 143.018 Q1636.56 141.398 1633.06 141.398 Q1630.84 141.398 1628.73 141.93 Q1626.63 142.463 1624.68 143.527 L1624.68 139.592 Q1627.02 138.69 1629.22 138.25 Q1631.42 137.787 1633.5 137.787 Q1639.13 137.787 1641.9 140.703 Q1644.68 143.62 1644.68 149.546 Z" fill="#000000" fill-rule="evenodd" fill-opacity="1" /><path clip-path="url(#clip390)" d="M1657.67 131.051 L1657.67 138.412 L1666.44 138.412 L1666.44 141.722 L1657.67 141.722 L1657.67 155.796 Q1657.67 158.967 1658.52 159.87 Q1659.4 160.773 1662.07 160.773 L1666.44 160.773 L1666.44 164.338 L1662.07 164.338 Q1657.14 164.338 1655.26 162.509 Q1653.39 160.657 1653.39 155.796 L1653.39 141.722 L1650.26 141.722 L1650.26 138.412 L1653.39 138.412 L1653.39 131.051 L1657.67 131.051 Z" fill="#000000" fill-rule="evenodd" fill-opacity="1" /><path clip-path="url(#clip390)" d="M1694.22 150.31 L1694.22 152.393 L1674.64 152.393 Q1674.91 156.791 1677.27 159.106 Q1679.66 161.398 1683.89 161.398 Q1686.35 161.398 1688.64 160.796 Q1690.95 160.194 1693.22 158.99 L1693.22 163.018 Q1690.93 163.99 1688.52 164.5 Q1686.12 165.009 1683.64 165.009 Q1677.44 165.009 1673.8 161.398 Q1670.19 157.787 1670.19 151.629 Q1670.19 145.264 1673.62 141.537 Q1677.07 137.787 1682.9 137.787 Q1688.13 137.787 1691.16 141.166 Q1694.22 144.523 1694.22 150.31 M1689.96 149.06 Q1689.91 145.565 1687.99 143.481 Q1686.09 141.398 1682.95 141.398 Q1679.38 141.398 1677.23 143.412 Q1675.1 145.426 1674.77 149.083 L1689.96 149.06 Z" fill="#000000" fill-rule="evenodd" fill-opacity="1" /><path clip-path="url(#clip390)" d="M1726.32 141.398 Q1722.9 141.398 1720.91 144.083 Q1718.92 146.745 1718.92 151.398 Q1718.92 156.051 1720.88 158.736 Q1722.88 161.398 1726.32 161.398 Q1729.73 161.398 1731.72 158.713 Q1733.71 156.027 1733.71 151.398 Q1733.71 146.791 1731.72 144.106 Q1729.73 141.398 1726.32 141.398 M1726.32 137.787 Q1731.88 137.787 1735.05 141.398 Q1738.22 145.009 1738.22 151.398 Q1738.22 157.764 1735.05 161.398 Q1731.88 165.009 1726.32 165.009 Q1720.75 165.009 1717.57 161.398 Q1714.43 157.764 1714.43 151.398 Q1714.43 145.009 1717.57 141.398 Q1720.75 137.787 1726.32 137.787 Z" fill="#000000" fill-rule="evenodd" fill-opacity="1" /><path clip-path="url(#clip390)" d="M1758.41 128.319 L1758.41 131.861 L1754.33 131.861 Q1752.04 131.861 1751.14 132.787 Q1750.26 133.713 1750.26 136.12 L1750.26 138.412 L1757.27 138.412 L1757.27 141.722 L1750.26 141.722 L1750.26 164.338 L1745.98 164.338 L1745.98 141.722 L1741.9 141.722 L1741.9 138.412 L1745.98 138.412 L1745.98 136.606 Q1745.98 132.278 1747.99 130.31 Q1750.01 128.319 1754.38 128.319 L1758.41 128.319 Z" fill="#000000" fill-rule="evenodd" fill-opacity="1" /><path clip-path="url(#clip390)" d="M1781.16 160.449 L1781.16 174.199 L1776.88 174.199 L1776.88 138.412 L1781.16 138.412 L1781.16 142.347 Q1782.5 140.032 1784.54 138.921 Q1786.6 137.787 1789.45 137.787 Q1794.17 137.787 1797.11 141.537 Q1800.07 145.287 1800.07 151.398 Q1800.07 157.509 1797.11 161.259 Q1794.17 165.009 1789.45 165.009 Q1786.6 165.009 1784.54 163.898 Q1782.5 162.763 1781.16 160.449 M1795.65 151.398 Q1795.65 146.699 1793.71 144.037 Q1791.79 141.352 1788.41 141.352 Q1785.03 141.352 1783.08 144.037 Q1781.16 146.699 1781.16 151.398 Q1781.16 156.097 1783.08 158.782 Q1785.03 161.444 1788.41 161.444 Q1791.79 161.444 1793.71 158.782 Q1795.65 156.097 1795.65 151.398 Z" fill="#000000" fill-rule="evenodd" fill-opacity="1" /><path clip-path="url(#clip390)" d="M1819.73 138.412 L1823.99 138.412 L1829.31 158.643 L1834.61 138.412 L1839.63 138.412 L1844.96 158.643 L1850.26 138.412 L1854.52 138.412 L1847.74 164.338 L1842.71 164.338 L1837.13 143.088 L1831.53 164.338 L1826.51 164.338 L1819.73 138.412 Z" fill="#000000" fill-rule="evenodd" fill-opacity="1" /><path clip-path="url(#clip390)" d="M1860.98 138.412 L1865.24 138.412 L1865.24 164.338 L1860.98 164.338 L1860.98 138.412 M1860.98 128.319 L1865.24 128.319 L1865.24 133.713 L1860.98 133.713 L1860.98 128.319 Z" fill="#000000" fill-rule="evenodd" fill-opacity="1" /><path clip-path="url(#clip390)" d="M1878.36 131.051 L1878.36 138.412 L1887.13 138.412 L1887.13 141.722 L1878.36 141.722 L1878.36 155.796 Q1878.36 158.967 1879.22 159.87 Q1880.1 160.773 1882.76 160.773 L1887.13 160.773 L1887.13 164.338 L1882.76 164.338 Q1877.83 164.338 1875.95 162.509 Q1874.08 160.657 1874.08 155.796 L1874.08 141.722 L1870.95 141.722 L1870.95 138.412 L1874.08 138.412 L1874.08 131.051 L1878.36 131.051 Z" fill="#000000" fill-rule="evenodd" fill-opacity="1" /><path clip-path="url(#clip390)" d="M1914.29 148.689 L1914.29 164.338 L1910.03 164.338 L1910.03 148.828 Q1910.03 145.148 1908.59 143.319 Q1907.16 141.49 1904.29 141.49 Q1900.84 141.49 1898.85 143.69 Q1896.86 145.889 1896.86 149.685 L1896.86 164.338 L1892.57 164.338 L1892.57 128.319 L1896.86 128.319 L1896.86 142.44 Q1898.38 140.102 1900.44 138.944 Q1902.53 137.787 1905.24 137.787 Q1909.7 137.787 1911.99 140.565 Q1914.29 143.319 1914.29 148.689 Z" fill="#000000" fill-rule="evenodd" fill-opacity="1" /><path clip-path="url(#clip390)" d="M1952.87 142.393 Q1952.16 141.977 1951.3 141.791 Q1950.47 141.583 1949.45 141.583 Q1945.84 141.583 1943.89 143.944 Q1941.97 146.282 1941.97 150.68 L1941.97 164.338 L1937.69 164.338 L1937.69 138.412 L1941.97 138.412 L1941.97 142.44 Q1943.31 140.078 1945.47 138.944 Q1947.62 137.787 1950.7 137.787 Q1951.14 137.787 1951.67 137.856 Q1952.2 137.903 1952.85 138.018 L1952.87 142.393 Z" fill="#000000" fill-rule="evenodd" fill-opacity="1" /><path clip-path="url(#clip390)" d="M1978.48 150.31 L1978.48 152.393 L1958.89 152.393 Q1959.17 156.791 1961.53 159.106 Q1963.92 161.398 1968.15 161.398 Q1970.61 161.398 1972.9 160.796 Q1975.21 160.194 1977.48 158.99 L1977.48 163.018 Q1975.19 163.99 1972.78 164.5 Q1970.37 165.009 1967.9 165.009 Q1961.69 165.009 1958.06 161.398 Q1954.45 157.787 1954.45 151.629 Q1954.45 145.264 1957.87 141.537 Q1961.32 137.787 1967.16 137.787 Q1972.39 137.787 1975.42 141.166 Q1978.48 144.523 1978.48 150.31 M1974.22 149.06 Q1974.17 145.565 1972.25 143.481 Q1970.35 141.398 1967.2 141.398 Q1963.64 141.398 1961.49 143.412 Q1959.36 145.426 1959.03 149.083 L1974.22 149.06 Z" fill="#000000" fill-rule="evenodd" fill-opacity="1" /><path clip-path="url(#clip390)" d="M1985.47 128.319 L1989.73 128.319 L1989.73 164.338 L1985.47 164.338 L1985.47 128.319 Z" fill="#000000" fill-rule="evenodd" fill-opacity="1" /><path clip-path="url(#clip390)" d="M2010.42 151.305 Q2005.26 151.305 2003.27 152.486 Q2001.28 153.666 2001.28 156.514 Q2001.28 158.782 2002.76 160.125 Q2004.26 161.444 2006.83 161.444 Q2010.37 161.444 2012.5 158.944 Q2014.66 156.421 2014.66 152.254 L2014.66 151.305 L2010.42 151.305 M2018.92 149.546 L2018.92 164.338 L2014.66 164.338 L2014.66 160.402 Q2013.2 162.763 2011.02 163.898 Q2008.85 165.009 2005.7 165.009 Q2001.72 165.009 1999.36 162.787 Q1997.02 160.541 1997.02 156.791 Q1997.02 152.416 1999.93 150.194 Q2002.87 147.972 2008.68 147.972 L2014.66 147.972 L2014.66 147.555 Q2014.66 144.615 2012.71 143.018 Q2010.79 141.398 2007.3 141.398 Q2005.07 141.398 2002.97 141.93 Q2000.86 142.463 1998.92 143.527 L1998.92 139.592 Q2001.25 138.69 2003.45 138.25 Q2005.65 137.787 2007.74 137.787 Q2013.36 137.787 2016.14 140.703 Q2018.92 143.62 2018.92 149.546 Z" fill="#000000" fill-rule="evenodd" fill-opacity="1" /><path clip-path="url(#clip390)" d="M2031.9 131.051 L2031.9 138.412 L2040.67 138.412 L2040.67 141.722 L2031.9 141.722 L2031.9 155.796 Q2031.9 158.967 2032.76 159.87 Q2033.64 160.773 2036.3 160.773 L2040.67 160.773 L2040.67 164.338 L2036.3 164.338 Q2031.37 164.338 2029.49 162.509 Q2027.62 160.657 2027.62 155.796 L2027.62 141.722 L2024.49 141.722 L2024.49 138.412 L2027.62 138.412 L2027.62 131.051 L2031.9 131.051 Z" fill="#000000" fill-rule="evenodd" fill-opacity="1" /><path clip-path="url(#clip390)" d="M2068.45 150.31 L2068.45 152.393 L2048.87 152.393 Q2049.15 156.791 2051.51 159.106 Q2053.89 161.398 2058.13 161.398 Q2060.58 161.398 2062.87 160.796 Q2065.19 160.194 2067.46 158.99 L2067.46 163.018 Q2065.17 163.99 2062.76 164.5 Q2060.35 165.009 2057.87 165.009 Q2051.67 165.009 2048.04 161.398 Q2044.42 157.787 2044.42 151.629 Q2044.42 145.264 2047.85 141.537 Q2051.3 137.787 2057.13 137.787 Q2062.36 137.787 2065.4 141.166 Q2068.45 144.523 2068.45 150.31 M2064.19 149.06 Q2064.15 145.565 2062.23 143.481 Q2060.33 141.398 2057.18 141.398 Q2053.61 141.398 2051.46 143.412 Q2049.33 145.426 2049.01 149.083 L2064.19 149.06 Z" fill="#000000" fill-rule="evenodd" fill-opacity="1" /><path clip-path="url(#clip390)" d="M2092.5 142.347 L2092.5 128.319 L2096.76 128.319 L2096.76 164.338 L2092.5 164.338 L2092.5 160.449 Q2091.16 162.763 2089.1 163.898 Q2087.06 165.009 2084.19 165.009 Q2079.49 165.009 2076.53 161.259 Q2073.59 157.509 2073.59 151.398 Q2073.59 145.287 2076.53 141.537 Q2079.49 137.787 2084.19 137.787 Q2087.06 137.787 2089.1 138.921 Q2091.16 140.032 2092.5 142.347 M2077.99 151.398 Q2077.99 156.097 2079.91 158.782 Q2081.86 161.444 2085.23 161.444 Q2088.61 161.444 2090.56 158.782 Q2092.5 156.097 2092.5 151.398 Q2092.5 146.699 2090.56 144.037 Q2088.61 141.352 2085.23 141.352 Q2081.86 141.352 2079.91 144.037 Q2077.99 146.699 2077.99 151.398 Z" fill="#000000" fill-rule="evenodd" fill-opacity="1" /><path clip-path="url(#clip390)" d="M2118.13 138.412 L2122.39 138.412 L2127.71 158.643 L2133.01 138.412 L2138.04 138.412 L2143.36 158.643 L2148.66 138.412 L2152.92 138.412 L2146.14 164.338 L2141.11 164.338 L2135.54 143.088 L2129.93 164.338 L2124.91 164.338 L2118.13 138.412 Z" fill="#000000" fill-rule="evenodd" fill-opacity="1" /><path clip-path="url(#clip390)" d="M2169.42 141.398 Q2166 141.398 2164.01 144.083 Q2162.02 146.745 2162.02 151.398 Q2162.02 156.051 2163.98 158.736 Q2165.98 161.398 2169.42 161.398 Q2172.83 161.398 2174.82 158.713 Q2176.81 156.027 2176.81 151.398 Q2176.81 146.791 2174.82 144.106 Q2172.83 141.398 2169.42 141.398 M2169.42 137.787 Q2174.98 137.787 2178.15 141.398 Q2181.32 145.009 2181.32 151.398 Q2181.32 157.764 2178.15 161.398 Q2174.98 165.009 2169.42 165.009 Q2163.85 165.009 2160.67 161.398 Q2157.53 157.764 2157.53 151.398 Q2157.53 145.009 2160.67 141.398 Q2163.85 137.787 2169.42 137.787 Z" fill="#000000" fill-rule="evenodd" fill-opacity="1" /><path clip-path="url(#clip390)" d="M2203.41 142.393 Q2202.69 141.977 2201.83 141.791 Q2201 141.583 2199.98 141.583 Q2196.37 141.583 2194.42 143.944 Q2192.5 146.282 2192.5 150.68 L2192.5 164.338 L2188.22 164.338 L2188.22 138.412 L2192.5 138.412 L2192.5 142.44 Q2193.85 140.078 2196 138.944 Q2198.15 137.787 2201.23 137.787 Q2201.67 137.787 2202.2 137.856 Q2202.73 137.903 2203.38 138.018 L2203.41 142.393 Z" fill="#000000" fill-rule="evenodd" fill-opacity="1" /><path clip-path="url(#clip390)" d="M2207.71 128.319 L2211.99 128.319 L2211.99 149.592 L2224.7 138.412 L2230.14 138.412 L2216.39 150.541 L2230.72 164.338 L2225.16 164.338 L2211.99 151.676 L2211.99 164.338 L2207.71 164.338 L2207.71 128.319 Z" fill="#000000" fill-rule="evenodd" fill-opacity="1" /><polyline clip-path="url(#clip390)" style="stroke:#000000; stroke-linecap:butt; stroke-linejoin:round; stroke-width:4; stroke-opacity:1; fill:none" points="
  1321.15,198.898 1467.59,198.898 
  "/>
<path clip-path="url(#clip390)" d="M1507.18 194.233 Q1506.46 193.817 1505.61 193.631 Q1504.77 193.423 1503.76 193.423 Q1500.15 193.423 1498.2 195.784 Q1496.28 198.122 1496.28 202.52 L1496.28 216.178 L1492 216.178 L1492 190.252 L1496.28 190.252 L1496.28 194.28 Q1497.62 191.918 1499.77 190.784 Q1501.93 189.627 1505.01 189.627 Q1505.45 189.627 1505.98 189.696 Q1506.51 189.743 1507.16 189.858 L1507.18 194.233 Z" fill="#000000" fill-rule="evenodd" fill-opacity="1" /><path clip-path="url(#clip390)" d="M1532.78 202.15 L1532.78 204.233 L1513.2 204.233 Q1513.48 208.631 1515.84 210.946 Q1518.22 213.238 1522.46 213.238 Q1524.91 213.238 1527.21 212.636 Q1529.52 212.034 1531.79 210.83 L1531.79 214.858 Q1529.5 215.83 1527.09 216.34 Q1524.68 216.849 1522.21 216.849 Q1516 216.849 1512.37 213.238 Q1508.76 209.627 1508.76 203.469 Q1508.76 197.104 1512.18 193.377 Q1515.63 189.627 1521.46 189.627 Q1526.7 189.627 1529.73 193.006 Q1532.78 196.363 1532.78 202.15 M1528.52 200.9 Q1528.48 197.405 1526.56 195.321 Q1524.66 193.238 1521.51 193.238 Q1517.95 193.238 1515.79 195.252 Q1513.66 197.266 1513.34 200.923 L1528.52 200.9 Z" fill="#000000" fill-rule="evenodd" fill-opacity="1" /><path clip-path="url(#clip390)" d="M1539.77 180.159 L1544.03 180.159 L1544.03 216.178 L1539.77 216.178 L1539.77 180.159 Z" fill="#000000" fill-rule="evenodd" fill-opacity="1" /><path clip-path="url(#clip390)" d="M1564.73 203.145 Q1559.57 203.145 1557.58 204.326 Q1555.58 205.506 1555.58 208.354 Q1555.58 210.622 1557.07 211.965 Q1558.57 213.284 1561.14 213.284 Q1564.68 213.284 1566.81 210.784 Q1568.96 208.261 1568.96 204.094 L1568.96 203.145 L1564.73 203.145 M1573.22 201.386 L1573.22 216.178 L1568.96 216.178 L1568.96 212.242 Q1567.51 214.603 1565.33 215.738 Q1563.15 216.849 1560.01 216.849 Q1556.02 216.849 1553.66 214.627 Q1551.33 212.381 1551.33 208.631 Q1551.33 204.256 1554.24 202.034 Q1557.18 199.812 1562.99 199.812 L1568.96 199.812 L1568.96 199.395 Q1568.96 196.455 1567.02 194.858 Q1565.1 193.238 1561.6 193.238 Q1559.38 193.238 1557.27 193.77 Q1555.17 194.303 1553.22 195.367 L1553.22 191.432 Q1555.56 190.53 1557.76 190.09 Q1559.96 189.627 1562.04 189.627 Q1567.67 189.627 1570.45 192.543 Q1573.22 195.46 1573.22 201.386 Z" fill="#000000" fill-rule="evenodd" fill-opacity="1" /><path clip-path="url(#clip390)" d="M1586.21 182.891 L1586.21 190.252 L1594.98 190.252 L1594.98 193.562 L1586.21 193.562 L1586.21 207.636 Q1586.21 210.807 1587.07 211.71 Q1587.95 212.613 1590.61 212.613 L1594.98 212.613 L1594.98 216.178 L1590.61 216.178 Q1585.68 216.178 1583.8 214.349 Q1581.93 212.497 1581.93 207.636 L1581.93 193.562 L1578.8 193.562 L1578.8 190.252 L1581.93 190.252 L1581.93 182.891 L1586.21 182.891 Z" fill="#000000" fill-rule="evenodd" fill-opacity="1" /><path clip-path="url(#clip390)" d="M1622.76 202.15 L1622.76 204.233 L1603.18 204.233 Q1603.45 208.631 1605.82 210.946 Q1608.2 213.238 1612.44 213.238 Q1614.89 213.238 1617.18 212.636 Q1619.5 212.034 1621.77 210.83 L1621.77 214.858 Q1619.47 215.83 1617.07 216.34 Q1614.66 216.849 1612.18 216.849 Q1605.98 216.849 1602.34 213.238 Q1598.73 209.627 1598.73 203.469 Q1598.73 197.104 1602.16 193.377 Q1605.61 189.627 1611.44 189.627 Q1616.67 189.627 1619.7 193.006 Q1622.76 196.363 1622.76 202.15 M1618.5 200.9 Q1618.45 197.405 1616.53 195.321 Q1614.64 193.238 1611.49 193.238 Q1607.92 193.238 1605.77 195.252 Q1603.64 197.266 1603.32 200.923 L1618.5 200.9 Z" fill="#000000" fill-rule="evenodd" fill-opacity="1" /><path clip-path="url(#clip390)" d="M1646.81 194.187 L1646.81 180.159 L1651.07 180.159 L1651.07 216.178 L1646.81 216.178 L1646.81 212.289 Q1645.47 214.603 1643.41 215.738 Q1641.37 216.849 1638.5 216.849 Q1633.8 216.849 1630.84 213.099 Q1627.9 209.349 1627.9 203.238 Q1627.9 197.127 1630.84 193.377 Q1633.8 189.627 1638.5 189.627 Q1641.37 189.627 1643.41 190.761 Q1645.47 191.872 1646.81 194.187 M1632.3 203.238 Q1632.3 207.937 1634.22 210.622 Q1636.16 213.284 1639.54 213.284 Q1642.92 213.284 1644.87 210.622 Q1646.81 207.937 1646.81 203.238 Q1646.81 198.539 1644.87 195.877 Q1642.92 193.192 1639.54 193.192 Q1636.16 193.192 1634.22 195.877 Q1632.3 198.539 1632.3 203.238 Z" fill="#000000" fill-rule="evenodd" fill-opacity="1" /><path clip-path="url(#clip390)" d="M1672.44 190.252 L1676.7 190.252 L1682.02 210.483 L1687.32 190.252 L1692.34 190.252 L1697.67 210.483 L1702.97 190.252 L1707.23 190.252 L1700.45 216.178 L1695.42 216.178 L1689.84 194.928 L1684.24 216.178 L1679.22 216.178 L1672.44 190.252 Z" fill="#000000" fill-rule="evenodd" fill-opacity="1" /><path clip-path="url(#clip390)" d="M1723.73 193.238 Q1720.31 193.238 1718.32 195.923 Q1716.32 198.585 1716.32 203.238 Q1716.32 207.891 1718.29 210.576 Q1720.28 213.238 1723.73 213.238 Q1727.13 213.238 1729.13 210.553 Q1731.12 207.867 1731.12 203.238 Q1731.12 198.631 1729.13 195.946 Q1727.13 193.238 1723.73 193.238 M1723.73 189.627 Q1729.29 189.627 1732.46 193.238 Q1735.63 196.849 1735.63 203.238 Q1735.63 209.604 1732.46 213.238 Q1729.29 216.849 1723.73 216.849 Q1718.15 216.849 1714.98 213.238 Q1711.83 209.604 1711.83 203.238 Q1711.83 196.849 1714.98 193.238 Q1718.15 189.627 1723.73 189.627 Z" fill="#000000" fill-rule="evenodd" fill-opacity="1" /><path clip-path="url(#clip390)" d="M1757.71 194.233 Q1757 193.817 1756.14 193.631 Q1755.31 193.423 1754.29 193.423 Q1750.68 193.423 1748.73 195.784 Q1746.81 198.122 1746.81 202.52 L1746.81 216.178 L1742.53 216.178 L1742.53 190.252 L1746.81 190.252 L1746.81 194.28 Q1748.15 191.918 1750.31 190.784 Q1752.46 189.627 1755.54 189.627 Q1755.98 189.627 1756.51 189.696 Q1757.04 189.743 1757.69 189.858 L1757.71 194.233 Z" fill="#000000" fill-rule="evenodd" fill-opacity="1" /><path clip-path="url(#clip390)" d="M1762.02 180.159 L1766.3 180.159 L1766.3 201.432 L1779.01 190.252 L1784.45 190.252 L1770.7 202.381 L1785.03 216.178 L1779.47 216.178 L1766.3 203.516 L1766.3 216.178 L1762.02 216.178 L1762.02 180.159 Z" fill="#000000" fill-rule="evenodd" fill-opacity="1" /><path clip-path="url(#clip390)" d="M1826.88 202.15 L1826.88 204.233 L1807.3 204.233 Q1807.57 208.631 1809.94 210.946 Q1812.32 213.238 1816.56 213.238 Q1819.01 213.238 1821.3 212.636 Q1823.62 212.034 1825.88 210.83 L1825.88 214.858 Q1823.59 215.83 1821.19 216.34 Q1818.78 216.849 1816.3 216.849 Q1810.1 216.849 1806.46 213.238 Q1802.85 209.627 1802.85 203.469 Q1802.85 197.104 1806.28 193.377 Q1809.73 189.627 1815.56 189.627 Q1820.79 189.627 1823.82 193.006 Q1826.88 196.363 1826.88 202.15 M1822.62 200.9 Q1822.57 197.405 1820.65 195.321 Q1818.75 193.238 1815.61 193.238 Q1812.04 193.238 1809.89 195.252 Q1807.76 197.266 1807.44 200.923 L1822.62 200.9 Z" fill="#000000" fill-rule="evenodd" fill-opacity="1" /><path clip-path="url(#clip390)" d="M1850.4 191.016 L1850.4 195.043 Q1848.59 194.117 1846.65 193.655 Q1844.7 193.192 1842.62 193.192 Q1839.45 193.192 1837.85 194.164 Q1836.28 195.136 1836.28 197.08 Q1836.28 198.562 1837.41 199.418 Q1838.55 200.252 1841.97 201.016 L1843.43 201.34 Q1847.97 202.312 1849.87 204.094 Q1851.79 205.854 1851.79 209.025 Q1851.79 212.636 1848.92 214.742 Q1846.07 216.849 1841.07 216.849 Q1838.99 216.849 1836.72 216.432 Q1834.47 216.039 1831.97 215.228 L1831.97 210.83 Q1834.33 212.057 1836.63 212.682 Q1838.92 213.284 1841.16 213.284 Q1844.17 213.284 1845.79 212.266 Q1847.41 211.224 1847.41 209.349 Q1847.41 207.613 1846.23 206.687 Q1845.07 205.761 1841.12 204.904 L1839.63 204.557 Q1835.68 203.724 1833.92 202.011 Q1832.16 200.275 1832.16 197.266 Q1832.16 193.608 1834.75 191.618 Q1837.34 189.627 1842.11 189.627 Q1844.47 189.627 1846.56 189.974 Q1848.64 190.321 1850.4 191.016 Z" fill="#000000" fill-rule="evenodd" fill-opacity="1" /><path clip-path="url(#clip390)" d="M1862.78 182.891 L1862.78 190.252 L1871.56 190.252 L1871.56 193.562 L1862.78 193.562 L1862.78 207.636 Q1862.78 210.807 1863.64 211.71 Q1864.52 212.613 1867.18 212.613 L1871.56 212.613 L1871.56 216.178 L1867.18 216.178 Q1862.25 216.178 1860.37 214.349 Q1858.5 212.497 1858.5 207.636 L1858.5 193.562 L1855.37 193.562 L1855.37 190.252 L1858.5 190.252 L1858.5 182.891 L1862.78 182.891 Z" fill="#000000" fill-rule="evenodd" fill-opacity="1" /><path clip-path="url(#clip390)" d="M1877.16 190.252 L1881.42 190.252 L1881.42 216.178 L1877.16 216.178 L1877.16 190.252 M1877.16 180.159 L1881.42 180.159 L1881.42 185.553 L1877.16 185.553 L1877.16 180.159 Z" fill="#000000" fill-rule="evenodd" fill-opacity="1" /><path clip-path="url(#clip390)" d="M1910.51 195.229 Q1912.11 192.358 1914.33 190.993 Q1916.56 189.627 1919.56 189.627 Q1923.62 189.627 1925.81 192.474 Q1928.01 195.298 1928.01 200.529 L1928.01 216.178 L1923.73 216.178 L1923.73 200.668 Q1923.73 196.942 1922.41 195.136 Q1921.09 193.33 1918.38 193.33 Q1915.07 193.33 1913.15 195.53 Q1911.23 197.729 1911.23 201.525 L1911.23 216.178 L1906.95 216.178 L1906.95 200.668 Q1906.95 196.918 1905.63 195.136 Q1904.31 193.33 1901.56 193.33 Q1898.29 193.33 1896.37 195.553 Q1894.45 197.752 1894.45 201.525 L1894.45 216.178 L1890.17 216.178 L1890.17 190.252 L1894.45 190.252 L1894.45 194.28 Q1895.91 191.895 1897.94 190.761 Q1899.98 189.627 1902.78 189.627 Q1905.61 189.627 1907.57 191.062 Q1909.56 192.497 1910.51 195.229 Z" fill="#000000" fill-rule="evenodd" fill-opacity="1" /><path clip-path="url(#clip390)" d="M1948.29 203.145 Q1943.13 203.145 1941.14 204.326 Q1939.15 205.506 1939.15 208.354 Q1939.15 210.622 1940.63 211.965 Q1942.13 213.284 1944.7 213.284 Q1948.24 213.284 1950.37 210.784 Q1952.53 208.261 1952.53 204.094 L1952.53 203.145 L1948.29 203.145 M1956.79 201.386 L1956.79 216.178 L1952.53 216.178 L1952.53 212.242 Q1951.07 214.603 1948.89 215.738 Q1946.72 216.849 1943.57 216.849 Q1939.59 216.849 1937.23 214.627 Q1934.89 212.381 1934.89 208.631 Q1934.89 204.256 1937.81 202.034 Q1940.74 199.812 1946.55 199.812 L1952.53 199.812 L1952.53 199.395 Q1952.53 196.455 1950.58 194.858 Q1948.66 193.238 1945.17 193.238 Q1942.94 193.238 1940.84 193.77 Q1938.73 194.303 1936.79 195.367 L1936.79 191.432 Q1939.12 190.53 1941.32 190.09 Q1943.52 189.627 1945.61 189.627 Q1951.23 189.627 1954.01 192.543 Q1956.79 195.46 1956.79 201.386 Z" fill="#000000" fill-rule="evenodd" fill-opacity="1" /><path clip-path="url(#clip390)" d="M1969.77 182.891 L1969.77 190.252 L1978.55 190.252 L1978.55 193.562 L1969.77 193.562 L1969.77 207.636 Q1969.77 210.807 1970.63 211.71 Q1971.51 212.613 1974.17 212.613 L1978.55 212.613 L1978.55 216.178 L1974.17 216.178 Q1969.24 216.178 1967.37 214.349 Q1965.49 212.497 1965.49 207.636 L1965.49 193.562 L1962.37 193.562 L1962.37 190.252 L1965.49 190.252 L1965.49 182.891 L1969.77 182.891 Z" fill="#000000" fill-rule="evenodd" fill-opacity="1" /><path clip-path="url(#clip390)" d="M2006.32 202.15 L2006.32 204.233 L1986.74 204.233 Q1987.02 208.631 1989.38 210.946 Q1991.76 213.238 1996 213.238 Q1998.45 213.238 2000.74 212.636 Q2003.06 212.034 2005.33 210.83 L2005.33 214.858 Q2003.04 215.83 2000.63 216.34 Q1998.22 216.849 1995.74 216.849 Q1989.54 216.849 1985.91 213.238 Q1982.3 209.627 1982.3 203.469 Q1982.3 197.104 1985.72 193.377 Q1989.17 189.627 1995 189.627 Q2000.24 189.627 2003.27 193.006 Q2006.32 196.363 2006.32 202.15 M2002.06 200.9 Q2002.02 197.405 2000.1 195.321 Q1998.2 193.238 1995.05 193.238 Q1991.49 193.238 1989.33 195.252 Q1987.2 197.266 1986.88 200.923 L2002.06 200.9 Z" fill="#000000" fill-rule="evenodd" fill-opacity="1" /><path clip-path="url(#clip390)" d="M2029.84 191.016 L2029.84 195.043 Q2028.04 194.117 2026.09 193.655 Q2024.15 193.192 2022.06 193.192 Q2018.89 193.192 2017.3 194.164 Q2015.72 195.136 2015.72 197.08 Q2015.72 198.562 2016.86 199.418 Q2017.99 200.252 2021.42 201.016 L2022.87 201.34 Q2027.41 202.312 2029.31 204.094 Q2031.23 205.854 2031.23 209.025 Q2031.23 212.636 2028.36 214.742 Q2025.51 216.849 2020.51 216.849 Q2018.43 216.849 2016.16 216.432 Q2013.92 216.039 2011.42 215.228 L2011.42 210.83 Q2013.78 212.057 2016.07 212.682 Q2018.36 213.284 2020.61 213.284 Q2023.61 213.284 2025.24 212.266 Q2026.86 211.224 2026.86 209.349 Q2026.86 207.613 2025.67 206.687 Q2024.52 205.761 2020.56 204.904 L2019.08 204.557 Q2015.12 203.724 2013.36 202.011 Q2011.6 200.275 2011.6 197.266 Q2011.6 193.608 2014.19 191.618 Q2016.79 189.627 2021.55 189.627 Q2023.92 189.627 2026 189.974 Q2028.08 190.321 2029.84 191.016 Z" fill="#000000" fill-rule="evenodd" fill-opacity="1" /></svg>
