<?xml version="1.0" encoding="utf-8"?>
<svg xmlns="http://www.w3.org/2000/svg" xmlns:xlink="http://www.w3.org/1999/xlink" width="600" height="400" viewBox="0 0 2400 1600">
<defs>
  <clipPath id="clip150">
    <rect x="0" y="0" width="2400" height="1600"/>
  </clipPath>
</defs>
<path clip-path="url(#clip150)" d="
M0 1600 L2400 1600 L2400 0 L0 0  Z
  " fill="#ffffff" fill-rule="evenodd" fill-opacity="1"/>
<defs>
  <clipPath id="clip151">
    <rect x="480" y="0" width="1681" height="1600"/>
  </clipPath>
</defs>
<path clip-path="url(#clip150)" d="
M186.274 1486.45 L2352.76 1486.45 L2352.76 47.2441 L186.274 47.2441  Z
  " fill="#ffffff" fill-rule="evenodd" fill-opacity="1"/>
<defs>
  <clipPath id="clip152">
    <rect x="186" y="47" width="2167" height="1440"/>
  </clipPath>
</defs>
<polyline clip-path="url(#clip152)" style="stroke:#000000; stroke-linecap:butt; stroke-linejoin:round; stroke-width:2; stroke-opacity:0.1; fill:none" points="
  186.274,1486.45 186.274,47.2441 
  "/>
<polyline clip-path="url(#clip152)" style="stroke:#000000; stroke-linecap:butt; stroke-linejoin:round; stroke-width:2; stroke-opacity:0.1; fill:none" points="
  619.57,1486.45 619.57,47.2441 
  "/>
<polyline clip-path="url(#clip152)" style="stroke:#000000; stroke-linecap:butt; stroke-linejoin:round; stroke-width:2; stroke-opacity:0.1; fill:none" points="
  1052.87,1486.45 1052.87,47.2441 
  "/>
<polyline clip-path="url(#clip152)" style="stroke:#000000; stroke-linecap:butt; stroke-linejoin:round; stroke-width:2; stroke-opacity:0.1; fill:none" points="
  1486.16,1486.45 1486.16,47.2441 
  "/>
<polyline clip-path="url(#clip152)" style="stroke:#000000; stroke-linecap:butt; stroke-linejoin:round; stroke-width:2; stroke-opacity:0.1; fill:none" points="
  1919.46,1486.45 1919.46,47.2441 
  "/>
<polyline clip-path="url(#clip152)" style="stroke:#000000; stroke-linecap:butt; stroke-linejoin:round; stroke-width:2; stroke-opacity:0.1; fill:none" points="
  2352.76,1486.45 2352.76,47.2441 
  "/>
<polyline clip-path="url(#clip150)" style="stroke:#000000; stroke-linecap:butt; stroke-linejoin:round; stroke-width:4; stroke-opacity:1; fill:none" points="
  186.274,1486.45 2352.76,1486.45 
  "/>
<polyline clip-path="url(#clip150)" style="stroke:#000000; stroke-linecap:butt; stroke-linejoin:round; stroke-width:4; stroke-opacity:1; fill:none" points="
  186.274,1486.45 186.274,1467.55 
  "/>
<polyline clip-path="url(#clip150)" style="stroke:#000000; stroke-linecap:butt; stroke-linejoin:round; stroke-width:4; stroke-opacity:1; fill:none" points="
  619.57,1486.45 619.57,1467.55 
  "/>
<polyline clip-path="url(#clip150)" style="stroke:#000000; stroke-linecap:butt; stroke-linejoin:round; stroke-width:4; stroke-opacity:1; fill:none" points="
  1052.87,1486.45 1052.87,1467.55 
  "/>
<polyline clip-path="url(#clip150)" style="stroke:#000000; stroke-linecap:butt; stroke-linejoin:round; stroke-width:4; stroke-opacity:1; fill:none" points="
  1486.16,1486.45 1486.16,1467.55 
  "/>
<polyline clip-path="url(#clip150)" style="stroke:#000000; stroke-linecap:butt; stroke-linejoin:round; stroke-width:4; stroke-opacity:1; fill:none" points="
  1919.46,1486.45 1919.46,1467.55 
  "/>
<polyline clip-path="url(#clip150)" style="stroke:#000000; stroke-linecap:butt; stroke-linejoin:round; stroke-width:4; stroke-opacity:1; fill:none" points="
  2352.76,1486.45 2352.76,1467.55 
  "/>
<path clip-path="url(#clip150)" d="M186.274 1517.37 Q182.663 1517.37 180.834 1520.93 Q179.029 1524.47 179.029 1531.6 Q179.029 1538.71 180.834 1542.27 Q182.663 1545.82 186.274 1545.82 Q189.908 1545.82 191.714 1542.27 Q193.542 1538.71 193.542 1531.6 Q193.542 1524.47 191.714 1520.93 Q189.908 1517.37 186.274 1517.37 M186.274 1513.66 Q192.084 1513.66 195.14 1518.27 Q198.218 1522.85 198.218 1531.6 Q198.218 1540.33 195.14 1544.94 Q192.084 1549.52 186.274 1549.52 Q180.464 1549.52 177.385 1544.94 Q174.33 1540.33 174.33 1531.6 Q174.33 1522.85 177.385 1518.27 Q180.464 1513.66 186.274 1513.66 Z" fill="#000000" fill-rule="evenodd" fill-opacity="1" /><path clip-path="url(#clip150)" d="M594.258 1544.91 L601.897 1544.91 L601.897 1518.55 L593.587 1520.21 L593.587 1515.95 L601.851 1514.29 L606.526 1514.29 L606.526 1544.91 L614.165 1544.91 L614.165 1548.85 L594.258 1548.85 L594.258 1544.91 Z" fill="#000000" fill-rule="evenodd" fill-opacity="1" /><path clip-path="url(#clip150)" d="M633.61 1517.37 Q629.999 1517.37 628.17 1520.93 Q626.364 1524.47 626.364 1531.6 Q626.364 1538.71 628.17 1542.27 Q629.999 1545.82 633.61 1545.82 Q637.244 1545.82 639.049 1542.27 Q640.878 1538.71 640.878 1531.6 Q640.878 1524.47 639.049 1520.93 Q637.244 1517.37 633.61 1517.37 M633.61 1513.66 Q639.42 1513.66 642.475 1518.27 Q645.554 1522.85 645.554 1531.6 Q645.554 1540.33 642.475 1544.94 Q639.42 1549.52 633.61 1549.52 Q627.8 1549.52 624.721 1544.94 Q621.665 1540.33 621.665 1531.6 Q621.665 1522.85 624.721 1518.27 Q627.8 1513.66 633.61 1513.66 Z" fill="#000000" fill-rule="evenodd" fill-opacity="1" /><path clip-path="url(#clip150)" d="M1031.64 1544.91 L1047.96 1544.91 L1047.96 1548.85 L1026.02 1548.85 L1026.02 1544.91 Q1028.68 1542.16 1033.26 1537.53 Q1037.87 1532.88 1039.05 1531.53 Q1041.29 1529.01 1042.17 1527.27 Q1043.08 1525.51 1043.08 1523.82 Q1043.08 1521.07 1041.13 1519.33 Q1039.21 1517.6 1036.11 1517.6 Q1033.91 1517.6 1031.45 1518.36 Q1029.02 1519.13 1026.25 1520.68 L1026.25 1515.95 Q1029.07 1514.82 1031.52 1514.24 Q1033.98 1513.66 1036.02 1513.66 Q1041.39 1513.66 1044.58 1516.35 Q1047.77 1519.03 1047.77 1523.52 Q1047.77 1525.65 1046.96 1527.57 Q1046.18 1529.47 1044.07 1532.07 Q1043.49 1532.74 1040.39 1535.95 Q1037.29 1539.15 1031.64 1544.91 Z" fill="#000000" fill-rule="evenodd" fill-opacity="1" /><path clip-path="url(#clip150)" d="M1067.77 1517.37 Q1064.16 1517.37 1062.33 1520.93 Q1060.53 1524.47 1060.53 1531.6 Q1060.53 1538.71 1062.33 1542.27 Q1064.16 1545.82 1067.77 1545.82 Q1071.41 1545.82 1073.21 1542.27 Q1075.04 1538.71 1075.04 1531.6 Q1075.04 1524.47 1073.21 1520.93 Q1071.41 1517.37 1067.77 1517.37 M1067.77 1513.66 Q1073.58 1513.66 1076.64 1518.27 Q1079.72 1522.85 1079.72 1531.6 Q1079.72 1540.33 1076.64 1544.94 Q1073.58 1549.52 1067.77 1549.52 Q1061.96 1549.52 1058.89 1544.94 Q1055.83 1540.33 1055.83 1531.6 Q1055.83 1522.85 1058.89 1518.27 Q1061.96 1513.66 1067.77 1513.66 Z" fill="#000000" fill-rule="evenodd" fill-opacity="1" /><path clip-path="url(#clip150)" d="M1475.01 1530.21 Q1478.36 1530.93 1480.24 1533.2 Q1482.14 1535.47 1482.14 1538.8 Q1482.14 1543.92 1478.62 1546.72 Q1475.1 1549.52 1468.62 1549.52 Q1466.44 1549.52 1464.13 1549.08 Q1461.83 1548.66 1459.38 1547.81 L1459.38 1543.29 Q1461.33 1544.43 1463.64 1545.01 Q1465.95 1545.58 1468.48 1545.58 Q1472.88 1545.58 1475.17 1543.85 Q1477.48 1542.11 1477.48 1538.8 Q1477.48 1535.75 1475.33 1534.03 Q1473.2 1532.3 1469.38 1532.3 L1465.35 1532.3 L1465.35 1528.45 L1469.57 1528.45 Q1473.02 1528.45 1474.84 1527.09 Q1476.67 1525.7 1476.67 1523.11 Q1476.67 1520.45 1474.77 1519.03 Q1472.9 1517.6 1469.38 1517.6 Q1467.46 1517.6 1465.26 1518.01 Q1463.06 1518.43 1460.42 1519.31 L1460.42 1515.14 Q1463.08 1514.4 1465.4 1514.03 Q1467.74 1513.66 1469.8 1513.66 Q1475.12 1513.66 1478.22 1516.09 Q1481.33 1518.5 1481.33 1522.62 Q1481.33 1525.49 1479.68 1527.48 Q1478.04 1529.45 1475.01 1530.21 Z" fill="#000000" fill-rule="evenodd" fill-opacity="1" /><path clip-path="url(#clip150)" d="M1501 1517.37 Q1497.39 1517.37 1495.56 1520.93 Q1493.76 1524.47 1493.76 1531.6 Q1493.76 1538.71 1495.56 1542.27 Q1497.39 1545.82 1501 1545.82 Q1504.64 1545.82 1506.44 1542.27 Q1508.27 1538.71 1508.27 1531.6 Q1508.27 1524.47 1506.44 1520.93 Q1504.64 1517.37 1501 1517.37 M1501 1513.66 Q1506.81 1513.66 1509.87 1518.27 Q1512.95 1522.85 1512.95 1531.6 Q1512.95 1540.33 1509.87 1544.94 Q1506.81 1549.52 1501 1549.52 Q1495.19 1549.52 1492.11 1544.94 Q1489.06 1540.33 1489.06 1531.6 Q1489.06 1522.85 1492.11 1518.27 Q1495.19 1513.66 1501 1513.66 Z" fill="#000000" fill-rule="evenodd" fill-opacity="1" /><path clip-path="url(#clip150)" d="M1907.63 1518.36 L1895.83 1536.81 L1907.63 1536.81 L1907.63 1518.36 M1906.4 1514.29 L1912.28 1514.29 L1912.28 1536.81 L1917.21 1536.81 L1917.21 1540.7 L1912.28 1540.7 L1912.28 1548.85 L1907.63 1548.85 L1907.63 1540.7 L1892.03 1540.7 L1892.03 1536.19 L1906.4 1514.29 Z" fill="#000000" fill-rule="evenodd" fill-opacity="1" /><path clip-path="url(#clip150)" d="M1934.95 1517.37 Q1931.33 1517.37 1929.51 1520.93 Q1927.7 1524.47 1927.7 1531.6 Q1927.7 1538.71 1929.51 1542.27 Q1931.33 1545.82 1934.95 1545.82 Q1938.58 1545.82 1940.39 1542.27 Q1942.21 1538.71 1942.21 1531.6 Q1942.21 1524.47 1940.39 1520.93 Q1938.58 1517.37 1934.95 1517.37 M1934.95 1513.66 Q1940.76 1513.66 1943.81 1518.27 Q1946.89 1522.85 1946.89 1531.6 Q1946.89 1540.33 1943.81 1544.94 Q1940.76 1549.52 1934.95 1549.52 Q1929.14 1549.52 1926.06 1544.94 Q1923 1540.33 1923 1531.6 Q1923 1522.85 1926.06 1518.27 Q1929.14 1513.66 1934.95 1513.66 Z" fill="#000000" fill-rule="evenodd" fill-opacity="1" /><path clip-path="url(#clip150)" d="M2327.46 1514.29 L2345.81 1514.29 L2345.81 1518.22 L2331.74 1518.22 L2331.74 1526.7 Q2332.76 1526.35 2333.77 1526.19 Q2334.79 1526 2335.81 1526 Q2341.6 1526 2344.98 1529.17 Q2348.36 1532.34 2348.36 1537.76 Q2348.36 1543.34 2344.89 1546.44 Q2341.41 1549.52 2335.09 1549.52 Q2332.92 1549.52 2330.65 1549.15 Q2328.4 1548.78 2326 1548.04 L2326 1543.34 Q2328.08 1544.47 2330.3 1545.03 Q2332.52 1545.58 2335 1545.58 Q2339.01 1545.58 2341.34 1543.48 Q2343.68 1541.37 2343.68 1537.76 Q2343.68 1534.15 2341.34 1532.04 Q2339.01 1529.94 2335 1529.94 Q2333.13 1529.94 2331.25 1530.35 Q2329.4 1530.77 2327.46 1531.65 L2327.46 1514.29 Z" fill="#000000" fill-rule="evenodd" fill-opacity="1" /><path clip-path="url(#clip150)" d="M2367.57 1517.37 Q2363.96 1517.37 2362.13 1520.93 Q2360.33 1524.47 2360.33 1531.6 Q2360.33 1538.71 2362.13 1542.27 Q2363.96 1545.82 2367.57 1545.82 Q2371.2 1545.82 2373.01 1542.27 Q2374.84 1538.71 2374.84 1531.6 Q2374.84 1524.47 2373.01 1520.93 Q2371.2 1517.37 2367.57 1517.37 M2367.57 1513.66 Q2373.38 1513.66 2376.44 1518.27 Q2379.52 1522.85 2379.52 1531.6 Q2379.52 1540.33 2376.44 1544.94 Q2373.38 1549.52 2367.57 1549.52 Q2361.76 1549.52 2358.68 1544.94 Q2355.63 1540.33 2355.63 1531.6 Q2355.63 1522.85 2358.68 1518.27 Q2361.76 1513.66 2367.57 1513.66 Z" fill="#000000" fill-rule="evenodd" fill-opacity="1" /><polyline clip-path="url(#clip152)" style="stroke:#000000; stroke-linecap:butt; stroke-linejoin:round; stroke-width:2; stroke-opacity:0.1; fill:none" points="
  186.274,1445.72 2352.76,1445.72 
  "/>
<polyline clip-path="url(#clip152)" style="stroke:#000000; stroke-linecap:butt; stroke-linejoin:round; stroke-width:2; stroke-opacity:0.1; fill:none" points="
  186.274,1068.6 2352.76,1068.6 
  "/>
<polyline clip-path="url(#clip152)" style="stroke:#000000; stroke-linecap:butt; stroke-linejoin:round; stroke-width:2; stroke-opacity:0.1; fill:none" points="
  186.274,691.491 2352.76,691.491 
  "/>
<polyline clip-path="url(#clip152)" style="stroke:#000000; stroke-linecap:butt; stroke-linejoin:round; stroke-width:2; stroke-opacity:0.1; fill:none" points="
  186.274,314.378 2352.76,314.378 
  "/>
<polyline clip-path="url(#clip150)" style="stroke:#000000; stroke-linecap:butt; stroke-linejoin:round; stroke-width:4; stroke-opacity:1; fill:none" points="
  186.274,1486.45 186.274,47.2441 
  "/>
<polyline clip-path="url(#clip150)" style="stroke:#000000; stroke-linecap:butt; stroke-linejoin:round; stroke-width:4; stroke-opacity:1; fill:none" points="
  186.274,1445.72 205.172,1445.72 
  "/>
<polyline clip-path="url(#clip150)" style="stroke:#000000; stroke-linecap:butt; stroke-linejoin:round; stroke-width:4; stroke-opacity:1; fill:none" points="
  186.274,1068.6 205.172,1068.6 
  "/>
<polyline clip-path="url(#clip150)" style="stroke:#000000; stroke-linecap:butt; stroke-linejoin:round; stroke-width:4; stroke-opacity:1; fill:none" points="
  186.274,691.491 205.172,691.491 
  "/>
<polyline clip-path="url(#clip150)" style="stroke:#000000; stroke-linecap:butt; stroke-linejoin:round; stroke-width:4; stroke-opacity:1; fill:none" points="
  186.274,314.378 205.172,314.378 
  "/>
<path clip-path="url(#clip150)" d="M62.9365 1431.51 Q59.3254 1431.51 57.4967 1435.08 Q55.6912 1438.62 55.6912 1445.75 Q55.6912 1452.86 57.4967 1456.42 Q59.3254 1459.96 62.9365 1459.96 Q66.5707 1459.96 68.3763 1456.42 Q70.205 1452.86 70.205 1445.75 Q70.205 1438.62 68.3763 1435.08 Q66.5707 1431.51 62.9365 1431.51 M62.9365 1427.81 Q68.7467 1427.81 71.8022 1432.42 Q74.8809 1437 74.8809 1445.75 Q74.8809 1454.48 71.8022 1459.08 Q68.7467 1463.67 62.9365 1463.67 Q57.1264 1463.67 54.0477 1459.08 Q50.9921 1454.48 50.9921 1445.75 Q50.9921 1437 54.0477 1432.42 Q57.1264 1427.81 62.9365 1427.81 Z" fill="#000000" fill-rule="evenodd" fill-opacity="1" /><path clip-path="url(#clip150)" d="M83.0984 1457.12 L87.9827 1457.12 L87.9827 1463 L83.0984 1463 L83.0984 1457.12 Z" fill="#000000" fill-rule="evenodd" fill-opacity="1" /><path clip-path="url(#clip150)" d="M108.168 1431.51 Q104.557 1431.51 102.728 1435.08 Q100.922 1438.62 100.922 1445.75 Q100.922 1452.86 102.728 1456.42 Q104.557 1459.96 108.168 1459.96 Q111.802 1459.96 113.608 1456.42 Q115.436 1452.86 115.436 1445.75 Q115.436 1438.62 113.608 1435.08 Q111.802 1431.51 108.168 1431.51 M108.168 1427.81 Q113.978 1427.81 117.033 1432.42 Q120.112 1437 120.112 1445.75 Q120.112 1454.48 117.033 1459.08 Q113.978 1463.67 108.168 1463.67 Q102.358 1463.67 99.2789 1459.08 Q96.2234 1454.48 96.2234 1445.75 Q96.2234 1437 99.2789 1432.42 Q102.358 1427.81 108.168 1427.81 Z" fill="#000000" fill-rule="evenodd" fill-opacity="1" /><path clip-path="url(#clip150)" d="M138.33 1431.51 Q134.719 1431.51 132.89 1435.08 Q131.084 1438.62 131.084 1445.75 Q131.084 1452.86 132.89 1456.42 Q134.719 1459.96 138.33 1459.96 Q141.964 1459.96 143.769 1456.42 Q145.598 1452.86 145.598 1445.75 Q145.598 1438.62 143.769 1435.08 Q141.964 1431.51 138.33 1431.51 M138.33 1427.81 Q144.14 1427.81 147.195 1432.42 Q150.274 1437 150.274 1445.75 Q150.274 1454.48 147.195 1459.08 Q144.14 1463.67 138.33 1463.67 Q132.519 1463.67 129.441 1459.08 Q126.385 1454.48 126.385 1445.75 Q126.385 1437 129.441 1432.42 Q132.519 1427.81 138.33 1427.81 Z" fill="#000000" fill-rule="evenodd" fill-opacity="1" /><path clip-path="url(#clip150)" d="M63.9319 1054.4 Q60.3208 1054.4 58.4921 1057.97 Q56.6865 1061.51 56.6865 1068.64 Q56.6865 1075.74 58.4921 1079.31 Q60.3208 1082.85 63.9319 1082.85 Q67.5661 1082.85 69.3717 1079.31 Q71.2004 1075.74 71.2004 1068.64 Q71.2004 1061.51 69.3717 1057.97 Q67.5661 1054.4 63.9319 1054.4 M63.9319 1050.7 Q69.742 1050.7 72.7976 1055.3 Q75.8763 1059.89 75.8763 1068.64 Q75.8763 1077.36 72.7976 1081.97 Q69.742 1086.55 63.9319 1086.55 Q58.1217 1086.55 55.043 1081.97 Q51.9875 1077.36 51.9875 1068.64 Q51.9875 1059.89 55.043 1055.3 Q58.1217 1050.7 63.9319 1050.7 Z" fill="#000000" fill-rule="evenodd" fill-opacity="1" /><path clip-path="url(#clip150)" d="M84.0938 1080 L88.978 1080 L88.978 1085.88 L84.0938 1085.88 L84.0938 1080 Z" fill="#000000" fill-rule="evenodd" fill-opacity="1" /><path clip-path="url(#clip150)" d="M109.163 1054.4 Q105.552 1054.4 103.723 1057.97 Q101.918 1061.51 101.918 1068.64 Q101.918 1075.74 103.723 1079.31 Q105.552 1082.85 109.163 1082.85 Q112.797 1082.85 114.603 1079.31 Q116.432 1075.74 116.432 1068.64 Q116.432 1061.51 114.603 1057.97 Q112.797 1054.4 109.163 1054.4 M109.163 1050.7 Q114.973 1050.7 118.029 1055.3 Q121.107 1059.89 121.107 1068.64 Q121.107 1077.36 118.029 1081.97 Q114.973 1086.55 109.163 1086.55 Q103.353 1086.55 100.274 1081.97 Q97.2187 1077.36 97.2187 1068.64 Q97.2187 1059.89 100.274 1055.3 Q103.353 1050.7 109.163 1050.7 Z" fill="#000000" fill-rule="evenodd" fill-opacity="1" /><path clip-path="url(#clip150)" d="M129.371 1051.32 L147.728 1051.32 L147.728 1055.26 L133.654 1055.26 L133.654 1063.73 Q134.672 1063.38 135.691 1063.22 Q136.709 1063.04 137.728 1063.04 Q143.515 1063.04 146.894 1066.21 Q150.274 1069.38 150.274 1074.8 Q150.274 1080.37 146.802 1083.48 Q143.33 1086.55 137.01 1086.55 Q134.834 1086.55 132.566 1086.18 Q130.32 1085.81 127.913 1085.07 L127.913 1080.37 Q129.996 1081.51 132.219 1082.06 Q134.441 1082.62 136.918 1082.62 Q140.922 1082.62 143.26 1080.51 Q145.598 1078.41 145.598 1074.8 Q145.598 1071.18 143.26 1069.08 Q140.922 1066.97 136.918 1066.97 Q135.043 1066.97 133.168 1067.39 Q131.316 1067.8 129.371 1068.68 L129.371 1051.32 Z" fill="#000000" fill-rule="evenodd" fill-opacity="1" /><path clip-path="url(#clip150)" d="M62.9365 677.289 Q59.3254 677.289 57.4967 680.854 Q55.6912 684.396 55.6912 691.525 Q55.6912 698.632 57.4967 702.197 Q59.3254 705.738 62.9365 705.738 Q66.5707 705.738 68.3763 702.197 Q70.205 698.632 70.205 691.525 Q70.205 684.396 68.3763 680.854 Q66.5707 677.289 62.9365 677.289 M62.9365 673.586 Q68.7467 673.586 71.8022 678.192 Q74.8809 682.775 74.8809 691.525 Q74.8809 700.252 71.8022 704.859 Q68.7467 709.442 62.9365 709.442 Q57.1264 709.442 54.0477 704.859 Q50.9921 700.252 50.9921 691.525 Q50.9921 682.775 54.0477 678.192 Q57.1264 673.586 62.9365 673.586 Z" fill="#000000" fill-rule="evenodd" fill-opacity="1" /><path clip-path="url(#clip150)" d="M83.0984 702.891 L87.9827 702.891 L87.9827 708.771 L83.0984 708.771 L83.0984 702.891 Z" fill="#000000" fill-rule="evenodd" fill-opacity="1" /><path clip-path="url(#clip150)" d="M98.978 704.836 L106.617 704.836 L106.617 678.47 L98.3067 680.137 L98.3067 675.877 L106.571 674.211 L111.246 674.211 L111.246 704.836 L118.885 704.836 L118.885 708.771 L98.978 708.771 L98.978 704.836 Z" fill="#000000" fill-rule="evenodd" fill-opacity="1" /><path clip-path="url(#clip150)" d="M138.33 677.289 Q134.719 677.289 132.89 680.854 Q131.084 684.396 131.084 691.525 Q131.084 698.632 132.89 702.197 Q134.719 705.738 138.33 705.738 Q141.964 705.738 143.769 702.197 Q145.598 698.632 145.598 691.525 Q145.598 684.396 143.769 680.854 Q141.964 677.289 138.33 677.289 M138.33 673.586 Q144.14 673.586 147.195 678.192 Q150.274 682.775 150.274 691.525 Q150.274 700.252 147.195 704.859 Q144.14 709.442 138.33 709.442 Q132.519 709.442 129.441 704.859 Q126.385 700.252 126.385 691.525 Q126.385 682.775 129.441 678.192 Q132.519 673.586 138.33 673.586 Z" fill="#000000" fill-rule="evenodd" fill-opacity="1" /><path clip-path="url(#clip150)" d="M63.9319 300.177 Q60.3208 300.177 58.4921 303.742 Q56.6865 307.283 56.6865 314.413 Q56.6865 321.519 58.4921 325.084 Q60.3208 328.626 63.9319 328.626 Q67.5661 328.626 69.3717 325.084 Q71.2004 321.519 71.2004 314.413 Q71.2004 307.283 69.3717 303.742 Q67.5661 300.177 63.9319 300.177 M63.9319 296.473 Q69.742 296.473 72.7976 301.08 Q75.8763 305.663 75.8763 314.413 Q75.8763 323.14 72.7976 327.746 Q69.742 332.33 63.9319 332.33 Q58.1217 332.33 55.043 327.746 Q51.9875 323.14 51.9875 314.413 Q51.9875 305.663 55.043 301.08 Q58.1217 296.473 63.9319 296.473 Z" fill="#000000" fill-rule="evenodd" fill-opacity="1" /><path clip-path="url(#clip150)" d="M84.0938 325.779 L88.978 325.779 L88.978 331.658 L84.0938 331.658 L84.0938 325.779 Z" fill="#000000" fill-rule="evenodd" fill-opacity="1" /><path clip-path="url(#clip150)" d="M99.9733 327.723 L107.612 327.723 L107.612 301.357 L99.3021 303.024 L99.3021 298.765 L107.566 297.098 L112.242 297.098 L112.242 327.723 L119.881 327.723 L119.881 331.658 L99.9733 331.658 L99.9733 327.723 Z" fill="#000000" fill-rule="evenodd" fill-opacity="1" /><path clip-path="url(#clip150)" d="M129.371 297.098 L147.728 297.098 L147.728 301.033 L133.654 301.033 L133.654 309.506 Q134.672 309.158 135.691 308.996 Q136.709 308.811 137.728 308.811 Q143.515 308.811 146.894 311.982 Q150.274 315.154 150.274 320.57 Q150.274 326.149 146.802 329.251 Q143.33 332.33 137.01 332.33 Q134.834 332.33 132.566 331.959 Q130.32 331.589 127.913 330.848 L127.913 326.149 Q129.996 327.283 132.219 327.839 Q134.441 328.394 136.918 328.394 Q140.922 328.394 143.26 326.288 Q145.598 324.181 145.598 320.57 Q145.598 316.959 143.26 314.853 Q140.922 312.746 136.918 312.746 Q135.043 312.746 133.168 313.163 Q131.316 313.58 129.371 314.459 L129.371 297.098 Z" fill="#000000" fill-rule="evenodd" fill-opacity="1" /><polyline clip-path="url(#clip152)" style="stroke:#009af9; stroke-linecap:butt; stroke-linejoin:round; stroke-width:12; stroke-opacity:1; fill:none" points="
  186.274,1445.72 186.274,1401.06 
  "/>
<polyline clip-path="url(#clip152)" style="stroke:#009af9; stroke-linecap:butt; stroke-linejoin:round; stroke-width:12; stroke-opacity:1; fill:none" points="
  229.604,1445.72 229.604,1210.69 
  "/>
<polyline clip-path="url(#clip152)" style="stroke:#009af9; stroke-linecap:butt; stroke-linejoin:round; stroke-width:12; stroke-opacity:1; fill:none" points="
  272.933,1445.72 272.933,833.422 
  "/>
<polyline clip-path="url(#clip152)" style="stroke:#009af9; stroke-linecap:butt; stroke-linejoin:round; stroke-width:12; stroke-opacity:1; fill:none" points="
  316.263,1445.72 316.263,393.001 
  "/>
<polyline clip-path="url(#clip152)" style="stroke:#009af9; stroke-linecap:butt; stroke-linejoin:round; stroke-width:12; stroke-opacity:1; fill:none" points="
  359.593,1445.72 359.593,102.119 
  "/>
<polyline clip-path="url(#clip152)" style="stroke:#009af9; stroke-linecap:butt; stroke-linejoin:round; stroke-width:12; stroke-opacity:1; fill:none" points="
  402.922,1445.72 402.922,87.9763 
  "/>
<polyline clip-path="url(#clip152)" style="stroke:#009af9; stroke-linecap:butt; stroke-linejoin:round; stroke-width:12; stroke-opacity:1; fill:none" points="
  446.252,1445.72 446.252,314.266 
  "/>
<polyline clip-path="url(#clip152)" style="stroke:#009af9; stroke-linecap:butt; stroke-linejoin:round; stroke-width:12; stroke-opacity:1; fill:none" points="
  489.581,1445.72 489.581,646.045 
  "/>
<polyline clip-path="url(#clip152)" style="stroke:#009af9; stroke-linecap:butt; stroke-linejoin:round; stroke-width:12; stroke-opacity:1; fill:none" points="
  532.911,1445.72 532.911,956.443 
  "/>
<polyline clip-path="url(#clip152)" style="stroke:#009af9; stroke-linecap:butt; stroke-linejoin:round; stroke-width:12; stroke-opacity:1; fill:none" points="
  576.241,1445.72 576.241,1182.48 
  "/>
<polyline clip-path="url(#clip152)" style="stroke:#009af9; stroke-linecap:butt; stroke-linejoin:round; stroke-width:12; stroke-opacity:1; fill:none" points="
  619.57,1445.72 619.57,1319.64 
  "/>
<polyline clip-path="url(#clip152)" style="stroke:#009af9; stroke-linecap:butt; stroke-linejoin:round; stroke-width:12; stroke-opacity:1; fill:none" points="
  662.9,1445.72 662.9,1391.42 
  "/>
<polyline clip-path="url(#clip152)" style="stroke:#009af9; stroke-linecap:butt; stroke-linejoin:round; stroke-width:12; stroke-opacity:1; fill:none" points="
  706.23,1445.72 706.23,1424.52 
  "/>
<polyline clip-path="url(#clip152)" style="stroke:#009af9; stroke-linecap:butt; stroke-linejoin:round; stroke-width:12; stroke-opacity:1; fill:none" points="
  749.559,1445.72 749.559,1438.17 
  "/>
<polyline clip-path="url(#clip152)" style="stroke:#009af9; stroke-linecap:butt; stroke-linejoin:round; stroke-width:12; stroke-opacity:1; fill:none" points="
  792.889,1445.72 792.889,1443.25 
  "/>
<polyline clip-path="url(#clip152)" style="stroke:#009af9; stroke-linecap:butt; stroke-linejoin:round; stroke-width:12; stroke-opacity:1; fill:none" points="
  836.219,1445.72 836.219,1444.97 
  "/>
<polyline clip-path="url(#clip152)" style="stroke:#009af9; stroke-linecap:butt; stroke-linejoin:round; stroke-width:12; stroke-opacity:1; fill:none" points="
  879.548,1445.72 879.548,1445.51 
  "/>
<polyline clip-path="url(#clip152)" style="stroke:#009af9; stroke-linecap:butt; stroke-linejoin:round; stroke-width:12; stroke-opacity:1; fill:none" points="
  922.878,1445.72 922.878,1445.66 
  "/>
<polyline clip-path="url(#clip152)" style="stroke:#009af9; stroke-linecap:butt; stroke-linejoin:round; stroke-width:12; stroke-opacity:1; fill:none" points="
  966.207,1445.72 966.207,1445.7 
  "/>
<polyline clip-path="url(#clip152)" style="stroke:#009af9; stroke-linecap:butt; stroke-linejoin:round; stroke-width:12; stroke-opacity:1; fill:none" points="
  1009.54,1445.72 1009.54,1445.71 
  "/>
<polyline clip-path="url(#clip152)" style="stroke:#009af9; stroke-linecap:butt; stroke-linejoin:round; stroke-width:12; stroke-opacity:1; fill:none" points="
  1052.87,1445.72 1052.87,1445.72 
  "/>
<polyline clip-path="url(#clip152)" style="stroke:#009af9; stroke-linecap:butt; stroke-linejoin:round; stroke-width:12; stroke-opacity:1; fill:none" points="
  1096.2,1445.72 1096.2,1445.72 
  "/>
<polyline clip-path="url(#clip152)" style="stroke:#009af9; stroke-linecap:butt; stroke-linejoin:round; stroke-width:12; stroke-opacity:1; fill:none" points="
  1139.53,1445.72 1139.53,1445.72 
  "/>
<polyline clip-path="url(#clip152)" style="stroke:#009af9; stroke-linecap:butt; stroke-linejoin:round; stroke-width:12; stroke-opacity:1; fill:none" points="
  1182.86,1445.72 1182.86,1445.72 
  "/>
<polyline clip-path="url(#clip152)" style="stroke:#009af9; stroke-linecap:butt; stroke-linejoin:round; stroke-width:12; stroke-opacity:1; fill:none" points="
  1226.19,1445.72 1226.19,1445.72 
  "/>
<polyline clip-path="url(#clip152)" style="stroke:#009af9; stroke-linecap:butt; stroke-linejoin:round; stroke-width:12; stroke-opacity:1; fill:none" points="
  1269.51,1445.72 1269.51,1445.72 
  "/>
<polyline clip-path="url(#clip152)" style="stroke:#009af9; stroke-linecap:butt; stroke-linejoin:round; stroke-width:12; stroke-opacity:1; fill:none" points="
  1312.84,1445.72 1312.84,1445.72 
  "/>
<polyline clip-path="url(#clip152)" style="stroke:#009af9; stroke-linecap:butt; stroke-linejoin:round; stroke-width:12; stroke-opacity:1; fill:none" points="
  1356.17,1445.72 1356.17,1445.72 
  "/>
<polyline clip-path="url(#clip152)" style="stroke:#009af9; stroke-linecap:butt; stroke-linejoin:round; stroke-width:12; stroke-opacity:1; fill:none" points="
  1399.5,1445.72 1399.5,1445.72 
  "/>
<polyline clip-path="url(#clip152)" style="stroke:#009af9; stroke-linecap:butt; stroke-linejoin:round; stroke-width:12; stroke-opacity:1; fill:none" points="
  1442.83,1445.72 1442.83,1445.72 
  "/>
<polyline clip-path="url(#clip152)" style="stroke:#009af9; stroke-linecap:butt; stroke-linejoin:round; stroke-width:12; stroke-opacity:1; fill:none" points="
  1486.16,1445.72 1486.16,1445.72 
  "/>
<polyline clip-path="url(#clip152)" style="stroke:#009af9; stroke-linecap:butt; stroke-linejoin:round; stroke-width:12; stroke-opacity:1; fill:none" points="
  1529.49,1445.72 1529.49,1445.72 
  "/>
<polyline clip-path="url(#clip152)" style="stroke:#009af9; stroke-linecap:butt; stroke-linejoin:round; stroke-width:12; stroke-opacity:1; fill:none" points="
  1572.82,1445.72 1572.82,1445.72 
  "/>
<polyline clip-path="url(#clip152)" style="stroke:#009af9; stroke-linecap:butt; stroke-linejoin:round; stroke-width:12; stroke-opacity:1; fill:none" points="
  1616.15,1445.72 1616.15,1445.72 
  "/>
<polyline clip-path="url(#clip152)" style="stroke:#009af9; stroke-linecap:butt; stroke-linejoin:round; stroke-width:12; stroke-opacity:1; fill:none" points="
  1659.48,1445.72 1659.48,1445.72 
  "/>
<polyline clip-path="url(#clip152)" style="stroke:#009af9; stroke-linecap:butt; stroke-linejoin:round; stroke-width:12; stroke-opacity:1; fill:none" points="
  1702.81,1445.72 1702.81,1445.72 
  "/>
<polyline clip-path="url(#clip152)" style="stroke:#009af9; stroke-linecap:butt; stroke-linejoin:round; stroke-width:12; stroke-opacity:1; fill:none" points="
  1746.14,1445.72 1746.14,1445.72 
  "/>
<polyline clip-path="url(#clip152)" style="stroke:#009af9; stroke-linecap:butt; stroke-linejoin:round; stroke-width:12; stroke-opacity:1; fill:none" points="
  1789.47,1445.72 1789.47,1445.72 
  "/>
<polyline clip-path="url(#clip152)" style="stroke:#009af9; stroke-linecap:butt; stroke-linejoin:round; stroke-width:12; stroke-opacity:1; fill:none" points="
  1832.8,1445.72 1832.8,1445.72 
  "/>
<polyline clip-path="url(#clip152)" style="stroke:#009af9; stroke-linecap:butt; stroke-linejoin:round; stroke-width:12; stroke-opacity:1; fill:none" points="
  1876.13,1445.72 1876.13,1445.72 
  "/>
<polyline clip-path="url(#clip152)" style="stroke:#009af9; stroke-linecap:butt; stroke-linejoin:round; stroke-width:12; stroke-opacity:1; fill:none" points="
  1919.46,1445.72 1919.46,1445.72 
  "/>
<polyline clip-path="url(#clip152)" style="stroke:#009af9; stroke-linecap:butt; stroke-linejoin:round; stroke-width:12; stroke-opacity:1; fill:none" points="
  1962.79,1445.72 1962.79,1445.72 
  "/>
<polyline clip-path="url(#clip152)" style="stroke:#009af9; stroke-linecap:butt; stroke-linejoin:round; stroke-width:12; stroke-opacity:1; fill:none" points="
  2006.12,1445.72 2006.12,1445.72 
  "/>
<polyline clip-path="url(#clip152)" style="stroke:#009af9; stroke-linecap:butt; stroke-linejoin:round; stroke-width:12; stroke-opacity:1; fill:none" points="
  2049.45,1445.72 2049.45,1445.72 
  "/>
<polyline clip-path="url(#clip152)" style="stroke:#009af9; stroke-linecap:butt; stroke-linejoin:round; stroke-width:12; stroke-opacity:1; fill:none" points="
  2092.78,1445.72 2092.78,1445.72 
  "/>
<polyline clip-path="url(#clip152)" style="stroke:#009af9; stroke-linecap:butt; stroke-linejoin:round; stroke-width:12; stroke-opacity:1; fill:none" points="
  2136.11,1445.72 2136.11,1445.72 
  "/>
<polyline clip-path="url(#clip152)" style="stroke:#009af9; stroke-linecap:butt; stroke-linejoin:round; stroke-width:12; stroke-opacity:1; fill:none" points="
  2179.44,1445.72 2179.44,1445.72 
  "/>
<polyline clip-path="url(#clip152)" style="stroke:#009af9; stroke-linecap:butt; stroke-linejoin:round; stroke-width:12; stroke-opacity:1; fill:none" points="
  2222.77,1445.72 2222.77,1445.72 
  "/>
<polyline clip-path="url(#clip152)" style="stroke:#009af9; stroke-linecap:butt; stroke-linejoin:round; stroke-width:12; stroke-opacity:1; fill:none" points="
  2266.1,1445.72 2266.1,1445.72 
  "/>
<polyline clip-path="url(#clip152)" style="stroke:#009af9; stroke-linecap:butt; stroke-linejoin:round; stroke-width:12; stroke-opacity:1; fill:none" points="
  2309.43,1445.72 2309.43,1445.72 
  "/>
<polyline clip-path="url(#clip152)" style="stroke:#009af9; stroke-linecap:butt; stroke-linejoin:round; stroke-width:12; stroke-opacity:1; fill:none" points="
  2352.76,1445.72 2352.76,1445.72 
  "/>
<polyline clip-path="url(#clip152)" style="stroke:#009af9; stroke-linecap:butt; stroke-linejoin:round; stroke-width:12; stroke-opacity:1; fill:none" points="
  2396.09,1445.72 2396.09,1445.72 
  "/>
<polyline clip-path="url(#clip152)" style="stroke:#009af9; stroke-linecap:butt; stroke-linejoin:round; stroke-width:12; stroke-opacity:1; fill:none" points="
  2439.42,1445.72 2439.42,1445.72 
  "/>
<polyline clip-path="url(#clip152)" style="stroke:#009af9; stroke-linecap:butt; stroke-linejoin:round; stroke-width:12; stroke-opacity:1; fill:none" points="
  2482.74,1445.72 2482.74,1445.72 
  "/>
<polyline clip-path="url(#clip152)" style="stroke:#009af9; stroke-linecap:butt; stroke-linejoin:round; stroke-width:12; stroke-opacity:1; fill:none" points="
  2526.07,1445.72 2526.07,1445.72 
  "/>
<polyline clip-path="url(#clip152)" style="stroke:#009af9; stroke-linecap:butt; stroke-linejoin:round; stroke-width:12; stroke-opacity:1; fill:none" points="
  2569.4,1445.72 2569.4,1445.72 
  "/>
<polyline clip-path="url(#clip152)" style="stroke:#009af9; stroke-linecap:butt; stroke-linejoin:round; stroke-width:12; stroke-opacity:1; fill:none" points="
  2612.73,1445.72 2612.73,1445.72 
  "/>
<polyline clip-path="url(#clip152)" style="stroke:#009af9; stroke-linecap:butt; stroke-linejoin:round; stroke-width:12; stroke-opacity:1; fill:none" points="
  2656.06,1445.72 2656.06,1445.72 
  "/>
<polyline clip-path="url(#clip152)" style="stroke:#009af9; stroke-linecap:butt; stroke-linejoin:round; stroke-width:12; stroke-opacity:1; fill:none" points="
  2699.39,1445.72 2699.39,1445.72 
  "/>
<polyline clip-path="url(#clip152)" style="stroke:#009af9; stroke-linecap:butt; stroke-linejoin:round; stroke-width:12; stroke-opacity:1; fill:none" points="
  2742.72,1445.72 2742.72,1445.72 
  "/>
<polyline clip-path="url(#clip152)" style="stroke:#009af9; stroke-linecap:butt; stroke-linejoin:round; stroke-width:12; stroke-opacity:1; fill:none" points="
  2786.05,1445.72 2786.05,1445.72 
  "/>
<polyline clip-path="url(#clip152)" style="stroke:#009af9; stroke-linecap:butt; stroke-linejoin:round; stroke-width:12; stroke-opacity:1; fill:none" points="
  2829.38,1445.72 2829.38,1445.72 
  "/>
<polyline clip-path="url(#clip152)" style="stroke:#009af9; stroke-linecap:butt; stroke-linejoin:round; stroke-width:12; stroke-opacity:1; fill:none" points="
  2872.71,1445.72 2872.71,1445.72 
  "/>
<polyline clip-path="url(#clip152)" style="stroke:#009af9; stroke-linecap:butt; stroke-linejoin:round; stroke-width:12; stroke-opacity:1; fill:none" points="
  2916.04,1445.72 2916.04,1445.72 
  "/>
<polyline clip-path="url(#clip152)" style="stroke:#009af9; stroke-linecap:butt; stroke-linejoin:round; stroke-width:12; stroke-opacity:1; fill:none" points="
  2959.37,1445.72 2959.37,1445.72 
  "/>
<polyline clip-path="url(#clip152)" style="stroke:#009af9; stroke-linecap:butt; stroke-linejoin:round; stroke-width:12; stroke-opacity:1; fill:none" points="
  3002.7,1445.72 3002.7,1445.72 
  "/>
<polyline clip-path="url(#clip152)" style="stroke:#009af9; stroke-linecap:butt; stroke-linejoin:round; stroke-width:12; stroke-opacity:1; fill:none" points="
  3046.03,1445.72 3046.03,1445.72 
  "/>
<polyline clip-path="url(#clip152)" style="stroke:#009af9; stroke-linecap:butt; stroke-linejoin:round; stroke-width:12; stroke-opacity:1; fill:none" points="
  3089.36,1445.72 3089.36,1445.72 
  "/>
<polyline clip-path="url(#clip152)" style="stroke:#009af9; stroke-linecap:butt; stroke-linejoin:round; stroke-width:12; stroke-opacity:1; fill:none" points="
  3132.69,1445.72 3132.69,1445.72 
  "/>
<polyline clip-path="url(#clip152)" style="stroke:#009af9; stroke-linecap:butt; stroke-linejoin:round; stroke-width:12; stroke-opacity:1; fill:none" points="
  3176.02,1445.72 3176.02,1445.72 
  "/>
<polyline clip-path="url(#clip152)" style="stroke:#009af9; stroke-linecap:butt; stroke-linejoin:round; stroke-width:12; stroke-opacity:1; fill:none" points="
  3219.35,1445.72 3219.35,1445.72 
  "/>
<polyline clip-path="url(#clip152)" style="stroke:#009af9; stroke-linecap:butt; stroke-linejoin:round; stroke-width:12; stroke-opacity:1; fill:none" points="
  3262.68,1445.72 3262.68,1445.72 
  "/>
<polyline clip-path="url(#clip152)" style="stroke:#009af9; stroke-linecap:butt; stroke-linejoin:round; stroke-width:12; stroke-opacity:1; fill:none" points="
  3306.01,1445.72 3306.01,1445.72 
  "/>
<polyline clip-path="url(#clip152)" style="stroke:#009af9; stroke-linecap:butt; stroke-linejoin:round; stroke-width:12; stroke-opacity:1; fill:none" points="
  3349.34,1445.72 3349.34,1445.72 
  "/>
<polyline clip-path="url(#clip152)" style="stroke:#009af9; stroke-linecap:butt; stroke-linejoin:round; stroke-width:12; stroke-opacity:1; fill:none" points="
  3392.67,1445.72 3392.67,1445.72 
  "/>
<polyline clip-path="url(#clip152)" style="stroke:#009af9; stroke-linecap:butt; stroke-linejoin:round; stroke-width:12; stroke-opacity:1; fill:none" points="
  3436,1445.72 3436,1445.72 
  "/>
<polyline clip-path="url(#clip152)" style="stroke:#009af9; stroke-linecap:butt; stroke-linejoin:round; stroke-width:12; stroke-opacity:1; fill:none" points="
  3479.33,1445.72 3479.33,1445.72 
  "/>
<polyline clip-path="url(#clip152)" style="stroke:#009af9; stroke-linecap:butt; stroke-linejoin:round; stroke-width:12; stroke-opacity:1; fill:none" points="
  3522.66,1445.72 3522.66,1445.72 
  "/>
<polyline clip-path="url(#clip152)" style="stroke:#009af9; stroke-linecap:butt; stroke-linejoin:round; stroke-width:12; stroke-opacity:1; fill:none" points="
  3565.99,1445.72 3565.99,1445.72 
  "/>
<polyline clip-path="url(#clip152)" style="stroke:#009af9; stroke-linecap:butt; stroke-linejoin:round; stroke-width:12; stroke-opacity:1; fill:none" points="
  3609.32,1445.72 3609.32,1445.72 
  "/>
<polyline clip-path="url(#clip152)" style="stroke:#009af9; stroke-linecap:butt; stroke-linejoin:round; stroke-width:12; stroke-opacity:1; fill:none" points="
  3652.65,1445.72 3652.65,1445.72 
  "/>
<polyline clip-path="url(#clip152)" style="stroke:#009af9; stroke-linecap:butt; stroke-linejoin:round; stroke-width:12; stroke-opacity:1; fill:none" points="
  3695.97,1445.72 3695.97,1445.72 
  "/>
<polyline clip-path="url(#clip152)" style="stroke:#009af9; stroke-linecap:butt; stroke-linejoin:round; stroke-width:12; stroke-opacity:1; fill:none" points="
  3739.3,1445.72 3739.3,1445.72 
  "/>
<polyline clip-path="url(#clip152)" style="stroke:#009af9; stroke-linecap:butt; stroke-linejoin:round; stroke-width:12; stroke-opacity:1; fill:none" points="
  3782.63,1445.72 3782.63,1445.72 
  "/>
<polyline clip-path="url(#clip152)" style="stroke:#009af9; stroke-linecap:butt; stroke-linejoin:round; stroke-width:12; stroke-opacity:1; fill:none" points="
  3825.96,1445.72 3825.96,1445.72 
  "/>
<polyline clip-path="url(#clip152)" style="stroke:#009af9; stroke-linecap:butt; stroke-linejoin:round; stroke-width:12; stroke-opacity:1; fill:none" points="
  3869.29,1445.72 3869.29,1445.72 
  "/>
<polyline clip-path="url(#clip152)" style="stroke:#009af9; stroke-linecap:butt; stroke-linejoin:round; stroke-width:12; stroke-opacity:1; fill:none" points="
  3912.62,1445.72 3912.62,1445.72 
  "/>
<polyline clip-path="url(#clip152)" style="stroke:#009af9; stroke-linecap:butt; stroke-linejoin:round; stroke-width:12; stroke-opacity:1; fill:none" points="
  3955.95,1445.72 3955.95,1445.72 
  "/>
<polyline clip-path="url(#clip152)" style="stroke:#009af9; stroke-linecap:butt; stroke-linejoin:round; stroke-width:12; stroke-opacity:1; fill:none" points="
  3999.28,1445.72 3999.28,1445.72 
  "/>
<polyline clip-path="url(#clip152)" style="stroke:#009af9; stroke-linecap:butt; stroke-linejoin:round; stroke-width:12; stroke-opacity:1; fill:none" points="
  4042.61,1445.72 4042.61,1445.72 
  "/>
<polyline clip-path="url(#clip152)" style="stroke:#009af9; stroke-linecap:butt; stroke-linejoin:round; stroke-width:12; stroke-opacity:1; fill:none" points="
  4085.94,1445.72 4085.94,1445.72 
  "/>
<polyline clip-path="url(#clip152)" style="stroke:#009af9; stroke-linecap:butt; stroke-linejoin:round; stroke-width:12; stroke-opacity:1; fill:none" points="
  4129.27,1445.72 4129.27,1445.72 
  "/>
<polyline clip-path="url(#clip152)" style="stroke:#009af9; stroke-linecap:butt; stroke-linejoin:round; stroke-width:12; stroke-opacity:1; fill:none" points="
  4172.6,1445.72 4172.6,1445.72 
  "/>
<polyline clip-path="url(#clip152)" style="stroke:#009af9; stroke-linecap:butt; stroke-linejoin:round; stroke-width:12; stroke-opacity:1; fill:none" points="
  4215.93,1445.72 4215.93,1445.72 
  "/>
<polyline clip-path="url(#clip152)" style="stroke:#009af9; stroke-linecap:butt; stroke-linejoin:round; stroke-width:12; stroke-opacity:1; fill:none" points="
  4259.26,1445.72 4259.26,1445.72 
  "/>
<polyline clip-path="url(#clip152)" style="stroke:#009af9; stroke-linecap:butt; stroke-linejoin:round; stroke-width:12; stroke-opacity:1; fill:none" points="
  4302.59,1445.72 4302.59,1445.72 
  "/>
<polyline clip-path="url(#clip152)" style="stroke:#009af9; stroke-linecap:butt; stroke-linejoin:round; stroke-width:12; stroke-opacity:1; fill:none" points="
  4345.92,1445.72 4345.92,1445.72 
  "/>
<polyline clip-path="url(#clip152)" style="stroke:#009af9; stroke-linecap:butt; stroke-linejoin:round; stroke-width:12; stroke-opacity:1; fill:none" points="
  4389.25,1445.72 4389.25,1445.72 
  "/>
<polyline clip-path="url(#clip152)" style="stroke:#009af9; stroke-linecap:butt; stroke-linejoin:round; stroke-width:12; stroke-opacity:1; fill:none" points="
  4432.58,1445.72 4432.58,1445.72 
  "/>
<polyline clip-path="url(#clip152)" style="stroke:#009af9; stroke-linecap:butt; stroke-linejoin:round; stroke-width:12; stroke-opacity:1; fill:none" points="
  4475.91,1445.72 4475.91,1445.72 
  "/>
<polyline clip-path="url(#clip152)" style="stroke:#009af9; stroke-linecap:butt; stroke-linejoin:round; stroke-width:12; stroke-opacity:1; fill:none" points="
  4519.24,1445.72 4519.24,1445.72 
  "/>
<polyline clip-path="url(#clip152)" style="stroke:#e26f46; stroke-linecap:butt; stroke-linejoin:round; stroke-width:12; stroke-opacity:1; fill:none" points="
  186.274,1445.72 186.274,1445.72 
  "/>
<polyline clip-path="url(#clip152)" style="stroke:#e26f46; stroke-linecap:butt; stroke-linejoin:round; stroke-width:12; stroke-opacity:1; fill:none" points="
  229.604,1445.72 229.604,1445.72 
  "/>
<polyline clip-path="url(#clip152)" style="stroke:#e26f46; stroke-linecap:butt; stroke-linejoin:round; stroke-width:12; stroke-opacity:1; fill:none" points="
  272.933,1445.72 272.933,1445.72 
  "/>
<polyline clip-path="url(#clip152)" style="stroke:#e26f46; stroke-linecap:butt; stroke-linejoin:round; stroke-width:12; stroke-opacity:1; fill:none" points="
  316.263,1445.72 316.263,1445.72 
  "/>
<polyline clip-path="url(#clip152)" style="stroke:#e26f46; stroke-linecap:butt; stroke-linejoin:round; stroke-width:12; stroke-opacity:1; fill:none" points="
  359.593,1445.72 359.593,1445.72 
  "/>
<polyline clip-path="url(#clip152)" style="stroke:#e26f46; stroke-linecap:butt; stroke-linejoin:round; stroke-width:12; stroke-opacity:1; fill:none" points="
  402.922,1445.72 402.922,1445.71 
  "/>
<polyline clip-path="url(#clip152)" style="stroke:#e26f46; stroke-linecap:butt; stroke-linejoin:round; stroke-width:12; stroke-opacity:1; fill:none" points="
  446.252,1445.72 446.252,1445.71 
  "/>
<polyline clip-path="url(#clip152)" style="stroke:#e26f46; stroke-linecap:butt; stroke-linejoin:round; stroke-width:12; stroke-opacity:1; fill:none" points="
  489.581,1445.72 489.581,1445.7 
  "/>
<polyline clip-path="url(#clip152)" style="stroke:#e26f46; stroke-linecap:butt; stroke-linejoin:round; stroke-width:12; stroke-opacity:1; fill:none" points="
  532.911,1445.72 532.911,1445.65 
  "/>
<polyline clip-path="url(#clip152)" style="stroke:#e26f46; stroke-linecap:butt; stroke-linejoin:round; stroke-width:12; stroke-opacity:1; fill:none" points="
  576.241,1445.72 576.241,1445.48 
  "/>
<polyline clip-path="url(#clip152)" style="stroke:#e26f46; stroke-linecap:butt; stroke-linejoin:round; stroke-width:12; stroke-opacity:1; fill:none" points="
  619.57,1445.72 619.57,1445.01 
  "/>
<polyline clip-path="url(#clip152)" style="stroke:#e26f46; stroke-linecap:butt; stroke-linejoin:round; stroke-width:12; stroke-opacity:1; fill:none" points="
  662.9,1445.72 662.9,1443.78 
  "/>
<polyline clip-path="url(#clip152)" style="stroke:#e26f46; stroke-linecap:butt; stroke-linejoin:round; stroke-width:12; stroke-opacity:1; fill:none" points="
  706.23,1445.72 706.23,1440.93 
  "/>
<polyline clip-path="url(#clip152)" style="stroke:#e26f46; stroke-linecap:butt; stroke-linejoin:round; stroke-width:12; stroke-opacity:1; fill:none" points="
  749.559,1445.72 749.559,1434.93 
  "/>
<polyline clip-path="url(#clip152)" style="stroke:#e26f46; stroke-linecap:butt; stroke-linejoin:round; stroke-width:12; stroke-opacity:1; fill:none" points="
  792.889,1445.72 792.889,1423.37 
  "/>
<polyline clip-path="url(#clip152)" style="stroke:#e26f46; stroke-linecap:butt; stroke-linejoin:round; stroke-width:12; stroke-opacity:1; fill:none" points="
  836.219,1445.72 836.219,1403.01 
  "/>
<polyline clip-path="url(#clip152)" style="stroke:#e26f46; stroke-linecap:butt; stroke-linejoin:round; stroke-width:12; stroke-opacity:1; fill:none" points="
  879.548,1445.72 879.548,1370.09 
  "/>
<polyline clip-path="url(#clip152)" style="stroke:#e26f46; stroke-linecap:butt; stroke-linejoin:round; stroke-width:12; stroke-opacity:1; fill:none" points="
  922.878,1445.72 922.878,1321.15 
  "/>
<polyline clip-path="url(#clip152)" style="stroke:#e26f46; stroke-linecap:butt; stroke-linejoin:round; stroke-width:12; stroke-opacity:1; fill:none" points="
  966.207,1445.72 966.207,1254.25 
  "/>
<polyline clip-path="url(#clip152)" style="stroke:#e26f46; stroke-linecap:butt; stroke-linejoin:round; stroke-width:12; stroke-opacity:1; fill:none" points="
  1009.54,1445.72 1009.54,1170.28 
  "/>
<polyline clip-path="url(#clip152)" style="stroke:#e26f46; stroke-linecap:butt; stroke-linejoin:round; stroke-width:12; stroke-opacity:1; fill:none" points="
  1052.87,1445.72 1052.87,1073.88 
  "/>
<polyline clip-path="url(#clip152)" style="stroke:#e26f46; stroke-linecap:butt; stroke-linejoin:round; stroke-width:12; stroke-opacity:1; fill:none" points="
  1096.2,1445.72 1096.2,973.541 
  "/>
<polyline clip-path="url(#clip152)" style="stroke:#e26f46; stroke-linecap:butt; stroke-linejoin:round; stroke-width:12; stroke-opacity:1; fill:none" points="
  1139.53,1445.72 1139.53,880.537 
  "/>
<polyline clip-path="url(#clip152)" style="stroke:#e26f46; stroke-linecap:butt; stroke-linejoin:round; stroke-width:12; stroke-opacity:1; fill:none" points="
  1182.86,1445.72 1182.86,806.818 
  "/>
<polyline clip-path="url(#clip152)" style="stroke:#e26f46; stroke-linecap:butt; stroke-linejoin:round; stroke-width:12; stroke-opacity:1; fill:none" points="
  1226.19,1445.72 1226.19,762.45 
  "/>
<polyline clip-path="url(#clip152)" style="stroke:#e26f46; stroke-linecap:butt; stroke-linejoin:round; stroke-width:12; stroke-opacity:1; fill:none" points="
  1269.51,1445.72 1269.51,753.339 
  "/>
<polyline clip-path="url(#clip152)" style="stroke:#e26f46; stroke-linecap:butt; stroke-linejoin:round; stroke-width:12; stroke-opacity:1; fill:none" points="
  1312.84,1445.72 1312.84,779.969 
  "/>
<polyline clip-path="url(#clip152)" style="stroke:#e26f46; stroke-linecap:butt; stroke-linejoin:round; stroke-width:12; stroke-opacity:1; fill:none" points="
  1356.17,1445.72 1356.17,837.503 
  "/>
<polyline clip-path="url(#clip152)" style="stroke:#e26f46; stroke-linecap:butt; stroke-linejoin:round; stroke-width:12; stroke-opacity:1; fill:none" points="
  1399.5,1445.72 1399.5,917.15 
  "/>
<polyline clip-path="url(#clip152)" style="stroke:#e26f46; stroke-linecap:butt; stroke-linejoin:round; stroke-width:12; stroke-opacity:1; fill:none" points="
  1442.83,1445.72 1442.83,1008.28 
  "/>
<polyline clip-path="url(#clip152)" style="stroke:#e26f46; stroke-linecap:butt; stroke-linejoin:round; stroke-width:12; stroke-opacity:1; fill:none" points="
  1486.16,1445.72 1486.16,1100.63 
  "/>
<polyline clip-path="url(#clip152)" style="stroke:#e26f46; stroke-linecap:butt; stroke-linejoin:round; stroke-width:12; stroke-opacity:1; fill:none" points="
  1529.49,1445.72 1529.49,1185.97 
  "/>
<polyline clip-path="url(#clip152)" style="stroke:#e26f46; stroke-linecap:butt; stroke-linejoin:round; stroke-width:12; stroke-opacity:1; fill:none" points="
  1572.82,1445.72 1572.82,1259.03 
  "/>
<polyline clip-path="url(#clip152)" style="stroke:#e26f46; stroke-linecap:butt; stroke-linejoin:round; stroke-width:12; stroke-opacity:1; fill:none" points="
  1616.15,1445.72 1616.15,1317.48 
  "/>
<polyline clip-path="url(#clip152)" style="stroke:#e26f46; stroke-linecap:butt; stroke-linejoin:round; stroke-width:12; stroke-opacity:1; fill:none" points="
  1659.48,1445.72 1659.48,1361.49 
  "/>
<polyline clip-path="url(#clip152)" style="stroke:#e26f46; stroke-linecap:butt; stroke-linejoin:round; stroke-width:12; stroke-opacity:1; fill:none" points="
  1702.81,1445.72 1702.81,1392.77 
  "/>
<polyline clip-path="url(#clip152)" style="stroke:#e26f46; stroke-linecap:butt; stroke-linejoin:round; stroke-width:12; stroke-opacity:1; fill:none" points="
  1746.14,1445.72 1746.14,1413.85 
  "/>
<polyline clip-path="url(#clip152)" style="stroke:#e26f46; stroke-linecap:butt; stroke-linejoin:round; stroke-width:12; stroke-opacity:1; fill:none" points="
  1789.47,1445.72 1789.47,1427.34 
  "/>
<polyline clip-path="url(#clip152)" style="stroke:#e26f46; stroke-linecap:butt; stroke-linejoin:round; stroke-width:12; stroke-opacity:1; fill:none" points="
  1832.8,1445.72 1832.8,1435.56 
  "/>
<polyline clip-path="url(#clip152)" style="stroke:#e26f46; stroke-linecap:butt; stroke-linejoin:round; stroke-width:12; stroke-opacity:1; fill:none" points="
  1876.13,1445.72 1876.13,1440.34 
  "/>
<polyline clip-path="url(#clip152)" style="stroke:#e26f46; stroke-linecap:butt; stroke-linejoin:round; stroke-width:12; stroke-opacity:1; fill:none" points="
  1919.46,1445.72 1919.46,1442.98 
  "/>
<polyline clip-path="url(#clip152)" style="stroke:#e26f46; stroke-linecap:butt; stroke-linejoin:round; stroke-width:12; stroke-opacity:1; fill:none" points="
  1962.79,1445.72 1962.79,1444.38 
  "/>
<polyline clip-path="url(#clip152)" style="stroke:#e26f46; stroke-linecap:butt; stroke-linejoin:round; stroke-width:12; stroke-opacity:1; fill:none" points="
  2006.12,1445.72 2006.12,1445.09 
  "/>
<polyline clip-path="url(#clip152)" style="stroke:#e26f46; stroke-linecap:butt; stroke-linejoin:round; stroke-width:12; stroke-opacity:1; fill:none" points="
  2049.45,1445.72 2049.45,1445.43 
  "/>
<polyline clip-path="url(#clip152)" style="stroke:#e26f46; stroke-linecap:butt; stroke-linejoin:round; stroke-width:12; stroke-opacity:1; fill:none" points="
  2092.78,1445.72 2092.78,1445.59 
  "/>
<polyline clip-path="url(#clip152)" style="stroke:#e26f46; stroke-linecap:butt; stroke-linejoin:round; stroke-width:12; stroke-opacity:1; fill:none" points="
  2136.11,1445.72 2136.11,1445.67 
  "/>
<polyline clip-path="url(#clip152)" style="stroke:#e26f46; stroke-linecap:butt; stroke-linejoin:round; stroke-width:12; stroke-opacity:1; fill:none" points="
  2179.44,1445.72 2179.44,1445.7 
  "/>
<polyline clip-path="url(#clip152)" style="stroke:#e26f46; stroke-linecap:butt; stroke-linejoin:round; stroke-width:12; stroke-opacity:1; fill:none" points="
  2222.77,1445.72 2222.77,1445.71 
  "/>
<polyline clip-path="url(#clip152)" style="stroke:#e26f46; stroke-linecap:butt; stroke-linejoin:round; stroke-width:12; stroke-opacity:1; fill:none" points="
  2266.1,1445.72 2266.1,1445.71 
  "/>
<polyline clip-path="url(#clip152)" style="stroke:#e26f46; stroke-linecap:butt; stroke-linejoin:round; stroke-width:12; stroke-opacity:1; fill:none" points="
  2309.43,1445.72 2309.43,1445.71 
  "/>
<polyline clip-path="url(#clip152)" style="stroke:#e26f46; stroke-linecap:butt; stroke-linejoin:round; stroke-width:12; stroke-opacity:1; fill:none" points="
  2352.76,1445.72 2352.76,1445.72 
  "/>
<polyline clip-path="url(#clip152)" style="stroke:#e26f46; stroke-linecap:butt; stroke-linejoin:round; stroke-width:12; stroke-opacity:1; fill:none" points="
  2396.09,1445.72 2396.09,1445.72 
  "/>
<polyline clip-path="url(#clip152)" style="stroke:#e26f46; stroke-linecap:butt; stroke-linejoin:round; stroke-width:12; stroke-opacity:1; fill:none" points="
  2439.42,1445.72 2439.42,1445.72 
  "/>
<polyline clip-path="url(#clip152)" style="stroke:#e26f46; stroke-linecap:butt; stroke-linejoin:round; stroke-width:12; stroke-opacity:1; fill:none" points="
  2482.74,1445.72 2482.74,1445.72 
  "/>
<polyline clip-path="url(#clip152)" style="stroke:#e26f46; stroke-linecap:butt; stroke-linejoin:round; stroke-width:12; stroke-opacity:1; fill:none" points="
  2526.07,1445.72 2526.07,1445.72 
  "/>
<polyline clip-path="url(#clip152)" style="stroke:#e26f46; stroke-linecap:butt; stroke-linejoin:round; stroke-width:12; stroke-opacity:1; fill:none" points="
  2569.4,1445.72 2569.4,1445.72 
  "/>
<polyline clip-path="url(#clip152)" style="stroke:#e26f46; stroke-linecap:butt; stroke-linejoin:round; stroke-width:12; stroke-opacity:1; fill:none" points="
  2612.73,1445.72 2612.73,1445.72 
  "/>
<polyline clip-path="url(#clip152)" style="stroke:#e26f46; stroke-linecap:butt; stroke-linejoin:round; stroke-width:12; stroke-opacity:1; fill:none" points="
  2656.06,1445.72 2656.06,1445.72 
  "/>
<polyline clip-path="url(#clip152)" style="stroke:#e26f46; stroke-linecap:butt; stroke-linejoin:round; stroke-width:12; stroke-opacity:1; fill:none" points="
  2699.39,1445.72 2699.39,1445.72 
  "/>
<polyline clip-path="url(#clip152)" style="stroke:#e26f46; stroke-linecap:butt; stroke-linejoin:round; stroke-width:12; stroke-opacity:1; fill:none" points="
  2742.72,1445.72 2742.72,1445.72 
  "/>
<polyline clip-path="url(#clip152)" style="stroke:#e26f46; stroke-linecap:butt; stroke-linejoin:round; stroke-width:12; stroke-opacity:1; fill:none" points="
  2786.05,1445.72 2786.05,1445.72 
  "/>
<polyline clip-path="url(#clip152)" style="stroke:#e26f46; stroke-linecap:butt; stroke-linejoin:round; stroke-width:12; stroke-opacity:1; fill:none" points="
  2829.38,1445.72 2829.38,1445.72 
  "/>
<polyline clip-path="url(#clip152)" style="stroke:#e26f46; stroke-linecap:butt; stroke-linejoin:round; stroke-width:12; stroke-opacity:1; fill:none" points="
  2872.71,1445.72 2872.71,1445.72 
  "/>
<polyline clip-path="url(#clip152)" style="stroke:#e26f46; stroke-linecap:butt; stroke-linejoin:round; stroke-width:12; stroke-opacity:1; fill:none" points="
  2916.04,1445.72 2916.04,1445.72 
  "/>
<polyline clip-path="url(#clip152)" style="stroke:#e26f46; stroke-linecap:butt; stroke-linejoin:round; stroke-width:12; stroke-opacity:1; fill:none" points="
  2959.37,1445.72 2959.37,1445.72 
  "/>
<polyline clip-path="url(#clip152)" style="stroke:#e26f46; stroke-linecap:butt; stroke-linejoin:round; stroke-width:12; stroke-opacity:1; fill:none" points="
  3002.7,1445.72 3002.7,1445.72 
  "/>
<polyline clip-path="url(#clip152)" style="stroke:#e26f46; stroke-linecap:butt; stroke-linejoin:round; stroke-width:12; stroke-opacity:1; fill:none" points="
  3046.03,1445.72 3046.03,1445.72 
  "/>
<polyline clip-path="url(#clip152)" style="stroke:#e26f46; stroke-linecap:butt; stroke-linejoin:round; stroke-width:12; stroke-opacity:1; fill:none" points="
  3089.36,1445.72 3089.36,1445.72 
  "/>
<polyline clip-path="url(#clip152)" style="stroke:#e26f46; stroke-linecap:butt; stroke-linejoin:round; stroke-width:12; stroke-opacity:1; fill:none" points="
  3132.69,1445.72 3132.69,1445.72 
  "/>
<polyline clip-path="url(#clip152)" style="stroke:#e26f46; stroke-linecap:butt; stroke-linejoin:round; stroke-width:12; stroke-opacity:1; fill:none" points="
  3176.02,1445.72 3176.02,1445.72 
  "/>
<polyline clip-path="url(#clip152)" style="stroke:#e26f46; stroke-linecap:butt; stroke-linejoin:round; stroke-width:12; stroke-opacity:1; fill:none" points="
  3219.35,1445.72 3219.35,1445.72 
  "/>
<polyline clip-path="url(#clip152)" style="stroke:#e26f46; stroke-linecap:butt; stroke-linejoin:round; stroke-width:12; stroke-opacity:1; fill:none" points="
  3262.68,1445.72 3262.68,1445.72 
  "/>
<polyline clip-path="url(#clip152)" style="stroke:#e26f46; stroke-linecap:butt; stroke-linejoin:round; stroke-width:12; stroke-opacity:1; fill:none" points="
  3306.01,1445.72 3306.01,1445.72 
  "/>
<polyline clip-path="url(#clip152)" style="stroke:#e26f46; stroke-linecap:butt; stroke-linejoin:round; stroke-width:12; stroke-opacity:1; fill:none" points="
  3349.34,1445.72 3349.34,1445.72 
  "/>
<polyline clip-path="url(#clip152)" style="stroke:#e26f46; stroke-linecap:butt; stroke-linejoin:round; stroke-width:12; stroke-opacity:1; fill:none" points="
  3392.67,1445.72 3392.67,1445.72 
  "/>
<polyline clip-path="url(#clip152)" style="stroke:#e26f46; stroke-linecap:butt; stroke-linejoin:round; stroke-width:12; stroke-opacity:1; fill:none" points="
  3436,1445.72 3436,1445.72 
  "/>
<polyline clip-path="url(#clip152)" style="stroke:#e26f46; stroke-linecap:butt; stroke-linejoin:round; stroke-width:12; stroke-opacity:1; fill:none" points="
  3479.33,1445.72 3479.33,1445.72 
  "/>
<polyline clip-path="url(#clip152)" style="stroke:#e26f46; stroke-linecap:butt; stroke-linejoin:round; stroke-width:12; stroke-opacity:1; fill:none" points="
  3522.66,1445.72 3522.66,1445.72 
  "/>
<polyline clip-path="url(#clip152)" style="stroke:#e26f46; stroke-linecap:butt; stroke-linejoin:round; stroke-width:12; stroke-opacity:1; fill:none" points="
  3565.99,1445.72 3565.99,1445.72 
  "/>
<polyline clip-path="url(#clip152)" style="stroke:#e26f46; stroke-linecap:butt; stroke-linejoin:round; stroke-width:12; stroke-opacity:1; fill:none" points="
  3609.32,1445.72 3609.32,1445.72 
  "/>
<polyline clip-path="url(#clip152)" style="stroke:#e26f46; stroke-linecap:butt; stroke-linejoin:round; stroke-width:12; stroke-opacity:1; fill:none" points="
  3652.65,1445.72 3652.65,1445.72 
  "/>
<polyline clip-path="url(#clip152)" style="stroke:#e26f46; stroke-linecap:butt; stroke-linejoin:round; stroke-width:12; stroke-opacity:1; fill:none" points="
  3695.97,1445.72 3695.97,1445.72 
  "/>
<polyline clip-path="url(#clip152)" style="stroke:#e26f46; stroke-linecap:butt; stroke-linejoin:round; stroke-width:12; stroke-opacity:1; fill:none" points="
  3739.3,1445.72 3739.3,1445.72 
  "/>
<polyline clip-path="url(#clip152)" style="stroke:#e26f46; stroke-linecap:butt; stroke-linejoin:round; stroke-width:12; stroke-opacity:1; fill:none" points="
  3782.63,1445.72 3782.63,1445.72 
  "/>
<polyline clip-path="url(#clip152)" style="stroke:#e26f46; stroke-linecap:butt; stroke-linejoin:round; stroke-width:12; stroke-opacity:1; fill:none" points="
  3825.96,1445.72 3825.96,1445.72 
  "/>
<polyline clip-path="url(#clip152)" style="stroke:#e26f46; stroke-linecap:butt; stroke-linejoin:round; stroke-width:12; stroke-opacity:1; fill:none" points="
  3869.29,1445.72 3869.29,1445.72 
  "/>
<polyline clip-path="url(#clip152)" style="stroke:#e26f46; stroke-linecap:butt; stroke-linejoin:round; stroke-width:12; stroke-opacity:1; fill:none" points="
  3912.62,1445.72 3912.62,1445.72 
  "/>
<polyline clip-path="url(#clip152)" style="stroke:#e26f46; stroke-linecap:butt; stroke-linejoin:round; stroke-width:12; stroke-opacity:1; fill:none" points="
  3955.95,1445.72 3955.95,1445.72 
  "/>
<polyline clip-path="url(#clip152)" style="stroke:#e26f46; stroke-linecap:butt; stroke-linejoin:round; stroke-width:12; stroke-opacity:1; fill:none" points="
  3999.28,1445.72 3999.28,1445.72 
  "/>
<polyline clip-path="url(#clip152)" style="stroke:#e26f46; stroke-linecap:butt; stroke-linejoin:round; stroke-width:12; stroke-opacity:1; fill:none" points="
  4042.61,1445.72 4042.61,1445.72 
  "/>
<polyline clip-path="url(#clip152)" style="stroke:#e26f46; stroke-linecap:butt; stroke-linejoin:round; stroke-width:12; stroke-opacity:1; fill:none" points="
  4085.94,1445.72 4085.94,1445.72 
  "/>
<polyline clip-path="url(#clip152)" style="stroke:#e26f46; stroke-linecap:butt; stroke-linejoin:round; stroke-width:12; stroke-opacity:1; fill:none" points="
  4129.27,1445.72 4129.27,1445.72 
  "/>
<polyline clip-path="url(#clip152)" style="stroke:#e26f46; stroke-linecap:butt; stroke-linejoin:round; stroke-width:12; stroke-opacity:1; fill:none" points="
  4172.6,1445.72 4172.6,1445.72 
  "/>
<polyline clip-path="url(#clip152)" style="stroke:#e26f46; stroke-linecap:butt; stroke-linejoin:round; stroke-width:12; stroke-opacity:1; fill:none" points="
  4215.93,1445.72 4215.93,1445.72 
  "/>
<polyline clip-path="url(#clip152)" style="stroke:#e26f46; stroke-linecap:butt; stroke-linejoin:round; stroke-width:12; stroke-opacity:1; fill:none" points="
  4259.26,1445.72 4259.26,1445.72 
  "/>
<polyline clip-path="url(#clip152)" style="stroke:#e26f46; stroke-linecap:butt; stroke-linejoin:round; stroke-width:12; stroke-opacity:1; fill:none" points="
  4302.59,1445.72 4302.59,1445.72 
  "/>
<polyline clip-path="url(#clip152)" style="stroke:#e26f46; stroke-linecap:butt; stroke-linejoin:round; stroke-width:12; stroke-opacity:1; fill:none" points="
  4345.92,1445.72 4345.92,1445.72 
  "/>
<polyline clip-path="url(#clip152)" style="stroke:#e26f46; stroke-linecap:butt; stroke-linejoin:round; stroke-width:12; stroke-opacity:1; fill:none" points="
  4389.25,1445.72 4389.25,1445.72 
  "/>
<polyline clip-path="url(#clip152)" style="stroke:#e26f46; stroke-linecap:butt; stroke-linejoin:round; stroke-width:12; stroke-opacity:1; fill:none" points="
  4432.58,1445.72 4432.58,1445.72 
  "/>
<polyline clip-path="url(#clip152)" style="stroke:#e26f46; stroke-linecap:butt; stroke-linejoin:round; stroke-width:12; stroke-opacity:1; fill:none" points="
  4475.91,1445.72 4475.91,1445.72 
  "/>
<polyline clip-path="url(#clip152)" style="stroke:#e26f46; stroke-linecap:butt; stroke-linejoin:round; stroke-width:12; stroke-opacity:1; fill:none" points="
  4519.24,1445.72 4519.24,1445.72 
  "/>
<path clip-path="url(#clip150)" d="
M1701.23 250.738 L2280.54 250.738 L2280.54 95.2176 L1701.23 95.2176  Z
  " fill="#ffffff" fill-rule="evenodd" fill-opacity="1"/>
<polyline clip-path="url(#clip150)" style="stroke:#000000; stroke-linecap:butt; stroke-linejoin:round; stroke-width:4; stroke-opacity:1; fill:none" points="
  1701.23,250.738 2280.54,250.738 2280.54,95.2176 1701.23,95.2176 1701.23,250.738 
  "/>
<polyline clip-path="url(#clip150)" style="stroke:#009af9; stroke-linecap:butt; stroke-linejoin:round; stroke-width:4; stroke-opacity:1; fill:none" points="
  1725.31,147.058 1869.74,147.058 
  "/>
<path clip-path="url(#clip150)" d="M1893.81 128.319 L1898.07 128.319 L1898.07 164.338 L1893.81 164.338 L1893.81 128.319 Z" fill="#000000" fill-rule="evenodd" fill-opacity="1" /><path clip-path="url(#clip150)" d="M1917.03 141.398 Q1913.6 141.398 1911.61 144.083 Q1909.62 146.745 1909.62 151.398 Q1909.62 156.051 1911.59 158.736 Q1913.58 161.398 1917.03 161.398 Q1920.43 161.398 1922.42 158.713 Q1924.41 156.027 1924.41 151.398 Q1924.41 146.791 1922.42 144.106 Q1920.43 141.398 1917.03 141.398 M1917.03 137.787 Q1922.58 137.787 1925.75 141.398 Q1928.93 145.009 1928.93 151.398 Q1928.93 157.764 1925.75 161.398 Q1922.58 165.009 1917.03 165.009 Q1911.45 165.009 1908.28 161.398 Q1905.13 157.764 1905.13 151.398 Q1905.13 145.009 1908.28 141.398 Q1911.45 137.787 1917.03 137.787 Z" fill="#000000" fill-rule="evenodd" fill-opacity="1" /><path clip-path="url(#clip150)" d="M1933.51 138.412 L1937.77 138.412 L1943.09 158.643 L1948.39 138.412 L1953.42 138.412 L1958.74 158.643 L1964.04 138.412 L1968.3 138.412 L1961.52 164.338 L1956.49 164.338 L1950.92 143.088 L1945.31 164.338 L1940.29 164.338 L1933.51 138.412 Z" fill="#000000" fill-rule="evenodd" fill-opacity="1" /><path clip-path="url(#clip150)" d="M1989.83 138.412 L1994.09 138.412 L1994.09 164.338 L1989.83 164.338 L1989.83 138.412 M1989.83 128.319 L1994.09 128.319 L1994.09 133.713 L1989.83 133.713 L1989.83 128.319 Z" fill="#000000" fill-rule="evenodd" fill-opacity="1" /><path clip-path="url(#clip150)" d="M2024.55 148.689 L2024.55 164.338 L2020.29 164.338 L2020.29 148.828 Q2020.29 145.148 2018.86 143.319 Q2017.42 141.49 2014.55 141.49 Q2011.1 141.49 2009.11 143.69 Q2007.12 145.889 2007.12 149.685 L2007.12 164.338 L2002.84 164.338 L2002.84 138.412 L2007.12 138.412 L2007.12 142.44 Q2008.65 140.102 2010.71 138.944 Q2012.79 137.787 2015.5 137.787 Q2019.97 137.787 2022.26 140.565 Q2024.55 143.319 2024.55 148.689 Z" fill="#000000" fill-rule="evenodd" fill-opacity="1" /><path clip-path="url(#clip150)" d="M2051.7 139.407 L2051.7 143.389 Q2049.9 142.393 2048.07 141.907 Q2046.26 141.398 2044.41 141.398 Q2040.27 141.398 2037.98 144.037 Q2035.68 146.652 2035.68 151.398 Q2035.68 156.143 2037.98 158.782 Q2040.27 161.398 2044.41 161.398 Q2046.26 161.398 2048.07 160.912 Q2049.9 160.402 2051.7 159.407 L2051.7 163.342 Q2049.92 164.176 2048 164.592 Q2046.1 165.009 2043.95 165.009 Q2038.09 165.009 2034.64 161.328 Q2031.19 157.648 2031.19 151.398 Q2031.19 145.055 2034.67 141.421 Q2038.16 137.787 2044.23 137.787 Q2046.19 137.787 2048.07 138.203 Q2049.94 138.597 2051.7 139.407 Z" fill="#000000" fill-rule="evenodd" fill-opacity="1" /><path clip-path="url(#clip150)" d="M2059.11 138.412 L2063.37 138.412 L2063.37 164.338 L2059.11 164.338 L2059.11 138.412 M2059.11 128.319 L2063.37 128.319 L2063.37 133.713 L2059.11 133.713 L2059.11 128.319 Z" fill="#000000" fill-rule="evenodd" fill-opacity="1" /><path clip-path="url(#clip150)" d="M2089.34 142.347 L2089.34 128.319 L2093.6 128.319 L2093.6 164.338 L2089.34 164.338 L2089.34 160.449 Q2088 162.763 2085.94 163.898 Q2083.9 165.009 2081.03 165.009 Q2076.33 165.009 2073.37 161.259 Q2070.43 157.509 2070.43 151.398 Q2070.43 145.287 2073.37 141.537 Q2076.33 137.787 2081.03 137.787 Q2083.9 137.787 2085.94 138.921 Q2088 140.032 2089.34 142.347 M2074.83 151.398 Q2074.83 156.097 2076.75 158.782 Q2078.69 161.444 2082.07 161.444 Q2085.45 161.444 2087.4 158.782 Q2089.34 156.097 2089.34 151.398 Q2089.34 146.699 2087.4 144.037 Q2085.45 141.352 2082.07 141.352 Q2078.69 141.352 2076.75 144.037 Q2074.83 146.699 2074.83 151.398 Z" fill="#000000" fill-rule="evenodd" fill-opacity="1" /><path clip-path="url(#clip150)" d="M2124.55 150.31 L2124.55 152.393 L2104.97 152.393 Q2105.24 156.791 2107.6 159.106 Q2109.99 161.398 2114.23 161.398 Q2116.68 161.398 2118.97 160.796 Q2121.29 160.194 2123.55 158.99 L2123.55 163.018 Q2121.26 163.99 2118.85 164.5 Q2116.45 165.009 2113.97 165.009 Q2107.77 165.009 2104.13 161.398 Q2100.52 157.787 2100.52 151.629 Q2100.52 145.264 2103.95 141.537 Q2107.4 137.787 2113.23 137.787 Q2118.46 137.787 2121.49 141.166 Q2124.55 144.523 2124.55 150.31 M2120.29 149.06 Q2120.24 145.565 2118.32 143.481 Q2116.42 141.398 2113.28 141.398 Q2109.71 141.398 2107.56 143.412 Q2105.43 145.426 2105.1 149.083 L2120.29 149.06 Z" fill="#000000" fill-rule="evenodd" fill-opacity="1" /><path clip-path="url(#clip150)" d="M2153.09 148.689 L2153.09 164.338 L2148.83 164.338 L2148.83 148.828 Q2148.83 145.148 2147.4 143.319 Q2145.96 141.49 2143.09 141.49 Q2139.64 141.49 2137.65 143.69 Q2135.66 145.889 2135.66 149.685 L2135.66 164.338 L2131.38 164.338 L2131.38 138.412 L2135.66 138.412 L2135.66 142.44 Q2137.19 140.102 2139.25 138.944 Q2141.33 137.787 2144.04 137.787 Q2148.51 137.787 2150.8 140.565 Q2153.09 143.319 2153.09 148.689 Z" fill="#000000" fill-rule="evenodd" fill-opacity="1" /><path clip-path="url(#clip150)" d="M2180.24 139.407 L2180.24 143.389 Q2178.44 142.393 2176.61 141.907 Q2174.8 141.398 2172.95 141.398 Q2168.81 141.398 2166.52 144.037 Q2164.22 146.652 2164.22 151.398 Q2164.22 156.143 2166.52 158.782 Q2168.81 161.398 2172.95 161.398 Q2174.8 161.398 2176.61 160.912 Q2178.44 160.402 2180.24 159.407 L2180.24 163.342 Q2178.46 164.176 2176.54 164.592 Q2174.64 165.009 2172.49 165.009 Q2166.63 165.009 2163.18 161.328 Q2159.73 157.648 2159.73 151.398 Q2159.73 145.055 2163.21 141.421 Q2166.7 137.787 2172.77 137.787 Q2174.73 137.787 2176.61 138.203 Q2178.48 138.597 2180.24 139.407 Z" fill="#000000" fill-rule="evenodd" fill-opacity="1" /><path clip-path="url(#clip150)" d="M2209.83 150.31 L2209.83 152.393 L2190.24 152.393 Q2190.52 156.791 2192.88 159.106 Q2195.27 161.398 2199.5 161.398 Q2201.96 161.398 2204.25 160.796 Q2206.56 160.194 2208.83 158.99 L2208.83 163.018 Q2206.54 163.99 2204.13 164.5 Q2201.72 165.009 2199.25 165.009 Q2193.04 165.009 2189.41 161.398 Q2185.8 157.787 2185.8 151.629 Q2185.8 145.264 2189.22 141.537 Q2192.67 137.787 2198.51 137.787 Q2203.74 137.787 2206.77 141.166 Q2209.83 144.523 2209.83 150.31 M2205.57 149.06 Q2205.52 145.565 2203.6 143.481 Q2201.7 141.398 2198.55 141.398 Q2194.99 141.398 2192.84 143.412 Q2190.71 145.426 2190.38 149.083 L2205.57 149.06 Z" fill="#000000" fill-rule="evenodd" fill-opacity="1" /><polyline clip-path="url(#clip150)" style="stroke:#e26f46; stroke-linecap:butt; stroke-linejoin:round; stroke-width:4; stroke-opacity:1; fill:none" points="
  1725.31,198.898 1869.74,198.898 
  "/>
<path clip-path="url(#clip150)" d="M1915.52 200.529 L1915.52 216.178 L1911.26 216.178 L1911.26 200.668 Q1911.26 196.988 1909.83 195.159 Q1908.39 193.33 1905.52 193.33 Q1902.07 193.33 1900.08 195.53 Q1898.09 197.729 1898.09 201.525 L1898.09 216.178 L1893.81 216.178 L1893.81 180.159 L1898.09 180.159 L1898.09 194.28 Q1899.62 191.942 1901.68 190.784 Q1903.76 189.627 1906.47 189.627 Q1910.94 189.627 1913.23 192.405 Q1915.52 195.159 1915.52 200.529 Z" fill="#000000" fill-rule="evenodd" fill-opacity="1" /><path clip-path="url(#clip150)" d="M1924.02 190.252 L1928.28 190.252 L1928.28 216.178 L1924.02 216.178 L1924.02 190.252 M1924.02 180.159 L1928.28 180.159 L1928.28 185.553 L1924.02 185.553 L1924.02 180.159 Z" fill="#000000" fill-rule="evenodd" fill-opacity="1" /><path clip-path="url(#clip150)" d="M1954.25 202.914 Q1954.25 198.284 1952.33 195.738 Q1950.43 193.192 1946.98 193.192 Q1943.55 193.192 1941.63 195.738 Q1939.74 198.284 1939.74 202.914 Q1939.74 207.52 1941.63 210.066 Q1943.55 212.613 1946.98 212.613 Q1950.43 212.613 1952.33 210.066 Q1954.25 207.52 1954.25 202.914 M1958.51 212.96 Q1958.51 219.58 1955.57 222.798 Q1952.63 226.039 1946.56 226.039 Q1944.32 226.039 1942.33 225.691 Q1940.34 225.367 1938.46 224.673 L1938.46 220.529 Q1940.34 221.548 1942.17 222.034 Q1943.99 222.52 1945.89 222.52 Q1950.08 222.52 1952.17 220.321 Q1954.25 218.145 1954.25 213.724 L1954.25 211.617 Q1952.93 213.909 1950.87 215.043 Q1948.81 216.178 1945.94 216.178 Q1941.17 216.178 1938.25 212.543 Q1935.34 208.909 1935.34 202.914 Q1935.34 196.895 1938.25 193.261 Q1941.17 189.627 1945.94 189.627 Q1948.81 189.627 1950.87 190.761 Q1952.93 191.895 1954.25 194.187 L1954.25 190.252 L1958.51 190.252 L1958.51 212.96 Z" fill="#000000" fill-rule="evenodd" fill-opacity="1" /><path clip-path="url(#clip150)" d="M1988.83 200.529 L1988.83 216.178 L1984.57 216.178 L1984.57 200.668 Q1984.57 196.988 1983.14 195.159 Q1981.7 193.33 1978.83 193.33 Q1975.38 193.33 1973.39 195.53 Q1971.4 197.729 1971.4 201.525 L1971.4 216.178 L1967.12 216.178 L1967.12 180.159 L1971.4 180.159 L1971.4 194.28 Q1972.93 191.942 1974.99 190.784 Q1977.07 189.627 1979.78 189.627 Q1984.25 189.627 1986.54 192.405 Q1988.83 195.159 1988.83 200.529 Z" fill="#000000" fill-rule="evenodd" fill-opacity="1" /><path clip-path="url(#clip150)" d="M2012.4 190.252 L2016.66 190.252 L2016.66 216.178 L2012.4 216.178 L2012.4 190.252 M2012.4 180.159 L2016.66 180.159 L2016.66 185.553 L2012.4 185.553 L2012.4 180.159 Z" fill="#000000" fill-rule="evenodd" fill-opacity="1" /><path clip-path="url(#clip150)" d="M2047.12 200.529 L2047.12 216.178 L2042.86 216.178 L2042.86 200.668 Q2042.86 196.988 2041.42 195.159 Q2039.99 193.33 2037.12 193.33 Q2033.67 193.33 2031.68 195.53 Q2029.69 197.729 2029.69 201.525 L2029.69 216.178 L2025.41 216.178 L2025.41 190.252 L2029.69 190.252 L2029.69 194.28 Q2031.22 191.942 2033.28 190.784 Q2035.36 189.627 2038.07 189.627 Q2042.54 189.627 2044.83 192.405 Q2047.12 195.159 2047.12 200.529 Z" fill="#000000" fill-rule="evenodd" fill-opacity="1" /><path clip-path="url(#clip150)" d="M2074.27 191.247 L2074.27 195.229 Q2072.47 194.233 2070.64 193.747 Q2068.83 193.238 2066.98 193.238 Q2062.84 193.238 2060.54 195.877 Q2058.25 198.492 2058.25 203.238 Q2058.25 207.983 2060.54 210.622 Q2062.84 213.238 2066.98 213.238 Q2068.83 213.238 2070.64 212.752 Q2072.47 212.242 2074.27 211.247 L2074.27 215.182 Q2072.49 216.016 2070.57 216.432 Q2068.67 216.849 2066.52 216.849 Q2060.66 216.849 2057.21 213.168 Q2053.76 209.488 2053.76 203.238 Q2053.76 196.895 2057.23 193.261 Q2060.73 189.627 2066.79 189.627 Q2068.76 189.627 2070.64 190.043 Q2072.51 190.437 2074.27 191.247 Z" fill="#000000" fill-rule="evenodd" fill-opacity="1" /><path clip-path="url(#clip150)" d="M2081.68 190.252 L2085.94 190.252 L2085.94 216.178 L2081.68 216.178 L2081.68 190.252 M2081.68 180.159 L2085.94 180.159 L2085.94 185.553 L2081.68 185.553 L2081.68 180.159 Z" fill="#000000" fill-rule="evenodd" fill-opacity="1" /><path clip-path="url(#clip150)" d="M2111.91 194.187 L2111.91 180.159 L2116.17 180.159 L2116.17 216.178 L2111.91 216.178 L2111.91 212.289 Q2110.57 214.603 2108.51 215.738 Q2106.47 216.849 2103.6 216.849 Q2098.9 216.849 2095.94 213.099 Q2093 209.349 2093 203.238 Q2093 197.127 2095.94 193.377 Q2098.9 189.627 2103.6 189.627 Q2106.47 189.627 2108.51 190.761 Q2110.57 191.872 2111.91 194.187 M2097.4 203.238 Q2097.4 207.937 2099.32 210.622 Q2101.26 213.284 2104.64 213.284 Q2108.02 213.284 2109.97 210.622 Q2111.91 207.937 2111.91 203.238 Q2111.91 198.539 2109.97 195.877 Q2108.02 193.192 2104.64 193.192 Q2101.26 193.192 2099.32 195.877 Q2097.4 198.539 2097.4 203.238 Z" fill="#000000" fill-rule="evenodd" fill-opacity="1" /><path clip-path="url(#clip150)" d="M2147.12 202.15 L2147.12 204.233 L2127.54 204.233 Q2127.81 208.631 2130.17 210.946 Q2132.56 213.238 2136.79 213.238 Q2139.25 213.238 2141.54 212.636 Q2143.85 212.034 2146.12 210.83 L2146.12 214.858 Q2143.83 215.83 2141.42 216.34 Q2139.02 216.849 2136.54 216.849 Q2130.34 216.849 2126.7 213.238 Q2123.09 209.627 2123.09 203.469 Q2123.09 197.104 2126.52 193.377 Q2129.97 189.627 2135.8 189.627 Q2141.03 189.627 2144.06 193.006 Q2147.12 196.363 2147.12 202.15 M2142.86 200.9 Q2142.81 197.405 2140.89 195.321 Q2138.99 193.238 2135.85 193.238 Q2132.28 193.238 2130.13 195.252 Q2128 197.266 2127.67 200.923 L2142.86 200.9 Z" fill="#000000" fill-rule="evenodd" fill-opacity="1" /><path clip-path="url(#clip150)" d="M2175.66 200.529 L2175.66 216.178 L2171.4 216.178 L2171.4 200.668 Q2171.4 196.988 2169.97 195.159 Q2168.53 193.33 2165.66 193.33 Q2162.21 193.33 2160.22 195.53 Q2158.23 197.729 2158.23 201.525 L2158.23 216.178 L2153.95 216.178 L2153.95 190.252 L2158.23 190.252 L2158.23 194.28 Q2159.76 191.942 2161.82 190.784 Q2163.9 189.627 2166.61 189.627 Q2171.08 189.627 2173.37 192.405 Q2175.66 195.159 2175.66 200.529 Z" fill="#000000" fill-rule="evenodd" fill-opacity="1" /><path clip-path="url(#clip150)" d="M2202.81 191.247 L2202.81 195.229 Q2201.01 194.233 2199.18 193.747 Q2197.37 193.238 2195.52 193.238 Q2191.38 193.238 2189.09 195.877 Q2186.79 198.492 2186.79 203.238 Q2186.79 207.983 2189.09 210.622 Q2191.38 213.238 2195.52 213.238 Q2197.37 213.238 2199.18 212.752 Q2201.01 212.242 2202.81 211.247 L2202.81 215.182 Q2201.03 216.016 2199.11 216.432 Q2197.21 216.849 2195.06 216.849 Q2189.2 216.849 2185.75 213.168 Q2182.3 209.488 2182.3 203.238 Q2182.3 196.895 2185.78 193.261 Q2189.27 189.627 2195.34 189.627 Q2197.3 189.627 2199.18 190.043 Q2201.05 190.437 2202.81 191.247 Z" fill="#000000" fill-rule="evenodd" fill-opacity="1" /><path clip-path="url(#clip150)" d="M2232.4 202.15 L2232.4 204.233 L2212.81 204.233 Q2213.09 208.631 2215.45 210.946 Q2217.84 213.238 2222.07 213.238 Q2224.53 213.238 2226.82 212.636 Q2229.13 212.034 2231.4 210.83 L2231.4 214.858 Q2229.11 215.83 2226.7 216.34 Q2224.29 216.849 2221.82 216.849 Q2215.61 216.849 2211.98 213.238 Q2208.37 209.627 2208.37 203.469 Q2208.37 197.104 2211.79 193.377 Q2215.24 189.627 2221.08 189.627 Q2226.31 189.627 2229.34 193.006 Q2232.4 196.363 2232.4 202.15 M2228.14 200.9 Q2228.09 197.405 2226.17 195.321 Q2224.27 193.238 2221.12 193.238 Q2217.56 193.238 2215.41 195.252 Q2213.28 197.266 2212.95 200.923 L2228.14 200.9 Z" fill="#000000" fill-rule="evenodd" fill-opacity="1" /></svg>
