<?xml version="1.0" encoding="utf-8"?>
<svg xmlns="http://www.w3.org/2000/svg" xmlns:xlink="http://www.w3.org/1999/xlink" width="600" height="400" viewBox="0 0 2400 1600">
<defs>
  <clipPath id="clip350">
    <rect x="0" y="0" width="2400" height="1600"/>
  </clipPath>
</defs>
<path clip-path="url(#clip350)" d="
M0 1600 L2400 1600 L2400 0 L0 0  Z
  " fill="#ffffff" fill-rule="evenodd" fill-opacity="1"/>
<defs>
  <clipPath id="clip351">
    <rect x="480" y="0" width="1681" height="1600"/>
  </clipPath>
</defs>
<path clip-path="url(#clip350)" d="
M184.191 1486.45 L2352.76 1486.45 L2352.76 47.2441 L184.191 47.2441  Z
  " fill="#ffffff" fill-rule="evenodd" fill-opacity="1"/>
<defs>
  <clipPath id="clip352">
    <rect x="184" y="47" width="2170" height="1440"/>
  </clipPath>
</defs>
<polyline clip-path="url(#clip352)" style="stroke:#000000; stroke-linecap:butt; stroke-linejoin:round; stroke-width:2; stroke-opacity:0.1; fill:none" points="
  184.191,1486.45 184.191,47.2441 
  "/>
<polyline clip-path="url(#clip352)" style="stroke:#000000; stroke-linecap:butt; stroke-linejoin:round; stroke-width:2; stroke-opacity:0.1; fill:none" points="
  617.904,1486.45 617.904,47.2441 
  "/>
<polyline clip-path="url(#clip352)" style="stroke:#000000; stroke-linecap:butt; stroke-linejoin:round; stroke-width:2; stroke-opacity:0.1; fill:none" points="
  1051.62,1486.45 1051.62,47.2441 
  "/>
<polyline clip-path="url(#clip352)" style="stroke:#000000; stroke-linecap:butt; stroke-linejoin:round; stroke-width:2; stroke-opacity:0.1; fill:none" points="
  1485.33,1486.45 1485.33,47.2441 
  "/>
<polyline clip-path="url(#clip352)" style="stroke:#000000; stroke-linecap:butt; stroke-linejoin:round; stroke-width:2; stroke-opacity:0.1; fill:none" points="
  1919.04,1486.45 1919.04,47.2441 
  "/>
<polyline clip-path="url(#clip352)" style="stroke:#000000; stroke-linecap:butt; stroke-linejoin:round; stroke-width:2; stroke-opacity:0.1; fill:none" points="
  2352.76,1486.45 2352.76,47.2441 
  "/>
<polyline clip-path="url(#clip350)" style="stroke:#000000; stroke-linecap:butt; stroke-linejoin:round; stroke-width:4; stroke-opacity:1; fill:none" points="
  184.191,1486.45 2352.76,1486.45 
  "/>
<polyline clip-path="url(#clip350)" style="stroke:#000000; stroke-linecap:butt; stroke-linejoin:round; stroke-width:4; stroke-opacity:1; fill:none" points="
  184.191,1486.45 184.191,1467.55 
  "/>
<polyline clip-path="url(#clip350)" style="stroke:#000000; stroke-linecap:butt; stroke-linejoin:round; stroke-width:4; stroke-opacity:1; fill:none" points="
  617.904,1486.45 617.904,1467.55 
  "/>
<polyline clip-path="url(#clip350)" style="stroke:#000000; stroke-linecap:butt; stroke-linejoin:round; stroke-width:4; stroke-opacity:1; fill:none" points="
  1051.62,1486.45 1051.62,1467.55 
  "/>
<polyline clip-path="url(#clip350)" style="stroke:#000000; stroke-linecap:butt; stroke-linejoin:round; stroke-width:4; stroke-opacity:1; fill:none" points="
  1485.33,1486.45 1485.33,1467.55 
  "/>
<polyline clip-path="url(#clip350)" style="stroke:#000000; stroke-linecap:butt; stroke-linejoin:round; stroke-width:4; stroke-opacity:1; fill:none" points="
  1919.04,1486.45 1919.04,1467.55 
  "/>
<polyline clip-path="url(#clip350)" style="stroke:#000000; stroke-linecap:butt; stroke-linejoin:round; stroke-width:4; stroke-opacity:1; fill:none" points="
  2352.76,1486.45 2352.76,1467.55 
  "/>
<path clip-path="url(#clip350)" d="M161.575 1517.37 Q157.964 1517.37 156.135 1520.93 Q154.33 1524.47 154.33 1531.6 Q154.33 1538.71 156.135 1542.27 Q157.964 1545.82 161.575 1545.82 Q165.209 1545.82 167.015 1542.27 Q168.844 1538.71 168.844 1531.6 Q168.844 1524.47 167.015 1520.93 Q165.209 1517.37 161.575 1517.37 M161.575 1513.66 Q167.385 1513.66 170.441 1518.27 Q173.519 1522.85 173.519 1531.6 Q173.519 1540.33 170.441 1544.94 Q167.385 1549.52 161.575 1549.52 Q155.765 1549.52 152.686 1544.94 Q149.631 1540.33 149.631 1531.6 Q149.631 1522.85 152.686 1518.27 Q155.765 1513.66 161.575 1513.66 Z" fill="#000000" fill-rule="evenodd" fill-opacity="1" /><path clip-path="url(#clip350)" d="M181.737 1542.97 L186.621 1542.97 L186.621 1548.85 L181.737 1548.85 L181.737 1542.97 Z" fill="#000000" fill-rule="evenodd" fill-opacity="1" /><path clip-path="url(#clip350)" d="M206.806 1517.37 Q203.195 1517.37 201.367 1520.93 Q199.561 1524.47 199.561 1531.6 Q199.561 1538.71 201.367 1542.27 Q203.195 1545.82 206.806 1545.82 Q210.441 1545.82 212.246 1542.27 Q214.075 1538.71 214.075 1531.6 Q214.075 1524.47 212.246 1520.93 Q210.441 1517.37 206.806 1517.37 M206.806 1513.66 Q212.616 1513.66 215.672 1518.27 Q218.751 1522.85 218.751 1531.6 Q218.751 1540.33 215.672 1544.94 Q212.616 1549.52 206.806 1549.52 Q200.996 1549.52 197.917 1544.94 Q194.862 1540.33 194.862 1531.6 Q194.862 1522.85 197.917 1518.27 Q200.996 1513.66 206.806 1513.66 Z" fill="#000000" fill-rule="evenodd" fill-opacity="1" /><path clip-path="url(#clip350)" d="M595.902 1517.37 Q592.29 1517.37 590.462 1520.93 Q588.656 1524.47 588.656 1531.6 Q588.656 1538.71 590.462 1542.27 Q592.29 1545.82 595.902 1545.82 Q599.536 1545.82 601.341 1542.27 Q603.17 1538.71 603.17 1531.6 Q603.17 1524.47 601.341 1520.93 Q599.536 1517.37 595.902 1517.37 M595.902 1513.66 Q601.712 1513.66 604.767 1518.27 Q607.846 1522.85 607.846 1531.6 Q607.846 1540.33 604.767 1544.94 Q601.712 1549.52 595.902 1549.52 Q590.091 1549.52 587.013 1544.94 Q583.957 1540.33 583.957 1531.6 Q583.957 1522.85 587.013 1518.27 Q590.091 1513.66 595.902 1513.66 Z" fill="#000000" fill-rule="evenodd" fill-opacity="1" /><path clip-path="url(#clip350)" d="M616.063 1542.97 L620.948 1542.97 L620.948 1548.85 L616.063 1548.85 L616.063 1542.97 Z" fill="#000000" fill-rule="evenodd" fill-opacity="1" /><path clip-path="url(#clip350)" d="M631.943 1544.91 L639.582 1544.91 L639.582 1518.55 L631.272 1520.21 L631.272 1515.95 L639.536 1514.29 L644.211 1514.29 L644.211 1544.91 L651.85 1544.91 L651.85 1548.85 L631.943 1548.85 L631.943 1544.91 Z" fill="#000000" fill-rule="evenodd" fill-opacity="1" /><path clip-path="url(#clip350)" d="M1029.8 1517.37 Q1026.19 1517.37 1024.36 1520.93 Q1022.55 1524.47 1022.55 1531.6 Q1022.55 1538.71 1024.36 1542.27 Q1026.19 1545.82 1029.8 1545.82 Q1033.43 1545.82 1035.24 1542.27 Q1037.07 1538.71 1037.07 1531.6 Q1037.07 1524.47 1035.24 1520.93 Q1033.43 1517.37 1029.8 1517.37 M1029.8 1513.66 Q1035.61 1513.66 1038.67 1518.27 Q1041.74 1522.85 1041.74 1531.6 Q1041.74 1540.33 1038.67 1544.94 Q1035.61 1549.52 1029.8 1549.52 Q1023.99 1549.52 1020.91 1544.94 Q1017.86 1540.33 1017.86 1531.6 Q1017.86 1522.85 1020.91 1518.27 Q1023.99 1513.66 1029.8 1513.66 Z" fill="#000000" fill-rule="evenodd" fill-opacity="1" /><path clip-path="url(#clip350)" d="M1049.96 1542.97 L1054.85 1542.97 L1054.85 1548.85 L1049.96 1548.85 L1049.96 1542.97 Z" fill="#000000" fill-rule="evenodd" fill-opacity="1" /><path clip-path="url(#clip350)" d="M1069.06 1544.91 L1085.38 1544.91 L1085.38 1548.85 L1063.43 1548.85 L1063.43 1544.91 Q1066.1 1542.16 1070.68 1537.53 Q1075.29 1532.88 1076.47 1531.53 Q1078.71 1529.01 1079.59 1527.27 Q1080.49 1525.51 1080.49 1523.82 Q1080.49 1521.07 1078.55 1519.33 Q1076.63 1517.6 1073.53 1517.6 Q1071.33 1517.6 1068.87 1518.36 Q1066.44 1519.13 1063.67 1520.68 L1063.67 1515.95 Q1066.49 1514.82 1068.94 1514.24 Q1071.4 1513.66 1073.43 1513.66 Q1078.8 1513.66 1082 1516.35 Q1085.19 1519.03 1085.19 1523.52 Q1085.19 1525.65 1084.38 1527.57 Q1083.6 1529.47 1081.49 1532.07 Q1080.91 1532.74 1077.81 1535.95 Q1074.71 1539.15 1069.06 1544.91 Z" fill="#000000" fill-rule="evenodd" fill-opacity="1" /><path clip-path="url(#clip350)" d="M1463.04 1517.37 Q1459.43 1517.37 1457.6 1520.93 Q1455.79 1524.47 1455.79 1531.6 Q1455.79 1538.71 1457.6 1542.27 Q1459.43 1545.82 1463.04 1545.82 Q1466.67 1545.82 1468.48 1542.27 Q1470.31 1538.71 1470.31 1531.6 Q1470.31 1524.47 1468.48 1520.93 Q1466.67 1517.37 1463.04 1517.37 M1463.04 1513.66 Q1468.85 1513.66 1471.9 1518.27 Q1474.98 1522.85 1474.98 1531.6 Q1474.98 1540.33 1471.9 1544.94 Q1468.85 1549.52 1463.04 1549.52 Q1457.23 1549.52 1454.15 1544.94 Q1451.09 1540.33 1451.09 1531.6 Q1451.09 1522.85 1454.15 1518.27 Q1457.23 1513.66 1463.04 1513.66 Z" fill="#000000" fill-rule="evenodd" fill-opacity="1" /><path clip-path="url(#clip350)" d="M1483.2 1542.97 L1488.08 1542.97 L1488.08 1548.85 L1483.2 1548.85 L1483.2 1542.97 Z" fill="#000000" fill-rule="evenodd" fill-opacity="1" /><path clip-path="url(#clip350)" d="M1512.44 1530.21 Q1515.79 1530.93 1517.67 1533.2 Q1519.57 1535.47 1519.57 1538.8 Q1519.57 1543.92 1516.05 1546.72 Q1512.53 1549.52 1506.05 1549.52 Q1503.87 1549.52 1501.56 1549.08 Q1499.26 1548.66 1496.81 1547.81 L1496.81 1543.29 Q1498.76 1544.43 1501.07 1545.01 Q1503.39 1545.58 1505.91 1545.58 Q1510.31 1545.58 1512.6 1543.85 Q1514.91 1542.11 1514.91 1538.8 Q1514.91 1535.75 1512.76 1534.03 Q1510.63 1532.3 1506.81 1532.3 L1502.78 1532.3 L1502.78 1528.45 L1507 1528.45 Q1510.45 1528.45 1512.27 1527.09 Q1514.1 1525.7 1514.1 1523.11 Q1514.1 1520.45 1512.2 1519.03 Q1510.33 1517.6 1506.81 1517.6 Q1504.89 1517.6 1502.69 1518.01 Q1500.49 1518.43 1497.85 1519.31 L1497.85 1515.14 Q1500.51 1514.4 1502.83 1514.03 Q1505.17 1513.66 1507.23 1513.66 Q1512.55 1513.66 1515.65 1516.09 Q1518.76 1518.5 1518.76 1522.62 Q1518.76 1525.49 1517.11 1527.48 Q1515.47 1529.45 1512.44 1530.21 Z" fill="#000000" fill-rule="evenodd" fill-opacity="1" /><path clip-path="url(#clip350)" d="M1896.18 1517.37 Q1892.57 1517.37 1890.74 1520.93 Q1888.94 1524.47 1888.94 1531.6 Q1888.94 1538.71 1890.74 1542.27 Q1892.57 1545.82 1896.18 1545.82 Q1899.82 1545.82 1901.62 1542.27 Q1903.45 1538.71 1903.45 1531.6 Q1903.45 1524.47 1901.62 1520.93 Q1899.82 1517.37 1896.18 1517.37 M1896.18 1513.66 Q1901.99 1513.66 1905.05 1518.27 Q1908.13 1522.85 1908.13 1531.6 Q1908.13 1540.33 1905.05 1544.94 Q1901.99 1549.52 1896.18 1549.52 Q1890.37 1549.52 1887.3 1544.94 Q1884.24 1540.33 1884.24 1531.6 Q1884.24 1522.85 1887.3 1518.27 Q1890.37 1513.66 1896.18 1513.66 Z" fill="#000000" fill-rule="evenodd" fill-opacity="1" /><path clip-path="url(#clip350)" d="M1916.35 1542.97 L1921.23 1542.97 L1921.23 1548.85 L1916.35 1548.85 L1916.35 1542.97 Z" fill="#000000" fill-rule="evenodd" fill-opacity="1" /><path clip-path="url(#clip350)" d="M1944.26 1518.36 L1932.46 1536.81 L1944.26 1536.81 L1944.26 1518.36 M1943.04 1514.29 L1948.92 1514.29 L1948.92 1536.81 L1953.85 1536.81 L1953.85 1540.7 L1948.92 1540.7 L1948.92 1548.85 L1944.26 1548.85 L1944.26 1540.7 L1928.66 1540.7 L1928.66 1536.19 L1943.04 1514.29 Z" fill="#000000" fill-rule="evenodd" fill-opacity="1" /><path clip-path="url(#clip350)" d="M2330.64 1517.37 Q2327.03 1517.37 2325.2 1520.93 Q2323.39 1524.47 2323.39 1531.6 Q2323.39 1538.71 2325.2 1542.27 Q2327.03 1545.82 2330.64 1545.82 Q2334.27 1545.82 2336.08 1542.27 Q2337.91 1538.71 2337.91 1531.6 Q2337.91 1524.47 2336.08 1520.93 Q2334.27 1517.37 2330.64 1517.37 M2330.64 1513.66 Q2336.45 1513.66 2339.5 1518.27 Q2342.58 1522.85 2342.58 1531.6 Q2342.58 1540.33 2339.5 1544.94 Q2336.45 1549.52 2330.64 1549.52 Q2324.83 1549.52 2321.75 1544.94 Q2318.69 1540.33 2318.69 1531.6 Q2318.69 1522.85 2321.75 1518.27 Q2324.83 1513.66 2330.64 1513.66 Z" fill="#000000" fill-rule="evenodd" fill-opacity="1" /><path clip-path="url(#clip350)" d="M2350.8 1542.97 L2355.68 1542.97 L2355.68 1548.85 L2350.8 1548.85 L2350.8 1542.97 Z" fill="#000000" fill-rule="evenodd" fill-opacity="1" /><path clip-path="url(#clip350)" d="M2365.92 1514.29 L2384.27 1514.29 L2384.27 1518.22 L2370.2 1518.22 L2370.2 1526.7 Q2371.22 1526.35 2372.23 1526.19 Q2373.25 1526 2374.27 1526 Q2380.06 1526 2383.44 1529.17 Q2386.82 1532.34 2386.82 1537.76 Q2386.82 1543.34 2383.35 1546.44 Q2379.87 1549.52 2373.55 1549.52 Q2371.38 1549.52 2369.11 1549.15 Q2366.86 1548.78 2364.46 1548.04 L2364.46 1543.34 Q2366.54 1544.47 2368.76 1545.03 Q2370.98 1545.58 2373.46 1545.58 Q2377.47 1545.58 2379.8 1543.48 Q2382.14 1541.37 2382.14 1537.76 Q2382.14 1534.15 2379.8 1532.04 Q2377.47 1529.94 2373.46 1529.94 Q2371.59 1529.94 2369.71 1530.35 Q2367.86 1530.77 2365.92 1531.65 L2365.92 1514.29 Z" fill="#000000" fill-rule="evenodd" fill-opacity="1" /><polyline clip-path="url(#clip352)" style="stroke:#000000; stroke-linecap:butt; stroke-linejoin:round; stroke-width:2; stroke-opacity:0.1; fill:none" points="
  184.191,1445.72 2352.76,1445.72 
  "/>
<polyline clip-path="url(#clip352)" style="stroke:#000000; stroke-linecap:butt; stroke-linejoin:round; stroke-width:2; stroke-opacity:0.1; fill:none" points="
  184.191,1106.28 2352.76,1106.28 
  "/>
<polyline clip-path="url(#clip352)" style="stroke:#000000; stroke-linecap:butt; stroke-linejoin:round; stroke-width:2; stroke-opacity:0.1; fill:none" points="
  184.191,766.846 2352.76,766.846 
  "/>
<polyline clip-path="url(#clip352)" style="stroke:#000000; stroke-linecap:butt; stroke-linejoin:round; stroke-width:2; stroke-opacity:0.1; fill:none" points="
  184.191,427.411 2352.76,427.411 
  "/>
<polyline clip-path="url(#clip352)" style="stroke:#000000; stroke-linecap:butt; stroke-linejoin:round; stroke-width:2; stroke-opacity:0.1; fill:none" points="
  184.191,87.9763 2352.76,87.9763 
  "/>
<polyline clip-path="url(#clip350)" style="stroke:#000000; stroke-linecap:butt; stroke-linejoin:round; stroke-width:4; stroke-opacity:1; fill:none" points="
  184.191,1486.45 184.191,47.2441 
  "/>
<polyline clip-path="url(#clip350)" style="stroke:#000000; stroke-linecap:butt; stroke-linejoin:round; stroke-width:4; stroke-opacity:1; fill:none" points="
  184.191,1445.72 203.088,1445.72 
  "/>
<polyline clip-path="url(#clip350)" style="stroke:#000000; stroke-linecap:butt; stroke-linejoin:round; stroke-width:4; stroke-opacity:1; fill:none" points="
  184.191,1106.28 203.088,1106.28 
  "/>
<polyline clip-path="url(#clip350)" style="stroke:#000000; stroke-linecap:butt; stroke-linejoin:round; stroke-width:4; stroke-opacity:1; fill:none" points="
  184.191,766.846 203.088,766.846 
  "/>
<polyline clip-path="url(#clip350)" style="stroke:#000000; stroke-linecap:butt; stroke-linejoin:round; stroke-width:4; stroke-opacity:1; fill:none" points="
  184.191,427.411 203.088,427.411 
  "/>
<polyline clip-path="url(#clip350)" style="stroke:#000000; stroke-linecap:butt; stroke-linejoin:round; stroke-width:4; stroke-opacity:1; fill:none" points="
  184.191,87.9763 203.088,87.9763 
  "/>
<path clip-path="url(#clip350)" d="M91.0151 1431.51 Q87.404 1431.51 85.5753 1435.08 Q83.7697 1438.62 83.7697 1445.75 Q83.7697 1452.86 85.5753 1456.42 Q87.404 1459.96 91.0151 1459.96 Q94.6493 1459.96 96.4548 1456.42 Q98.2835 1452.86 98.2835 1445.75 Q98.2835 1438.62 96.4548 1435.08 Q94.6493 1431.51 91.0151 1431.51 M91.0151 1427.81 Q96.8252 1427.81 99.8808 1432.42 Q102.959 1437 102.959 1445.75 Q102.959 1454.48 99.8808 1459.08 Q96.8252 1463.67 91.0151 1463.67 Q85.2049 1463.67 82.1262 1459.08 Q79.0707 1454.48 79.0707 1445.75 Q79.0707 1437 82.1262 1432.42 Q85.2049 1427.81 91.0151 1427.81 Z" fill="#000000" fill-rule="evenodd" fill-opacity="1" /><path clip-path="url(#clip350)" d="M111.177 1457.12 L116.061 1457.12 L116.061 1463 L111.177 1463 L111.177 1457.12 Z" fill="#000000" fill-rule="evenodd" fill-opacity="1" /><path clip-path="url(#clip350)" d="M136.246 1431.51 Q132.635 1431.51 130.807 1435.08 Q129.001 1438.62 129.001 1445.75 Q129.001 1452.86 130.807 1456.42 Q132.635 1459.96 136.246 1459.96 Q139.881 1459.96 141.686 1456.42 Q143.515 1452.86 143.515 1445.75 Q143.515 1438.62 141.686 1435.08 Q139.881 1431.51 136.246 1431.51 M136.246 1427.81 Q142.056 1427.81 145.112 1432.42 Q148.191 1437 148.191 1445.75 Q148.191 1454.48 145.112 1459.08 Q142.056 1463.67 136.246 1463.67 Q130.436 1463.67 127.357 1459.08 Q124.302 1454.48 124.302 1445.75 Q124.302 1437 127.357 1432.42 Q130.436 1427.81 136.246 1427.81 Z" fill="#000000" fill-rule="evenodd" fill-opacity="1" /><path clip-path="url(#clip350)" d="M86.0382 1119.63 L102.358 1119.63 L102.358 1123.56 L80.4133 1123.56 L80.4133 1119.63 Q83.0753 1116.87 87.6586 1112.24 Q92.2651 1107.59 93.4456 1106.25 Q95.691 1103.72 96.5706 1101.99 Q97.4734 1100.23 97.4734 1098.54 Q97.4734 1095.78 95.5289 1094.05 Q93.6076 1092.31 90.5058 1092.31 Q88.3067 1092.31 85.8531 1093.07 Q83.4225 1093.84 80.6447 1095.39 L80.6447 1090.67 Q83.4688 1089.53 85.9225 1088.95 Q88.3762 1088.38 90.4132 1088.38 Q95.7836 1088.38 98.978 1091.06 Q102.172 1093.75 102.172 1098.24 Q102.172 1100.37 101.362 1102.29 Q100.575 1104.19 98.4687 1106.78 Q97.89 1107.45 94.7882 1110.67 Q91.6864 1113.86 86.0382 1119.63 Z" fill="#000000" fill-rule="evenodd" fill-opacity="1" /><path clip-path="url(#clip350)" d="M112.172 1117.68 L117.057 1117.68 L117.057 1123.56 L112.172 1123.56 L112.172 1117.68 Z" fill="#000000" fill-rule="evenodd" fill-opacity="1" /><path clip-path="url(#clip350)" d="M127.288 1089 L145.644 1089 L145.644 1092.94 L131.57 1092.94 L131.57 1101.41 Q132.589 1101.06 133.607 1100.9 Q134.626 1100.71 135.644 1100.71 Q141.431 1100.71 144.811 1103.89 Q148.191 1107.06 148.191 1112.47 Q148.191 1118.05 144.718 1121.15 Q141.246 1124.23 134.927 1124.23 Q132.751 1124.23 130.482 1123.86 Q128.237 1123.49 125.83 1122.75 L125.83 1118.05 Q127.913 1119.19 130.135 1119.74 Q132.357 1120.3 134.834 1120.3 Q138.839 1120.3 141.177 1118.19 Q143.515 1116.08 143.515 1112.47 Q143.515 1108.86 141.177 1106.76 Q138.839 1104.65 134.834 1104.65 Q132.959 1104.65 131.084 1105.07 Q129.232 1105.48 127.288 1106.36 L127.288 1089 Z" fill="#000000" fill-rule="evenodd" fill-opacity="1" /><path clip-path="url(#clip350)" d="M81.0614 749.566 L99.4178 749.566 L99.4178 753.501 L85.3438 753.501 L85.3438 761.973 Q86.3623 761.626 87.3808 761.464 Q88.3993 761.279 89.4178 761.279 Q95.2049 761.279 98.5845 764.45 Q101.964 767.621 101.964 773.038 Q101.964 778.617 98.4919 781.719 Q95.0197 784.797 88.7003 784.797 Q86.5243 784.797 84.2558 784.427 Q82.0105 784.057 79.6031 783.316 L79.6031 778.617 Q81.6864 779.751 83.9086 780.307 Q86.1308 780.862 88.6077 780.862 Q92.6123 780.862 94.9502 778.756 Q97.2882 776.649 97.2882 773.038 Q97.2882 769.427 94.9502 767.321 Q92.6123 765.214 88.6077 765.214 Q86.7327 765.214 84.8577 765.631 Q83.0058 766.047 81.0614 766.927 L81.0614 749.566 Z" fill="#000000" fill-rule="evenodd" fill-opacity="1" /><path clip-path="url(#clip350)" d="M111.177 778.246 L116.061 778.246 L116.061 784.126 L111.177 784.126 L111.177 778.246 Z" fill="#000000" fill-rule="evenodd" fill-opacity="1" /><path clip-path="url(#clip350)" d="M136.246 752.645 Q132.635 752.645 130.807 756.209 Q129.001 759.751 129.001 766.881 Q129.001 773.987 130.807 777.552 Q132.635 781.094 136.246 781.094 Q139.881 781.094 141.686 777.552 Q143.515 773.987 143.515 766.881 Q143.515 759.751 141.686 756.209 Q139.881 752.645 136.246 752.645 M136.246 748.941 Q142.056 748.941 145.112 753.547 Q148.191 758.131 148.191 766.881 Q148.191 775.608 145.112 780.214 Q142.056 784.797 136.246 784.797 Q130.436 784.797 127.357 780.214 Q124.302 775.608 124.302 766.881 Q124.302 758.131 127.357 753.547 Q130.436 748.941 136.246 748.941 Z" fill="#000000" fill-rule="evenodd" fill-opacity="1" /><path clip-path="url(#clip350)" d="M80.8299 410.131 L103.052 410.131 L103.052 412.122 L90.5058 444.691 L85.6216 444.691 L97.4271 414.066 L80.8299 414.066 L80.8299 410.131 Z" fill="#000000" fill-rule="evenodd" fill-opacity="1" /><path clip-path="url(#clip350)" d="M112.172 438.812 L117.057 438.812 L117.057 444.691 L112.172 444.691 L112.172 438.812 Z" fill="#000000" fill-rule="evenodd" fill-opacity="1" /><path clip-path="url(#clip350)" d="M127.288 410.131 L145.644 410.131 L145.644 414.066 L131.57 414.066 L131.57 422.538 Q132.589 422.191 133.607 422.029 Q134.626 421.844 135.644 421.844 Q141.431 421.844 144.811 425.015 Q148.191 428.187 148.191 433.603 Q148.191 439.182 144.718 442.284 Q141.246 445.362 134.927 445.362 Q132.751 445.362 130.482 444.992 Q128.237 444.622 125.83 443.881 L125.83 439.182 Q127.913 440.316 130.135 440.872 Q132.357 441.427 134.834 441.427 Q138.839 441.427 141.177 439.321 Q143.515 437.214 143.515 433.603 Q143.515 429.992 141.177 427.886 Q138.839 425.779 134.834 425.779 Q132.959 425.779 131.084 426.196 Q129.232 426.613 127.288 427.492 L127.288 410.131 Z" fill="#000000" fill-rule="evenodd" fill-opacity="1" /><path clip-path="url(#clip350)" d="M51.6634 101.321 L59.3023 101.321 L59.3023 74.9555 L50.9921 76.6222 L50.9921 72.3629 L59.256 70.6963 L63.9319 70.6963 L63.9319 101.321 L71.5707 101.321 L71.5707 105.256 L51.6634 105.256 L51.6634 101.321 Z" fill="#000000" fill-rule="evenodd" fill-opacity="1" /><path clip-path="url(#clip350)" d="M91.0151 73.775 Q87.404 73.775 85.5753 77.3398 Q83.7697 80.8814 83.7697 88.011 Q83.7697 95.1174 85.5753 98.6822 Q87.404 102.224 91.0151 102.224 Q94.6493 102.224 96.4548 98.6822 Q98.2835 95.1174 98.2835 88.011 Q98.2835 80.8814 96.4548 77.3398 Q94.6493 73.775 91.0151 73.775 M91.0151 70.0713 Q96.8252 70.0713 99.8808 74.6777 Q102.959 79.261 102.959 88.011 Q102.959 96.7378 99.8808 101.344 Q96.8252 105.928 91.0151 105.928 Q85.2049 105.928 82.1262 101.344 Q79.0707 96.7378 79.0707 88.011 Q79.0707 79.261 82.1262 74.6777 Q85.2049 70.0713 91.0151 70.0713 Z" fill="#000000" fill-rule="evenodd" fill-opacity="1" /><path clip-path="url(#clip350)" d="M111.177 99.3767 L116.061 99.3767 L116.061 105.256 L111.177 105.256 L111.177 99.3767 Z" fill="#000000" fill-rule="evenodd" fill-opacity="1" /><path clip-path="url(#clip350)" d="M136.246 73.775 Q132.635 73.775 130.807 77.3398 Q129.001 80.8814 129.001 88.011 Q129.001 95.1174 130.807 98.6822 Q132.635 102.224 136.246 102.224 Q139.881 102.224 141.686 98.6822 Q143.515 95.1174 143.515 88.011 Q143.515 80.8814 141.686 77.3398 Q139.881 73.775 136.246 73.775 M136.246 70.0713 Q142.056 70.0713 145.112 74.6777 Q148.191 79.261 148.191 88.011 Q148.191 96.7378 145.112 101.344 Q142.056 105.928 136.246 105.928 Q130.436 105.928 127.357 101.344 Q124.302 96.7378 124.302 88.011 Q124.302 79.261 127.357 74.6777 Q130.436 70.0713 136.246 70.0713 Z" fill="#000000" fill-rule="evenodd" fill-opacity="1" /><polyline clip-path="url(#clip352)" style="stroke:#009af9; stroke-linecap:butt; stroke-linejoin:round; stroke-width:12; stroke-opacity:1; fill:none" points="
  184.191,87.9763 191.25,107.736 198.309,127.241 205.368,146.492 212.428,165.492 228.746,208.472 245.064,250.165 261.383,290.604 277.701,329.822 294.019,367.853 
  310.338,404.727 326.656,440.475 342.974,475.128 359.292,508.715 375.611,541.265 391.929,572.806 408.247,603.366 440.884,661.646 473.52,716.315 493.134,747.514 
  512.747,777.52 532.36,806.375 551.973,834.117 571.587,860.784 591.2,886.412 610.813,911.037 630.426,934.694 663.592,972.586 696.757,1007.96 729.923,1040.96 
  763.088,1071.74 799.115,1102.79 835.142,1131.53 871.169,1158.11 907.196,1182.68 940.41,1203.65 973.623,1223.12 1006.84,1241.19 1040.05,1257.94 1075.66,1274.54 
  1111.27,1289.82 1146.88,1303.87 1182.49,1316.79 1223.74,1330.44 1265,1342.79 1306.25,1353.94 1347.51,1364.02 1420.84,1379.52 1494.16,1392.34 1558.46,1401.72 
  1622.77,1409.61 1692.87,1416.75 1762.98,1422.6 1833.5,1427.41 1904.02,1431.31 2059.96,1437.43 2208.34,1440.98 2362.62,1443.17 2492.48,1444.26 2651.04,1445.02 
  2796.28,1445.38 2930.43,1445.55 3066.31,1445.64 3218.6,1445.69 3356.6,1445.71 3514.6,1445.71 3660.89,1445.72 3805.12,1445.72 3945.15,1445.72 4088.7,1445.72 
  4245.98,1445.72 4474.45,1445.72 4521.32,1445.72 
  "/>
<polyline clip-path="url(#clip352)" style="stroke:#e26f46; stroke-linecap:butt; stroke-linejoin:round; stroke-width:12; stroke-opacity:1; fill:none" points="
  184.191,1445.72 188.528,1444.8 192.865,1442.13 197.202,1437.82 201.539,1431.98 205.876,1424.72 210.213,1416.14 214.551,1406.34 218.888,1395.42 223.225,1383.46 
  227.562,1370.54 231.899,1356.75 236.236,1342.17 240.573,1326.88 244.911,1310.93 249.248,1294.4 253.585,1277.36 257.922,1259.86 262.259,1241.97 266.596,1223.73 
  270.933,1205.21 275.27,1186.44 279.608,1167.49 283.945,1148.39 288.282,1129.18 292.619,1109.92 296.956,1090.62 301.293,1071.34 305.63,1052.1 309.967,1032.94 
  314.305,1013.88 318.642,994.955 322.979,976.192 327.316,957.614 331.653,939.245 335.99,921.106 340.327,903.216 344.665,885.595 349.002,868.26 353.339,851.227 
  357.676,834.511 362.013,818.125 366.35,802.081 370.687,786.391 375.024,771.066 379.362,756.113 383.699,741.542 388.036,727.361 392.373,713.574 396.71,700.189 
  401.047,687.21 405.384,674.641 409.721,662.485 414.059,650.745 418.396,639.424 422.733,628.522 427.07,618.041 431.407,607.981 435.744,598.341 440.081,589.121 
  444.419,580.32 448.756,571.935 453.093,563.966 457.43,556.409 461.767,549.261 466.104,542.52 470.441,536.182 474.778,530.243 479.116,524.699 483.453,519.546 
  487.79,514.778 492.127,510.392 496.464,506.382 500.801,502.742 505.138,499.468 509.475,496.554 513.813,493.994 518.15,491.781 522.487,489.911 526.824,488.377 
  531.161,487.172 535.498,486.291 539.835,485.727 544.173,485.473 548.51,485.523 552.847,485.87 557.184,486.508 561.521,487.43 565.858,488.629 570.195,490.099 
  574.532,491.832 578.87,493.823 583.207,496.065 587.544,498.55 591.881,501.273 596.218,504.226 600.555,507.403 604.892,510.798 609.229,514.403 613.567,518.213 
  617.904,522.22 622.241,526.419 626.578,530.804 630.915,535.367 635.252,540.103 639.589,545.006 643.927,550.069 648.264,555.287 652.601,560.653 656.938,566.163 
  661.275,571.809 665.612,577.587 669.949,583.49 674.286,589.514 678.624,595.653 682.961,601.901 687.298,608.253 691.635,614.705 695.972,621.25 700.309,627.885 
  704.646,634.604 708.983,641.402 713.321,648.275 717.658,655.218 721.995,662.226 726.332,669.296 730.669,676.422 735.006,683.601 739.343,690.828 743.681,698.1 
  748.018,705.412 752.355,712.761 756.692,720.142 761.029,727.553 765.366,734.989 769.703,742.447 774.04,749.923 778.378,757.415 782.715,764.919 787.052,772.431 
  791.389,779.95 795.726,787.471 800.063,794.992 804.4,802.51 808.737,810.023 813.075,817.527 817.412,825.02 821.749,832.5 826.086,839.965 830.423,847.411 
  834.76,854.837 839.097,862.24 843.435,869.619 847.772,876.971 852.109,884.294 856.446,891.587 860.783,898.848 865.12,906.074 869.457,913.265 873.794,920.418 
  878.132,927.532 882.469,934.606 886.806,941.637 891.143,948.626 895.48,955.57 899.817,962.468 904.154,969.319 908.491,976.122 912.829,982.875 917.166,989.578 
  921.503,996.23 925.84,1002.83 930.177,1009.38 934.514,1015.87 938.851,1022.31 943.189,1028.69 947.526,1035.02 951.863,1041.29 956.2,1047.5 960.537,1053.65 
  964.874,1059.75 969.211,1065.79 973.548,1071.76 977.886,1077.68 982.223,1083.54 986.56,1089.34 990.897,1095.07 995.234,1100.75 999.571,1106.37 1003.91,1111.92 
  1008.25,1117.41 1012.58,1122.84 1016.92,1128.21 1021.26,1133.52 1025.59,1138.76 1029.93,1143.94 1034.27,1149.07 1038.61,1154.12 1042.94,1159.12 1047.28,1164.06 
  1051.62,1168.93 1055.95,1173.75 1060.29,1178.5 1064.63,1183.19 1068.97,1187.82 1073.3,1192.39 1077.64,1196.9 1081.98,1201.34 1086.31,1205.73 1090.65,1210.06 
  1094.99,1214.33 1099.33,1218.54 1103.66,1222.69 1108,1226.79 1112.34,1230.82 1116.67,1234.8 1121.01,1238.72 1125.35,1242.58 1129.69,1246.39 1134.02,1250.14 
  1138.36,1253.84 1142.7,1257.48 1147.03,1261.06 1151.37,1264.59 1155.71,1268.07 1160.05,1271.49 1164.38,1274.86 1168.72,1278.18 1173.06,1281.45 1177.39,1284.66 
  1181.73,1287.83 1186.07,1290.94 1190.4,1294 1194.74,1297.02 1199.08,1299.98 1203.42,1302.9 1207.75,1305.76 1212.09,1308.58 1216.43,1311.36 1220.76,1314.08 
  1225.1,1316.77 1229.44,1319.4 1233.78,1321.99 1238.11,1324.54 1242.45,1327.04 1246.79,1329.5 1251.12,1331.92 1255.46,1334.29 1259.8,1336.62 1264.14,1338.91 
  1268.47,1341.16 1272.81,1343.38 1277.15,1345.55 1281.48,1347.68 1285.82,1349.77 1290.16,1351.83 1294.5,1353.84 1298.83,1355.82 1303.17,1357.77 1307.51,1359.68 
  1311.84,1361.55 1316.18,1363.39 1320.52,1365.19 1324.86,1366.96 1329.19,1368.69 1333.53,1370.4 1337.87,1372.07 1342.2,1373.7 1346.54,1375.31 1350.88,1376.88 
  1355.22,1378.43 1359.55,1379.94 1363.89,1381.43 1368.23,1382.88 1372.56,1384.31 1376.9,1385.71 1381.24,1387.08 1385.58,1388.42 1389.91,1389.74 1394.25,1391.03 
  1398.59,1392.29 1402.92,1393.53 1407.26,1394.74 1411.6,1395.93 1415.94,1397.09 1420.27,1398.23 1424.61,1399.35 1428.95,1400.44 1433.28,1401.51 1437.62,1402.56 
  1441.96,1403.59 1446.3,1404.59 1450.63,1405.57 1454.97,1406.54 1459.31,1407.48 1463.64,1408.4 1467.98,1409.3 1472.32,1410.18 1476.66,1411.05 1480.99,1411.89 
  1485.33,1412.72 1489.67,1413.52 1494,1414.32 1498.34,1415.09 1502.68,1415.84 1507.02,1416.58 1511.35,1417.31 1515.69,1418.01 1520.03,1418.71 1524.36,1419.38 
  1528.7,1420.04 1533.04,1420.69 1537.38,1421.32 1541.71,1421.93 1546.05,1422.54 1550.39,1423.13 1554.72,1423.7 1559.06,1424.26 1563.4,1424.81 1567.74,1425.35 
  1572.07,1425.87 1576.41,1426.39 1580.75,1426.89 1585.08,1427.37 1589.42,1427.85 1593.76,1428.32 1598.1,1428.77 1602.43,1429.21 1606.77,1429.65 1611.11,1430.07 
  1615.44,1430.48 1619.78,1430.89 1624.12,1431.28 1628.46,1431.66 1632.79,1432.04 1637.13,1432.4 1641.47,1432.76 1645.8,1433.11 1650.14,1433.45 1654.48,1433.78 
  1658.82,1434.1 1663.15,1434.42 1667.49,1434.72 1671.83,1435.02 1676.16,1435.31 1680.5,1435.6 1684.84,1435.88 1689.17,1436.15 1693.51,1436.41 1697.85,1436.67 
  1702.19,1436.92 1706.52,1437.16 1710.86,1437.4 1715.2,1437.63 1719.53,1437.86 1723.87,1438.08 1728.21,1438.29 1732.55,1438.5 1736.88,1438.71 1741.22,1438.91 
  1745.56,1439.1 1749.89,1439.29 1754.23,1439.47 1758.57,1439.65 1762.91,1439.82 1767.24,1439.99 1771.58,1440.16 1775.92,1440.32 1780.25,1440.47 1784.59,1440.62 
  1788.93,1440.77 1793.27,1440.92 1797.6,1441.06 1801.94,1441.19 1806.28,1441.33 1810.61,1441.45 1814.95,1441.58 1819.29,1441.7 1823.63,1441.82 1827.96,1441.94 
  1832.3,1442.05 1836.64,1442.16 1840.97,1442.26 1845.31,1442.37 1849.65,1442.47 1853.99,1442.57 1858.32,1442.66 1862.66,1442.75 1867,1442.84 1871.33,1442.93 
  1875.67,1443.01 1880.01,1443.1 1884.35,1443.18 1888.68,1443.26 1893.02,1443.33 1897.36,1443.4 1901.69,1443.48 1906.03,1443.54 1910.37,1443.61 1914.71,1443.68 
  1919.04,1443.74 1923.38,1443.8 1927.72,1443.86 1932.05,1443.92 1936.39,1443.98 1940.73,1444.03 1945.07,1444.08 1949.4,1444.14 1953.74,1444.19 1958.08,1444.23 
  1962.41,1444.28 1966.75,1444.33 1971.09,1444.37 1975.43,1444.42 1979.76,1444.46 1984.1,1444.5 1988.44,1444.54 1992.77,1444.58 1997.11,1444.61 2001.45,1444.65 
  2005.79,1444.68 2010.12,1444.72 2014.46,1444.75 2018.8,1444.78 2023.13,1444.81 2027.47,1444.84 2031.81,1444.87 2036.15,1444.9 2040.48,1444.93 2044.82,1444.95 
  2049.16,1444.98 2053.49,1445 2057.83,1445.03 2062.17,1445.05 2066.51,1445.07 2070.84,1445.09 2075.18,1445.11 2079.52,1445.13 2083.85,1445.15 2088.19,1445.17 
  2092.53,1445.19 2096.87,1445.21 2101.2,1445.23 2105.54,1445.24 2109.88,1445.26 2114.21,1445.28 2118.55,1445.29 2122.89,1445.31 2127.23,1445.32 2131.56,1445.33 
  2135.9,1445.35 2140.24,1445.36 2144.57,1445.37 2148.91,1445.38 2153.25,1445.4 2157.59,1445.41 2161.92,1445.42 2166.26,1445.43 2170.6,1445.44 2174.93,1445.45 
  2179.27,1445.46 2183.61,1445.47 2187.94,1445.48 2192.28,1445.49 2196.62,1445.49 2200.96,1445.5 2205.29,1445.51 2209.63,1445.52 2213.97,1445.52 2218.3,1445.53 
  2222.64,1445.54 2226.98,1445.54 2231.32,1445.55 2235.65,1445.56 2239.99,1445.56 2244.33,1445.57 2248.66,1445.57 2253,1445.58 2257.34,1445.58 2261.68,1445.59 
  2266.01,1445.59 2270.35,1445.6 2274.69,1445.6 2279.02,1445.61 2283.36,1445.61 2287.7,1445.61 2292.04,1445.62 2296.37,1445.62 2300.71,1445.63 2305.05,1445.63 
  2309.38,1445.63 2313.72,1445.64 2318.06,1445.64 2322.4,1445.64 2326.73,1445.64 2331.07,1445.65 2335.41,1445.65 2339.74,1445.65 2344.08,1445.66 2348.42,1445.66 
  2352.76,1445.66 2357.09,1445.66 2361.43,1445.66 2365.77,1445.67 2370.1,1445.67 2374.44,1445.67 2378.78,1445.67 2383.12,1445.67 2387.45,1445.68 2391.79,1445.68 
  2396.13,1445.68 2400.46,1445.68 2404.8,1445.68 2409.14,1445.68 2413.48,1445.68 2417.81,1445.69 2422.15,1445.69 2426.49,1445.69 2430.82,1445.69 2435.16,1445.69 
  2439.5,1445.69 2443.84,1445.69 2448.17,1445.69 2452.51,1445.69 2456.85,1445.69 2461.18,1445.7 2465.52,1445.7 2469.86,1445.7 2474.2,1445.7 2478.53,1445.7 
  2482.87,1445.7 2487.21,1445.7 2491.54,1445.7 2495.88,1445.7 2500.22,1445.7 2504.56,1445.7 2508.89,1445.7 2513.23,1445.7 2517.57,1445.7 2521.9,1445.7 
  2526.24,1445.71 2530.58,1445.71 2534.92,1445.71 2539.25,1445.71 2543.59,1445.71 2547.93,1445.71 2552.26,1445.71 2556.6,1445.71 2560.94,1445.71 2565.28,1445.71 
  2569.61,1445.71 2573.95,1445.71 2578.29,1445.71 2582.62,1445.71 2586.96,1445.71 2591.3,1445.71 2595.64,1445.71 2599.97,1445.71 2604.31,1445.71 2608.65,1445.71 
  2612.98,1445.71 2617.32,1445.71 2621.66,1445.71 2626,1445.71 2630.33,1445.71 2634.67,1445.71 2639.01,1445.71 2643.34,1445.71 2647.68,1445.71 2652.02,1445.71 
  2656.36,1445.71 2660.69,1445.71 2665.03,1445.71 2669.37,1445.71 2673.7,1445.71 2678.04,1445.71 2682.38,1445.71 2686.71,1445.71 2691.05,1445.71 2695.39,1445.71 
  2699.73,1445.71 2704.06,1445.71 2708.4,1445.71 2712.74,1445.71 2717.07,1445.71 2721.41,1445.71 2725.75,1445.71 2730.09,1445.71 2734.42,1445.71 2738.76,1445.71 
  2743.1,1445.71 2747.43,1445.71 2751.77,1445.71 2756.11,1445.71 2760.45,1445.71 2764.78,1445.71 2769.12,1445.71 2773.46,1445.71 2777.79,1445.72 2782.13,1445.72 
  2786.47,1445.72 2790.81,1445.72 2795.14,1445.72 2799.48,1445.72 2803.82,1445.72 2808.15,1445.72 2812.49,1445.72 2816.83,1445.72 2821.17,1445.72 2825.5,1445.72 
  2829.84,1445.72 2834.18,1445.72 2838.51,1445.72 2842.85,1445.72 2847.19,1445.72 2851.53,1445.72 2855.86,1445.72 2860.2,1445.72 2864.54,1445.72 2868.87,1445.72 
  2873.21,1445.72 2877.55,1445.72 2881.89,1445.72 2886.22,1445.72 2890.56,1445.72 2894.9,1445.72 2899.23,1445.72 2903.57,1445.72 2907.91,1445.72 2912.25,1445.72 
  2916.58,1445.72 2920.92,1445.72 2925.26,1445.72 2929.59,1445.72 2933.93,1445.72 2938.27,1445.72 2942.61,1445.72 2946.94,1445.72 2951.28,1445.72 2955.62,1445.72 
  2959.95,1445.72 2964.29,1445.72 2968.63,1445.72 2972.97,1445.72 2977.3,1445.72 2981.64,1445.72 2985.98,1445.72 2990.31,1445.72 2994.65,1445.72 2998.99,1445.72 
  3003.33,1445.72 3007.66,1445.72 3012,1445.72 3016.34,1445.72 3020.67,1445.72 3025.01,1445.72 3029.35,1445.72 3033.69,1445.72 3038.02,1445.72 3042.36,1445.72 
  3046.7,1445.72 3051.03,1445.72 3055.37,1445.72 3059.71,1445.72 3064.05,1445.72 3068.38,1445.72 3072.72,1445.72 3077.06,1445.72 3081.39,1445.72 3085.73,1445.72 
  3090.07,1445.72 3094.41,1445.72 3098.74,1445.72 3103.08,1445.72 3107.42,1445.72 3111.75,1445.72 3116.09,1445.72 3120.43,1445.72 3124.77,1445.72 3129.1,1445.72 
  3133.44,1445.72 3137.78,1445.72 3142.11,1445.72 3146.45,1445.72 3150.79,1445.72 3155.13,1445.72 3159.46,1445.72 3163.8,1445.72 3168.14,1445.72 3172.47,1445.72 
  3176.81,1445.72 3181.15,1445.72 3185.48,1445.72 3189.82,1445.72 3194.16,1445.72 3198.5,1445.72 3202.83,1445.72 3207.17,1445.72 3211.51,1445.72 3215.84,1445.72 
  3220.18,1445.72 3224.52,1445.72 3228.86,1445.72 3233.19,1445.72 3237.53,1445.72 3241.87,1445.72 3246.2,1445.72 3250.54,1445.72 3254.88,1445.72 3259.22,1445.72 
  3263.55,1445.72 3267.89,1445.72 3272.23,1445.72 3276.56,1445.72 3280.9,1445.72 3285.24,1445.72 3289.58,1445.72 3293.91,1445.72 3298.25,1445.72 3302.59,1445.72 
  3306.92,1445.72 3311.26,1445.72 3315.6,1445.72 3319.94,1445.72 3324.27,1445.72 3328.61,1445.72 3332.95,1445.72 3337.28,1445.72 3341.62,1445.72 3345.96,1445.72 
  3350.3,1445.72 3354.63,1445.72 3358.97,1445.72 3363.31,1445.72 3367.64,1445.72 3371.98,1445.72 3376.32,1445.72 3380.66,1445.72 3384.99,1445.72 3389.33,1445.72 
  3393.67,1445.72 3398,1445.72 3402.34,1445.72 3406.68,1445.72 3411.02,1445.72 3415.35,1445.72 3419.69,1445.72 3424.03,1445.72 3428.36,1445.72 3432.7,1445.72 
  3437.04,1445.72 3441.38,1445.72 3445.71,1445.72 3450.05,1445.72 3454.39,1445.72 3458.72,1445.72 3463.06,1445.72 3467.4,1445.72 3471.74,1445.72 3476.07,1445.72 
  3480.41,1445.72 3484.75,1445.72 3489.08,1445.72 3493.42,1445.72 3497.76,1445.72 3502.1,1445.72 3506.43,1445.72 3510.77,1445.72 3515.11,1445.72 3519.44,1445.72 
  3523.78,1445.72 3528.12,1445.72 3532.46,1445.72 3536.79,1445.72 3541.13,1445.72 3545.47,1445.72 3549.8,1445.72 3554.14,1445.72 3558.48,1445.72 3562.82,1445.72 
  3567.15,1445.72 3571.49,1445.72 3575.83,1445.72 3580.16,1445.72 3584.5,1445.72 3588.84,1445.72 3593.18,1445.72 3597.51,1445.72 3601.85,1445.72 3606.19,1445.72 
  3610.52,1445.72 3614.86,1445.72 3619.2,1445.72 3623.54,1445.72 3627.87,1445.72 3632.21,1445.72 3636.55,1445.72 3640.88,1445.72 3645.22,1445.72 3649.56,1445.72 
  3653.9,1445.72 3658.23,1445.72 3662.57,1445.72 3666.91,1445.72 3671.24,1445.72 3675.58,1445.72 3679.92,1445.72 3684.25,1445.72 3688.59,1445.72 3692.93,1445.72 
  3697.27,1445.72 3701.6,1445.72 3705.94,1445.72 3710.28,1445.72 3714.61,1445.72 3718.95,1445.72 3723.29,1445.72 3727.63,1445.72 3731.96,1445.72 3736.3,1445.72 
  3740.64,1445.72 3744.97,1445.72 3749.31,1445.72 3753.65,1445.72 3757.99,1445.72 3762.32,1445.72 3766.66,1445.72 3771,1445.72 3775.33,1445.72 3779.67,1445.72 
  3784.01,1445.72 3788.35,1445.72 3792.68,1445.72 3797.02,1445.72 3801.36,1445.72 3805.69,1445.72 3810.03,1445.72 3814.37,1445.72 3818.71,1445.72 3823.04,1445.72 
  3827.38,1445.72 3831.72,1445.72 3836.05,1445.72 3840.39,1445.72 3844.73,1445.72 3849.07,1445.72 3853.4,1445.72 3857.74,1445.72 3862.08,1445.72 3866.41,1445.72 
  3870.75,1445.72 3875.09,1445.72 3879.43,1445.72 3883.76,1445.72 3888.1,1445.72 3892.44,1445.72 3896.77,1445.72 3901.11,1445.72 3905.45,1445.72 3909.79,1445.72 
  3914.12,1445.72 3918.46,1445.72 3922.8,1445.72 3927.13,1445.72 3931.47,1445.72 3935.81,1445.72 3940.15,1445.72 3944.48,1445.72 3948.82,1445.72 3953.16,1445.72 
  3957.49,1445.72 3961.83,1445.72 3966.17,1445.72 3970.51,1445.72 3974.84,1445.72 3979.18,1445.72 3983.52,1445.72 3987.85,1445.72 3992.19,1445.72 3996.53,1445.72 
  4000.87,1445.72 4005.2,1445.72 4009.54,1445.72 4013.88,1445.72 4018.21,1445.72 4022.55,1445.72 4026.89,1445.72 4031.23,1445.72 4035.56,1445.72 4039.9,1445.72 
  4044.24,1445.72 4048.57,1445.72 4052.91,1445.72 4057.25,1445.72 4061.59,1445.72 4065.92,1445.72 4070.26,1445.72 4074.6,1445.72 4078.93,1445.72 4083.27,1445.72 
  4087.61,1445.72 4091.95,1445.72 4096.28,1445.72 4100.62,1445.72 4104.96,1445.72 4109.29,1445.72 4113.63,1445.72 4117.97,1445.72 4122.31,1445.72 4126.64,1445.72 
  4130.98,1445.72 4135.32,1445.72 4139.65,1445.72 4143.99,1445.72 4148.33,1445.72 4152.67,1445.72 4157,1445.72 4161.34,1445.72 4165.68,1445.72 4170.01,1445.72 
  4174.35,1445.72 4178.69,1445.72 4183.02,1445.72 4187.36,1445.72 4191.7,1445.72 4196.04,1445.72 4200.37,1445.72 4204.71,1445.72 4209.05,1445.72 4213.38,1445.72 
  4217.72,1445.72 4222.06,1445.72 4226.4,1445.72 4230.73,1445.72 4235.07,1445.72 4239.41,1445.72 4243.74,1445.72 4248.08,1445.72 4252.42,1445.72 4256.76,1445.72 
  4261.09,1445.72 4265.43,1445.72 4269.77,1445.72 4274.1,1445.72 4278.44,1445.72 4282.78,1445.72 4287.12,1445.72 4291.45,1445.72 4295.79,1445.72 4300.13,1445.72 
  4304.46,1445.72 4308.8,1445.72 4313.14,1445.72 4317.48,1445.72 4321.81,1445.72 4326.15,1445.72 4330.49,1445.72 4334.82,1445.72 4339.16,1445.72 4343.5,1445.72 
  4347.84,1445.72 4352.17,1445.72 4356.51,1445.72 4360.85,1445.72 4365.18,1445.72 4369.52,1445.72 4373.86,1445.72 4378.2,1445.72 4382.53,1445.72 4386.87,1445.72 
  4391.21,1445.72 4395.54,1445.72 4399.88,1445.72 4404.22,1445.72 4408.56,1445.72 4412.89,1445.72 4417.23,1445.72 4421.57,1445.72 4425.9,1445.72 4430.24,1445.72 
  4434.58,1445.72 4438.92,1445.72 4443.25,1445.72 4447.59,1445.72 4451.93,1445.72 4456.26,1445.72 4460.6,1445.72 4464.94,1445.72 4469.28,1445.72 4473.61,1445.72 
  4477.95,1445.72 4482.29,1445.72 4486.62,1445.72 4490.96,1445.72 4495.3,1445.72 4499.64,1445.72 4503.97,1445.72 4508.31,1445.72 4512.65,1445.72 4516.98,1445.72 
  4521.32,1445.72 
  "/>
<polyline clip-path="url(#clip352)" style="stroke:#3da44d; stroke-linecap:butt; stroke-linejoin:round; stroke-width:12; stroke-opacity:1; fill:none" points="
  83.562,1445.71 92.3811,1445.71 101.2,1445.7 110.019,1445.67 118.838,1445.57 127.658,1445.34 136.477,1444.81 145.296,1443.67 154.115,1441.4 162.934,1437.21 
  171.753,1429.99 180.572,1418.35 189.391,1400.76 198.21,1375.76 207.029,1342.32 215.849,1300.13 224.668,1249.75 233.487,1192.56 242.306,1130.48 251.125,1065.59 
  259.944,999.717 268.763,934.222 277.582,869.924 286.401,807.161 295.221,745.968 304.04,686.334 312.859,628.406 321.678,572.537 330.497,519.123 339.316,468.348 
  348.135,420.018 356.954,373.618 365.773,328.622 374.592,284.874 383.412,242.858 392.231,203.708 401.05,168.987 409.869,140.343 418.688,119.18 427.507,106.386 
  436.326,102.123 445.145,105.742 453.964,115.925 462.784,131.049 471.603,149.626 480.422,170.549 489.241,193.03 498.06,216.336 506.879,239.603 515.698,261.92 
  524.517,282.62 533.336,301.57 542.156,319.243 550.975,336.526 559.794,354.391 568.613,373.637 577.432,394.818 586.251,418.32 595.07,444.46 603.889,473.46 
  612.708,505.3 621.527,539.539 630.347,575.255 639.166,611.18 647.985,645.992 656.804,678.64 665.623,708.557 674.442,735.705 683.261,760.444 692.08,783.314 
  700.899,804.792 709.719,825.09 718.538,844.057 727.357,861.259 736.176,876.264 744.995,889.014 753.814,900.086 762.633,910.671 771.452,922.246 780.271,936.122 
  789.09,953.099 797.91,973.322 806.729,996.361 815.548,1021.37 824.367,1047.3 833.186,1073.04 842.005,1097.58 850.824,1120.19 859.643,1140.49 868.462,1158.56 
  877.282,1174.87 886.101,1190.09 894.92,1204.84 903.739,1219.49 912.558,1234.07 921.377,1248.31 930.196,1261.81 939.015,1274.14 947.834,1284.96 956.654,1294.06 
  965.473,1301.39 974.292,1307.08 983.111,1311.48 991.93,1315.1 1000.75,1318.56 1009.57,1322.49 1018.39,1327.36 1027.21,1333.35 1036.03,1340.27 1044.84,1347.65 
  1053.66,1354.89 1062.48,1361.56 1071.3,1367.48 1080.12,1372.67 1088.94,1377.22 1097.76,1381.19 1106.58,1384.53 1115.4,1387.24 1124.22,1389.36 1133.04,1391.07 
  1141.85,1392.62 1150.67,1394.24 1159.49,1396.09 1168.31,1398.21 1177.13,1400.53 1185.95,1402.93 1194.77,1405.26 1203.59,1407.41 1212.41,1409.32 1221.23,1410.99 
  1230.05,1412.48 1238.86,1413.87 1247.68,1415.27 1256.5,1416.81 1265.32,1418.64 1274.14,1420.87 1282.96,1423.48 1291.78,1426.29 1300.6,1428.96 1309.42,1431.14 
  1318.24,1432.56 1327.06,1433.21 1335.88,1433.3 1344.69,1433.21 1353.51,1433.3 1362.33,1433.82 1371.15,1434.8 1379.97,1436.13 1388.79,1437.59 1397.61,1438.96 
  1406.43,1440.12 1415.25,1440.99 1424.07,1441.55 1432.89,1441.82 1441.7,1441.82 1450.52,1441.55 1459.34,1441.06 1468.16,1440.43 1476.98,1439.76 1485.8,1439.2 
  1494.62,1438.84 1503.44,1438.75 1512.26,1438.96 1521.08,1439.43 1529.9,1440.12 1538.71,1440.96 1547.53,1441.86 1556.35,1442.75 1565.17,1443.55 1573.99,1444.23 
  1582.81,1444.76 1591.63,1445.14 1600.45,1445.39 1609.27,1445.55 1618.09,1445.63 1626.91,1445.68 1635.72,1445.69 1644.54,1445.69 1653.36,1445.66 1662.18,1445.59 
  1671,1445.48 1679.82,1445.3 1688.64,1445.04 1697.46,1444.74 1706.28,1444.43 1715.1,1444.19 1723.92,1444.06 1732.73,1444.09 1741.55,1444.27 1750.37,1444.55 
  1759.19,1444.86 1768.01,1445.14 1776.83,1445.37 1785.65,1445.53 1794.47,1445.62 1803.29,1445.67 1812.11,1445.7 1820.93,1445.71 1829.75,1445.71 1838.56,1445.71 
  
  "/>
<path clip-path="url(#clip350)" d="
M1822.53 302.578 L2280.47 302.578 L2280.47 95.2176 L1822.53 95.2176  Z
  " fill="#ffffff" fill-rule="evenodd" fill-opacity="1"/>
<polyline clip-path="url(#clip350)" style="stroke:#000000; stroke-linecap:butt; stroke-linejoin:round; stroke-width:4; stroke-opacity:1; fill:none" points="
  1822.53,302.578 2280.47,302.578 2280.47,95.2176 1822.53,95.2176 1822.53,302.578 
  "/>
<polyline clip-path="url(#clip350)" style="stroke:#009af9; stroke-linecap:butt; stroke-linejoin:round; stroke-width:4; stroke-opacity:1; fill:none" points="
  1846.62,147.058 1991.2,147.058 
  "/>
<path clip-path="url(#clip350)" d="M2019.57 160.449 L2019.57 174.199 L2015.29 174.199 L2015.29 138.412 L2019.57 138.412 L2019.57 142.347 Q2020.92 140.032 2022.95 138.921 Q2025.01 137.787 2027.86 137.787 Q2032.58 137.787 2035.52 141.537 Q2038.48 145.287 2038.48 151.398 Q2038.48 157.509 2035.52 161.259 Q2032.58 165.009 2027.86 165.009 Q2025.01 165.009 2022.95 163.898 Q2020.92 162.763 2019.57 160.449 M2034.06 151.398 Q2034.06 146.699 2032.12 144.037 Q2030.2 141.352 2026.82 141.352 Q2023.44 141.352 2021.49 144.037 Q2019.57 146.699 2019.57 151.398 Q2019.57 156.097 2021.49 158.782 Q2023.44 161.444 2026.82 161.444 Q2030.2 161.444 2032.12 158.782 Q2034.06 156.097 2034.06 151.398 Z" fill="#000000" fill-rule="evenodd" fill-opacity="1" /><path clip-path="url(#clip350)" d="M2060.57 142.393 Q2059.85 141.977 2058.99 141.791 Q2058.16 141.583 2057.14 141.583 Q2053.53 141.583 2051.59 143.944 Q2049.67 146.282 2049.67 150.68 L2049.67 164.338 L2045.38 164.338 L2045.38 138.412 L2049.67 138.412 L2049.67 142.44 Q2051.01 140.078 2053.16 138.944 Q2055.31 137.787 2058.39 137.787 Q2058.83 137.787 2059.36 137.856 Q2059.9 137.903 2060.54 138.018 L2060.57 142.393 Z" fill="#000000" fill-rule="evenodd" fill-opacity="1" /><path clip-path="url(#clip350)" d="M2065.04 138.412 L2069.29 138.412 L2069.29 164.338 L2065.04 164.338 L2065.04 138.412 M2065.04 128.319 L2069.29 128.319 L2069.29 133.713 L2065.04 133.713 L2065.04 128.319 Z" fill="#000000" fill-rule="evenodd" fill-opacity="1" /><path clip-path="url(#clip350)" d="M2088.25 141.398 Q2084.83 141.398 2082.84 144.083 Q2080.85 146.745 2080.85 151.398 Q2080.85 156.051 2082.81 158.736 Q2084.8 161.398 2088.25 161.398 Q2091.66 161.398 2093.65 158.713 Q2095.64 156.027 2095.64 151.398 Q2095.64 146.791 2093.65 144.106 Q2091.66 141.398 2088.25 141.398 M2088.25 137.787 Q2093.81 137.787 2096.98 141.398 Q2100.15 145.009 2100.15 151.398 Q2100.15 157.764 2096.98 161.398 Q2093.81 165.009 2088.25 165.009 Q2082.67 165.009 2079.5 161.398 Q2076.35 157.764 2076.35 151.398 Q2076.35 145.009 2079.5 141.398 Q2082.67 137.787 2088.25 137.787 Z" fill="#000000" fill-rule="evenodd" fill-opacity="1" /><path clip-path="url(#clip350)" d="M2122.23 142.393 Q2121.52 141.977 2120.66 141.791 Q2119.83 141.583 2118.81 141.583 Q2115.2 141.583 2113.25 143.944 Q2111.33 146.282 2111.33 150.68 L2111.33 164.338 L2107.05 164.338 L2107.05 138.412 L2111.33 138.412 L2111.33 142.44 Q2112.67 140.078 2114.83 138.944 Q2116.98 137.787 2120.06 137.787 Q2120.5 137.787 2121.03 137.856 Q2121.56 137.903 2122.21 138.018 L2122.23 142.393 Z" fill="#000000" fill-rule="evenodd" fill-opacity="1" /><polyline clip-path="url(#clip350)" style="stroke:#e26f46; stroke-linecap:butt; stroke-linejoin:round; stroke-width:4; stroke-opacity:1; fill:none" points="
  1846.62,198.898 1991.2,198.898 
  "/>
<path clip-path="url(#clip350)" d="M2015.29 180.159 L2019.55 180.159 L2019.55 216.178 L2015.29 216.178 L2015.29 180.159 Z" fill="#000000" fill-rule="evenodd" fill-opacity="1" /><path clip-path="url(#clip350)" d="M2028.46 190.252 L2032.72 190.252 L2032.72 216.178 L2028.46 216.178 L2028.46 190.252 M2028.46 180.159 L2032.72 180.159 L2032.72 185.553 L2028.46 185.553 L2028.46 180.159 Z" fill="#000000" fill-rule="evenodd" fill-opacity="1" /><path clip-path="url(#clip350)" d="M2041.47 180.159 L2045.75 180.159 L2045.75 201.432 L2058.46 190.252 L2063.9 190.252 L2050.15 202.381 L2064.48 216.178 L2058.92 216.178 L2045.75 203.516 L2045.75 216.178 L2041.47 216.178 L2041.47 180.159 Z" fill="#000000" fill-rule="evenodd" fill-opacity="1" /><path clip-path="url(#clip350)" d="M2089.57 202.15 L2089.57 204.233 L2069.99 204.233 Q2070.27 208.631 2072.63 210.946 Q2075.01 213.238 2079.25 213.238 Q2081.7 213.238 2083.99 212.636 Q2086.31 212.034 2088.58 210.83 L2088.58 214.858 Q2086.29 215.83 2083.88 216.34 Q2081.47 216.849 2078.99 216.849 Q2072.79 216.849 2069.16 213.238 Q2065.54 209.627 2065.54 203.469 Q2065.54 197.104 2068.97 193.377 Q2072.42 189.627 2078.25 189.627 Q2083.48 189.627 2086.52 193.006 Q2089.57 196.363 2089.57 202.15 M2085.31 200.9 Q2085.27 197.405 2083.35 195.321 Q2081.45 193.238 2078.3 193.238 Q2074.73 193.238 2072.58 195.252 Q2070.45 197.266 2070.13 200.923 L2085.31 200.9 Z" fill="#000000" fill-rule="evenodd" fill-opacity="1" /><path clip-path="url(#clip350)" d="M2096.56 180.159 L2100.82 180.159 L2100.82 216.178 L2096.56 216.178 L2096.56 180.159 Z" fill="#000000" fill-rule="evenodd" fill-opacity="1" /><path clip-path="url(#clip350)" d="M2109.73 190.252 L2113.99 190.252 L2113.99 216.178 L2109.73 216.178 L2109.73 190.252 M2109.73 180.159 L2113.99 180.159 L2113.99 185.553 L2109.73 185.553 L2109.73 180.159 Z" fill="#000000" fill-rule="evenodd" fill-opacity="1" /><path clip-path="url(#clip350)" d="M2144.46 200.529 L2144.46 216.178 L2140.2 216.178 L2140.2 200.668 Q2140.2 196.988 2138.76 195.159 Q2137.33 193.33 2134.46 193.33 Q2131.01 193.33 2129.02 195.53 Q2127.03 197.729 2127.03 201.525 L2127.03 216.178 L2122.74 216.178 L2122.74 180.159 L2127.03 180.159 L2127.03 194.28 Q2128.55 191.942 2130.61 190.784 Q2132.7 189.627 2135.41 189.627 Q2139.87 189.627 2142.16 192.405 Q2144.46 195.159 2144.46 200.529 Z" fill="#000000" fill-rule="evenodd" fill-opacity="1" /><path clip-path="url(#clip350)" d="M2163 193.238 Q2159.57 193.238 2157.58 195.923 Q2155.59 198.585 2155.59 203.238 Q2155.59 207.891 2157.56 210.576 Q2159.55 213.238 2163 213.238 Q2166.4 213.238 2168.39 210.553 Q2170.38 207.867 2170.38 203.238 Q2170.38 198.631 2168.39 195.946 Q2166.4 193.238 2163 193.238 M2163 189.627 Q2168.55 189.627 2171.72 193.238 Q2174.9 196.849 2174.9 203.238 Q2174.9 209.604 2171.72 213.238 Q2168.55 216.849 2163 216.849 Q2157.42 216.849 2154.25 213.238 Q2151.1 209.604 2151.1 203.238 Q2151.1 196.849 2154.25 193.238 Q2157.42 189.627 2163 189.627 Z" fill="#000000" fill-rule="evenodd" fill-opacity="1" /><path clip-path="url(#clip350)" d="M2192 193.238 Q2188.58 193.238 2186.59 195.923 Q2184.6 198.585 2184.6 203.238 Q2184.6 207.891 2186.56 210.576 Q2188.55 213.238 2192 213.238 Q2195.41 213.238 2197.4 210.553 Q2199.39 207.867 2199.39 203.238 Q2199.39 198.631 2197.4 195.946 Q2195.41 193.238 2192 193.238 M2192 189.627 Q2197.56 189.627 2200.73 193.238 Q2203.9 196.849 2203.9 203.238 Q2203.9 209.604 2200.73 213.238 Q2197.56 216.849 2192 216.849 Q2186.42 216.849 2183.25 213.238 Q2180.1 209.604 2180.1 203.238 Q2180.1 196.849 2183.25 193.238 Q2186.42 189.627 2192 189.627 Z" fill="#000000" fill-rule="evenodd" fill-opacity="1" /><path clip-path="url(#clip350)" d="M2228.02 194.187 L2228.02 180.159 L2232.28 180.159 L2232.28 216.178 L2228.02 216.178 L2228.02 212.289 Q2226.68 214.603 2224.62 215.738 Q2222.58 216.849 2219.71 216.849 Q2215.01 216.849 2212.05 213.099 Q2209.11 209.349 2209.11 203.238 Q2209.11 197.127 2212.05 193.377 Q2215.01 189.627 2219.71 189.627 Q2222.58 189.627 2224.62 190.761 Q2226.68 191.872 2228.02 194.187 M2213.51 203.238 Q2213.51 207.937 2215.43 210.622 Q2217.37 213.284 2220.75 213.284 Q2224.13 213.284 2226.08 210.622 Q2228.02 207.937 2228.02 203.238 Q2228.02 198.539 2226.08 195.877 Q2224.13 193.192 2220.75 193.192 Q2217.37 193.192 2215.43 195.877 Q2213.51 198.539 2213.51 203.238 Z" fill="#000000" fill-rule="evenodd" fill-opacity="1" /><polyline clip-path="url(#clip350)" style="stroke:#3da44d; stroke-linecap:butt; stroke-linejoin:round; stroke-width:4; stroke-opacity:1; fill:none" points="
  1846.62,250.738 1991.2,250.738 
  "/>
<path clip-path="url(#clip350)" d="M2019.57 264.129 L2019.57 277.879 L2015.29 277.879 L2015.29 242.092 L2019.57 242.092 L2019.57 246.027 Q2020.92 243.712 2022.95 242.601 Q2025.01 241.467 2027.86 241.467 Q2032.58 241.467 2035.52 245.217 Q2038.48 248.967 2038.48 255.078 Q2038.48 261.189 2035.52 264.939 Q2032.58 268.689 2027.86 268.689 Q2025.01 268.689 2022.95 267.578 Q2020.92 266.443 2019.57 264.129 M2034.06 255.078 Q2034.06 250.379 2032.12 247.717 Q2030.2 245.032 2026.82 245.032 Q2023.44 245.032 2021.49 247.717 Q2019.57 250.379 2019.57 255.078 Q2019.57 259.777 2021.49 262.462 Q2023.44 265.124 2026.82 265.124 Q2030.2 265.124 2032.12 262.462 Q2034.06 259.777 2034.06 255.078 Z" fill="#000000" fill-rule="evenodd" fill-opacity="1" /><path clip-path="url(#clip350)" d="M2055.59 245.078 Q2052.17 245.078 2050.17 247.763 Q2048.18 250.425 2048.18 255.078 Q2048.18 259.731 2050.15 262.416 Q2052.14 265.078 2055.59 265.078 Q2058.99 265.078 2060.98 262.393 Q2062.98 259.707 2062.98 255.078 Q2062.98 250.471 2060.98 247.786 Q2058.99 245.078 2055.59 245.078 M2055.59 241.467 Q2061.15 241.467 2064.32 245.078 Q2067.49 248.689 2067.49 255.078 Q2067.49 261.444 2064.32 265.078 Q2061.15 268.689 2055.59 268.689 Q2050.01 268.689 2046.84 265.078 Q2043.69 261.444 2043.69 255.078 Q2043.69 248.689 2046.84 245.078 Q2050.01 241.467 2055.59 241.467 Z" fill="#000000" fill-rule="evenodd" fill-opacity="1" /><path clip-path="url(#clip350)" d="M2091.08 242.856 L2091.08 246.883 Q2089.27 245.957 2087.33 245.495 Q2085.38 245.032 2083.3 245.032 Q2080.13 245.032 2078.53 246.004 Q2076.96 246.976 2076.96 248.92 Q2076.96 250.402 2078.09 251.258 Q2079.23 252.092 2082.65 252.856 L2084.11 253.18 Q2088.65 254.152 2090.54 255.934 Q2092.47 257.694 2092.47 260.865 Q2092.47 264.476 2089.6 266.582 Q2086.75 268.689 2081.75 268.689 Q2079.67 268.689 2077.4 268.272 Q2075.15 267.879 2072.65 267.068 L2072.65 262.67 Q2075.01 263.897 2077.3 264.522 Q2079.6 265.124 2081.84 265.124 Q2084.85 265.124 2086.47 264.106 Q2088.09 263.064 2088.09 261.189 Q2088.09 259.453 2086.91 258.527 Q2085.75 257.601 2081.79 256.744 L2080.31 256.397 Q2076.35 255.564 2074.6 253.851 Q2072.84 252.115 2072.84 249.106 Q2072.84 245.448 2075.43 243.458 Q2078.02 241.467 2082.79 241.467 Q2085.15 241.467 2087.23 241.814 Q2089.32 242.161 2091.08 242.856 Z" fill="#000000" fill-rule="evenodd" fill-opacity="1" /><path clip-path="url(#clip350)" d="M2103.46 234.731 L2103.46 242.092 L2112.23 242.092 L2112.23 245.402 L2103.46 245.402 L2103.46 259.476 Q2103.46 262.647 2104.32 263.55 Q2105.2 264.453 2107.86 264.453 L2112.23 264.453 L2112.23 268.018 L2107.86 268.018 Q2102.93 268.018 2101.05 266.189 Q2099.18 264.337 2099.18 259.476 L2099.18 245.402 L2096.05 245.402 L2096.05 242.092 L2099.18 242.092 L2099.18 234.731 L2103.46 234.731 Z" fill="#000000" fill-rule="evenodd" fill-opacity="1" /><path clip-path="url(#clip350)" d="M2140.01 253.99 L2140.01 256.073 L2120.43 256.073 Q2120.71 260.471 2123.07 262.786 Q2125.45 265.078 2129.69 265.078 Q2132.14 265.078 2134.43 264.476 Q2136.75 263.874 2139.02 262.67 L2139.02 266.698 Q2136.73 267.67 2134.32 268.18 Q2131.91 268.689 2129.43 268.689 Q2123.23 268.689 2119.6 265.078 Q2115.98 261.467 2115.98 255.309 Q2115.98 248.944 2119.41 245.217 Q2122.86 241.467 2128.69 241.467 Q2133.92 241.467 2136.96 244.846 Q2140.01 248.203 2140.01 253.99 M2135.75 252.74 Q2135.71 249.245 2133.79 247.161 Q2131.89 245.078 2128.74 245.078 Q2125.17 245.078 2123.02 247.092 Q2120.89 249.106 2120.57 252.763 L2135.75 252.74 Z" fill="#000000" fill-rule="evenodd" fill-opacity="1" /><path clip-path="url(#clip350)" d="M2162.03 246.073 Q2161.31 245.657 2160.45 245.471 Q2159.62 245.263 2158.6 245.263 Q2154.99 245.263 2153.04 247.624 Q2151.12 249.962 2151.12 254.36 L2151.12 268.018 L2146.84 268.018 L2146.84 242.092 L2151.12 242.092 L2151.12 246.12 Q2152.47 243.758 2154.62 242.624 Q2156.77 241.467 2159.85 241.467 Q2160.29 241.467 2160.82 241.536 Q2161.35 241.583 2162 241.698 L2162.03 246.073 Z" fill="#000000" fill-rule="evenodd" fill-opacity="1" /><path clip-path="url(#clip350)" d="M2166.49 242.092 L2170.75 242.092 L2170.75 268.018 L2166.49 268.018 L2166.49 242.092 M2166.49 231.999 L2170.75 231.999 L2170.75 237.393 L2166.49 237.393 L2166.49 231.999 Z" fill="#000000" fill-rule="evenodd" fill-opacity="1" /><path clip-path="url(#clip350)" d="M2189.71 245.078 Q2186.28 245.078 2184.29 247.763 Q2182.3 250.425 2182.3 255.078 Q2182.3 259.731 2184.27 262.416 Q2186.26 265.078 2189.71 265.078 Q2193.11 265.078 2195.1 262.393 Q2197.1 259.707 2197.1 255.078 Q2197.1 250.471 2195.1 247.786 Q2193.11 245.078 2189.71 245.078 M2189.71 241.467 Q2195.27 241.467 2198.44 245.078 Q2201.61 248.689 2201.61 255.078 Q2201.61 261.444 2198.44 265.078 Q2195.27 268.689 2189.71 268.689 Q2184.13 268.689 2180.96 265.078 Q2177.81 261.444 2177.81 255.078 Q2177.81 248.689 2180.96 245.078 Q2184.13 241.467 2189.71 241.467 Z" fill="#000000" fill-rule="evenodd" fill-opacity="1" /><path clip-path="url(#clip350)" d="M2223.69 246.073 Q2222.97 245.657 2222.12 245.471 Q2221.28 245.263 2220.27 245.263 Q2216.66 245.263 2214.71 247.624 Q2212.79 249.962 2212.79 254.36 L2212.79 268.018 L2208.51 268.018 L2208.51 242.092 L2212.79 242.092 L2212.79 246.12 Q2214.13 243.758 2216.28 242.624 Q2218.44 241.467 2221.52 241.467 Q2221.96 241.467 2222.49 241.536 Q2223.02 241.583 2223.67 241.698 L2223.69 246.073 Z" fill="#000000" fill-rule="evenodd" fill-opacity="1" /></svg>
