<?xml version="1.0" encoding="utf-8"?>
<svg xmlns="http://www.w3.org/2000/svg" xmlns:xlink="http://www.w3.org/1999/xlink" width="600" height="400" viewBox="0 0 2400 1600">
<defs>
  <clipPath id="clip430">
    <rect x="0" y="0" width="2400" height="1600"/>
  </clipPath>
</defs>
<path clip-path="url(#clip430)" d="
M0 1600 L2400 1600 L2400 0 L0 0  Z
  " fill="#ffffff" fill-rule="evenodd" fill-opacity="1"/>
<defs>
  <clipPath id="clip431">
    <rect x="480" y="0" width="1681" height="1600"/>
  </clipPath>
</defs>
<path clip-path="url(#clip430)" d="
M138.959 1486.45 L2352.76 1486.45 L2352.76 47.2441 L138.959 47.2441  Z
  " fill="#ffffff" fill-rule="evenodd" fill-opacity="1"/>
<defs>
  <clipPath id="clip432">
    <rect x="138" y="47" width="2215" height="1440"/>
  </clipPath>
</defs>
<polyline clip-path="url(#clip432)" style="stroke:#000000; stroke-linecap:butt; stroke-linejoin:round; stroke-width:2; stroke-opacity:0.1; fill:none" points="
  138.959,1486.45 138.959,47.2441 
  "/>
<polyline clip-path="url(#clip432)" style="stroke:#000000; stroke-linecap:butt; stroke-linejoin:round; stroke-width:2; stroke-opacity:0.1; fill:none" points="
  581.719,1486.45 581.719,47.2441 
  "/>
<polyline clip-path="url(#clip432)" style="stroke:#000000; stroke-linecap:butt; stroke-linejoin:round; stroke-width:2; stroke-opacity:0.1; fill:none" points="
  1024.48,1486.45 1024.48,47.2441 
  "/>
<polyline clip-path="url(#clip432)" style="stroke:#000000; stroke-linecap:butt; stroke-linejoin:round; stroke-width:2; stroke-opacity:0.1; fill:none" points="
  1467.24,1486.45 1467.24,47.2441 
  "/>
<polyline clip-path="url(#clip432)" style="stroke:#000000; stroke-linecap:butt; stroke-linejoin:round; stroke-width:2; stroke-opacity:0.1; fill:none" points="
  1910,1486.45 1910,47.2441 
  "/>
<polyline clip-path="url(#clip432)" style="stroke:#000000; stroke-linecap:butt; stroke-linejoin:round; stroke-width:2; stroke-opacity:0.1; fill:none" points="
  2352.76,1486.45 2352.76,47.2441 
  "/>
<polyline clip-path="url(#clip430)" style="stroke:#000000; stroke-linecap:butt; stroke-linejoin:round; stroke-width:4; stroke-opacity:1; fill:none" points="
  138.959,1486.45 2352.76,1486.45 
  "/>
<polyline clip-path="url(#clip430)" style="stroke:#000000; stroke-linecap:butt; stroke-linejoin:round; stroke-width:4; stroke-opacity:1; fill:none" points="
  138.959,1486.45 138.959,1467.55 
  "/>
<polyline clip-path="url(#clip430)" style="stroke:#000000; stroke-linecap:butt; stroke-linejoin:round; stroke-width:4; stroke-opacity:1; fill:none" points="
  581.719,1486.45 581.719,1467.55 
  "/>
<polyline clip-path="url(#clip430)" style="stroke:#000000; stroke-linecap:butt; stroke-linejoin:round; stroke-width:4; stroke-opacity:1; fill:none" points="
  1024.48,1486.45 1024.48,1467.55 
  "/>
<polyline clip-path="url(#clip430)" style="stroke:#000000; stroke-linecap:butt; stroke-linejoin:round; stroke-width:4; stroke-opacity:1; fill:none" points="
  1467.24,1486.45 1467.24,1467.55 
  "/>
<polyline clip-path="url(#clip430)" style="stroke:#000000; stroke-linecap:butt; stroke-linejoin:round; stroke-width:4; stroke-opacity:1; fill:none" points="
  1910,1486.45 1910,1467.55 
  "/>
<polyline clip-path="url(#clip430)" style="stroke:#000000; stroke-linecap:butt; stroke-linejoin:round; stroke-width:4; stroke-opacity:1; fill:none" points="
  2352.76,1486.45 2352.76,1467.55 
  "/>
<path clip-path="url(#clip430)" d="M116.344 1517.37 Q112.733 1517.37 110.904 1520.93 Q109.098 1524.47 109.098 1531.6 Q109.098 1538.71 110.904 1542.27 Q112.733 1545.82 116.344 1545.82 Q119.978 1545.82 121.784 1542.27 Q123.612 1538.71 123.612 1531.6 Q123.612 1524.47 121.784 1520.93 Q119.978 1517.37 116.344 1517.37 M116.344 1513.66 Q122.154 1513.66 125.21 1518.27 Q128.288 1522.85 128.288 1531.6 Q128.288 1540.33 125.21 1544.94 Q122.154 1549.52 116.344 1549.52 Q110.534 1549.52 107.455 1544.94 Q104.399 1540.33 104.399 1531.6 Q104.399 1522.85 107.455 1518.27 Q110.534 1513.66 116.344 1513.66 Z" fill="#000000" fill-rule="evenodd" fill-opacity="1" /><path clip-path="url(#clip430)" d="M136.506 1542.97 L141.39 1542.97 L141.39 1548.85 L136.506 1548.85 L136.506 1542.97 Z" fill="#000000" fill-rule="evenodd" fill-opacity="1" /><path clip-path="url(#clip430)" d="M161.575 1517.37 Q157.964 1517.37 156.135 1520.93 Q154.33 1524.47 154.33 1531.6 Q154.33 1538.71 156.135 1542.27 Q157.964 1545.82 161.575 1545.82 Q165.209 1545.82 167.015 1542.27 Q168.844 1538.71 168.844 1531.6 Q168.844 1524.47 167.015 1520.93 Q165.209 1517.37 161.575 1517.37 M161.575 1513.66 Q167.385 1513.66 170.441 1518.27 Q173.519 1522.85 173.519 1531.6 Q173.519 1540.33 170.441 1544.94 Q167.385 1549.52 161.575 1549.52 Q155.765 1549.52 152.686 1544.94 Q149.631 1540.33 149.631 1531.6 Q149.631 1522.85 152.686 1518.27 Q155.765 1513.66 161.575 1513.66 Z" fill="#000000" fill-rule="evenodd" fill-opacity="1" /><path clip-path="url(#clip430)" d="M559.902 1517.37 Q556.291 1517.37 554.462 1520.93 Q552.656 1524.47 552.656 1531.6 Q552.656 1538.71 554.462 1542.27 Q556.291 1545.82 559.902 1545.82 Q563.536 1545.82 565.342 1542.27 Q567.17 1538.71 567.17 1531.6 Q567.17 1524.47 565.342 1520.93 Q563.536 1517.37 559.902 1517.37 M559.902 1513.66 Q565.712 1513.66 568.767 1518.27 Q571.846 1522.85 571.846 1531.6 Q571.846 1540.33 568.767 1544.94 Q565.712 1549.52 559.902 1549.52 Q554.092 1549.52 551.013 1544.94 Q547.957 1540.33 547.957 1531.6 Q547.957 1522.85 551.013 1518.27 Q554.092 1513.66 559.902 1513.66 Z" fill="#000000" fill-rule="evenodd" fill-opacity="1" /><path clip-path="url(#clip430)" d="M580.064 1542.97 L584.948 1542.97 L584.948 1548.85 L580.064 1548.85 L580.064 1542.97 Z" fill="#000000" fill-rule="evenodd" fill-opacity="1" /><path clip-path="url(#clip430)" d="M599.161 1544.91 L615.48 1544.91 L615.48 1548.85 L593.536 1548.85 L593.536 1544.91 Q596.198 1542.16 600.781 1537.53 Q605.388 1532.88 606.568 1531.53 Q608.813 1529.01 609.693 1527.27 Q610.596 1525.51 610.596 1523.82 Q610.596 1521.07 608.651 1519.33 Q606.73 1517.6 603.628 1517.6 Q601.429 1517.6 598.976 1518.36 Q596.545 1519.13 593.767 1520.68 L593.767 1515.95 Q596.591 1514.82 599.045 1514.24 Q601.499 1513.66 603.536 1513.66 Q608.906 1513.66 612.101 1516.35 Q615.295 1519.03 615.295 1523.52 Q615.295 1525.65 614.485 1527.57 Q613.698 1529.47 611.591 1532.07 Q611.013 1532.74 607.911 1535.95 Q604.809 1539.15 599.161 1544.91 Z" fill="#000000" fill-rule="evenodd" fill-opacity="1" /><path clip-path="url(#clip430)" d="M1001.62 1517.37 Q998.008 1517.37 996.18 1520.93 Q994.374 1524.47 994.374 1531.6 Q994.374 1538.71 996.18 1542.27 Q998.008 1545.82 1001.62 1545.82 Q1005.25 1545.82 1007.06 1542.27 Q1008.89 1538.71 1008.89 1531.6 Q1008.89 1524.47 1007.06 1520.93 Q1005.25 1517.37 1001.62 1517.37 M1001.62 1513.66 Q1007.43 1513.66 1010.49 1518.27 Q1013.56 1522.85 1013.56 1531.6 Q1013.56 1540.33 1010.49 1544.94 Q1007.43 1549.52 1001.62 1549.52 Q995.809 1549.52 992.731 1544.94 Q989.675 1540.33 989.675 1531.6 Q989.675 1522.85 992.731 1518.27 Q995.809 1513.66 1001.62 1513.66 Z" fill="#000000" fill-rule="evenodd" fill-opacity="1" /><path clip-path="url(#clip430)" d="M1021.78 1542.97 L1026.67 1542.97 L1026.67 1548.85 L1021.78 1548.85 L1021.78 1542.97 Z" fill="#000000" fill-rule="evenodd" fill-opacity="1" /><path clip-path="url(#clip430)" d="M1049.7 1518.36 L1037.89 1536.81 L1049.7 1536.81 L1049.7 1518.36 M1048.47 1514.29 L1054.35 1514.29 L1054.35 1536.81 L1059.28 1536.81 L1059.28 1540.7 L1054.35 1540.7 L1054.35 1548.85 L1049.7 1548.85 L1049.7 1540.7 L1034.1 1540.7 L1034.1 1536.19 L1048.47 1514.29 Z" fill="#000000" fill-rule="evenodd" fill-opacity="1" /><path clip-path="url(#clip430)" d="M1444.54 1517.37 Q1440.93 1517.37 1439.1 1520.93 Q1437.3 1524.47 1437.3 1531.6 Q1437.3 1538.71 1439.1 1542.27 Q1440.93 1545.82 1444.54 1545.82 Q1448.17 1545.82 1449.98 1542.27 Q1451.81 1538.71 1451.81 1531.6 Q1451.81 1524.47 1449.98 1520.93 Q1448.17 1517.37 1444.54 1517.37 M1444.54 1513.66 Q1450.35 1513.66 1453.41 1518.27 Q1456.49 1522.85 1456.49 1531.6 Q1456.49 1540.33 1453.41 1544.94 Q1450.35 1549.52 1444.54 1549.52 Q1438.73 1549.52 1435.65 1544.94 Q1432.6 1540.33 1432.6 1531.6 Q1432.6 1522.85 1435.65 1518.27 Q1438.73 1513.66 1444.54 1513.66 Z" fill="#000000" fill-rule="evenodd" fill-opacity="1" /><path clip-path="url(#clip430)" d="M1464.7 1542.97 L1469.59 1542.97 L1469.59 1548.85 L1464.7 1548.85 L1464.7 1542.97 Z" fill="#000000" fill-rule="evenodd" fill-opacity="1" /><path clip-path="url(#clip430)" d="M1490.35 1529.7 Q1487.2 1529.7 1485.35 1531.86 Q1483.52 1534.01 1483.52 1537.76 Q1483.52 1541.49 1485.35 1543.66 Q1487.2 1545.82 1490.35 1545.82 Q1493.5 1545.82 1495.33 1543.66 Q1497.18 1541.49 1497.18 1537.76 Q1497.18 1534.01 1495.33 1531.86 Q1493.5 1529.7 1490.35 1529.7 M1499.63 1515.05 L1499.63 1519.31 Q1497.87 1518.48 1496.07 1518.04 Q1494.29 1517.6 1492.53 1517.6 Q1487.9 1517.6 1485.44 1520.72 Q1483.01 1523.85 1482.67 1530.17 Q1484.03 1528.15 1486.09 1527.09 Q1488.15 1526 1490.63 1526 Q1495.84 1526 1498.85 1529.17 Q1501.88 1532.32 1501.88 1537.76 Q1501.88 1543.08 1498.73 1546.3 Q1495.58 1549.52 1490.35 1549.52 Q1484.36 1549.52 1481.18 1544.94 Q1478.01 1540.33 1478.01 1531.6 Q1478.01 1523.41 1481.9 1518.55 Q1485.79 1513.66 1492.34 1513.66 Q1494.1 1513.66 1495.88 1514.01 Q1497.69 1514.36 1499.63 1515.05 Z" fill="#000000" fill-rule="evenodd" fill-opacity="1" /><path clip-path="url(#clip430)" d="M1887.43 1517.37 Q1883.82 1517.37 1881.99 1520.93 Q1880.18 1524.47 1880.18 1531.6 Q1880.18 1538.71 1881.99 1542.27 Q1883.82 1545.82 1887.43 1545.82 Q1891.06 1545.82 1892.87 1542.27 Q1894.7 1538.71 1894.7 1531.6 Q1894.7 1524.47 1892.87 1520.93 Q1891.06 1517.37 1887.43 1517.37 M1887.43 1513.66 Q1893.24 1513.66 1896.29 1518.27 Q1899.37 1522.85 1899.37 1531.6 Q1899.37 1540.33 1896.29 1544.94 Q1893.24 1549.52 1887.43 1549.52 Q1881.62 1549.52 1878.54 1544.94 Q1875.48 1540.33 1875.48 1531.6 Q1875.48 1522.85 1878.54 1518.27 Q1881.62 1513.66 1887.43 1513.66 Z" fill="#000000" fill-rule="evenodd" fill-opacity="1" /><path clip-path="url(#clip430)" d="M1907.59 1542.97 L1912.47 1542.97 L1912.47 1548.85 L1907.59 1548.85 L1907.59 1542.97 Z" fill="#000000" fill-rule="evenodd" fill-opacity="1" /><path clip-path="url(#clip430)" d="M1932.66 1532.44 Q1929.33 1532.44 1927.4 1534.22 Q1925.51 1536 1925.51 1539.13 Q1925.51 1542.25 1927.4 1544.03 Q1929.33 1545.82 1932.66 1545.82 Q1935.99 1545.82 1937.91 1544.03 Q1939.83 1542.23 1939.83 1539.13 Q1939.83 1536 1937.91 1534.22 Q1936.01 1532.44 1932.66 1532.44 M1927.98 1530.45 Q1924.97 1529.7 1923.28 1527.64 Q1921.62 1525.58 1921.62 1522.62 Q1921.62 1518.48 1924.56 1516.07 Q1927.52 1513.66 1932.66 1513.66 Q1937.82 1513.66 1940.76 1516.07 Q1943.7 1518.48 1943.7 1522.62 Q1943.7 1525.58 1942.01 1527.64 Q1940.34 1529.7 1937.36 1530.45 Q1940.74 1531.23 1942.61 1533.52 Q1944.51 1535.82 1944.51 1539.13 Q1944.51 1544.15 1941.43 1546.83 Q1938.38 1549.52 1932.66 1549.52 Q1926.94 1549.52 1923.86 1546.83 Q1920.81 1544.15 1920.81 1539.13 Q1920.81 1535.82 1922.7 1533.52 Q1924.6 1531.23 1927.98 1530.45 M1926.27 1523.06 Q1926.27 1525.75 1927.94 1527.25 Q1929.63 1528.76 1932.66 1528.76 Q1935.67 1528.76 1937.36 1527.25 Q1939.07 1525.75 1939.07 1523.06 Q1939.07 1520.38 1937.36 1518.87 Q1935.67 1517.37 1932.66 1517.37 Q1929.63 1517.37 1927.94 1518.87 Q1926.27 1520.38 1926.27 1523.06 Z" fill="#000000" fill-rule="evenodd" fill-opacity="1" /><path clip-path="url(#clip430)" d="M2319.91 1544.91 L2327.55 1544.91 L2327.55 1518.55 L2319.24 1520.21 L2319.24 1515.95 L2327.5 1514.29 L2332.18 1514.29 L2332.18 1544.91 L2339.82 1544.91 L2339.82 1548.85 L2319.91 1548.85 L2319.91 1544.91 Z" fill="#000000" fill-rule="evenodd" fill-opacity="1" /><path clip-path="url(#clip430)" d="M2349.26 1542.97 L2354.14 1542.97 L2354.14 1548.85 L2349.26 1548.85 L2349.26 1542.97 Z" fill="#000000" fill-rule="evenodd" fill-opacity="1" /><path clip-path="url(#clip430)" d="M2374.33 1517.37 Q2370.72 1517.37 2368.89 1520.93 Q2367.08 1524.47 2367.08 1531.6 Q2367.08 1538.71 2368.89 1542.27 Q2370.72 1545.82 2374.33 1545.82 Q2377.96 1545.82 2379.77 1542.27 Q2381.6 1538.71 2381.6 1531.6 Q2381.6 1524.47 2379.77 1520.93 Q2377.96 1517.37 2374.33 1517.37 M2374.33 1513.66 Q2380.14 1513.66 2383.2 1518.27 Q2386.27 1522.85 2386.27 1531.6 Q2386.27 1540.33 2383.2 1544.94 Q2380.14 1549.52 2374.33 1549.52 Q2368.52 1549.52 2365.44 1544.94 Q2362.39 1540.33 2362.39 1531.6 Q2362.39 1522.85 2365.44 1518.27 Q2368.52 1513.66 2374.33 1513.66 Z" fill="#000000" fill-rule="evenodd" fill-opacity="1" /><polyline clip-path="url(#clip432)" style="stroke:#000000; stroke-linecap:butt; stroke-linejoin:round; stroke-width:2; stroke-opacity:0.1; fill:none" points="
  138.959,1445.72 2352.76,1445.72 
  "/>
<polyline clip-path="url(#clip432)" style="stroke:#000000; stroke-linecap:butt; stroke-linejoin:round; stroke-width:2; stroke-opacity:0.1; fill:none" points="
  138.959,1043.19 2352.76,1043.19 
  "/>
<polyline clip-path="url(#clip432)" style="stroke:#000000; stroke-linecap:butt; stroke-linejoin:round; stroke-width:2; stroke-opacity:0.1; fill:none" points="
  138.959,640.656 2352.76,640.656 
  "/>
<polyline clip-path="url(#clip432)" style="stroke:#000000; stroke-linecap:butt; stroke-linejoin:round; stroke-width:2; stroke-opacity:0.1; fill:none" points="
  138.959,238.126 2352.76,238.126 
  "/>
<polyline clip-path="url(#clip430)" style="stroke:#000000; stroke-linecap:butt; stroke-linejoin:round; stroke-width:4; stroke-opacity:1; fill:none" points="
  138.959,1486.45 138.959,47.2441 
  "/>
<polyline clip-path="url(#clip430)" style="stroke:#000000; stroke-linecap:butt; stroke-linejoin:round; stroke-width:4; stroke-opacity:1; fill:none" points="
  138.959,1445.72 157.857,1445.72 
  "/>
<polyline clip-path="url(#clip430)" style="stroke:#000000; stroke-linecap:butt; stroke-linejoin:round; stroke-width:4; stroke-opacity:1; fill:none" points="
  138.959,1043.19 157.857,1043.19 
  "/>
<polyline clip-path="url(#clip430)" style="stroke:#000000; stroke-linecap:butt; stroke-linejoin:round; stroke-width:4; stroke-opacity:1; fill:none" points="
  138.959,640.656 157.857,640.656 
  "/>
<polyline clip-path="url(#clip430)" style="stroke:#000000; stroke-linecap:butt; stroke-linejoin:round; stroke-width:4; stroke-opacity:1; fill:none" points="
  138.959,238.126 157.857,238.126 
  "/>
<path clip-path="url(#clip430)" d="M91.0151 1431.51 Q87.404 1431.51 85.5753 1435.08 Q83.7697 1438.62 83.7697 1445.75 Q83.7697 1452.86 85.5753 1456.42 Q87.404 1459.96 91.0151 1459.96 Q94.6493 1459.96 96.4548 1456.42 Q98.2835 1452.86 98.2835 1445.75 Q98.2835 1438.62 96.4548 1435.08 Q94.6493 1431.51 91.0151 1431.51 M91.0151 1427.81 Q96.8252 1427.81 99.8808 1432.42 Q102.959 1437 102.959 1445.75 Q102.959 1454.48 99.8808 1459.08 Q96.8252 1463.67 91.0151 1463.67 Q85.2049 1463.67 82.1262 1459.08 Q79.0707 1454.48 79.0707 1445.75 Q79.0707 1437 82.1262 1432.42 Q85.2049 1427.81 91.0151 1427.81 Z" fill="#000000" fill-rule="evenodd" fill-opacity="1" /><path clip-path="url(#clip430)" d="M82.0568 1025.91 L100.413 1025.91 L100.413 1029.84 L86.3392 1029.84 L86.3392 1038.31 Q87.3577 1037.97 88.3762 1037.8 Q89.3947 1037.62 90.4132 1037.62 Q96.2002 1037.62 99.5798 1040.79 Q102.959 1043.96 102.959 1049.38 Q102.959 1054.96 99.4872 1058.06 Q96.015 1061.14 89.6956 1061.14 Q87.5197 1061.14 85.2512 1060.77 Q83.0058 1060.4 80.5984 1059.66 L80.5984 1054.96 Q82.6818 1056.09 84.904 1056.65 Q87.1262 1057.2 89.603 1057.2 Q93.6076 1057.2 95.9456 1055.1 Q98.2835 1052.99 98.2835 1049.38 Q98.2835 1045.77 95.9456 1043.66 Q93.6076 1041.55 89.603 1041.55 Q87.728 1041.55 85.8531 1041.97 Q84.0012 1042.39 82.0568 1043.27 L82.0568 1025.91 Z" fill="#000000" fill-rule="evenodd" fill-opacity="1" /><path clip-path="url(#clip430)" d="M51.6634 654.001 L59.3023 654.001 L59.3023 627.635 L50.9921 629.302 L50.9921 625.043 L59.256 623.376 L63.9319 623.376 L63.9319 654.001 L71.5707 654.001 L71.5707 657.936 L51.6634 657.936 L51.6634 654.001 Z" fill="#000000" fill-rule="evenodd" fill-opacity="1" /><path clip-path="url(#clip430)" d="M91.0151 626.455 Q87.404 626.455 85.5753 630.02 Q83.7697 633.561 83.7697 640.691 Q83.7697 647.797 85.5753 651.362 Q87.404 654.904 91.0151 654.904 Q94.6493 654.904 96.4548 651.362 Q98.2835 647.797 98.2835 640.691 Q98.2835 633.561 96.4548 630.02 Q94.6493 626.455 91.0151 626.455 M91.0151 622.751 Q96.8252 622.751 99.8808 627.358 Q102.959 631.941 102.959 640.691 Q102.959 649.418 99.8808 654.024 Q96.8252 658.607 91.0151 658.607 Q85.2049 658.607 82.1262 654.024 Q79.0707 649.418 79.0707 640.691 Q79.0707 631.941 82.1262 627.358 Q85.2049 622.751 91.0151 622.751 Z" fill="#000000" fill-rule="evenodd" fill-opacity="1" /><path clip-path="url(#clip430)" d="M52.6588 251.471 L60.2976 251.471 L60.2976 225.106 L51.9875 226.772 L51.9875 222.513 L60.2513 220.846 L64.9272 220.846 L64.9272 251.471 L72.5661 251.471 L72.5661 255.406 L52.6588 255.406 L52.6588 251.471 Z" fill="#000000" fill-rule="evenodd" fill-opacity="1" /><path clip-path="url(#clip430)" d="M82.0568 220.846 L100.413 220.846 L100.413 224.781 L86.3392 224.781 L86.3392 233.254 Q87.3577 232.906 88.3762 232.744 Q89.3947 232.559 90.4132 232.559 Q96.2002 232.559 99.5798 235.73 Q102.959 238.902 102.959 244.318 Q102.959 249.897 99.4872 252.999 Q96.015 256.078 89.6956 256.078 Q87.5197 256.078 85.2512 255.707 Q83.0058 255.337 80.5984 254.596 L80.5984 249.897 Q82.6818 251.031 84.904 251.587 Q87.1262 252.142 89.603 252.142 Q93.6076 252.142 95.9456 250.036 Q98.2835 247.929 98.2835 244.318 Q98.2835 240.707 95.9456 238.601 Q93.6076 236.494 89.603 236.494 Q87.728 236.494 85.8531 236.911 Q84.0012 237.328 82.0568 238.207 L82.0568 220.846 Z" fill="#000000" fill-rule="evenodd" fill-opacity="1" /><path clip-path="url(#clip432)" d="
M-197.001 1445.69 L-182.503 1445.67 L-168.004 1445.62 L-153.506 1445.54 L-139.008 1445.39 L-124.51 1445.13 L-110.011 1444.71 L-95.5132 1444.02 L-81.0149 1442.94 L-66.5167 1441.3 
  L-52.0184 1438.89 L-37.5201 1435.46 L-23.0219 1430.72 L-8.52362 1424.37 L5.97465 1416.17 L20.4729 1405.89 L34.9712 1393.44 L49.4694 1378.89 L63.9677 1362.45 L78.466 1344.57 
  L92.9642 1325.85 L107.462 1307.03 L121.961 1288.95 L136.459 1272.43 L150.957 1258.21 L165.456 1246.87 L179.954 1238.75 L194.452 1233.97 L208.95 1232.4 L223.449 1233.71 
  L237.947 1237.43 L252.445 1242.99 L266.943 1249.81 L281.442 1257.35 L295.94 1265.15 L310.438 1272.83 L324.936 1280.14 L339.435 1286.91 L353.933 1293.06 L368.431 1298.56 
  L382.929 1303.45 L397.428 1307.76 L411.926 1311.56 L426.424 1314.91 L440.923 1317.88 L455.421 1320.5 L469.919 1322.83 L484.417 1324.91 L498.916 1326.76 L513.414 1328.42 
  L527.912 1329.92 L542.41 1331.28 L556.909 1332.54 L571.407 1333.73 L585.905 1334.89 L600.403 1336.05 L614.902 1337.23 L629.4 1338.48 L643.898 1339.79 L658.396 1341.18 
  L672.895 1342.65 L687.393 1344.18 L701.891 1345.75 L716.389 1347.34 L730.888 1348.92 L745.386 1350.47 L759.884 1351.98 L774.383 1353.44 L788.881 1354.85 L803.379 1356.22 
  L817.877 1357.57 L832.376 1358.92 L846.874 1360.28 L861.372 1361.66 L875.87 1363.06 L890.369 1364.49 L904.867 1365.93 L919.365 1367.37 L933.863 1368.79 L948.362 1370.17 
  L962.86 1371.48 L977.358 1372.71 L991.856 1373.84 L1006.35 1374.85 L1020.85 1375.74 L1035.35 1376.51 L1049.85 1377.17 L1064.35 1377.75 L1078.85 1378.25 L1093.34 1378.71 
  L1107.84 1379.16 L1122.34 1379.62 L1136.84 1380.13 L1151.34 1380.69 L1165.84 1381.32 L1180.33 1382.03 L1194.83 1382.81 L1209.33 1383.67 L1223.83 1384.58 L1238.33 1385.52 
  L1252.83 1386.49 L1267.32 1387.46 L1281.82 1388.42 L1296.32 1389.34 L1310.82 1390.23 L1325.32 1391.07 L1339.81 1391.86 L1354.31 1392.61 L1368.81 1393.31 L1383.31 1393.98 
  L1397.81 1394.61 L1412.31 1395.22 L1426.8 1395.8 L1441.3 1396.37 L1455.8 1396.91 L1470.3 1397.44 L1484.8 1397.97 L1499.3 1398.51 L1513.79 1399.07 L1528.29 1399.66 
  L1542.79 1400.3 L1557.29 1401 L1571.79 1401.76 L1586.29 1402.58 L1600.78 1403.46 L1615.28 1404.37 L1629.78 1405.31 L1644.28 1406.25 L1658.78 1407.18 L1673.27 1408.08 
  L1687.77 1408.93 L1702.27 1409.73 L1716.77 1410.45 L1731.27 1411.1 L1745.77 1411.66 L1760.26 1412.15 L1774.76 1412.56 L1789.26 1412.9 L1803.76 1413.18 L1818.26 1413.42 
  L1832.76 1413.63 L1847.25 1413.84 L1861.75 1414.06 L1876.25 1414.3 L1890.75 1414.58 L1905.25 1414.91 L1919.75 1415.29 L1934.24 1415.72 L1948.74 1416.18 L1963.24 1416.68 
  L1977.74 1417.21 L1992.24 1417.75 L2006.73 1418.29 L2021.23 1418.83 L2035.73 1419.34 L2050.23 1419.83 L2064.73 1420.28 L2079.23 1420.69 L2093.72 1421.05 L2108.22 1421.36 
  L2122.72 1421.63 L2137.22 1421.85 L2151.72 1422.04 L2166.22 1422.22 L2180.71 1422.41 L2195.21 1422.63 L2209.71 1422.9 L2224.21 1423.27 L2238.71 1423.76 L2253.21 1424.4 
  L2267.7 1425.21 L2282.2 1426.2 L2296.7 1427.36 L2311.2 1428.7 L2325.7 1430.18 L2340.19 1431.76 L2354.69 1433.41 L2369.19 1435.06 L2383.69 1436.68 L2398.19 1438.21 
  L2412.69 1439.62 L2427.18 1440.87 L2441.68 1441.96 L2456.18 1442.87 L2470.68 1443.61 L2485.18 1444.2 L2499.68 1444.65 L2514.17 1444.99 L2528.67 1445.23 L2543.17 1445.4 
  L2557.67 1445.52 L2572.17 1445.59 L2586.67 1445.64 L2601.16 1445.67 L2615.66 1445.69 L2630.16 1445.7 L2644.66 1445.71 L2659.16 1445.71 L2673.65 1445.71 L2688.15 1445.7 
  L2688.15 1445.72 L2673.65 1445.72 L2659.16 1445.72 L2644.66 1445.72 L2630.16 1445.72 L2615.66 1445.72 L2601.16 1445.72 L2586.67 1445.72 L2572.17 1445.72 L2557.67 1445.72 
  L2543.17 1445.72 L2528.67 1445.72 L2514.17 1445.72 L2499.68 1445.72 L2485.18 1445.72 L2470.68 1445.72 L2456.18 1445.72 L2441.68 1445.72 L2427.18 1445.72 L2412.69 1445.72 
  L2398.19 1445.72 L2383.69 1445.72 L2369.19 1445.72 L2354.69 1445.72 L2340.19 1445.72 L2325.7 1445.72 L2311.2 1445.72 L2296.7 1445.72 L2282.2 1445.72 L2267.7 1445.72 
  L2253.21 1445.72 L2238.71 1445.72 L2224.21 1445.72 L2209.71 1445.72 L2195.21 1445.72 L2180.71 1445.72 L2166.22 1445.72 L2151.72 1445.72 L2137.22 1445.72 L2122.72 1445.72 
  L2108.22 1445.72 L2093.72 1445.72 L2079.23 1445.72 L2064.73 1445.72 L2050.23 1445.72 L2035.73 1445.72 L2021.23 1445.72 L2006.73 1445.72 L1992.24 1445.72 L1977.74 1445.72 
  L1963.24 1445.72 L1948.74 1445.72 L1934.24 1445.72 L1919.75 1445.72 L1905.25 1445.72 L1890.75 1445.72 L1876.25 1445.72 L1861.75 1445.72 L1847.25 1445.72 L1832.76 1445.72 
  L1818.26 1445.72 L1803.76 1445.72 L1789.26 1445.72 L1774.76 1445.72 L1760.26 1445.72 L1745.77 1445.72 L1731.27 1445.72 L1716.77 1445.72 L1702.27 1445.72 L1687.77 1445.72 
  L1673.27 1445.72 L1658.78 1445.72 L1644.28 1445.72 L1629.78 1445.72 L1615.28 1445.72 L1600.78 1445.72 L1586.29 1445.72 L1571.79 1445.72 L1557.29 1445.72 L1542.79 1445.72 
  L1528.29 1445.72 L1513.79 1445.72 L1499.3 1445.72 L1484.8 1445.72 L1470.3 1445.72 L1455.8 1445.72 L1441.3 1445.72 L1426.8 1445.72 L1412.31 1445.72 L1397.81 1445.72 
  L1383.31 1445.72 L1368.81 1445.72 L1354.31 1445.72 L1339.81 1445.72 L1325.32 1445.72 L1310.82 1445.72 L1296.32 1445.72 L1281.82 1445.72 L1267.32 1445.72 L1252.83 1445.72 
  L1238.33 1445.72 L1223.83 1445.72 L1209.33 1445.72 L1194.83 1445.72 L1180.33 1445.72 L1165.84 1445.72 L1151.34 1445.72 L1136.84 1445.72 L1122.34 1445.72 L1107.84 1445.72 
  L1093.34 1445.72 L1078.85 1445.72 L1064.35 1445.72 L1049.85 1445.72 L1035.35 1445.72 L1020.85 1445.72 L1006.35 1445.72 L991.856 1445.72 L977.358 1445.72 L962.86 1445.72 
  L948.362 1445.72 L933.863 1445.72 L919.365 1445.72 L904.867 1445.72 L890.369 1445.72 L875.87 1445.72 L861.372 1445.72 L846.874 1445.72 L832.376 1445.72 L817.877 1445.72 
  L803.379 1445.72 L788.881 1445.72 L774.383 1445.72 L759.884 1445.72 L745.386 1445.72 L730.888 1445.72 L716.389 1445.72 L701.891 1445.72 L687.393 1445.72 L672.895 1445.72 
  L658.396 1445.72 L643.898 1445.72 L629.4 1445.72 L614.902 1445.72 L600.403 1445.72 L585.905 1445.72 L571.407 1445.72 L556.909 1445.72 L542.41 1445.72 L527.912 1445.72 
  L513.414 1445.72 L498.916 1445.72 L484.417 1445.72 L469.919 1445.72 L455.421 1445.72 L440.923 1445.72 L426.424 1445.72 L411.926 1445.72 L397.428 1445.72 L382.929 1445.72 
  L368.431 1445.72 L353.933 1445.72 L339.435 1445.72 L324.936 1445.72 L310.438 1445.72 L295.94 1445.72 L281.442 1445.72 L266.943 1445.72 L252.445 1445.72 L237.947 1445.72 
  L223.449 1445.72 L208.95 1445.72 L194.452 1445.72 L179.954 1445.72 L165.456 1445.72 L150.957 1445.72 L136.459 1445.72 L121.961 1445.72 L107.462 1445.72 L92.9642 1445.72 
  L78.466 1445.72 L63.9677 1445.72 L49.4694 1445.72 L34.9712 1445.72 L20.4729 1445.72 L5.97465 1445.72 L-8.52362 1445.72 L-23.0219 1445.72 L-37.5201 1445.72 L-52.0184 1445.72 
  L-66.5167 1445.72 L-81.0149 1445.72 L-95.5132 1445.72 L-110.011 1445.72 L-124.51 1445.72 L-139.008 1445.72 L-153.506 1445.72 L-168.004 1445.72 L-182.503 1445.72 L-197.001 1445.72 
   Z
  " fill="#009af9" fill-rule="evenodd" fill-opacity="1"/>
<polyline clip-path="url(#clip432)" style="stroke:#009af9; stroke-linecap:butt; stroke-linejoin:round; stroke-width:4; stroke-opacity:1; fill:none" points="
  -197.001,1445.69 -182.503,1445.67 -168.004,1445.62 -153.506,1445.54 -139.008,1445.39 -124.51,1445.13 -110.011,1444.71 -95.5132,1444.02 -81.0149,1442.94 -66.5167,1441.3 
  -52.0184,1438.89 -37.5201,1435.46 -23.0219,1430.72 -8.52362,1424.37 5.97465,1416.17 20.4729,1405.89 34.9712,1393.44 49.4694,1378.89 63.9677,1362.45 78.466,1344.57 
  92.9642,1325.85 107.462,1307.03 121.961,1288.95 136.459,1272.43 150.957,1258.21 165.456,1246.87 179.954,1238.75 194.452,1233.97 208.95,1232.4 223.449,1233.71 
  237.947,1237.43 252.445,1242.99 266.943,1249.81 281.442,1257.35 295.94,1265.15 310.438,1272.83 324.936,1280.14 339.435,1286.91 353.933,1293.06 368.431,1298.56 
  382.929,1303.45 397.428,1307.76 411.926,1311.56 426.424,1314.91 440.923,1317.88 455.421,1320.5 469.919,1322.83 484.417,1324.91 498.916,1326.76 513.414,1328.42 
  527.912,1329.92 542.41,1331.28 556.909,1332.54 571.407,1333.73 585.905,1334.89 600.403,1336.05 614.902,1337.23 629.4,1338.48 643.898,1339.79 658.396,1341.18 
  672.895,1342.65 687.393,1344.18 701.891,1345.75 716.389,1347.34 730.888,1348.92 745.386,1350.47 759.884,1351.98 774.383,1353.44 788.881,1354.85 803.379,1356.22 
  817.877,1357.57 832.376,1358.92 846.874,1360.28 861.372,1361.66 875.87,1363.06 890.369,1364.49 904.867,1365.93 919.365,1367.37 933.863,1368.79 948.362,1370.17 
  962.86,1371.48 977.358,1372.71 991.856,1373.84 1006.35,1374.85 1020.85,1375.74 1035.35,1376.51 1049.85,1377.17 1064.35,1377.75 1078.85,1378.25 1093.34,1378.71 
  1107.84,1379.16 1122.34,1379.62 1136.84,1380.13 1151.34,1380.69 1165.84,1381.32 1180.33,1382.03 1194.83,1382.81 1209.33,1383.67 1223.83,1384.58 1238.33,1385.52 
  1252.83,1386.49 1267.32,1387.46 1281.82,1388.42 1296.32,1389.34 1310.82,1390.23 1325.32,1391.07 1339.81,1391.86 1354.31,1392.61 1368.81,1393.31 1383.31,1393.98 
  1397.81,1394.61 1412.31,1395.22 1426.8,1395.8 1441.3,1396.37 1455.8,1396.91 1470.3,1397.44 1484.8,1397.97 1499.3,1398.51 1513.79,1399.07 1528.29,1399.66 
  1542.79,1400.3 1557.29,1401 1571.79,1401.76 1586.29,1402.58 1600.78,1403.46 1615.28,1404.37 1629.78,1405.31 1644.28,1406.25 1658.78,1407.18 1673.27,1408.08 
  1687.77,1408.93 1702.27,1409.73 1716.77,1410.45 1731.27,1411.1 1745.77,1411.66 1760.26,1412.15 1774.76,1412.56 1789.26,1412.9 1803.76,1413.18 1818.26,1413.42 
  1832.76,1413.63 1847.25,1413.84 1861.75,1414.06 1876.25,1414.3 1890.75,1414.58 1905.25,1414.91 1919.75,1415.29 1934.24,1415.72 1948.74,1416.18 1963.24,1416.68 
  1977.74,1417.21 1992.24,1417.75 2006.73,1418.29 2021.23,1418.83 2035.73,1419.34 2050.23,1419.83 2064.73,1420.28 2079.23,1420.69 2093.72,1421.05 2108.22,1421.36 
  2122.72,1421.63 2137.22,1421.85 2151.72,1422.04 2166.22,1422.22 2180.71,1422.41 2195.21,1422.63 2209.71,1422.9 2224.21,1423.27 2238.71,1423.76 2253.21,1424.4 
  2267.7,1425.21 2282.2,1426.2 2296.7,1427.36 2311.2,1428.7 2325.7,1430.18 2340.19,1431.76 2354.69,1433.41 2369.19,1435.06 2383.69,1436.68 2398.19,1438.21 
  2412.69,1439.62 2427.18,1440.87 2441.68,1441.96 2456.18,1442.87 2470.68,1443.61 2485.18,1444.2 2499.68,1444.65 2514.17,1444.99 2528.67,1445.23 2543.17,1445.4 
  2557.67,1445.52 2572.17,1445.59 2586.67,1445.64 2601.16,1445.67 2615.66,1445.69 2630.16,1445.7 2644.66,1445.71 2659.16,1445.71 2673.65,1445.71 2688.15,1445.7 
  
  "/>
<path clip-path="url(#clip432)" d="
M175.018 1445.72 L177.79 1445.71 L180.562 1445.71 L183.334 1445.69 L186.106 1445.64 L188.878 1445.52 L191.65 1445.28 L194.422 1444.82 L197.194 1444.06 L199.967 1442.89 
  L202.739 1441.23 L205.511 1439 L208.283 1436.1 L211.055 1432.49 L213.827 1428.11 L216.599 1422.85 L219.371 1416.48 L222.143 1408.65 L224.916 1398.98 L227.688 1387.33 
  L230.46 1373.83 L233.232 1358.84 L236.004 1342.69 L238.776 1325.45 L241.548 1306.8 L244.32 1286.07 L247.092 1262.41 L249.865 1235.05 L252.637 1203.64 L255.409 1168.43 
  L258.181 1130.19 L260.953 1090.01 L263.725 1048.87 L266.497 1007.34 L269.269 965.355 L272.041 922.356 L274.814 877.755 L277.586 831.325 L280.358 783.207 L283.13 733.569 
  L285.902 682.358 L288.674 629.47 L291.446 575.21 L294.218 520.584 L296.99 467.126 L299.762 416.397 L302.535 369.515 L305.307 326.962 L308.079 288.665 L310.851 254.248 
  L313.623 223.312 L316.395 195.594 L319.167 170.901 L321.939 148.989 L324.711 129.652 L327.484 113.052 L330.256 99.9142 L333.028 91.287 L335.8 87.9763 L338.572 90.1516 
  L341.344 97.392 L344.116 109.002 L346.888 124.257 L349.66 142.445 L352.433 162.825 L355.205 184.601 L357.977 206.937 L360.749 229.105 L363.521 250.916 L366.293 273.254 
  L369.065 298.082 L371.837 327.541 L374.609 362.589 L377.382 402.336 L380.154 444.688 L382.926 487.689 L385.698 530.34 L388.47 572.331 L391.242 613.313 L394.014 652.645 
  L396.786 689.851 L399.558 725.136 L402.33 759.307 L405.103 793.138 L407.875 826.772 L410.647 859.66 L413.419 891.031 L416.191 920.529 L418.963 948.583 L421.735 976.258 
  L424.507 1004.65 L427.279 1034.13 L430.052 1064.03 L432.824 1092.9 L435.596 1119.22 L438.368 1142.23 L441.14 1162.27 L443.912 1180.6 L446.684 1198.65 L449.456 1217.31 
  L452.228 1236.35 L455.001 1254.63 L457.773 1270.67 L460.545 1283.53 L463.317 1293.21 L466.089 1300.68 L468.861 1307.39 L471.633 1314.66 L474.405 1323.27 L477.177 1333.22 
  L479.95 1343.92 L482.722 1354.53 L485.494 1364.37 L488.266 1373.16 L491.038 1380.96 L493.81 1387.92 L496.582 1394.11 L499.354 1399.55 L502.126 1404.23 L504.898 1408.21 
  L507.671 1411.6 L510.443 1414.5 L513.215 1417 L515.987 1419.21 L518.759 1421.23 L521.531 1423.16 L524.303 1425 L527.075 1426.73 L529.847 1428.24 L532.62 1429.48 
  L535.392 1430.47 L538.164 1431.32 L540.936 1432.15 L543.708 1433.05 L546.48 1434.03 L549.252 1435.07 L552.024 1436.07 L554.796 1436.96 L557.569 1437.72 L560.341 1438.39 
  L563.113 1439.02 L565.885 1439.6 L568.657 1440.11 L571.429 1440.53 L574.201 1440.91 L576.973 1441.39 L579.745 1442.03 L582.517 1442.82 L585.29 1443.65 L588.062 1444.39 
  L590.834 1444.92 L593.606 1445.22 L596.378 1445.31 L599.15 1445.24 L601.922 1445.08 L604.694 1444.92 L607.466 1444.81 L610.239 1444.81 L613.011 1444.91 L615.783 1445.09 
  L618.555 1445.29 L621.327 1445.46 L624.099 1445.58 L626.871 1445.65 L629.643 1445.69 L632.415 1445.71 L635.188 1445.71 L637.96 1445.71 L640.732 1445.72 L643.504 1445.72 
  L646.276 1445.72 L649.048 1445.72 L651.82 1445.72 L654.592 1445.72 L657.364 1445.72 L660.137 1445.72 L662.909 1445.72 L665.681 1445.72 L668.453 1445.71 L671.225 1445.71 
  L673.997 1445.7 L676.769 1445.68 L679.541 1445.63 L682.313 1445.54 L685.085 1445.4 L687.858 1445.21 L690.63 1445.01 L693.402 1444.85 L696.174 1444.78 L698.946 1444.84 
  L701.718 1444.99 L704.49 1445.19 L707.262 1445.38 L710.034 1445.53 L712.807 1445.63 L715.579 1445.68 L718.351 1445.7 L721.123 1445.71 L723.895 1445.71 L726.667 1445.72 
  L726.667 1445.72 L723.895 1445.72 L721.123 1445.72 L718.351 1445.72 L715.579 1445.72 L712.807 1445.72 L710.034 1445.72 L707.262 1445.72 L704.49 1445.72 L701.718 1445.72 
  L698.946 1445.72 L696.174 1445.72 L693.402 1445.72 L690.63 1445.72 L687.858 1445.72 L685.085 1445.72 L682.313 1445.72 L679.541 1445.72 L676.769 1445.72 L673.997 1445.72 
  L671.225 1445.72 L668.453 1445.72 L665.681 1445.72 L662.909 1445.72 L660.137 1445.72 L657.364 1445.72 L654.592 1445.72 L651.82 1445.72 L649.048 1445.72 L646.276 1445.72 
  L643.504 1445.72 L640.732 1445.72 L637.96 1445.72 L635.188 1445.72 L632.415 1445.72 L629.643 1445.72 L626.871 1445.72 L624.099 1445.72 L621.327 1445.72 L618.555 1445.72 
  L615.783 1445.72 L613.011 1445.72 L610.239 1445.72 L607.466 1445.72 L604.694 1445.72 L601.922 1445.72 L599.15 1445.72 L596.378 1445.72 L593.606 1445.72 L590.834 1445.72 
  L588.062 1445.72 L585.29 1445.72 L582.517 1445.72 L579.745 1445.72 L576.973 1445.72 L574.201 1445.72 L571.429 1445.72 L568.657 1445.72 L565.885 1445.72 L563.113 1445.72 
  L560.341 1445.72 L557.569 1445.72 L554.796 1445.72 L552.024 1445.72 L549.252 1445.72 L546.48 1445.72 L543.708 1445.72 L540.936 1445.72 L538.164 1445.72 L535.392 1445.72 
  L532.62 1445.72 L529.847 1445.72 L527.075 1445.72 L524.303 1445.72 L521.531 1445.72 L518.759 1445.72 L515.987 1445.72 L513.215 1445.72 L510.443 1445.72 L507.671 1445.72 
  L504.898 1445.72 L502.126 1445.72 L499.354 1445.72 L496.582 1445.72 L493.81 1445.72 L491.038 1445.72 L488.266 1445.72 L485.494 1445.72 L482.722 1445.72 L479.95 1445.72 
  L477.177 1445.72 L474.405 1445.72 L471.633 1445.72 L468.861 1445.72 L466.089 1445.72 L463.317 1445.72 L460.545 1445.72 L457.773 1445.72 L455.001 1445.72 L452.228 1445.72 
  L449.456 1445.72 L446.684 1445.72 L443.912 1445.72 L441.14 1445.72 L438.368 1445.72 L435.596 1445.72 L432.824 1445.72 L430.052 1445.72 L427.279 1445.72 L424.507 1445.72 
  L421.735 1445.72 L418.963 1445.72 L416.191 1445.72 L413.419 1445.72 L410.647 1445.72 L407.875 1445.72 L405.103 1445.72 L402.33 1445.72 L399.558 1445.72 L396.786 1445.72 
  L394.014 1445.72 L391.242 1445.72 L388.47 1445.72 L385.698 1445.72 L382.926 1445.72 L380.154 1445.72 L377.382 1445.72 L374.609 1445.72 L371.837 1445.72 L369.065 1445.72 
  L366.293 1445.72 L363.521 1445.72 L360.749 1445.72 L357.977 1445.72 L355.205 1445.72 L352.433 1445.72 L349.66 1445.72 L346.888 1445.72 L344.116 1445.72 L341.344 1445.72 
  L338.572 1445.72 L335.8 1445.72 L333.028 1445.72 L330.256 1445.72 L327.484 1445.72 L324.711 1445.72 L321.939 1445.72 L319.167 1445.72 L316.395 1445.72 L313.623 1445.72 
  L310.851 1445.72 L308.079 1445.72 L305.307 1445.72 L302.535 1445.72 L299.762 1445.72 L296.99 1445.72 L294.218 1445.72 L291.446 1445.72 L288.674 1445.72 L285.902 1445.72 
  L283.13 1445.72 L280.358 1445.72 L277.586 1445.72 L274.814 1445.72 L272.041 1445.72 L269.269 1445.72 L266.497 1445.72 L263.725 1445.72 L260.953 1445.72 L258.181 1445.72 
  L255.409 1445.72 L252.637 1445.72 L249.865 1445.72 L247.092 1445.72 L244.32 1445.72 L241.548 1445.72 L238.776 1445.72 L236.004 1445.72 L233.232 1445.72 L230.46 1445.72 
  L227.688 1445.72 L224.916 1445.72 L222.143 1445.72 L219.371 1445.72 L216.599 1445.72 L213.827 1445.72 L211.055 1445.72 L208.283 1445.72 L205.511 1445.72 L202.739 1445.72 
  L199.967 1445.72 L197.194 1445.72 L194.422 1445.72 L191.65 1445.72 L188.878 1445.72 L186.106 1445.72 L183.334 1445.72 L180.562 1445.72 L177.79 1445.72 L175.018 1445.72 
   Z
  " fill="#e26f46" fill-rule="evenodd" fill-opacity="1"/>
<polyline clip-path="url(#clip432)" style="stroke:#e26f46; stroke-linecap:butt; stroke-linejoin:round; stroke-width:4; stroke-opacity:1; fill:none" points="
  175.018,1445.72 177.79,1445.71 180.562,1445.71 183.334,1445.69 186.106,1445.64 188.878,1445.52 191.65,1445.28 194.422,1444.82 197.194,1444.06 199.967,1442.89 
  202.739,1441.23 205.511,1439 208.283,1436.1 211.055,1432.49 213.827,1428.11 216.599,1422.85 219.371,1416.48 222.143,1408.65 224.916,1398.98 227.688,1387.33 
  230.46,1373.83 233.232,1358.84 236.004,1342.69 238.776,1325.45 241.548,1306.8 244.32,1286.07 247.092,1262.41 249.865,1235.05 252.637,1203.64 255.409,1168.43 
  258.181,1130.19 260.953,1090.01 263.725,1048.87 266.497,1007.34 269.269,965.355 272.041,922.356 274.814,877.755 277.586,831.325 280.358,783.207 283.13,733.569 
  285.902,682.358 288.674,629.47 291.446,575.21 294.218,520.584 296.99,467.126 299.762,416.397 302.535,369.515 305.307,326.962 308.079,288.665 310.851,254.248 
  313.623,223.312 316.395,195.594 319.167,170.901 321.939,148.989 324.711,129.652 327.484,113.052 330.256,99.9142 333.028,91.287 335.8,87.9763 338.572,90.1516 
  341.344,97.392 344.116,109.002 346.888,124.257 349.66,142.445 352.433,162.825 355.205,184.601 357.977,206.937 360.749,229.105 363.521,250.916 366.293,273.254 
  369.065,298.082 371.837,327.541 374.609,362.589 377.382,402.336 380.154,444.688 382.926,487.689 385.698,530.34 388.47,572.331 391.242,613.313 394.014,652.645 
  396.786,689.851 399.558,725.136 402.33,759.307 405.103,793.138 407.875,826.772 410.647,859.66 413.419,891.031 416.191,920.529 418.963,948.583 421.735,976.258 
  424.507,1004.65 427.279,1034.13 430.052,1064.03 432.824,1092.9 435.596,1119.22 438.368,1142.23 441.14,1162.27 443.912,1180.6 446.684,1198.65 449.456,1217.31 
  452.228,1236.35 455.001,1254.63 457.773,1270.67 460.545,1283.53 463.317,1293.21 466.089,1300.68 468.861,1307.39 471.633,1314.66 474.405,1323.27 477.177,1333.22 
  479.95,1343.92 482.722,1354.53 485.494,1364.37 488.266,1373.16 491.038,1380.96 493.81,1387.92 496.582,1394.11 499.354,1399.55 502.126,1404.23 504.898,1408.21 
  507.671,1411.6 510.443,1414.5 513.215,1417 515.987,1419.21 518.759,1421.23 521.531,1423.16 524.303,1425 527.075,1426.73 529.847,1428.24 532.62,1429.48 
  535.392,1430.47 538.164,1431.32 540.936,1432.15 543.708,1433.05 546.48,1434.03 549.252,1435.07 552.024,1436.07 554.796,1436.96 557.569,1437.72 560.341,1438.39 
  563.113,1439.02 565.885,1439.6 568.657,1440.11 571.429,1440.53 574.201,1440.91 576.973,1441.39 579.745,1442.03 582.517,1442.82 585.29,1443.65 588.062,1444.39 
  590.834,1444.92 593.606,1445.22 596.378,1445.31 599.15,1445.24 601.922,1445.08 604.694,1444.92 607.466,1444.81 610.239,1444.81 613.011,1444.91 615.783,1445.09 
  618.555,1445.29 621.327,1445.46 624.099,1445.58 626.871,1445.65 629.643,1445.69 632.415,1445.71 635.188,1445.71 637.96,1445.71 640.732,1445.72 643.504,1445.72 
  646.276,1445.72 649.048,1445.72 651.82,1445.72 654.592,1445.72 657.364,1445.72 660.137,1445.72 662.909,1445.72 665.681,1445.72 668.453,1445.71 671.225,1445.71 
  673.997,1445.7 676.769,1445.68 679.541,1445.63 682.313,1445.54 685.085,1445.4 687.858,1445.21 690.63,1445.01 693.402,1444.85 696.174,1444.78 698.946,1444.84 
  701.718,1444.99 704.49,1445.19 707.262,1445.38 710.034,1445.53 712.807,1445.63 715.579,1445.68 718.351,1445.7 721.123,1445.71 723.895,1445.71 726.667,1445.72 
  
  "/>
<polyline clip-path="url(#clip432)" style="stroke:#000000; stroke-linecap:butt; stroke-linejoin:round; stroke-width:8; stroke-opacity:1; fill:none" points="
  360.339,2925.65 360.339,-1391.96 
  "/>
<polyline clip-path="url(#clip432)" style="stroke:#000000; stroke-linecap:butt; stroke-linejoin:round; stroke-width:8; stroke-opacity:1; fill:none" points="
  648.133,2925.65 648.133,-1391.96 
  "/>
<polyline clip-path="url(#clip432)" style="stroke:#000000; stroke-linecap:butt; stroke-linejoin:round; stroke-width:8; stroke-opacity:1; fill:none" points="
  282.856,2925.65 282.856,-1391.96 
  "/>
<polyline clip-path="url(#clip432)" style="stroke:#000000; stroke-linecap:butt; stroke-linejoin:round; stroke-width:8; stroke-opacity:1; fill:none" points="
  231.939,2925.65 231.939,-1391.96 
  "/>
<polyline clip-path="url(#clip432)" style="stroke:#000000; stroke-linecap:butt; stroke-linejoin:round; stroke-width:8; stroke-opacity:1; fill:none" points="
  471.029,2925.65 471.029,-1391.96 
  "/>
<polyline clip-path="url(#clip432)" style="stroke:#000000; stroke-linecap:butt; stroke-linejoin:round; stroke-width:8; stroke-opacity:1; fill:none" points="
  1799.31,2925.65 1799.31,-1391.96 
  "/>
<path clip-path="url(#clip430)" d="
M1280.93 302.578 L2278.96 302.578 L2278.96 95.2176 L1280.93 95.2176  Z
  " fill="#ffffff" fill-rule="evenodd" fill-opacity="1"/>
<polyline clip-path="url(#clip430)" style="stroke:#000000; stroke-linecap:butt; stroke-linejoin:round; stroke-width:4; stroke-opacity:1; fill:none" points="
  1280.93,302.578 2278.96,302.578 2278.96,95.2176 1280.93,95.2176 1280.93,302.578 
  "/>
<path clip-path="url(#clip430)" d="
M1305.53 167.794 L1453.11 167.794 L1453.11 126.322 L1305.53 126.322 L1305.53 167.794  Z
  " fill="#009af9" fill-rule="evenodd" fill-opacity="1"/>
<polyline clip-path="url(#clip430)" style="stroke:#009af9; stroke-linecap:butt; stroke-linejoin:round; stroke-width:4; stroke-opacity:1; fill:none" points="
  1305.53,126.322 1453.11,126.322 
  "/>
<path clip-path="url(#clip430)" d="M1494.1 148.134 Q1495.6 148.643 1497.02 150.31 Q1498.45 151.977 1499.89 154.893 L1504.63 164.338 L1499.61 164.338 L1495.19 155.472 Q1493.47 152 1491.85 150.865 Q1490.26 149.731 1487.48 149.731 L1482.39 149.731 L1482.39 164.338 L1477.71 164.338 L1477.71 129.778 L1488.27 129.778 Q1494.19 129.778 1497.11 132.254 Q1500.03 134.731 1500.03 139.731 Q1500.03 142.995 1498.5 145.148 Q1496.99 147.301 1494.1 148.134 M1482.39 133.62 L1482.39 145.889 L1488.27 145.889 Q1491.65 145.889 1493.36 144.338 Q1495.1 142.764 1495.1 139.731 Q1495.1 136.699 1493.36 135.171 Q1491.65 133.62 1488.27 133.62 L1482.39 133.62 Z" fill="#000000" fill-rule="evenodd" fill-opacity="1" /><path clip-path="url(#clip430)" d="M1530.51 150.31 L1530.51 152.393 L1510.93 152.393 Q1511.21 156.791 1513.57 159.106 Q1515.95 161.398 1520.19 161.398 Q1522.64 161.398 1524.93 160.796 Q1527.25 160.194 1529.52 158.99 L1529.52 163.018 Q1527.22 163.99 1524.82 164.5 Q1522.41 165.009 1519.93 165.009 Q1513.73 165.009 1510.1 161.398 Q1506.48 157.787 1506.48 151.629 Q1506.48 145.264 1509.91 141.537 Q1513.36 137.787 1519.19 137.787 Q1524.42 137.787 1527.46 141.166 Q1530.51 144.523 1530.51 150.31 M1526.25 149.06 Q1526.21 145.565 1524.28 143.481 Q1522.39 141.398 1519.24 141.398 Q1515.67 141.398 1513.52 143.412 Q1511.39 145.426 1511.07 149.083 L1526.25 149.06 Z" fill="#000000" fill-rule="evenodd" fill-opacity="1" /><path clip-path="url(#clip430)" d="M1537.5 128.319 L1541.76 128.319 L1541.76 164.338 L1537.5 164.338 L1537.5 128.319 Z" fill="#000000" fill-rule="evenodd" fill-opacity="1" /><path clip-path="url(#clip430)" d="M1562.46 151.305 Q1557.29 151.305 1555.3 152.486 Q1553.31 153.666 1553.31 156.514 Q1553.31 158.782 1554.79 160.125 Q1556.3 161.444 1558.87 161.444 Q1562.41 161.444 1564.54 158.944 Q1566.69 156.421 1566.69 152.254 L1566.69 151.305 L1562.46 151.305 M1570.95 149.546 L1570.95 164.338 L1566.69 164.338 L1566.69 160.402 Q1565.23 162.763 1563.06 163.898 Q1560.88 165.009 1557.73 165.009 Q1553.75 165.009 1551.39 162.787 Q1549.05 160.541 1549.05 156.791 Q1549.05 152.416 1551.97 150.194 Q1554.91 147.972 1560.72 147.972 L1566.69 147.972 L1566.69 147.555 Q1566.69 144.615 1564.75 143.018 Q1562.83 141.398 1559.33 141.398 Q1557.11 141.398 1555 141.93 Q1552.9 142.463 1550.95 143.527 L1550.95 139.592 Q1553.29 138.69 1555.49 138.25 Q1557.69 137.787 1559.77 137.787 Q1565.4 137.787 1568.17 140.703 Q1570.95 143.62 1570.95 149.546 Z" fill="#000000" fill-rule="evenodd" fill-opacity="1" /><path clip-path="url(#clip430)" d="M1583.94 131.051 L1583.94 138.412 L1592.71 138.412 L1592.71 141.722 L1583.94 141.722 L1583.94 155.796 Q1583.94 158.967 1584.79 159.87 Q1585.67 160.773 1588.34 160.773 L1592.71 160.773 L1592.71 164.338 L1588.34 164.338 Q1583.4 164.338 1581.53 162.509 Q1579.65 160.657 1579.65 155.796 L1579.65 141.722 L1576.53 141.722 L1576.53 138.412 L1579.65 138.412 L1579.65 131.051 L1583.94 131.051 Z" fill="#000000" fill-rule="evenodd" fill-opacity="1" /><path clip-path="url(#clip430)" d="M1620.49 150.31 L1620.49 152.393 L1600.9 152.393 Q1601.18 156.791 1603.54 159.106 Q1605.93 161.398 1610.16 161.398 Q1612.62 161.398 1614.91 160.796 Q1617.22 160.194 1619.49 158.99 L1619.49 163.018 Q1617.2 163.99 1614.79 164.5 Q1612.39 165.009 1609.91 165.009 Q1603.71 165.009 1600.07 161.398 Q1596.46 157.787 1596.46 151.629 Q1596.46 145.264 1599.89 141.537 Q1603.34 137.787 1609.17 137.787 Q1614.4 137.787 1617.43 141.166 Q1620.49 144.523 1620.49 150.31 M1616.23 149.06 Q1616.18 145.565 1614.26 143.481 Q1612.36 141.398 1609.21 141.398 Q1605.65 141.398 1603.5 143.412 Q1601.37 145.426 1601.04 149.083 L1616.23 149.06 Z" fill="#000000" fill-rule="evenodd" fill-opacity="1" /><path clip-path="url(#clip430)" d="M1644.54 142.347 L1644.54 128.319 L1648.8 128.319 L1648.8 164.338 L1644.54 164.338 L1644.54 160.449 Q1643.2 162.763 1641.14 163.898 Q1639.1 165.009 1636.23 165.009 Q1631.53 165.009 1628.57 161.259 Q1625.63 157.509 1625.63 151.398 Q1625.63 145.287 1628.57 141.537 Q1631.53 137.787 1636.23 137.787 Q1639.1 137.787 1641.14 138.921 Q1643.2 140.032 1644.54 142.347 M1630.03 151.398 Q1630.03 156.097 1631.95 158.782 Q1633.89 161.444 1637.27 161.444 Q1640.65 161.444 1642.59 158.782 Q1644.54 156.097 1644.54 151.398 Q1644.54 146.699 1642.59 144.037 Q1640.65 141.352 1637.27 141.352 Q1633.89 141.352 1631.95 144.037 Q1630.03 146.699 1630.03 151.398 Z" fill="#000000" fill-rule="evenodd" fill-opacity="1" /><path clip-path="url(#clip430)" d="M1670.16 138.412 L1674.42 138.412 L1679.75 158.643 L1685.05 138.412 L1690.07 138.412 L1695.4 158.643 L1700.7 138.412 L1704.96 138.412 L1698.17 164.338 L1693.15 164.338 L1687.57 143.088 L1681.97 164.338 L1676.95 164.338 L1670.16 138.412 Z" fill="#000000" fill-rule="evenodd" fill-opacity="1" /><path clip-path="url(#clip430)" d="M1721.46 141.398 Q1718.03 141.398 1716.04 144.083 Q1714.05 146.745 1714.05 151.398 Q1714.05 156.051 1716.02 158.736 Q1718.01 161.398 1721.46 161.398 Q1724.86 161.398 1726.85 158.713 Q1728.84 156.027 1728.84 151.398 Q1728.84 146.791 1726.85 144.106 Q1724.86 141.398 1721.46 141.398 M1721.46 137.787 Q1727.02 137.787 1730.19 141.398 Q1733.36 145.009 1733.36 151.398 Q1733.36 157.764 1730.19 161.398 Q1727.02 165.009 1721.46 165.009 Q1715.88 165.009 1712.71 161.398 Q1709.56 157.764 1709.56 151.398 Q1709.56 145.009 1712.71 141.398 Q1715.88 137.787 1721.46 137.787 Z" fill="#000000" fill-rule="evenodd" fill-opacity="1" /><path clip-path="url(#clip430)" d="M1755.44 142.393 Q1754.72 141.977 1753.87 141.791 Q1753.03 141.583 1752.02 141.583 Q1748.4 141.583 1746.46 143.944 Q1744.54 146.282 1744.54 150.68 L1744.54 164.338 L1740.26 164.338 L1740.26 138.412 L1744.54 138.412 L1744.54 142.44 Q1745.88 140.078 1748.03 138.944 Q1750.19 137.787 1753.27 137.787 Q1753.7 137.787 1754.24 137.856 Q1754.77 137.903 1755.42 138.018 L1755.44 142.393 Z" fill="#000000" fill-rule="evenodd" fill-opacity="1" /><path clip-path="url(#clip430)" d="M1759.75 128.319 L1764.03 128.319 L1764.03 149.592 L1776.74 138.412 L1782.18 138.412 L1768.43 150.541 L1782.76 164.338 L1777.2 164.338 L1764.03 151.676 L1764.03 164.338 L1759.75 164.338 L1759.75 128.319 Z" fill="#000000" fill-rule="evenodd" fill-opacity="1" /><path clip-path="url(#clip430)" d="M1812.48 141.398 Q1809.05 141.398 1807.06 144.083 Q1805.07 146.745 1805.07 151.398 Q1805.07 156.051 1807.04 158.736 Q1809.03 161.398 1812.48 161.398 Q1815.88 161.398 1817.87 158.713 Q1819.86 156.027 1819.86 151.398 Q1819.86 146.791 1817.87 144.106 Q1815.88 141.398 1812.48 141.398 M1812.48 137.787 Q1818.03 137.787 1821.2 141.398 Q1824.38 145.009 1824.38 151.398 Q1824.38 157.764 1821.2 161.398 Q1818.03 165.009 1812.48 165.009 Q1806.9 165.009 1803.73 161.398 Q1800.58 157.764 1800.58 151.398 Q1800.58 145.009 1803.73 141.398 Q1806.9 137.787 1812.48 137.787 Z" fill="#000000" fill-rule="evenodd" fill-opacity="1" /><path clip-path="url(#clip430)" d="M1852.99 148.689 L1852.99 164.338 L1848.73 164.338 L1848.73 148.828 Q1848.73 145.148 1847.29 143.319 Q1845.86 141.49 1842.99 141.49 Q1839.54 141.49 1837.55 143.69 Q1835.56 145.889 1835.56 149.685 L1835.56 164.338 L1831.27 164.338 L1831.27 138.412 L1835.56 138.412 L1835.56 142.44 Q1837.08 140.102 1839.14 138.944 Q1841.23 137.787 1843.94 137.787 Q1848.4 137.787 1850.7 140.565 Q1852.99 143.319 1852.99 148.689 Z" fill="#000000" fill-rule="evenodd" fill-opacity="1" /><path clip-path="url(#clip430)" d="M1861.48 128.319 L1865.74 128.319 L1865.74 164.338 L1861.48 164.338 L1861.48 128.319 Z" fill="#000000" fill-rule="evenodd" fill-opacity="1" /><path clip-path="url(#clip430)" d="M1885.44 166.745 Q1883.63 171.375 1881.92 172.787 Q1880.21 174.199 1877.34 174.199 L1873.94 174.199 L1873.94 170.634 L1876.44 170.634 Q1878.2 170.634 1879.17 169.8 Q1880.14 168.967 1881.32 165.865 L1882.08 163.921 L1871.6 138.412 L1876.11 138.412 L1884.21 158.689 L1892.32 138.412 L1896.83 138.412 L1885.44 166.745 Z" fill="#000000" fill-rule="evenodd" fill-opacity="1" /><path clip-path="url(#clip430)" d="
M1305.53 219.634 L1453.11 219.634 L1453.11 178.162 L1305.53 178.162 L1305.53 219.634  Z
  " fill="#e26f46" fill-rule="evenodd" fill-opacity="1"/>
<polyline clip-path="url(#clip430)" style="stroke:#e26f46; stroke-linecap:butt; stroke-linejoin:round; stroke-width:4; stroke-opacity:1; fill:none" points="
  1305.53,178.162 1453.11,178.162 
  "/>
<path clip-path="url(#clip430)" d="M1494.1 199.974 Q1495.6 200.483 1497.02 202.15 Q1498.45 203.817 1499.89 206.733 L1504.63 216.178 L1499.61 216.178 L1495.19 207.312 Q1493.47 203.84 1491.85 202.705 Q1490.26 201.571 1487.48 201.571 L1482.39 201.571 L1482.39 216.178 L1477.71 216.178 L1477.71 181.618 L1488.27 181.618 Q1494.19 181.618 1497.11 184.094 Q1500.03 186.571 1500.03 191.571 Q1500.03 194.835 1498.5 196.988 Q1496.99 199.141 1494.1 199.974 M1482.39 185.46 L1482.39 197.729 L1488.27 197.729 Q1491.65 197.729 1493.36 196.178 Q1495.1 194.604 1495.1 191.571 Q1495.1 188.539 1493.36 187.011 Q1491.65 185.46 1488.27 185.46 L1482.39 185.46 Z" fill="#000000" fill-rule="evenodd" fill-opacity="1" /><path clip-path="url(#clip430)" d="M1530.51 202.15 L1530.51 204.233 L1510.93 204.233 Q1511.21 208.631 1513.57 210.946 Q1515.95 213.238 1520.19 213.238 Q1522.64 213.238 1524.93 212.636 Q1527.25 212.034 1529.52 210.83 L1529.52 214.858 Q1527.22 215.83 1524.82 216.34 Q1522.41 216.849 1519.93 216.849 Q1513.73 216.849 1510.1 213.238 Q1506.48 209.627 1506.48 203.469 Q1506.48 197.104 1509.91 193.377 Q1513.36 189.627 1519.19 189.627 Q1524.42 189.627 1527.46 193.006 Q1530.51 196.363 1530.51 202.15 M1526.25 200.9 Q1526.21 197.405 1524.28 195.321 Q1522.39 193.238 1519.24 193.238 Q1515.67 193.238 1513.52 195.252 Q1511.39 197.266 1511.07 200.923 L1526.25 200.9 Z" fill="#000000" fill-rule="evenodd" fill-opacity="1" /><path clip-path="url(#clip430)" d="M1537.5 180.159 L1541.76 180.159 L1541.76 216.178 L1537.5 216.178 L1537.5 180.159 Z" fill="#000000" fill-rule="evenodd" fill-opacity="1" /><path clip-path="url(#clip430)" d="M1562.46 203.145 Q1557.29 203.145 1555.3 204.326 Q1553.31 205.506 1553.31 208.354 Q1553.31 210.622 1554.79 211.965 Q1556.3 213.284 1558.87 213.284 Q1562.41 213.284 1564.54 210.784 Q1566.69 208.261 1566.69 204.094 L1566.69 203.145 L1562.46 203.145 M1570.95 201.386 L1570.95 216.178 L1566.69 216.178 L1566.69 212.242 Q1565.23 214.603 1563.06 215.738 Q1560.88 216.849 1557.73 216.849 Q1553.75 216.849 1551.39 214.627 Q1549.05 212.381 1549.05 208.631 Q1549.05 204.256 1551.97 202.034 Q1554.91 199.812 1560.72 199.812 L1566.69 199.812 L1566.69 199.395 Q1566.69 196.455 1564.75 194.858 Q1562.83 193.238 1559.33 193.238 Q1557.11 193.238 1555 193.77 Q1552.9 194.303 1550.95 195.367 L1550.95 191.432 Q1553.29 190.53 1555.49 190.09 Q1557.69 189.627 1559.77 189.627 Q1565.4 189.627 1568.17 192.543 Q1570.95 195.46 1570.95 201.386 Z" fill="#000000" fill-rule="evenodd" fill-opacity="1" /><path clip-path="url(#clip430)" d="M1583.94 182.891 L1583.94 190.252 L1592.71 190.252 L1592.71 193.562 L1583.94 193.562 L1583.94 207.636 Q1583.94 210.807 1584.79 211.71 Q1585.67 212.613 1588.34 212.613 L1592.71 212.613 L1592.71 216.178 L1588.34 216.178 Q1583.4 216.178 1581.53 214.349 Q1579.65 212.497 1579.65 207.636 L1579.65 193.562 L1576.53 193.562 L1576.53 190.252 L1579.65 190.252 L1579.65 182.891 L1583.94 182.891 Z" fill="#000000" fill-rule="evenodd" fill-opacity="1" /><path clip-path="url(#clip430)" d="M1620.49 202.15 L1620.49 204.233 L1600.9 204.233 Q1601.18 208.631 1603.54 210.946 Q1605.93 213.238 1610.16 213.238 Q1612.62 213.238 1614.91 212.636 Q1617.22 212.034 1619.49 210.83 L1619.49 214.858 Q1617.2 215.83 1614.79 216.34 Q1612.39 216.849 1609.91 216.849 Q1603.71 216.849 1600.07 213.238 Q1596.46 209.627 1596.46 203.469 Q1596.46 197.104 1599.89 193.377 Q1603.34 189.627 1609.17 189.627 Q1614.4 189.627 1617.43 193.006 Q1620.49 196.363 1620.49 202.15 M1616.23 200.9 Q1616.18 197.405 1614.26 195.321 Q1612.36 193.238 1609.21 193.238 Q1605.65 193.238 1603.5 195.252 Q1601.37 197.266 1601.04 200.923 L1616.23 200.9 Z" fill="#000000" fill-rule="evenodd" fill-opacity="1" /><path clip-path="url(#clip430)" d="M1644.54 194.187 L1644.54 180.159 L1648.8 180.159 L1648.8 216.178 L1644.54 216.178 L1644.54 212.289 Q1643.2 214.603 1641.14 215.738 Q1639.1 216.849 1636.23 216.849 Q1631.53 216.849 1628.57 213.099 Q1625.63 209.349 1625.63 203.238 Q1625.63 197.127 1628.57 193.377 Q1631.53 189.627 1636.23 189.627 Q1639.1 189.627 1641.14 190.761 Q1643.2 191.872 1644.54 194.187 M1630.03 203.238 Q1630.03 207.937 1631.95 210.622 Q1633.89 213.284 1637.27 213.284 Q1640.65 213.284 1642.59 210.622 Q1644.54 207.937 1644.54 203.238 Q1644.54 198.539 1642.59 195.877 Q1640.65 193.192 1637.27 193.192 Q1633.89 193.192 1631.95 195.877 Q1630.03 198.539 1630.03 203.238 Z" fill="#000000" fill-rule="evenodd" fill-opacity="1" /><path clip-path="url(#clip430)" d="M1670.16 190.252 L1674.42 190.252 L1679.75 210.483 L1685.05 190.252 L1690.07 190.252 L1695.4 210.483 L1700.7 190.252 L1704.96 190.252 L1698.17 216.178 L1693.15 216.178 L1687.57 194.928 L1681.97 216.178 L1676.95 216.178 L1670.16 190.252 Z" fill="#000000" fill-rule="evenodd" fill-opacity="1" /><path clip-path="url(#clip430)" d="M1721.46 193.238 Q1718.03 193.238 1716.04 195.923 Q1714.05 198.585 1714.05 203.238 Q1714.05 207.891 1716.02 210.576 Q1718.01 213.238 1721.46 213.238 Q1724.86 213.238 1726.85 210.553 Q1728.84 207.867 1728.84 203.238 Q1728.84 198.631 1726.85 195.946 Q1724.86 193.238 1721.46 193.238 M1721.46 189.627 Q1727.02 189.627 1730.19 193.238 Q1733.36 196.849 1733.36 203.238 Q1733.36 209.604 1730.19 213.238 Q1727.02 216.849 1721.46 216.849 Q1715.88 216.849 1712.71 213.238 Q1709.56 209.604 1709.56 203.238 Q1709.56 196.849 1712.71 193.238 Q1715.88 189.627 1721.46 189.627 Z" fill="#000000" fill-rule="evenodd" fill-opacity="1" /><path clip-path="url(#clip430)" d="M1755.44 194.233 Q1754.72 193.817 1753.87 193.631 Q1753.03 193.423 1752.02 193.423 Q1748.4 193.423 1746.46 195.784 Q1744.54 198.122 1744.54 202.52 L1744.54 216.178 L1740.26 216.178 L1740.26 190.252 L1744.54 190.252 L1744.54 194.28 Q1745.88 191.918 1748.03 190.784 Q1750.19 189.627 1753.27 189.627 Q1753.7 189.627 1754.24 189.696 Q1754.77 189.743 1755.42 189.858 L1755.44 194.233 Z" fill="#000000" fill-rule="evenodd" fill-opacity="1" /><path clip-path="url(#clip430)" d="M1759.75 180.159 L1764.03 180.159 L1764.03 201.432 L1776.74 190.252 L1782.18 190.252 L1768.43 202.381 L1782.76 216.178 L1777.2 216.178 L1764.03 203.516 L1764.03 216.178 L1759.75 216.178 L1759.75 180.159 Z" fill="#000000" fill-rule="evenodd" fill-opacity="1" /><path clip-path="url(#clip430)" d="M1799.95 190.252 L1804.21 190.252 L1809.54 210.483 L1814.84 190.252 L1819.86 190.252 L1825.19 210.483 L1830.49 190.252 L1834.75 190.252 L1827.96 216.178 L1822.94 216.178 L1817.36 194.928 L1811.76 216.178 L1806.74 216.178 L1799.95 190.252 Z" fill="#000000" fill-rule="evenodd" fill-opacity="1" /><path clip-path="url(#clip430)" d="M1841.2 190.252 L1845.46 190.252 L1845.46 216.178 L1841.2 216.178 L1841.2 190.252 M1841.2 180.159 L1845.46 180.159 L1845.46 185.553 L1841.2 185.553 L1841.2 180.159 Z" fill="#000000" fill-rule="evenodd" fill-opacity="1" /><path clip-path="url(#clip430)" d="M1858.59 182.891 L1858.59 190.252 L1867.36 190.252 L1867.36 193.562 L1858.59 193.562 L1858.59 207.636 Q1858.59 210.807 1859.45 211.71 Q1860.32 212.613 1862.99 212.613 L1867.36 212.613 L1867.36 216.178 L1862.99 216.178 Q1858.06 216.178 1856.18 214.349 Q1854.31 212.497 1854.31 207.636 L1854.31 193.562 L1851.18 193.562 L1851.18 190.252 L1854.31 190.252 L1854.31 182.891 L1858.59 182.891 Z" fill="#000000" fill-rule="evenodd" fill-opacity="1" /><path clip-path="url(#clip430)" d="M1894.51 200.529 L1894.51 216.178 L1890.26 216.178 L1890.26 200.668 Q1890.26 196.988 1888.82 195.159 Q1887.38 193.33 1884.51 193.33 Q1881.07 193.33 1879.07 195.53 Q1877.08 197.729 1877.08 201.525 L1877.08 216.178 L1872.8 216.178 L1872.8 180.159 L1877.08 180.159 L1877.08 194.28 Q1878.61 191.942 1880.67 190.784 Q1882.76 189.627 1885.46 189.627 Q1889.93 189.627 1892.22 192.405 Q1894.51 195.159 1894.51 200.529 Z" fill="#000000" fill-rule="evenodd" fill-opacity="1" /><path clip-path="url(#clip430)" d="M1936.74 191.247 L1936.74 195.229 Q1934.93 194.233 1933.1 193.747 Q1931.3 193.238 1929.44 193.238 Q1925.3 193.238 1923.01 195.877 Q1920.72 198.492 1920.72 203.238 Q1920.72 207.983 1923.01 210.622 Q1925.3 213.238 1929.44 213.238 Q1931.3 213.238 1933.1 212.752 Q1934.93 212.242 1936.74 211.247 L1936.74 215.182 Q1934.95 216.016 1933.03 216.432 Q1931.13 216.849 1928.98 216.849 Q1923.13 216.849 1919.68 213.168 Q1916.23 209.488 1916.23 203.238 Q1916.23 196.895 1919.7 193.261 Q1923.19 189.627 1929.26 189.627 Q1931.23 189.627 1933.1 190.043 Q1934.98 190.437 1936.74 191.247 Z" fill="#000000" fill-rule="evenodd" fill-opacity="1" /><path clip-path="url(#clip430)" d="M1943.7 205.946 L1943.7 190.252 L1947.96 190.252 L1947.96 205.784 Q1947.96 209.465 1949.4 211.316 Q1950.83 213.145 1953.7 213.145 Q1957.15 213.145 1959.14 210.946 Q1961.16 208.747 1961.16 204.951 L1961.16 190.252 L1965.42 190.252 L1965.42 216.178 L1961.16 216.178 L1961.16 212.196 Q1959.61 214.557 1957.55 215.715 Q1955.51 216.849 1952.8 216.849 Q1948.33 216.849 1946.02 214.071 Q1943.7 211.293 1943.7 205.946 M1954.42 189.627 L1954.42 189.627 Z" fill="#000000" fill-rule="evenodd" fill-opacity="1" /><path clip-path="url(#clip430)" d="M1989.21 194.233 Q1988.5 193.817 1987.64 193.631 Q1986.81 193.423 1985.79 193.423 Q1982.18 193.423 1980.23 195.784 Q1978.31 198.122 1978.31 202.52 L1978.31 216.178 L1974.03 216.178 L1974.03 190.252 L1978.31 190.252 L1978.31 194.28 Q1979.65 191.918 1981.81 190.784 Q1983.96 189.627 1987.04 189.627 Q1987.48 189.627 1988.01 189.696 Q1988.54 189.743 1989.19 189.858 L1989.21 194.233 Z" fill="#000000" fill-rule="evenodd" fill-opacity="1" /><path clip-path="url(#clip430)" d="M2007.87 194.233 Q2007.15 193.817 2006.3 193.631 Q2005.46 193.423 2004.44 193.423 Q2000.83 193.423 1998.89 195.784 Q1996.97 198.122 1996.97 202.52 L1996.97 216.178 L1992.69 216.178 L1992.69 190.252 L1996.97 190.252 L1996.97 194.28 Q1998.31 191.918 2000.46 190.784 Q2002.62 189.627 2005.69 189.627 Q2006.13 189.627 2006.67 189.696 Q2007.2 189.743 2007.85 189.858 L2007.87 194.233 Z" fill="#000000" fill-rule="evenodd" fill-opacity="1" /><path clip-path="url(#clip430)" d="M2033.47 202.15 L2033.47 204.233 L2013.89 204.233 Q2014.17 208.631 2016.53 210.946 Q2018.91 213.238 2023.15 213.238 Q2025.6 213.238 2027.89 212.636 Q2030.21 212.034 2032.48 210.83 L2032.48 214.858 Q2030.18 215.83 2027.78 216.34 Q2025.37 216.849 2022.89 216.849 Q2016.69 216.849 2013.06 213.238 Q2009.44 209.627 2009.44 203.469 Q2009.44 197.104 2012.87 193.377 Q2016.32 189.627 2022.15 189.627 Q2027.38 189.627 2030.42 193.006 Q2033.47 196.363 2033.47 202.15 M2029.21 200.9 Q2029.17 197.405 2027.25 195.321 Q2025.35 193.238 2022.2 193.238 Q2018.63 193.238 2016.48 195.252 Q2014.35 197.266 2014.03 200.923 L2029.21 200.9 Z" fill="#000000" fill-rule="evenodd" fill-opacity="1" /><path clip-path="url(#clip430)" d="M2062.01 200.529 L2062.01 216.178 L2057.75 216.178 L2057.75 200.668 Q2057.75 196.988 2056.32 195.159 Q2054.88 193.33 2052.01 193.33 Q2048.56 193.33 2046.57 195.53 Q2044.58 197.729 2044.58 201.525 L2044.58 216.178 L2040.3 216.178 L2040.3 190.252 L2044.58 190.252 L2044.58 194.28 Q2046.11 191.942 2048.17 190.784 Q2050.25 189.627 2052.96 189.627 Q2057.43 189.627 2059.72 192.405 Q2062.01 195.159 2062.01 200.529 Z" fill="#000000" fill-rule="evenodd" fill-opacity="1" /><path clip-path="url(#clip430)" d="M2074.72 182.891 L2074.72 190.252 L2083.49 190.252 L2083.49 193.562 L2074.72 193.562 L2074.72 207.636 Q2074.72 210.807 2075.58 211.71 Q2076.46 212.613 2079.12 212.613 L2083.49 212.613 L2083.49 216.178 L2079.12 216.178 Q2074.19 216.178 2072.31 214.349 Q2070.44 212.497 2070.44 207.636 L2070.44 193.562 L2067.31 193.562 L2067.31 190.252 L2070.44 190.252 L2070.44 182.891 L2074.72 182.891 Z" fill="#000000" fill-rule="evenodd" fill-opacity="1" /><path clip-path="url(#clip430)" d="M2120.69 191.016 L2120.69 195.043 Q2118.89 194.117 2116.94 193.655 Q2115 193.192 2112.92 193.192 Q2109.74 193.192 2108.15 194.164 Q2106.57 195.136 2106.57 197.08 Q2106.57 198.562 2107.71 199.418 Q2108.84 200.252 2112.27 201.016 L2113.73 201.34 Q2118.26 202.312 2120.16 204.094 Q2122.08 205.854 2122.08 209.025 Q2122.08 212.636 2119.21 214.742 Q2116.37 216.849 2111.37 216.849 Q2109.28 216.849 2107.01 216.432 Q2104.77 216.039 2102.27 215.228 L2102.27 210.83 Q2104.63 212.057 2106.92 212.682 Q2109.21 213.284 2111.46 213.284 Q2114.47 213.284 2116.09 212.266 Q2117.71 211.224 2117.71 209.349 Q2117.71 207.613 2116.53 206.687 Q2115.37 205.761 2111.41 204.904 L2109.93 204.557 Q2105.97 203.724 2104.21 202.011 Q2102.45 200.275 2102.45 197.266 Q2102.45 193.608 2105.05 191.618 Q2107.64 189.627 2112.41 189.627 Q2114.77 189.627 2116.85 189.974 Q2118.93 190.321 2120.69 191.016 Z" fill="#000000" fill-rule="evenodd" fill-opacity="1" /><path clip-path="url(#clip430)" d="M2133.08 182.891 L2133.08 190.252 L2141.85 190.252 L2141.85 193.562 L2133.08 193.562 L2133.08 207.636 Q2133.08 210.807 2133.93 211.71 Q2134.81 212.613 2137.48 212.613 L2141.85 212.613 L2141.85 216.178 L2137.48 216.178 Q2132.55 216.178 2130.67 214.349 Q2128.8 212.497 2128.8 207.636 L2128.8 193.562 L2125.67 193.562 L2125.67 190.252 L2128.8 190.252 L2128.8 182.891 L2133.08 182.891 Z" fill="#000000" fill-rule="evenodd" fill-opacity="1" /><path clip-path="url(#clip430)" d="M2147.01 205.946 L2147.01 190.252 L2151.27 190.252 L2151.27 205.784 Q2151.27 209.465 2152.71 211.316 Q2154.14 213.145 2157.01 213.145 Q2160.46 213.145 2162.45 210.946 Q2164.47 208.747 2164.47 204.951 L2164.47 190.252 L2168.73 190.252 L2168.73 216.178 L2164.47 216.178 L2164.47 212.196 Q2162.92 214.557 2160.86 215.715 Q2158.82 216.849 2156.11 216.849 Q2151.64 216.849 2149.33 214.071 Q2147.01 211.293 2147.01 205.946 M2157.73 189.627 L2157.73 189.627 Z" fill="#000000" fill-rule="evenodd" fill-opacity="1" /><path clip-path="url(#clip430)" d="M2194.56 194.187 L2194.56 180.159 L2198.82 180.159 L2198.82 216.178 L2194.56 216.178 L2194.56 212.289 Q2193.22 214.603 2191.16 215.738 Q2189.12 216.849 2186.25 216.849 Q2181.55 216.849 2178.59 213.099 Q2175.65 209.349 2175.65 203.238 Q2175.65 197.127 2178.59 193.377 Q2181.55 189.627 2186.25 189.627 Q2189.12 189.627 2191.16 190.761 Q2193.22 191.872 2194.56 194.187 M2180.05 203.238 Q2180.05 207.937 2181.97 210.622 Q2183.91 213.284 2187.29 213.284 Q2190.67 213.284 2192.61 210.622 Q2194.56 207.937 2194.56 203.238 Q2194.56 198.539 2192.61 195.877 Q2190.67 193.192 2187.29 193.192 Q2183.91 193.192 2181.97 195.877 Q2180.05 198.539 2180.05 203.238 Z" fill="#000000" fill-rule="evenodd" fill-opacity="1" /><path clip-path="url(#clip430)" d="M2218.38 218.585 Q2216.57 223.215 2214.86 224.627 Q2213.15 226.039 2210.28 226.039 L2206.87 226.039 L2206.87 222.474 L2209.37 222.474 Q2211.13 222.474 2212.11 221.64 Q2213.08 220.807 2214.26 217.705 L2215.02 215.761 L2204.54 190.252 L2209.05 190.252 L2217.15 210.529 L2225.25 190.252 L2229.77 190.252 L2218.38 218.585 Z" fill="#000000" fill-rule="evenodd" fill-opacity="1" /><polyline clip-path="url(#clip430)" style="stroke:#000000; stroke-linecap:butt; stroke-linejoin:round; stroke-width:4; stroke-opacity:1; fill:none" points="
  1305.53,250.738 1453.11,250.738 
  "/>
<path clip-path="url(#clip430)" d="M1492.9 246.073 Q1492.18 245.657 1491.32 245.471 Q1490.49 245.263 1489.47 245.263 Q1485.86 245.263 1483.91 247.624 Q1481.99 249.962 1481.99 254.36 L1481.99 268.018 L1477.71 268.018 L1477.71 242.092 L1481.99 242.092 L1481.99 246.12 Q1483.34 243.758 1485.49 242.624 Q1487.64 241.467 1490.72 241.467 Q1491.16 241.467 1491.69 241.536 Q1492.22 241.583 1492.87 241.698 L1492.9 246.073 Z" fill="#000000" fill-rule="evenodd" fill-opacity="1" /><path clip-path="url(#clip430)" d="M1518.5 253.99 L1518.5 256.073 L1498.91 256.073 Q1499.19 260.471 1501.55 262.786 Q1503.94 265.078 1508.17 265.078 Q1510.63 265.078 1512.92 264.476 Q1515.23 263.874 1517.5 262.67 L1517.5 266.698 Q1515.21 267.67 1512.8 268.18 Q1510.4 268.689 1507.92 268.689 Q1501.72 268.689 1498.08 265.078 Q1494.47 261.467 1494.47 255.309 Q1494.47 248.944 1497.9 245.217 Q1501.35 241.467 1507.18 241.467 Q1512.41 241.467 1515.44 244.846 Q1518.5 248.203 1518.5 253.99 M1514.24 252.74 Q1514.19 249.245 1512.27 247.161 Q1510.37 245.078 1507.22 245.078 Q1503.66 245.078 1501.51 247.092 Q1499.38 249.106 1499.05 252.763 L1514.24 252.74 Z" fill="#000000" fill-rule="evenodd" fill-opacity="1" /><path clip-path="url(#clip430)" d="M1525.49 231.999 L1529.75 231.999 L1529.75 268.018 L1525.49 268.018 L1525.49 231.999 Z" fill="#000000" fill-rule="evenodd" fill-opacity="1" /><path clip-path="url(#clip430)" d="M1550.44 254.985 Q1545.28 254.985 1543.29 256.166 Q1541.3 257.346 1541.3 260.194 Q1541.3 262.462 1542.78 263.805 Q1544.28 265.124 1546.85 265.124 Q1550.4 265.124 1552.53 262.624 Q1554.68 260.101 1554.68 255.934 L1554.68 254.985 L1550.44 254.985 M1558.94 253.226 L1558.94 268.018 L1554.68 268.018 L1554.68 264.082 Q1553.22 266.443 1551.04 267.578 Q1548.87 268.689 1545.72 268.689 Q1541.74 268.689 1539.38 266.467 Q1537.04 264.221 1537.04 260.471 Q1537.04 256.096 1539.96 253.874 Q1542.9 251.652 1548.71 251.652 L1554.68 251.652 L1554.68 251.235 Q1554.68 248.295 1552.73 246.698 Q1550.81 245.078 1547.32 245.078 Q1545.09 245.078 1542.99 245.61 Q1540.88 246.143 1538.94 247.207 L1538.94 243.272 Q1541.28 242.37 1543.47 241.93 Q1545.67 241.467 1547.76 241.467 Q1553.38 241.467 1556.16 244.383 Q1558.94 247.3 1558.94 253.226 Z" fill="#000000" fill-rule="evenodd" fill-opacity="1" /><path clip-path="url(#clip430)" d="M1571.92 234.731 L1571.92 242.092 L1580.7 242.092 L1580.7 245.402 L1571.92 245.402 L1571.92 259.476 Q1571.92 262.647 1572.78 263.55 Q1573.66 264.453 1576.32 264.453 L1580.7 264.453 L1580.7 268.018 L1576.32 268.018 Q1571.39 268.018 1569.52 266.189 Q1567.64 264.337 1567.64 259.476 L1567.64 245.402 L1564.52 245.402 L1564.52 242.092 L1567.64 242.092 L1567.64 234.731 L1571.92 234.731 Z" fill="#000000" fill-rule="evenodd" fill-opacity="1" /><path clip-path="url(#clip430)" d="M1608.47 253.99 L1608.47 256.073 L1588.89 256.073 Q1589.17 260.471 1591.53 262.786 Q1593.91 265.078 1598.15 265.078 Q1600.6 265.078 1602.9 264.476 Q1605.21 263.874 1607.48 262.67 L1607.48 266.698 Q1605.19 267.67 1602.78 268.18 Q1600.37 268.689 1597.9 268.689 Q1591.69 268.689 1588.06 265.078 Q1584.45 261.467 1584.45 255.309 Q1584.45 248.944 1587.87 245.217 Q1591.32 241.467 1597.15 241.467 Q1602.39 241.467 1605.42 244.846 Q1608.47 248.203 1608.47 253.99 M1604.22 252.74 Q1604.17 249.245 1602.25 247.161 Q1600.35 245.078 1597.2 245.078 Q1593.64 245.078 1591.48 247.092 Q1589.35 249.106 1589.03 252.763 L1604.22 252.74 Z" fill="#000000" fill-rule="evenodd" fill-opacity="1" /><path clip-path="url(#clip430)" d="M1632.53 246.027 L1632.53 231.999 L1636.78 231.999 L1636.78 268.018 L1632.53 268.018 L1632.53 264.129 Q1631.18 266.443 1629.12 267.578 Q1627.09 268.689 1624.21 268.689 Q1619.52 268.689 1616.55 264.939 Q1613.61 261.189 1613.61 255.078 Q1613.61 248.967 1616.55 245.217 Q1619.52 241.467 1624.21 241.467 Q1627.09 241.467 1629.12 242.601 Q1631.18 243.712 1632.53 246.027 M1618.01 255.078 Q1618.01 259.777 1619.93 262.462 Q1621.88 265.124 1625.26 265.124 Q1628.64 265.124 1630.58 262.462 Q1632.53 259.777 1632.53 255.078 Q1632.53 250.379 1630.58 247.717 Q1628.64 245.032 1625.26 245.032 Q1621.88 245.032 1619.93 247.717 Q1618.01 250.379 1618.01 255.078 Z" fill="#000000" fill-rule="evenodd" fill-opacity="1" /><path clip-path="url(#clip430)" d="M1658.15 242.092 L1662.41 242.092 L1667.73 262.323 L1673.03 242.092 L1678.06 242.092 L1683.38 262.323 L1688.68 242.092 L1692.94 242.092 L1686.16 268.018 L1681.14 268.018 L1675.56 246.768 L1669.96 268.018 L1664.93 268.018 L1658.15 242.092 Z" fill="#000000" fill-rule="evenodd" fill-opacity="1" /><path clip-path="url(#clip430)" d="M1709.45 245.078 Q1706.02 245.078 1704.03 247.763 Q1702.04 250.425 1702.04 255.078 Q1702.04 259.731 1704.01 262.416 Q1706 265.078 1709.45 265.078 Q1712.85 265.078 1714.84 262.393 Q1716.83 259.707 1716.83 255.078 Q1716.83 250.471 1714.84 247.786 Q1712.85 245.078 1709.45 245.078 M1709.45 241.467 Q1715 241.467 1718.17 245.078 Q1721.34 248.689 1721.34 255.078 Q1721.34 261.444 1718.17 265.078 Q1715 268.689 1709.45 268.689 Q1703.87 268.689 1700.7 265.078 Q1697.55 261.444 1697.55 255.078 Q1697.55 248.689 1700.7 245.078 Q1703.87 241.467 1709.45 241.467 Z" fill="#000000" fill-rule="evenodd" fill-opacity="1" /><path clip-path="url(#clip430)" d="M1743.43 246.073 Q1742.71 245.657 1741.85 245.471 Q1741.02 245.263 1740 245.263 Q1736.39 245.263 1734.45 247.624 Q1732.52 249.962 1732.52 254.36 L1732.52 268.018 L1728.24 268.018 L1728.24 242.092 L1732.52 242.092 L1732.52 246.12 Q1733.87 243.758 1736.02 242.624 Q1738.17 241.467 1741.25 241.467 Q1741.69 241.467 1742.22 241.536 Q1742.76 241.583 1743.4 241.698 L1743.43 246.073 Z" fill="#000000" fill-rule="evenodd" fill-opacity="1" /><path clip-path="url(#clip430)" d="M1747.73 231.999 L1752.02 231.999 L1752.02 253.272 L1764.72 242.092 L1770.16 242.092 L1756.41 254.221 L1770.74 268.018 L1765.19 268.018 L1752.02 255.356 L1752.02 268.018 L1747.73 268.018 L1747.73 231.999 Z" fill="#000000" fill-rule="evenodd" fill-opacity="1" /><path clip-path="url(#clip430)" d="M1812.59 253.99 L1812.59 256.073 L1793.01 256.073 Q1793.29 260.471 1795.65 262.786 Q1798.03 265.078 1802.27 265.078 Q1804.72 265.078 1807.01 264.476 Q1809.33 263.874 1811.6 262.67 L1811.6 266.698 Q1809.31 267.67 1806.9 268.18 Q1804.49 268.689 1802.01 268.689 Q1795.81 268.689 1792.18 265.078 Q1788.57 261.467 1788.57 255.309 Q1788.57 248.944 1791.99 245.217 Q1795.44 241.467 1801.27 241.467 Q1806.51 241.467 1809.54 244.846 Q1812.59 248.203 1812.59 253.99 M1808.33 252.74 Q1808.29 249.245 1806.37 247.161 Q1804.47 245.078 1801.32 245.078 Q1797.76 245.078 1795.6 247.092 Q1793.47 249.106 1793.15 252.763 L1808.33 252.74 Z" fill="#000000" fill-rule="evenodd" fill-opacity="1" /><path clip-path="url(#clip430)" d="M1836.11 242.856 L1836.11 246.883 Q1834.31 245.957 1832.36 245.495 Q1830.42 245.032 1828.33 245.032 Q1825.16 245.032 1823.57 246.004 Q1821.99 246.976 1821.99 248.92 Q1821.99 250.402 1823.13 251.258 Q1824.26 252.092 1827.69 252.856 L1829.14 253.18 Q1833.68 254.152 1835.58 255.934 Q1837.5 257.694 1837.5 260.865 Q1837.5 264.476 1834.63 266.582 Q1831.78 268.689 1826.78 268.689 Q1824.7 268.689 1822.43 268.272 Q1820.19 267.879 1817.69 267.068 L1817.69 262.67 Q1820.05 263.897 1822.34 264.522 Q1824.63 265.124 1826.88 265.124 Q1829.89 265.124 1831.51 264.106 Q1833.13 263.064 1833.13 261.189 Q1833.13 259.453 1831.95 258.527 Q1830.79 257.601 1826.83 256.744 L1825.35 256.397 Q1821.39 255.564 1819.63 253.851 Q1817.87 252.115 1817.87 249.106 Q1817.87 245.448 1820.46 243.458 Q1823.06 241.467 1827.82 241.467 Q1830.19 241.467 1832.27 241.814 Q1834.35 242.161 1836.11 242.856 Z" fill="#000000" fill-rule="evenodd" fill-opacity="1" /><path clip-path="url(#clip430)" d="M1848.5 234.731 L1848.5 242.092 L1857.27 242.092 L1857.27 245.402 L1848.5 245.402 L1848.5 259.476 Q1848.5 262.647 1849.35 263.55 Q1850.23 264.453 1852.89 264.453 L1857.27 264.453 L1857.27 268.018 L1852.89 268.018 Q1847.96 268.018 1846.09 266.189 Q1844.21 264.337 1844.21 259.476 L1844.21 245.402 L1841.09 245.402 L1841.09 242.092 L1844.21 242.092 L1844.21 234.731 L1848.5 234.731 Z" fill="#000000" fill-rule="evenodd" fill-opacity="1" /><path clip-path="url(#clip430)" d="M1862.87 242.092 L1867.13 242.092 L1867.13 268.018 L1862.87 268.018 L1862.87 242.092 M1862.87 231.999 L1867.13 231.999 L1867.13 237.393 L1862.87 237.393 L1862.87 231.999 Z" fill="#000000" fill-rule="evenodd" fill-opacity="1" /><path clip-path="url(#clip430)" d="M1896.23 247.069 Q1897.82 244.198 1900.05 242.833 Q1902.27 241.467 1905.28 241.467 Q1909.33 241.467 1911.53 244.314 Q1913.73 247.138 1913.73 252.369 L1913.73 268.018 L1909.44 268.018 L1909.44 252.508 Q1909.44 248.782 1908.13 246.976 Q1906.81 245.17 1904.1 245.17 Q1900.79 245.17 1898.87 247.37 Q1896.94 249.569 1896.94 253.365 L1896.94 268.018 L1892.66 268.018 L1892.66 252.508 Q1892.66 248.758 1891.34 246.976 Q1890.02 245.17 1887.27 245.17 Q1884.01 245.17 1882.08 247.393 Q1880.16 249.592 1880.16 253.365 L1880.16 268.018 L1875.88 268.018 L1875.88 242.092 L1880.16 242.092 L1880.16 246.12 Q1881.62 243.735 1883.66 242.601 Q1885.69 241.467 1888.5 241.467 Q1891.32 241.467 1893.29 242.902 Q1895.28 244.337 1896.23 247.069 Z" fill="#000000" fill-rule="evenodd" fill-opacity="1" /><path clip-path="url(#clip430)" d="M1934 254.985 Q1928.84 254.985 1926.85 256.166 Q1924.86 257.346 1924.86 260.194 Q1924.86 262.462 1926.34 263.805 Q1927.85 265.124 1930.42 265.124 Q1933.96 265.124 1936.09 262.624 Q1938.24 260.101 1938.24 255.934 L1938.24 254.985 L1934 254.985 M1942.5 253.226 L1942.5 268.018 L1938.24 268.018 L1938.24 264.082 Q1936.78 266.443 1934.61 267.578 Q1932.43 268.689 1929.28 268.689 Q1925.3 268.689 1922.94 266.467 Q1920.6 264.221 1920.6 260.471 Q1920.6 256.096 1923.52 253.874 Q1926.46 251.652 1932.27 251.652 L1938.24 251.652 L1938.24 251.235 Q1938.24 248.295 1936.3 246.698 Q1934.38 245.078 1930.88 245.078 Q1928.66 245.078 1926.55 245.61 Q1924.44 246.143 1922.5 247.207 L1922.5 243.272 Q1924.84 242.37 1927.04 241.93 Q1929.24 241.467 1931.32 241.467 Q1936.94 241.467 1939.72 244.383 Q1942.5 247.3 1942.5 253.226 Z" fill="#000000" fill-rule="evenodd" fill-opacity="1" /><path clip-path="url(#clip430)" d="M1955.49 234.731 L1955.49 242.092 L1964.26 242.092 L1964.26 245.402 L1955.49 245.402 L1955.49 259.476 Q1955.49 262.647 1956.34 263.55 Q1957.22 264.453 1959.88 264.453 L1964.26 264.453 L1964.26 268.018 L1959.88 268.018 Q1954.95 268.018 1953.08 266.189 Q1951.2 264.337 1951.2 259.476 L1951.2 245.402 L1948.08 245.402 L1948.08 242.092 L1951.2 242.092 L1951.2 234.731 L1955.49 234.731 Z" fill="#000000" fill-rule="evenodd" fill-opacity="1" /><path clip-path="url(#clip430)" d="M1992.04 253.99 L1992.04 256.073 L1972.45 256.073 Q1972.73 260.471 1975.09 262.786 Q1977.48 265.078 1981.71 265.078 Q1984.17 265.078 1986.46 264.476 Q1988.77 263.874 1991.04 262.67 L1991.04 266.698 Q1988.75 267.67 1986.34 268.18 Q1983.94 268.689 1981.46 268.689 Q1975.25 268.689 1971.62 265.078 Q1968.01 261.467 1968.01 255.309 Q1968.01 248.944 1971.44 245.217 Q1974.88 241.467 1980.72 241.467 Q1985.95 241.467 1988.98 244.846 Q1992.04 248.203 1992.04 253.99 M1987.78 252.74 Q1987.73 249.245 1985.81 247.161 Q1983.91 245.078 1980.76 245.078 Q1977.2 245.078 1975.05 247.092 Q1972.92 249.106 1972.59 252.763 L1987.78 252.74 Z" fill="#000000" fill-rule="evenodd" fill-opacity="1" /><path clip-path="url(#clip430)" d="M2015.56 242.856 L2015.56 246.883 Q2013.75 245.957 2011.81 245.495 Q2009.86 245.032 2007.78 245.032 Q2004.61 245.032 2003.01 246.004 Q2001.44 246.976 2001.44 248.92 Q2001.44 250.402 2002.57 251.258 Q2003.7 252.092 2007.13 252.856 L2008.59 253.18 Q2013.12 254.152 2015.02 255.934 Q2016.94 257.694 2016.94 260.865 Q2016.94 264.476 2014.07 266.582 Q2011.23 268.689 2006.23 268.689 Q2004.14 268.689 2001.87 268.272 Q1999.63 267.879 1997.13 267.068 L1997.13 262.67 Q1999.49 263.897 2001.78 264.522 Q2004.07 265.124 2006.32 265.124 Q2009.33 265.124 2010.95 264.106 Q2012.57 263.064 2012.57 261.189 Q2012.57 259.453 2011.39 258.527 Q2010.23 257.601 2006.27 256.744 L2004.79 256.397 Q2000.83 255.564 1999.07 253.851 Q1997.31 252.115 1997.31 249.106 Q1997.31 245.448 1999.91 243.458 Q2002.5 241.467 2007.27 241.467 Q2009.63 241.467 2011.71 241.814 Q2013.8 242.161 2015.56 242.856 Z" fill="#000000" fill-rule="evenodd" fill-opacity="1" /></svg>
