<?xml version="1.0" encoding="utf-8"?>
<svg xmlns="http://www.w3.org/2000/svg" xmlns:xlink="http://www.w3.org/1999/xlink" width="600" height="400" viewBox="0 0 2400 1600">
<defs>
  <clipPath id="clip270">
    <rect x="0" y="0" width="2400" height="1600"/>
  </clipPath>
</defs>
<path clip-path="url(#clip270)" d="
M0 1600 L2400 1600 L2400 0 L0 0  Z
  " fill="#ffffff" fill-rule="evenodd" fill-opacity="1"/>
<defs>
  <clipPath id="clip271">
    <rect x="480" y="0" width="1681" height="1600"/>
  </clipPath>
</defs>
<path clip-path="url(#clip270)" d="
M175.445 1423.18 L2352.76 1423.18 L2352.76 47.2441 L175.445 47.2441  Z
  " fill="#ffffff" fill-rule="evenodd" fill-opacity="1"/>
<defs>
  <clipPath id="clip272">
    <rect x="175" y="47" width="2178" height="1377"/>
  </clipPath>
</defs>
<polyline clip-path="url(#clip272)" style="stroke:#000000; stroke-linecap:butt; stroke-linejoin:round; stroke-width:2; stroke-opacity:0.1; fill:none" points="
  237.067,1423.18 237.067,47.2441 
  "/>
<polyline clip-path="url(#clip272)" style="stroke:#000000; stroke-linecap:butt; stroke-linejoin:round; stroke-width:2; stroke-opacity:0.1; fill:none" points="
  750.584,1423.18 750.584,47.2441 
  "/>
<polyline clip-path="url(#clip272)" style="stroke:#000000; stroke-linecap:butt; stroke-linejoin:round; stroke-width:2; stroke-opacity:0.1; fill:none" points="
  1264.1,1423.18 1264.1,47.2441 
  "/>
<polyline clip-path="url(#clip272)" style="stroke:#000000; stroke-linecap:butt; stroke-linejoin:round; stroke-width:2; stroke-opacity:0.1; fill:none" points="
  1777.62,1423.18 1777.62,47.2441 
  "/>
<polyline clip-path="url(#clip272)" style="stroke:#000000; stroke-linecap:butt; stroke-linejoin:round; stroke-width:2; stroke-opacity:0.1; fill:none" points="
  2291.13,1423.18 2291.13,47.2441 
  "/>
<polyline clip-path="url(#clip270)" style="stroke:#000000; stroke-linecap:butt; stroke-linejoin:round; stroke-width:4; stroke-opacity:1; fill:none" points="
  175.445,1423.18 2352.76,1423.18 
  "/>
<polyline clip-path="url(#clip270)" style="stroke:#000000; stroke-linecap:butt; stroke-linejoin:round; stroke-width:4; stroke-opacity:1; fill:none" points="
  237.067,1423.18 237.067,1404.28 
  "/>
<polyline clip-path="url(#clip270)" style="stroke:#000000; stroke-linecap:butt; stroke-linejoin:round; stroke-width:4; stroke-opacity:1; fill:none" points="
  750.584,1423.18 750.584,1404.28 
  "/>
<polyline clip-path="url(#clip270)" style="stroke:#000000; stroke-linecap:butt; stroke-linejoin:round; stroke-width:4; stroke-opacity:1; fill:none" points="
  1264.1,1423.18 1264.1,1404.28 
  "/>
<polyline clip-path="url(#clip270)" style="stroke:#000000; stroke-linecap:butt; stroke-linejoin:round; stroke-width:4; stroke-opacity:1; fill:none" points="
  1777.62,1423.18 1777.62,1404.28 
  "/>
<polyline clip-path="url(#clip270)" style="stroke:#000000; stroke-linecap:butt; stroke-linejoin:round; stroke-width:4; stroke-opacity:1; fill:none" points="
  2291.13,1423.18 2291.13,1404.28 
  "/>
<path clip-path="url(#clip270)" d="M214.452 1454.1 Q210.84 1454.1 209.012 1457.66 Q207.206 1461.2 207.206 1468.33 Q207.206 1475.44 209.012 1479.01 Q210.84 1482.55 214.452 1482.55 Q218.086 1482.55 219.891 1479.01 Q221.72 1475.44 221.72 1468.33 Q221.72 1461.2 219.891 1457.66 Q218.086 1454.1 214.452 1454.1 M214.452 1450.39 Q220.262 1450.39 223.317 1455 Q226.396 1459.58 226.396 1468.33 Q226.396 1477.06 223.317 1481.67 Q220.262 1486.25 214.452 1486.25 Q208.641 1486.25 205.563 1481.67 Q202.507 1477.06 202.507 1468.33 Q202.507 1459.58 205.563 1455 Q208.641 1450.39 214.452 1450.39 Z" fill="#000000" fill-rule="evenodd" fill-opacity="1" /><path clip-path="url(#clip270)" d="M234.614 1479.7 L239.498 1479.7 L239.498 1485.58 L234.614 1485.58 L234.614 1479.7 Z" fill="#000000" fill-rule="evenodd" fill-opacity="1" /><path clip-path="url(#clip270)" d="M259.683 1454.1 Q256.072 1454.1 254.243 1457.66 Q252.437 1461.2 252.437 1468.33 Q252.437 1475.44 254.243 1479.01 Q256.072 1482.55 259.683 1482.55 Q263.317 1482.55 265.123 1479.01 Q266.951 1475.44 266.951 1468.33 Q266.951 1461.2 265.123 1457.66 Q263.317 1454.1 259.683 1454.1 M259.683 1450.39 Q265.493 1450.39 268.549 1455 Q271.627 1459.58 271.627 1468.33 Q271.627 1477.06 268.549 1481.67 Q265.493 1486.25 259.683 1486.25 Q253.873 1486.25 250.794 1481.67 Q247.738 1477.06 247.738 1468.33 Q247.738 1459.58 250.794 1455 Q253.873 1450.39 259.683 1450.39 Z" fill="#000000" fill-rule="evenodd" fill-opacity="1" /><path clip-path="url(#clip270)" d="M728.582 1454.1 Q724.971 1454.1 723.142 1457.66 Q721.336 1461.2 721.336 1468.33 Q721.336 1475.44 723.142 1479.01 Q724.971 1482.55 728.582 1482.55 Q732.216 1482.55 734.021 1479.01 Q735.85 1475.44 735.85 1468.33 Q735.85 1461.2 734.021 1457.66 Q732.216 1454.1 728.582 1454.1 M728.582 1450.39 Q734.392 1450.39 737.447 1455 Q740.526 1459.58 740.526 1468.33 Q740.526 1477.06 737.447 1481.67 Q734.392 1486.25 728.582 1486.25 Q722.772 1486.25 719.693 1481.67 Q716.637 1477.06 716.637 1468.33 Q716.637 1459.58 719.693 1455 Q722.772 1450.39 728.582 1450.39 Z" fill="#000000" fill-rule="evenodd" fill-opacity="1" /><path clip-path="url(#clip270)" d="M748.744 1479.7 L753.628 1479.7 L753.628 1485.58 L748.744 1485.58 L748.744 1479.7 Z" fill="#000000" fill-rule="evenodd" fill-opacity="1" /><path clip-path="url(#clip270)" d="M764.623 1481.64 L772.262 1481.64 L772.262 1455.28 L763.952 1456.95 L763.952 1452.69 L772.216 1451.02 L776.892 1451.02 L776.892 1481.64 L784.53 1481.64 L784.53 1485.58 L764.623 1485.58 L764.623 1481.64 Z" fill="#000000" fill-rule="evenodd" fill-opacity="1" /><path clip-path="url(#clip270)" d="M1242.28 1454.1 Q1238.67 1454.1 1236.84 1457.66 Q1235.04 1461.2 1235.04 1468.33 Q1235.04 1475.44 1236.84 1479.01 Q1238.67 1482.55 1242.28 1482.55 Q1245.92 1482.55 1247.72 1479.01 Q1249.55 1475.44 1249.55 1468.33 Q1249.55 1461.2 1247.72 1457.66 Q1245.92 1454.1 1242.28 1454.1 M1242.28 1450.39 Q1248.09 1450.39 1251.15 1455 Q1254.23 1459.58 1254.23 1468.33 Q1254.23 1477.06 1251.15 1481.67 Q1248.09 1486.25 1242.28 1486.25 Q1236.47 1486.25 1233.39 1481.67 Q1230.34 1477.06 1230.34 1468.33 Q1230.34 1459.58 1233.39 1455 Q1236.47 1450.39 1242.28 1450.39 Z" fill="#000000" fill-rule="evenodd" fill-opacity="1" /><path clip-path="url(#clip270)" d="M1262.45 1479.7 L1267.33 1479.7 L1267.33 1485.58 L1262.45 1485.58 L1262.45 1479.7 Z" fill="#000000" fill-rule="evenodd" fill-opacity="1" /><path clip-path="url(#clip270)" d="M1281.54 1481.64 L1297.86 1481.64 L1297.86 1485.58 L1275.92 1485.58 L1275.92 1481.64 Q1278.58 1478.89 1283.16 1474.26 Q1287.77 1469.61 1288.95 1468.27 Q1291.2 1465.74 1292.07 1464.01 Q1292.98 1462.25 1292.98 1460.56 Q1292.98 1457.8 1291.03 1456.07 Q1289.11 1454.33 1286.01 1454.33 Q1283.81 1454.33 1281.36 1455.09 Q1278.93 1455.86 1276.15 1457.41 L1276.15 1452.69 Q1278.97 1451.55 1281.43 1450.97 Q1283.88 1450.39 1285.92 1450.39 Q1291.29 1450.39 1294.48 1453.08 Q1297.68 1455.77 1297.68 1460.26 Q1297.68 1462.39 1296.87 1464.31 Q1296.08 1466.2 1293.97 1468.8 Q1293.39 1469.47 1290.29 1472.69 Q1287.19 1475.88 1281.54 1481.64 Z" fill="#000000" fill-rule="evenodd" fill-opacity="1" /><path clip-path="url(#clip270)" d="M1755.33 1454.1 Q1751.71 1454.1 1749.89 1457.66 Q1748.08 1461.2 1748.08 1468.33 Q1748.08 1475.44 1749.89 1479.01 Q1751.71 1482.55 1755.33 1482.55 Q1758.96 1482.55 1760.77 1479.01 Q1762.59 1475.44 1762.59 1468.33 Q1762.59 1461.2 1760.77 1457.66 Q1758.96 1454.1 1755.33 1454.1 M1755.33 1450.39 Q1761.14 1450.39 1764.19 1455 Q1767.27 1459.58 1767.27 1468.33 Q1767.27 1477.06 1764.19 1481.67 Q1761.14 1486.25 1755.33 1486.25 Q1749.52 1486.25 1746.44 1481.67 Q1743.38 1477.06 1743.38 1468.33 Q1743.38 1459.58 1746.44 1455 Q1749.52 1450.39 1755.33 1450.39 Z" fill="#000000" fill-rule="evenodd" fill-opacity="1" /><path clip-path="url(#clip270)" d="M1775.49 1479.7 L1780.37 1479.7 L1780.37 1485.58 L1775.49 1485.58 L1775.49 1479.7 Z" fill="#000000" fill-rule="evenodd" fill-opacity="1" /><path clip-path="url(#clip270)" d="M1804.72 1466.95 Q1808.08 1467.66 1809.96 1469.93 Q1811.85 1472.2 1811.85 1475.53 Q1811.85 1480.65 1808.33 1483.45 Q1804.82 1486.25 1798.33 1486.25 Q1796.16 1486.25 1793.84 1485.81 Q1791.55 1485.39 1789.1 1484.54 L1789.1 1480.02 Q1791.04 1481.16 1793.36 1481.74 Q1795.67 1482.32 1798.2 1482.32 Q1802.59 1482.32 1804.89 1480.58 Q1807.2 1478.84 1807.2 1475.53 Q1807.2 1472.48 1805.05 1470.77 Q1802.92 1469.03 1799.1 1469.03 L1795.07 1469.03 L1795.07 1465.19 L1799.28 1465.19 Q1802.73 1465.19 1804.56 1463.82 Q1806.39 1462.43 1806.39 1459.84 Q1806.39 1457.18 1804.49 1455.77 Q1802.62 1454.33 1799.1 1454.33 Q1797.18 1454.33 1794.98 1454.75 Q1792.78 1455.16 1790.14 1456.04 L1790.14 1451.88 Q1792.8 1451.14 1795.12 1450.77 Q1797.46 1450.39 1799.52 1450.39 Q1804.84 1450.39 1807.94 1452.83 Q1811.04 1455.23 1811.04 1459.35 Q1811.04 1462.22 1809.4 1464.21 Q1807.76 1466.18 1804.72 1466.95 Z" fill="#000000" fill-rule="evenodd" fill-opacity="1" /><path clip-path="url(#clip270)" d="M2268.28 1454.1 Q2264.66 1454.1 2262.84 1457.66 Q2261.03 1461.2 2261.03 1468.33 Q2261.03 1475.44 2262.84 1479.01 Q2264.66 1482.55 2268.28 1482.55 Q2271.91 1482.55 2273.72 1479.01 Q2275.54 1475.44 2275.54 1468.33 Q2275.54 1461.2 2273.72 1457.66 Q2271.91 1454.1 2268.28 1454.1 M2268.28 1450.39 Q2274.09 1450.39 2277.14 1455 Q2280.22 1459.58 2280.22 1468.33 Q2280.22 1477.06 2277.14 1481.67 Q2274.09 1486.25 2268.28 1486.25 Q2262.47 1486.25 2259.39 1481.67 Q2256.33 1477.06 2256.33 1468.33 Q2256.33 1459.58 2259.39 1455 Q2262.47 1450.39 2268.28 1450.39 Z" fill="#000000" fill-rule="evenodd" fill-opacity="1" /><path clip-path="url(#clip270)" d="M2288.44 1479.7 L2293.32 1479.7 L2293.32 1485.58 L2288.44 1485.58 L2288.44 1479.7 Z" fill="#000000" fill-rule="evenodd" fill-opacity="1" /><path clip-path="url(#clip270)" d="M2316.35 1455.09 L2304.55 1473.54 L2316.35 1473.54 L2316.35 1455.09 M2315.13 1451.02 L2321.01 1451.02 L2321.01 1473.54 L2325.94 1473.54 L2325.94 1477.43 L2321.01 1477.43 L2321.01 1485.58 L2316.35 1485.58 L2316.35 1477.43 L2300.75 1477.43 L2300.75 1472.92 L2315.13 1451.02 Z" fill="#000000" fill-rule="evenodd" fill-opacity="1" /><path clip-path="url(#clip270)" d="M1112.85 1532.4 L1118.71 1532.4 L1118.71 1568.04 L1112.85 1568.04 L1112.85 1532.4 M1112.85 1518.52 L1118.71 1518.52 L1118.71 1525.93 L1112.85 1525.93 L1112.85 1518.52 Z" fill="#000000" fill-rule="evenodd" fill-opacity="1" /><path clip-path="url(#clip270)" d="M1160.59 1546.53 L1160.59 1568.04 L1154.74 1568.04 L1154.74 1546.72 Q1154.74 1541.66 1152.76 1539.14 Q1150.79 1536.63 1146.84 1536.63 Q1142.1 1536.63 1139.36 1539.65 Q1136.63 1542.68 1136.63 1547.9 L1136.63 1568.04 L1130.74 1568.04 L1130.74 1532.4 L1136.63 1532.4 L1136.63 1537.93 Q1138.73 1534.72 1141.56 1533.13 Q1144.43 1531.54 1148.15 1531.54 Q1154.29 1531.54 1157.44 1535.36 Q1160.59 1539.14 1160.59 1546.53 Z" fill="#000000" fill-rule="evenodd" fill-opacity="1" /><path clip-path="url(#clip270)" d="M1197.93 1533.76 L1197.93 1539.24 Q1195.45 1537.87 1192.93 1537.2 Q1190.45 1536.5 1187.9 1536.5 Q1182.21 1536.5 1179.05 1540.13 Q1175.9 1543.73 1175.9 1550.25 Q1175.9 1556.78 1179.05 1560.4 Q1182.21 1564 1187.9 1564 Q1190.45 1564 1192.93 1563.33 Q1195.45 1562.63 1197.93 1561.26 L1197.93 1566.68 Q1195.48 1567.82 1192.84 1568.39 Q1190.23 1568.97 1187.27 1568.97 Q1179.21 1568.97 1174.47 1563.91 Q1169.73 1558.85 1169.73 1550.25 Q1169.73 1541.53 1174.5 1536.53 Q1179.31 1531.54 1187.65 1531.54 Q1190.35 1531.54 1192.93 1532.11 Q1195.51 1532.65 1197.93 1533.76 Z" fill="#000000" fill-rule="evenodd" fill-opacity="1" /><path clip-path="url(#clip270)" d="M1208.11 1532.4 L1213.97 1532.4 L1213.97 1568.04 L1208.11 1568.04 L1208.11 1532.4 M1208.11 1518.52 L1213.97 1518.52 L1213.97 1525.93 L1208.11 1525.93 L1208.11 1518.52 Z" fill="#000000" fill-rule="evenodd" fill-opacity="1" /><path clip-path="url(#clip270)" d="M1249.68 1537.81 L1249.68 1518.52 L1255.54 1518.52 L1255.54 1568.04 L1249.68 1568.04 L1249.68 1562.7 Q1247.84 1565.88 1245 1567.44 Q1242.2 1568.97 1238.26 1568.97 Q1231.79 1568.97 1227.72 1563.81 Q1223.68 1558.65 1223.68 1550.25 Q1223.68 1541.85 1227.72 1536.69 Q1231.79 1531.54 1238.26 1531.54 Q1242.2 1531.54 1245 1533.1 Q1247.84 1534.62 1249.68 1537.81 M1229.73 1550.25 Q1229.73 1556.71 1232.37 1560.4 Q1235.04 1564.07 1239.69 1564.07 Q1244.34 1564.07 1247.01 1560.4 Q1249.68 1556.71 1249.68 1550.25 Q1249.68 1543.79 1247.01 1540.13 Q1244.34 1536.44 1239.69 1536.44 Q1235.04 1536.44 1232.37 1540.13 Q1229.73 1543.79 1229.73 1550.25 Z" fill="#000000" fill-rule="evenodd" fill-opacity="1" /><path clip-path="url(#clip270)" d="M1298.09 1548.76 L1298.09 1551.62 L1271.17 1551.62 Q1271.55 1557.67 1274.79 1560.85 Q1278.07 1564 1283.9 1564 Q1287.27 1564 1290.42 1563.17 Q1293.61 1562.35 1296.72 1560.69 L1296.72 1566.23 Q1293.57 1567.57 1290.26 1568.27 Q1286.95 1568.97 1283.55 1568.97 Q1275.02 1568.97 1270.02 1564 Q1265.06 1559.04 1265.06 1550.57 Q1265.06 1541.82 1269.77 1536.69 Q1274.51 1531.54 1282.53 1531.54 Q1289.72 1531.54 1293.89 1536.18 Q1298.09 1540.8 1298.09 1548.76 M1292.24 1547.04 Q1292.17 1542.23 1289.53 1539.37 Q1286.92 1536.5 1282.59 1536.5 Q1277.69 1536.5 1274.73 1539.27 Q1271.8 1542.04 1271.36 1547.07 L1292.24 1547.04 Z" fill="#000000" fill-rule="evenodd" fill-opacity="1" /><path clip-path="url(#clip270)" d="M1337.34 1546.53 L1337.34 1568.04 L1331.48 1568.04 L1331.48 1546.72 Q1331.48 1541.66 1329.51 1539.14 Q1327.53 1536.63 1323.59 1536.63 Q1318.85 1536.63 1316.11 1539.65 Q1313.37 1542.68 1313.37 1547.9 L1313.37 1568.04 L1307.48 1568.04 L1307.48 1532.4 L1313.37 1532.4 L1313.37 1537.93 Q1315.47 1534.72 1318.3 1533.13 Q1321.17 1531.54 1324.89 1531.54 Q1331.04 1531.54 1334.19 1535.36 Q1337.34 1539.14 1337.34 1546.53 Z" fill="#000000" fill-rule="evenodd" fill-opacity="1" /><path clip-path="url(#clip270)" d="M1374.67 1533.76 L1374.67 1539.24 Q1372.19 1537.87 1369.68 1537.2 Q1367.19 1536.5 1364.65 1536.5 Q1358.95 1536.5 1355.8 1540.13 Q1352.65 1543.73 1352.65 1550.25 Q1352.65 1556.78 1355.8 1560.4 Q1358.95 1564 1364.65 1564 Q1367.19 1564 1369.68 1563.33 Q1372.19 1562.63 1374.67 1561.26 L1374.67 1566.68 Q1372.22 1567.82 1369.58 1568.39 Q1366.97 1568.97 1364.01 1568.97 Q1355.96 1568.97 1351.22 1563.91 Q1346.47 1558.85 1346.47 1550.25 Q1346.47 1541.53 1351.25 1536.53 Q1356.05 1531.54 1364.39 1531.54 Q1367.1 1531.54 1369.68 1532.11 Q1372.25 1532.65 1374.67 1533.76 Z" fill="#000000" fill-rule="evenodd" fill-opacity="1" /><path clip-path="url(#clip270)" d="M1415.35 1548.76 L1415.35 1551.62 L1388.42 1551.62 Q1388.8 1557.67 1392.05 1560.85 Q1395.33 1564 1401.15 1564 Q1404.53 1564 1407.68 1563.17 Q1410.86 1562.35 1413.98 1560.69 L1413.98 1566.23 Q1410.83 1567.57 1407.52 1568.27 Q1404.21 1568.97 1400.8 1568.97 Q1392.27 1568.97 1387.28 1564 Q1382.31 1559.04 1382.31 1550.57 Q1382.31 1541.82 1387.02 1536.69 Q1391.76 1531.54 1399.79 1531.54 Q1406.98 1531.54 1411.15 1536.18 Q1415.35 1540.8 1415.35 1548.76 M1409.49 1547.04 Q1409.43 1542.23 1406.79 1539.37 Q1404.18 1536.5 1399.85 1536.5 Q1394.95 1536.5 1391.99 1539.27 Q1389.06 1542.04 1388.61 1547.07 L1409.49 1547.04 Z" fill="#000000" fill-rule="evenodd" fill-opacity="1" /><polyline clip-path="url(#clip272)" style="stroke:#000000; stroke-linecap:butt; stroke-linejoin:round; stroke-width:2; stroke-opacity:0.1; fill:none" points="
  175.445,1384.24 2352.76,1384.24 
  "/>
<polyline clip-path="url(#clip272)" style="stroke:#000000; stroke-linecap:butt; stroke-linejoin:round; stroke-width:2; stroke-opacity:0.1; fill:none" points="
  175.445,1147.46 2352.76,1147.46 
  "/>
<polyline clip-path="url(#clip272)" style="stroke:#000000; stroke-linecap:butt; stroke-linejoin:round; stroke-width:2; stroke-opacity:0.1; fill:none" points="
  175.445,910.676 2352.76,910.676 
  "/>
<polyline clip-path="url(#clip272)" style="stroke:#000000; stroke-linecap:butt; stroke-linejoin:round; stroke-width:2; stroke-opacity:0.1; fill:none" points="
  175.445,673.895 2352.76,673.895 
  "/>
<polyline clip-path="url(#clip272)" style="stroke:#000000; stroke-linecap:butt; stroke-linejoin:round; stroke-width:2; stroke-opacity:0.1; fill:none" points="
  175.445,437.114 2352.76,437.114 
  "/>
<polyline clip-path="url(#clip272)" style="stroke:#000000; stroke-linecap:butt; stroke-linejoin:round; stroke-width:2; stroke-opacity:0.1; fill:none" points="
  175.445,200.333 2352.76,200.333 
  "/>
<polyline clip-path="url(#clip270)" style="stroke:#000000; stroke-linecap:butt; stroke-linejoin:round; stroke-width:4; stroke-opacity:1; fill:none" points="
  175.445,1423.18 175.445,47.2441 
  "/>
<polyline clip-path="url(#clip270)" style="stroke:#000000; stroke-linecap:butt; stroke-linejoin:round; stroke-width:4; stroke-opacity:1; fill:none" points="
  175.445,1384.24 194.343,1384.24 
  "/>
<polyline clip-path="url(#clip270)" style="stroke:#000000; stroke-linecap:butt; stroke-linejoin:round; stroke-width:4; stroke-opacity:1; fill:none" points="
  175.445,1147.46 194.343,1147.46 
  "/>
<polyline clip-path="url(#clip270)" style="stroke:#000000; stroke-linecap:butt; stroke-linejoin:round; stroke-width:4; stroke-opacity:1; fill:none" points="
  175.445,910.676 194.343,910.676 
  "/>
<polyline clip-path="url(#clip270)" style="stroke:#000000; stroke-linecap:butt; stroke-linejoin:round; stroke-width:4; stroke-opacity:1; fill:none" points="
  175.445,673.895 194.343,673.895 
  "/>
<polyline clip-path="url(#clip270)" style="stroke:#000000; stroke-linecap:butt; stroke-linejoin:round; stroke-width:4; stroke-opacity:1; fill:none" points="
  175.445,437.114 194.343,437.114 
  "/>
<polyline clip-path="url(#clip270)" style="stroke:#000000; stroke-linecap:butt; stroke-linejoin:round; stroke-width:4; stroke-opacity:1; fill:none" points="
  175.445,200.333 194.343,200.333 
  "/>
<path clip-path="url(#clip270)" d="M127.501 1370.04 Q123.89 1370.04 122.061 1373.6 Q120.255 1377.14 120.255 1384.27 Q120.255 1391.38 122.061 1394.94 Q123.89 1398.49 127.501 1398.49 Q131.135 1398.49 132.941 1394.94 Q134.769 1391.38 134.769 1384.27 Q134.769 1377.14 132.941 1373.6 Q131.135 1370.04 127.501 1370.04 M127.501 1366.33 Q133.311 1366.33 136.367 1370.94 Q139.445 1375.52 139.445 1384.27 Q139.445 1393 136.367 1397.61 Q133.311 1402.19 127.501 1402.19 Q121.691 1402.19 118.612 1397.61 Q115.556 1393 115.556 1384.27 Q115.556 1375.52 118.612 1370.94 Q121.691 1366.33 127.501 1366.33 Z" fill="#000000" fill-rule="evenodd" fill-opacity="1" /><path clip-path="url(#clip270)" d="M119.538 1160.8 L127.177 1160.8 L127.177 1134.44 L118.867 1136.1 L118.867 1131.84 L127.13 1130.18 L131.806 1130.18 L131.806 1160.8 L139.445 1160.8 L139.445 1164.74 L119.538 1164.74 L119.538 1160.8 Z" fill="#000000" fill-rule="evenodd" fill-opacity="1" /><path clip-path="url(#clip270)" d="M123.126 924.021 L139.445 924.021 L139.445 927.956 L117.501 927.956 L117.501 924.021 Q120.163 921.267 124.746 916.637 Q129.353 911.984 130.533 910.642 Q132.779 908.118 133.658 906.382 Q134.561 904.623 134.561 902.933 Q134.561 900.179 132.617 898.443 Q130.695 896.706 127.593 896.706 Q125.394 896.706 122.941 897.47 Q120.51 898.234 117.732 899.785 L117.732 895.063 Q120.556 893.929 123.01 893.35 Q125.464 892.771 127.501 892.771 Q132.871 892.771 136.066 895.456 Q139.26 898.142 139.26 902.632 Q139.26 904.762 138.45 906.683 Q137.663 908.581 135.556 911.174 Q134.978 911.845 131.876 915.063 Q128.774 918.257 123.126 924.021 Z" fill="#000000" fill-rule="evenodd" fill-opacity="1" /><path clip-path="url(#clip270)" d="M132.316 672.541 Q135.672 673.259 137.547 675.527 Q139.445 677.796 139.445 681.129 Q139.445 686.245 135.927 689.046 Q132.408 691.847 125.927 691.847 Q123.751 691.847 121.436 691.407 Q119.144 690.99 116.691 690.134 L116.691 685.62 Q118.635 686.754 120.95 687.333 Q123.265 687.911 125.788 687.911 Q130.186 687.911 132.478 686.175 Q134.792 684.439 134.792 681.129 Q134.792 678.074 132.64 676.361 Q130.51 674.625 126.691 674.625 L122.663 674.625 L122.663 670.782 L126.876 670.782 Q130.325 670.782 132.154 669.416 Q133.982 668.027 133.982 665.435 Q133.982 662.773 132.084 661.361 Q130.209 659.926 126.691 659.926 Q124.769 659.926 122.57 660.342 Q120.371 660.759 117.732 661.638 L117.732 657.472 Q120.394 656.731 122.709 656.361 Q125.047 655.99 127.107 655.99 Q132.431 655.99 135.533 658.421 Q138.635 660.828 138.635 664.949 Q138.635 667.819 136.992 669.81 Q135.348 671.777 132.316 672.541 Z" fill="#000000" fill-rule="evenodd" fill-opacity="1" /><path clip-path="url(#clip270)" d="M129.862 423.908 L118.056 442.357 L129.862 442.357 L129.862 423.908 M128.635 419.834 L134.515 419.834 L134.515 442.357 L139.445 442.357 L139.445 446.246 L134.515 446.246 L134.515 454.394 L129.862 454.394 L129.862 446.246 L114.26 446.246 L114.26 441.732 L128.635 419.834 Z" fill="#000000" fill-rule="evenodd" fill-opacity="1" /><path clip-path="url(#clip270)" d="M118.543 183.053 L136.899 183.053 L136.899 186.989 L122.825 186.989 L122.825 195.461 Q123.843 195.114 124.862 194.951 Q125.88 194.766 126.899 194.766 Q132.686 194.766 136.066 197.938 Q139.445 201.109 139.445 206.525 Q139.445 212.104 135.973 215.206 Q132.501 218.285 126.181 218.285 Q124.005 218.285 121.737 217.914 Q119.492 217.544 117.084 216.803 L117.084 212.104 Q119.168 213.238 121.39 213.794 Q123.612 214.35 126.089 214.35 Q130.093 214.35 132.431 212.243 Q134.769 210.137 134.769 206.525 Q134.769 202.914 132.431 200.808 Q130.093 198.701 126.089 198.701 Q124.214 198.701 122.339 199.118 Q120.487 199.535 118.543 200.414 L118.543 183.053 Z" fill="#000000" fill-rule="evenodd" fill-opacity="1" /><path clip-path="url(#clip270)" d="M33.7671 825.939 L14.479 825.939 L14.479 820.083 L64.0042 820.083 L64.0042 825.939 L58.657 825.939 Q61.8398 827.785 63.3994 830.618 Q64.9272 833.419 64.9272 837.366 Q64.9272 843.827 59.771 847.901 Q54.6147 851.943 46.212 851.943 Q37.8093 851.943 32.6531 847.901 Q27.4968 843.827 27.4968 837.366 Q27.4968 833.419 29.0564 830.618 Q30.5842 827.785 33.7671 825.939 M46.212 845.896 Q52.6732 845.896 56.3653 843.254 Q60.0256 840.58 60.0256 835.933 Q60.0256 831.286 56.3653 828.613 Q52.6732 825.939 46.212 825.939 Q39.7508 825.939 36.0905 828.613 Q32.3984 831.286 32.3984 835.933 Q32.3984 840.58 36.0905 843.254 Q39.7508 845.896 46.212 845.896 Z" fill="#000000" fill-rule="evenodd" fill-opacity="1" /><path clip-path="url(#clip270)" d="M44.7161 777.528 L47.5806 777.528 L47.5806 804.455 Q53.6281 804.073 56.8109 800.826 Q59.9619 797.548 59.9619 791.724 Q59.9619 788.35 59.1344 785.199 Q58.3069 782.016 56.6518 778.897 L62.1899 778.897 Q63.5267 782.048 64.227 785.358 Q64.9272 788.668 64.9272 792.074 Q64.9272 800.604 59.9619 805.601 Q54.9967 810.566 46.5303 810.566 Q37.7774 810.566 32.6531 805.855 Q27.4968 801.113 27.4968 793.092 Q27.4968 785.899 32.1438 781.729 Q36.7589 777.528 44.7161 777.528 M42.9973 783.384 Q38.1912 783.448 35.3266 786.09 Q32.4621 788.7 32.4621 793.028 Q32.4621 797.93 35.2312 800.89 Q38.0002 803.818 43.0292 804.264 L42.9973 783.384 Z" fill="#000000" fill-rule="evenodd" fill-opacity="1" /><path clip-path="url(#clip270)" d="M42.4881 738.283 L64.0042 738.283 L64.0042 744.14 L42.679 744.14 Q37.6183 744.14 35.1038 746.113 Q32.5894 748.087 32.5894 752.033 Q32.5894 756.776 35.6131 759.513 Q38.6368 762.25 43.8567 762.25 L64.0042 762.25 L64.0042 768.139 L28.3562 768.139 L28.3562 762.25 L33.8944 762.25 Q30.6797 760.15 29.0883 757.317 Q27.4968 754.452 27.4968 750.728 Q27.4968 744.585 31.3163 741.434 Q35.1038 738.283 42.4881 738.283 Z" fill="#000000" fill-rule="evenodd" fill-opacity="1" /><path clip-path="url(#clip270)" d="M29.4065 703.877 L34.9447 703.877 Q33.6716 706.359 33.035 709.033 Q32.3984 711.707 32.3984 714.571 Q32.3984 718.932 33.7352 721.128 Q35.072 723.292 37.7456 723.292 Q39.7826 723.292 40.9603 721.733 Q42.1061 720.173 43.1565 715.462 L43.6021 713.457 Q44.9389 707.219 47.3897 704.609 Q49.8086 701.967 54.1691 701.967 Q59.1344 701.967 62.0308 705.914 Q64.9272 709.829 64.9272 716.704 Q64.9272 719.568 64.3543 722.687 Q63.8132 725.775 62.6992 729.212 L56.6518 729.212 Q58.3387 725.966 59.198 722.815 Q60.0256 719.664 60.0256 716.576 Q60.0256 712.439 58.6251 710.211 Q57.1929 707.983 54.6147 707.983 Q52.2276 707.983 50.9545 709.606 Q49.6813 711.197 48.5037 716.64 L48.0262 718.677 Q46.8804 724.12 44.5251 726.539 Q42.138 728.958 38.0002 728.958 Q32.9713 728.958 30.2341 725.393 Q27.4968 721.828 27.4968 715.271 Q27.4968 712.025 27.9743 709.16 Q28.4517 706.296 29.4065 703.877 Z" fill="#000000" fill-rule="evenodd" fill-opacity="1" /><path clip-path="url(#clip270)" d="M28.3562 692.641 L28.3562 686.785 L64.0042 686.785 L64.0042 692.641 L28.3562 692.641 M14.479 692.641 L14.479 686.785 L21.895 686.785 L21.895 692.641 L14.479 692.641 Z" fill="#000000" fill-rule="evenodd" fill-opacity="1" /><path clip-path="url(#clip270)" d="M18.2347 668.738 L28.3562 668.738 L28.3562 656.675 L32.9077 656.675 L32.9077 668.738 L52.2594 668.738 Q56.6199 668.738 57.8613 667.56 Q59.1026 666.351 59.1026 662.691 L59.1026 656.675 L64.0042 656.675 L64.0042 662.691 Q64.0042 669.47 61.4897 672.048 Q58.9434 674.626 52.2594 674.626 L32.9077 674.626 L32.9077 678.923 L28.3562 678.923 L28.3562 674.626 L18.2347 674.626 L18.2347 668.738 Z" fill="#000000" fill-rule="evenodd" fill-opacity="1" /><path clip-path="url(#clip270)" d="M67.3143 634.14 Q73.68 636.623 75.6216 638.978 Q77.5631 641.334 77.5631 645.28 L77.5631 649.959 L72.6615 649.959 L72.6615 646.522 Q72.6615 644.103 71.5157 642.766 Q70.3699 641.429 66.1048 639.806 L63.4312 638.756 L28.3562 653.174 L28.3562 646.967 L56.238 635.827 L28.3562 624.687 L28.3562 618.481 L67.3143 634.14 Z" fill="#000000" fill-rule="evenodd" fill-opacity="1" /><polyline clip-path="url(#clip272)" style="stroke:#009af9; stroke-linecap:butt; stroke-linejoin:round; stroke-width:12; stroke-opacity:1; fill:none" points="
  237.067,1384.24 242.202,1384.24 247.338,1384.24 252.473,1384.24 257.608,1384.24 262.743,1384.24 267.878,1384.23 273.013,1384.22 278.149,1384.18 283.284,1384.12 
  288.419,1384.02 293.554,1383.85 298.689,1383.57 303.824,1383.16 308.96,1382.57 314.095,1381.75 319.23,1380.63 324.365,1379.16 329.5,1377.25 334.635,1374.83 
  339.771,1371.82 344.906,1368.14 350.041,1363.69 355.176,1358.4 360.311,1352.17 365.446,1344.92 370.582,1336.58 375.717,1327.06 380.852,1316.31 385.987,1304.26 
  391.122,1290.86 396.257,1276.08 401.393,1259.87 406.528,1242.22 411.663,1223.11 416.798,1202.56 421.933,1180.57 427.068,1157.17 432.204,1132.4 437.339,1106.29 
  442.474,1078.92 447.609,1050.34 452.744,1020.64 457.879,989.899 463.015,958.212 468.15,925.681 473.285,892.413 478.42,858.52 483.555,824.119 488.69,789.33 
  493.826,754.276 498.961,719.081 504.096,683.87 509.231,648.767 514.366,613.897 519.501,579.379 524.637,545.335 529.772,511.879 534.907,479.122 540.042,447.172 
  545.177,416.132 550.312,386.096 555.448,357.156 560.583,329.397 565.718,302.894 570.853,277.72 575.988,253.938 581.123,231.605 586.259,210.769 591.394,191.475 
  596.529,173.756 601.664,157.642 606.799,143.153 611.934,130.303 617.07,119.102 622.205,109.551 627.34,101.645 632.475,95.3735 637.61,90.7214 642.745,87.6674 
  647.881,86.1857 653.016,86.2456 658.151,87.8125 663.286,90.8477 668.421,95.309 673.556,101.151 678.692,108.325 683.827,116.781 688.962,126.466 694.097,137.325 
  699.232,149.3 704.367,162.336 709.503,176.372 714.638,191.35 719.773,207.21 724.908,223.892 730.043,241.336 735.178,259.482 740.314,278.272 745.449,297.648 
  750.584,317.551 755.719,337.926 760.854,358.718 765.989,379.872 771.125,401.336 776.26,423.06 781.395,444.994 786.53,467.09 791.665,489.305 796.8,511.592 
  801.936,533.912 807.071,556.224 812.206,578.49 817.341,600.674 822.476,622.742 827.611,644.662 832.747,666.405 837.882,687.943 843.017,709.249 848.152,730.299 
  853.287,751.071 858.422,771.544 863.558,791.7 868.693,811.522 873.828,830.995 878.963,850.104 884.098,868.838 889.233,887.186 894.369,905.14 899.504,922.691 
  904.639,939.832 909.774,956.56 914.909,972.869 920.044,988.757 925.18,1004.22 930.315,1019.26 935.45,1033.88 940.585,1048.08 945.72,1061.86 950.855,1075.21 
  955.991,1088.16 961.126,1100.69 966.261,1112.82 971.396,1124.55 976.531,1135.88 981.666,1146.83 986.802,1157.39 991.937,1167.58 997.072,1177.4 1002.21,1186.86 
  1007.34,1195.96 1012.48,1204.73 1017.61,1213.15 1022.75,1221.25 1027.88,1229.03 1033.02,1236.5 1038.15,1243.66 1043.29,1250.54 1048.42,1257.12 1053.56,1263.43 
  1058.69,1269.47 1063.83,1275.25 1068.96,1280.78 1074.1,1286.07 1079.23,1291.12 1084.37,1295.94 1089.5,1300.55 1094.64,1304.94 1099.78,1309.13 1104.91,1313.13 
  1110.05,1316.94 1115.18,1320.56 1120.32,1324.02 1125.45,1327.3 1130.59,1330.43 1135.72,1333.4 1140.86,1336.22 1145.99,1338.9 1151.13,1341.45 1156.26,1343.87 
  1161.4,1346.16 1166.53,1348.34 1171.67,1350.4 1176.8,1352.36 1181.94,1354.21 1187.07,1355.96 1192.21,1357.62 1197.34,1359.19 1202.48,1360.68 1207.61,1362.08 
  1212.75,1363.41 1217.88,1364.66 1223.02,1365.85 1228.15,1366.96 1233.29,1368.02 1238.42,1369.01 1243.56,1369.95 1248.7,1370.84 1253.83,1371.67 1258.97,1372.46 
  1264.1,1373.2 1269.24,1373.89 1274.37,1374.55 1279.51,1375.16 1284.64,1375.74 1289.78,1376.29 1294.91,1376.8 1300.05,1377.28 1305.18,1377.74 1310.32,1378.16 
  1315.45,1378.56 1320.59,1378.93 1325.72,1379.28 1330.86,1379.61 1335.99,1379.92 1341.13,1380.21 1346.26,1380.48 1351.4,1380.73 1356.53,1380.97 1361.67,1381.19 
  1366.8,1381.4 1371.94,1381.59 1377.07,1381.78 1382.21,1381.95 1387.34,1382.1 1392.48,1382.25 1397.61,1382.39 1402.75,1382.52 1407.89,1382.64 1413.02,1382.75 
  1418.16,1382.86 1423.29,1382.96 1428.43,1383.05 1433.56,1383.13 1438.7,1383.21 1443.83,1383.29 1448.97,1383.35 1454.1,1383.42 1459.24,1383.48 1464.37,1383.53 
  1469.51,1383.58 1474.64,1383.63 1479.78,1383.68 1484.91,1383.72 1490.05,1383.76 1495.18,1383.79 1500.32,1383.83 1505.45,1383.86 1510.59,1383.89 1515.72,1383.91 
  1520.86,1383.94 1525.99,1383.96 1531.13,1383.98 1536.26,1384 1541.4,1384.02 1546.53,1384.04 1551.67,1384.05 1556.81,1384.07 1561.94,1384.08 1567.08,1384.09 
  1572.21,1384.1 1577.35,1384.11 1582.48,1384.12 1587.62,1384.13 1592.75,1384.14 1597.89,1384.15 1603.02,1384.16 1608.16,1384.16 1613.29,1384.17 1618.43,1384.17 
  1623.56,1384.18 1628.7,1384.18 1633.83,1384.19 1638.97,1384.19 1644.1,1384.2 1649.24,1384.2 1654.37,1384.2 1659.51,1384.21 1664.64,1384.21 1669.78,1384.21 
  1674.91,1384.21 1680.05,1384.21 1685.18,1384.22 1690.32,1384.22 1695.45,1384.22 1700.59,1384.22 1705.72,1384.22 1710.86,1384.22 1716,1384.23 1721.13,1384.23 
  1726.27,1384.23 1731.4,1384.23 1736.54,1384.23 1741.67,1384.23 1746.81,1384.23 1751.94,1384.23 1757.08,1384.23 1762.21,1384.23 1767.35,1384.23 1772.48,1384.23 
  1777.62,1384.23 1782.75,1384.23 1787.89,1384.23 1793.02,1384.23 1798.16,1384.24 1803.29,1384.24 1808.43,1384.24 1813.56,1384.24 1818.7,1384.24 1823.83,1384.24 
  1828.97,1384.24 1834.1,1384.24 1839.24,1384.24 1844.37,1384.24 1849.51,1384.24 1854.64,1384.24 1859.78,1384.24 1864.92,1384.24 1870.05,1384.24 1875.19,1384.24 
  1880.32,1384.24 1885.46,1384.24 1890.59,1384.24 1895.73,1384.24 1900.86,1384.24 1906,1384.24 1911.13,1384.24 1916.27,1384.24 1921.4,1384.24 1926.54,1384.24 
  1931.67,1384.24 1936.81,1384.24 1941.94,1384.24 1947.08,1384.24 1952.21,1384.24 1957.35,1384.24 1962.48,1384.24 1967.62,1384.24 1972.75,1384.24 1977.89,1384.24 
  1983.02,1384.24 1988.16,1384.24 1993.29,1384.24 1998.43,1384.24 2003.56,1384.24 2008.7,1384.24 2013.83,1384.24 2018.97,1384.24 2024.11,1384.24 2029.24,1384.24 
  2034.38,1384.24 2039.51,1384.24 2044.65,1384.24 2049.78,1384.24 2054.92,1384.24 2060.05,1384.24 2065.19,1384.24 2070.32,1384.24 2075.46,1384.24 2080.59,1384.24 
  2085.73,1384.24 2090.86,1384.24 2096,1384.24 2101.13,1384.24 2106.27,1384.24 2111.4,1384.24 2116.54,1384.24 2121.67,1384.24 2126.81,1384.24 2131.94,1384.24 
  2137.08,1384.24 2142.21,1384.24 2147.35,1384.24 2152.48,1384.24 2157.62,1384.24 2162.75,1384.24 2167.89,1384.24 2173.03,1384.24 2178.16,1384.24 2183.3,1384.24 
  2188.43,1384.24 2193.57,1384.24 2198.7,1384.24 2203.84,1384.24 2208.97,1384.24 2214.11,1384.24 2219.24,1384.24 2224.38,1384.24 2229.51,1384.24 2234.65,1384.24 
  2239.78,1384.24 2244.92,1384.24 2250.05,1384.24 2255.19,1384.24 2260.32,1384.24 2265.46,1384.24 2270.59,1384.24 2275.73,1384.24 2280.86,1384.24 2286,1384.24 
  2291.13,1384.24 
  "/>
<polyline clip-path="url(#clip272)" style="stroke:#e26f46; stroke-linecap:butt; stroke-linejoin:round; stroke-width:12; stroke-opacity:1; fill:none" points="
  237.067,1384.24 242.202,1383.6 247.338,1381.73 252.473,1378.72 257.608,1374.64 262.743,1369.56 267.878,1363.57 273.013,1356.72 278.149,1349.09 283.284,1340.72 
  288.419,1331.7 293.554,1322.06 298.689,1311.87 303.824,1301.18 308.96,1290.03 314.095,1278.48 319.23,1266.57 324.365,1254.34 329.5,1241.83 334.635,1229.09 
  339.771,1216.14 344.906,1203.03 350.041,1189.78 355.176,1176.43 360.311,1163.01 365.446,1149.54 370.582,1136.06 375.717,1122.58 380.852,1109.13 385.987,1095.74 
  391.122,1082.42 396.257,1069.2 401.393,1056.08 406.528,1043.1 411.663,1030.26 416.798,1017.58 421.933,1005.08 427.068,992.762 432.204,980.646 437.339,968.742 
  442.474,957.058 447.609,945.606 452.744,934.393 457.879,923.427 463.015,912.716 468.15,902.265 473.285,892.081 478.42,882.17 483.555,872.534 488.69,863.179 
  493.826,854.108 498.961,845.323 504.096,836.827 509.231,828.622 514.366,820.709 519.501,813.09 524.637,805.765 529.772,798.733 534.907,791.996 540.042,785.552 
  545.177,779.401 550.312,773.541 555.448,767.971 560.583,762.689 565.718,757.693 570.853,752.982 575.988,748.552 581.123,744.401 586.259,740.526 591.394,736.925 
  596.529,733.593 601.664,730.527 606.799,727.724 611.934,725.18 617.07,722.892 622.205,720.855 627.34,719.066 632.475,717.52 637.61,716.213 642.745,715.14 
  647.881,714.298 653.016,713.683 658.151,713.288 663.286,713.111 668.421,713.145 673.556,713.388 678.692,713.834 683.827,714.478 688.962,715.316 694.097,716.344 
  699.232,717.555 704.367,718.947 709.503,720.514 714.638,722.251 719.773,724.154 724.908,726.218 730.043,728.438 735.178,730.81 740.314,733.33 745.449,735.993 
  750.584,738.794 755.719,741.729 760.854,744.793 765.989,747.982 771.125,751.292 776.26,754.719 781.395,758.258 786.53,761.905 791.665,765.655 796.8,769.506 
  801.936,773.452 807.071,777.49 812.206,781.616 817.341,785.826 822.476,790.117 827.611,794.484 832.747,798.924 837.882,803.433 843.017,808.007 848.152,812.644 
  853.287,817.34 858.422,822.092 863.558,826.895 868.693,831.748 873.828,836.646 878.963,841.587 884.098,846.568 889.233,851.585 894.369,856.637 899.504,861.719 
  904.639,866.829 909.774,871.965 914.909,877.124 920.044,882.304 925.18,887.501 930.315,892.713 935.45,897.939 940.585,903.175 945.72,908.419 950.855,913.67 
  955.991,918.925 961.126,924.181 966.261,929.438 971.396,934.693 976.531,939.943 981.666,945.188 986.802,950.425 991.937,955.653 997.072,960.87 1002.21,966.074 
  1007.34,971.264 1012.48,976.439 1017.61,981.596 1022.75,986.734 1027.88,991.853 1033.02,996.95 1038.15,1002.02 1043.29,1007.07 1048.42,1012.1 1053.56,1017.1 
  1058.69,1022.07 1063.83,1027.02 1068.96,1031.93 1074.1,1036.82 1079.23,1041.67 1084.37,1046.49 1089.5,1051.28 1094.64,1056.03 1099.78,1060.75 1104.91,1065.44 
  1110.05,1070.09 1115.18,1074.7 1120.32,1079.27 1125.45,1083.81 1130.59,1088.31 1135.72,1092.77 1140.86,1097.19 1145.99,1101.58 1151.13,1105.92 1156.26,1110.22 
  1161.4,1114.48 1166.53,1118.7 1171.67,1122.88 1176.8,1127.01 1181.94,1131.11 1187.07,1135.16 1192.21,1139.17 1197.34,1143.14 1202.48,1147.06 1207.61,1150.94 
  1212.75,1154.78 1217.88,1158.58 1223.02,1162.33 1228.15,1166.04 1233.29,1169.7 1238.42,1173.33 1243.56,1176.91 1248.7,1180.44 1253.83,1183.93 1258.97,1187.38 
  1264.1,1190.79 1269.24,1194.15 1274.37,1197.48 1279.51,1200.75 1284.64,1203.99 1289.78,1207.18 1294.91,1210.33 1300.05,1213.44 1305.18,1216.51 1310.32,1219.54 
  1315.45,1222.52 1320.59,1225.46 1325.72,1228.36 1330.86,1231.23 1335.99,1234.05 1341.13,1236.83 1346.26,1239.57 1351.4,1242.27 1356.53,1244.93 1361.67,1247.55 
  1366.8,1250.13 1371.94,1252.68 1377.07,1255.18 1382.21,1257.65 1387.34,1260.08 1392.48,1262.47 1397.61,1264.83 1402.75,1267.15 1407.89,1269.43 1413.02,1271.68 
  1418.16,1273.89 1423.29,1276.06 1428.43,1278.2 1433.56,1280.31 1438.7,1282.38 1443.83,1284.42 1448.97,1286.42 1454.1,1288.4 1459.24,1290.33 1464.37,1292.24 
  1469.51,1294.11 1474.64,1295.96 1479.78,1297.77 1484.91,1299.55 1490.05,1301.29 1495.18,1303.01 1500.32,1304.7 1505.45,1306.36 1510.59,1307.99 1515.72,1309.59 
  1520.86,1311.17 1525.99,1312.71 1531.13,1314.23 1536.26,1315.72 1541.4,1317.18 1546.53,1318.62 1551.67,1320.03 1556.81,1321.41 1561.94,1322.77 1567.08,1324.1 
  1572.21,1325.41 1577.35,1326.7 1582.48,1327.96 1587.62,1329.19 1592.75,1330.41 1597.89,1331.6 1603.02,1332.76 1608.16,1333.91 1613.29,1335.03 1618.43,1336.13 
  1623.56,1337.21 1628.7,1338.27 1633.83,1339.31 1638.97,1340.32 1644.1,1341.32 1649.24,1342.3 1654.37,1343.26 1659.51,1344.2 1664.64,1345.12 1669.78,1346.02 
  1674.91,1346.9 1680.05,1347.77 1685.18,1348.61 1690.32,1349.44 1695.45,1350.26 1700.59,1351.05 1705.72,1351.83 1710.86,1352.6 1716,1353.34 1721.13,1354.08 
  1726.27,1354.79 1731.4,1355.5 1736.54,1356.18 1741.67,1356.85 1746.81,1357.51 1751.94,1358.16 1757.08,1358.79 1762.21,1359.4 1767.35,1360.01 1772.48,1360.6 
  1777.62,1361.17 1782.75,1361.74 1787.89,1362.29 1793.02,1362.83 1798.16,1363.36 1803.29,1363.88 1808.43,1364.38 1813.56,1364.88 1818.7,1365.36 1823.83,1365.83 
  1828.97,1366.29 1834.1,1366.75 1839.24,1367.19 1844.37,1367.62 1849.51,1368.04 1854.64,1368.45 1859.78,1368.85 1864.92,1369.24 1870.05,1369.63 1875.19,1370 
  1880.32,1370.37 1885.46,1370.73 1890.59,1371.08 1895.73,1371.42 1900.86,1371.75 1906,1372.08 1911.13,1372.39 1916.27,1372.71 1921.4,1373.01 1926.54,1373.3 
  1931.67,1373.59 1936.81,1373.87 1941.94,1374.15 1947.08,1374.42 1952.21,1374.68 1957.35,1374.93 1962.48,1375.18 1967.62,1375.43 1972.75,1375.66 1977.89,1375.89 
  1983.02,1376.12 1988.16,1376.34 1993.29,1376.56 1998.43,1376.76 2003.56,1376.97 2008.7,1377.17 2013.83,1377.36 2018.97,1377.55 2024.11,1377.74 2029.24,1377.91 
  2034.38,1378.09 2039.51,1378.26 2044.65,1378.43 2049.78,1378.59 2054.92,1378.75 2060.05,1378.9 2065.19,1379.05 2070.32,1379.2 2075.46,1379.34 2080.59,1379.48 
  2085.73,1379.61 2090.86,1379.75 2096,1379.87 2101.13,1380 2106.27,1380.12 2111.4,1380.24 2116.54,1380.35 2121.67,1380.46 2126.81,1380.57 2131.94,1380.68 
  2137.08,1380.78 2142.21,1380.88 2147.35,1380.98 2152.48,1381.08 2157.62,1381.17 2162.75,1381.26 2167.89,1381.35 2173.03,1381.43 2178.16,1381.52 2183.3,1381.6 
  2188.43,1381.68 2193.57,1381.75 2198.7,1381.83 2203.84,1381.9 2208.97,1381.97 2214.11,1382.04 2219.24,1382.1 2224.38,1382.17 2229.51,1382.23 2234.65,1382.29 
  2239.78,1382.35 2244.92,1382.41 2250.05,1382.46 2255.19,1382.52 2260.32,1382.57 2265.46,1382.62 2270.59,1382.67 2275.73,1382.72 2280.86,1382.77 2286,1382.81 
  2291.13,1382.86 
  "/>
<polyline clip-path="url(#clip272)" style="stroke:#3da44d; stroke-linecap:butt; stroke-linejoin:round; stroke-width:12; stroke-opacity:1; fill:none" points="
  237.067,1384.24 242.202,1384.24 247.338,1384.24 252.473,1384.23 257.608,1384.23 262.743,1384.21 267.878,1384.17 273.013,1384.12 278.149,1384.05 283.284,1383.94 
  288.419,1383.79 293.554,1383.6 298.689,1383.36 303.824,1383.06 308.96,1382.69 314.095,1382.25 319.23,1381.72 324.365,1381.11 329.5,1380.4 334.635,1379.59 
  339.771,1378.67 344.906,1377.64 350.041,1376.48 355.176,1375.19 360.311,1373.77 365.446,1372.22 370.582,1370.52 375.717,1368.67 380.852,1366.67 385.987,1364.52 
  391.122,1362.21 396.257,1359.73 401.393,1357.09 406.528,1354.29 411.663,1351.32 416.798,1348.18 421.933,1344.87 427.068,1341.39 432.204,1337.74 437.339,1333.93 
  442.474,1329.94 447.609,1325.78 452.744,1321.46 457.879,1316.97 463.015,1312.32 468.15,1307.5 473.285,1302.53 478.42,1297.41 483.555,1292.13 488.69,1286.7 
  493.826,1281.13 498.961,1275.41 504.096,1269.56 509.231,1263.58 514.366,1257.47 519.501,1251.23 524.637,1244.88 529.772,1238.41 534.907,1231.84 540.042,1225.16 
  545.177,1218.38 550.312,1211.52 555.448,1204.56 560.583,1197.53 565.718,1190.42 570.853,1183.24 575.988,1176 581.123,1168.71 586.259,1161.36 591.394,1153.97 
  596.529,1146.53 601.664,1139.07 606.799,1131.58 611.934,1124.07 617.07,1116.54 622.205,1109 627.34,1101.47 632.475,1093.93 637.61,1086.4 642.745,1078.89 
  647.881,1071.4 653.016,1063.93 658.151,1056.49 663.286,1049.09 668.421,1041.74 673.556,1034.42 678.692,1027.17 683.827,1019.96 688.962,1012.82 694.097,1005.75 
  699.232,998.744 704.367,991.816 709.503,984.969 714.638,978.205 719.773,971.53 724.908,964.948 730.043,958.462 735.178,952.075 740.314,945.793 745.449,939.617 
  750.584,933.551 755.719,927.6 760.854,921.764 765.989,916.048 771.125,910.454 776.26,904.985 781.395,899.644 786.53,894.432 791.665,889.351 796.8,884.405 
  801.936,879.594 807.071,874.92 812.206,870.386 817.341,865.993 822.476,861.742 827.611,857.634 832.747,853.67 837.882,849.852 843.017,846.181 848.152,842.656 
  853.287,839.279 858.422,836.051 863.558,832.971 868.693,830.04 873.828,827.258 878.963,824.625 884.098,822.141 889.233,819.807 894.369,817.621 899.504,815.583 
  904.639,813.693 909.774,811.95 914.909,810.355 920.044,808.905 925.18,807.6 930.315,806.44 935.45,805.423 940.585,804.548 945.72,803.814 950.855,803.22 
  955.991,802.765 961.126,802.447 966.261,802.265 971.396,802.217 976.531,802.303 981.666,802.519 986.802,802.865 991.937,803.339 997.072,803.939 1002.21,804.664 
  1007.34,805.511 1012.48,806.479 1017.61,807.565 1022.75,808.769 1027.88,810.087 1033.02,811.518 1038.15,813.06 1043.29,814.71 1048.42,816.467 1053.56,818.329 
  1058.69,820.292 1063.83,822.356 1068.96,824.518 1074.1,826.775 1079.23,829.126 1084.37,831.568 1089.5,834.1 1094.64,836.718 1099.78,839.42 1104.91,842.205 
  1110.05,845.07 1115.18,848.012 1120.32,851.03 1125.45,854.122 1130.59,857.284 1135.72,860.515 1140.86,863.813 1145.99,867.175 1151.13,870.599 1156.26,874.083 
  1161.4,877.624 1166.53,881.221 1171.67,884.872 1176.8,888.573 1181.94,892.324 1187.07,896.121 1192.21,899.963 1197.34,903.848 1202.48,907.774 1207.61,911.738 
  1212.75,915.738 1217.88,919.774 1223.02,923.842 1228.15,927.94 1233.29,932.067 1238.42,936.222 1243.56,940.401 1248.7,944.603 1253.83,948.826 1258.97,953.069 
  1264.1,957.33 1269.24,961.607 1274.37,965.898 1279.51,970.202 1284.64,974.517 1289.78,978.841 1294.91,983.172 1300.05,987.511 1305.18,991.853 1310.32,996.199 
  1315.45,1000.55 1320.59,1004.89 1325.72,1009.24 1330.86,1013.59 1335.99,1017.93 1341.13,1022.26 1346.26,1026.59 1351.4,1030.91 1356.53,1035.22 1361.67,1039.53 
  1366.8,1043.82 1371.94,1048.1 1377.07,1052.36 1382.21,1056.61 1387.34,1060.85 1392.48,1065.07 1397.61,1069.27 1402.75,1073.45 1407.89,1077.61 1413.02,1081.75 
  1418.16,1085.88 1423.29,1089.98 1428.43,1094.05 1433.56,1098.11 1438.7,1102.13 1443.83,1106.14 1448.97,1110.12 1454.1,1114.07 1459.24,1117.99 1464.37,1121.89 
  1469.51,1125.76 1474.64,1129.6 1479.78,1133.41 1484.91,1137.19 1490.05,1140.94 1495.18,1144.66 1500.32,1148.35 1505.45,1152.01 1510.59,1155.63 1515.72,1159.22 
  1520.86,1162.78 1525.99,1166.31 1531.13,1169.8 1536.26,1173.26 1541.4,1176.69 1546.53,1180.08 1551.67,1183.44 1556.81,1186.76 1561.94,1190.05 1567.08,1193.3 
  1572.21,1196.52 1577.35,1199.7 1582.48,1202.85 1587.62,1205.96 1592.75,1209.04 1597.89,1212.08 1603.02,1215.08 1608.16,1218.05 1613.29,1220.99 1618.43,1223.88 
  1623.56,1226.75 1628.7,1229.57 1633.83,1232.36 1638.97,1235.12 1644.1,1237.84 1649.24,1240.52 1654.37,1243.17 1659.51,1245.79 1664.64,1248.37 1669.78,1250.91 
  1674.91,1253.42 1680.05,1255.89 1685.18,1258.33 1690.32,1260.74 1695.45,1263.11 1700.59,1265.45 1705.72,1267.75 1710.86,1270.02 1716,1272.26 1721.13,1274.46 
  1726.27,1276.63 1731.4,1278.77 1736.54,1280.87 1741.67,1282.94 1746.81,1284.98 1751.94,1286.99 1757.08,1288.97 1762.21,1290.91 1767.35,1292.82 1772.48,1294.71 
  1777.62,1296.56 1782.75,1298.38 1787.89,1300.17 1793.02,1301.94 1798.16,1303.67 1803.29,1305.37 1808.43,1307.05 1813.56,1308.69 1818.7,1310.31 1823.83,1311.9 
  1828.97,1313.46 1834.1,1315 1839.24,1316.51 1844.37,1317.99 1849.51,1319.44 1854.64,1320.87 1859.78,1322.27 1864.92,1323.65 1870.05,1325 1875.19,1326.33 
  1880.32,1327.63 1885.46,1328.91 1890.59,1330.16 1895.73,1331.39 1900.86,1332.6 1906,1333.79 1911.13,1334.95 1916.27,1336.09 1921.4,1337.2 1926.54,1338.3 
  1931.67,1339.37 1936.81,1340.43 1941.94,1341.46 1947.08,1342.47 1952.21,1343.46 1957.35,1344.43 1962.48,1345.38 1967.62,1346.32 1972.75,1347.23 1977.89,1348.12 
  1983.02,1349 1988.16,1349.86 1993.29,1350.7 1998.43,1351.52 2003.56,1352.32 2008.7,1353.11 2013.83,1353.88 2018.97,1354.64 2024.11,1355.38 2029.24,1356.1 
  2034.38,1356.81 2039.51,1357.5 2044.65,1358.18 2049.78,1358.84 2054.92,1359.48 2060.05,1360.12 2065.19,1360.74 2070.32,1361.34 2075.46,1361.93 2080.59,1362.51 
  2085.73,1363.07 2090.86,1363.63 2096,1364.17 2101.13,1364.69 2106.27,1365.21 2111.4,1365.71 2116.54,1366.2 2121.67,1366.68 2126.81,1367.15 2131.94,1367.61 
  2137.08,1368.06 2142.21,1368.49 2147.35,1368.92 2152.48,1369.33 2157.62,1369.74 2162.75,1370.14 2167.89,1370.52 2173.03,1370.9 2178.16,1371.27 2183.3,1371.63 
  2188.43,1371.98 2193.57,1372.32 2198.7,1372.65 2203.84,1372.97 2208.97,1373.29 2214.11,1373.6 2219.24,1373.9 2224.38,1374.19 2229.51,1374.48 2234.65,1374.76 
  2239.78,1375.03 2244.92,1375.29 2250.05,1375.55 2255.19,1375.8 2260.32,1376.05 2265.46,1376.28 2270.59,1376.52 2275.73,1376.74 2280.86,1376.96 2286,1377.18 
  2291.13,1377.38 
  "/>
<path clip-path="url(#clip270)" d="
M1648.84 300.469 L2280.18 300.469 L2280.18 93.1086 L1648.84 93.1086  Z
  " fill="#ffffff" fill-rule="evenodd" fill-opacity="1"/>
<polyline clip-path="url(#clip270)" style="stroke:#000000; stroke-linecap:butt; stroke-linejoin:round; stroke-width:4; stroke-opacity:1; fill:none" points="
  1648.84,300.469 2280.18,300.469 2280.18,93.1086 1648.84,93.1086 1648.84,300.469 
  "/>
<polyline clip-path="url(#clip270)" style="stroke:#009af9; stroke-linecap:butt; stroke-linejoin:round; stroke-width:4; stroke-opacity:1; fill:none" points="
  1673.03,144.949 1818.18,144.949 
  "/>
<path clip-path="url(#clip270)" d="M1842.37 127.669 L1847.05 127.669 L1847.05 158.293 L1863.88 158.293 L1863.88 162.229 L1842.37 162.229 L1842.37 127.669 Z" fill="#000000" fill-rule="evenodd" fill-opacity="1" /><path clip-path="url(#clip270)" d="M1889.5 128.803 L1889.5 133.363 Q1886.84 132.09 1884.48 131.465 Q1882.12 130.84 1879.92 130.84 Q1876.1 130.84 1874.02 132.321 Q1871.96 133.803 1871.96 136.534 Q1871.96 138.826 1873.32 140.007 Q1874.71 141.164 1878.56 141.882 L1881.38 142.46 Q1886.61 143.456 1889.09 145.979 Q1891.59 148.479 1891.59 152.692 Q1891.59 157.715 1888.21 160.307 Q1884.85 162.9 1878.35 162.9 Q1875.89 162.9 1873.12 162.344 Q1870.36 161.789 1867.4 160.701 L1867.4 155.886 Q1870.25 157.483 1872.98 158.293 Q1875.71 159.104 1878.35 159.104 Q1882.35 159.104 1884.53 157.53 Q1886.7 155.956 1886.7 153.039 Q1886.7 150.493 1885.13 149.057 Q1883.58 147.622 1880.01 146.905 L1877.17 146.349 Q1871.94 145.307 1869.6 143.085 Q1867.26 140.863 1867.26 136.905 Q1867.26 132.321 1870.48 129.682 Q1873.72 127.044 1879.39 127.044 Q1881.82 127.044 1884.34 127.483 Q1886.87 127.923 1889.5 128.803 Z" fill="#000000" fill-rule="evenodd" fill-opacity="1" /><path clip-path="url(#clip270)" d="M1903.56 131.511 L1903.56 158.386 L1909.2 158.386 Q1916.36 158.386 1919.67 155.145 Q1923 151.905 1923 144.914 Q1923 137.969 1919.67 134.752 Q1916.36 131.511 1909.2 131.511 L1903.56 131.511 M1898.88 127.669 L1908.49 127.669 Q1918.53 127.669 1923.23 131.858 Q1927.93 136.025 1927.93 144.914 Q1927.93 153.849 1923.21 158.039 Q1918.49 162.229 1908.49 162.229 L1898.88 162.229 L1898.88 127.669 Z" fill="#000000" fill-rule="evenodd" fill-opacity="1" /><polyline clip-path="url(#clip270)" style="stroke:#e26f46; stroke-linecap:butt; stroke-linejoin:round; stroke-width:4; stroke-opacity:1; fill:none" points="
  1673.03,196.789 1818.18,196.789 
  "/>
<path clip-path="url(#clip270)" d="M1847.05 183.351 L1847.05 196.337 L1852.93 196.337 Q1856.19 196.337 1857.98 194.647 Q1859.76 192.958 1859.76 189.833 Q1859.76 186.731 1857.98 185.041 Q1856.19 183.351 1852.93 183.351 L1847.05 183.351 M1842.37 179.509 L1852.93 179.509 Q1858.74 179.509 1861.7 182.147 Q1864.69 184.763 1864.69 189.833 Q1864.69 194.948 1861.7 197.564 Q1858.74 200.18 1852.93 200.18 L1847.05 200.18 L1847.05 214.069 L1842.37 214.069 L1842.37 179.509 Z" fill="#000000" fill-rule="evenodd" fill-opacity="1" /><path clip-path="url(#clip270)" d="M1886.47 188.907 L1886.47 192.934 Q1884.67 192.009 1882.72 191.546 Q1880.78 191.083 1878.69 191.083 Q1875.52 191.083 1873.93 192.055 Q1872.35 193.027 1872.35 194.971 Q1872.35 196.453 1873.49 197.309 Q1874.62 198.143 1878.05 198.907 L1879.5 199.231 Q1884.04 200.203 1885.94 201.985 Q1887.86 203.745 1887.86 206.916 Q1887.86 210.527 1884.99 212.633 Q1882.14 214.74 1877.14 214.74 Q1875.06 214.74 1872.79 214.323 Q1870.55 213.93 1868.05 213.12 L1868.05 208.721 Q1870.41 209.948 1872.7 210.573 Q1874.99 211.175 1877.24 211.175 Q1880.25 211.175 1881.87 210.157 Q1883.49 209.115 1883.49 207.24 Q1883.49 205.504 1882.31 204.578 Q1881.15 203.652 1877.19 202.796 L1875.71 202.448 Q1871.75 201.615 1869.99 199.902 Q1868.23 198.166 1868.23 195.157 Q1868.23 191.499 1870.82 189.509 Q1873.42 187.518 1878.18 187.518 Q1880.55 187.518 1882.63 187.865 Q1884.71 188.212 1886.47 188.907 Z" fill="#000000" fill-rule="evenodd" fill-opacity="1" /><path clip-path="url(#clip270)" d="M1894.64 188.143 L1898.9 188.143 L1898.9 214.069 L1894.64 214.069 L1894.64 188.143 M1894.64 178.05 L1898.9 178.05 L1898.9 183.444 L1894.64 183.444 L1894.64 178.05 Z" fill="#000000" fill-rule="evenodd" fill-opacity="1" /><path clip-path="url(#clip270)" d="M1907.81 178.05 L1912.07 178.05 L1912.07 214.069 L1907.81 214.069 L1907.81 178.05 Z" fill="#000000" fill-rule="evenodd" fill-opacity="1" /><path clip-path="url(#clip270)" d="M1931.03 191.129 Q1927.61 191.129 1925.62 193.814 Q1923.62 196.476 1923.62 201.129 Q1923.62 205.782 1925.59 208.467 Q1927.58 211.129 1931.03 211.129 Q1934.43 211.129 1936.43 208.444 Q1938.42 205.758 1938.42 201.129 Q1938.42 196.522 1936.43 193.837 Q1934.43 191.129 1931.03 191.129 M1931.03 187.518 Q1936.59 187.518 1939.76 191.129 Q1942.93 194.74 1942.93 201.129 Q1942.93 207.495 1939.76 211.129 Q1936.59 214.74 1931.03 214.74 Q1925.45 214.74 1922.28 211.129 Q1919.13 207.495 1919.13 201.129 Q1919.13 194.74 1922.28 191.129 Q1925.45 187.518 1931.03 187.518 Z" fill="#000000" fill-rule="evenodd" fill-opacity="1" /><path clip-path="url(#clip270)" d="M1968.65 189.138 L1968.65 193.12 Q1966.84 192.124 1965.01 191.638 Q1963.21 191.129 1961.36 191.129 Q1957.21 191.129 1954.92 193.768 Q1952.63 196.384 1952.63 201.129 Q1952.63 205.874 1954.92 208.513 Q1957.21 211.129 1961.36 211.129 Q1963.21 211.129 1965.01 210.643 Q1966.84 210.133 1968.65 209.138 L1968.65 213.073 Q1966.87 213.907 1964.94 214.323 Q1963.05 214.74 1960.89 214.74 Q1955.04 214.74 1951.59 211.059 Q1948.14 207.379 1948.14 201.129 Q1948.14 194.786 1951.61 191.152 Q1955.11 187.518 1961.17 187.518 Q1963.14 187.518 1965.01 187.935 Q1966.89 188.328 1968.65 189.138 Z" fill="#000000" fill-rule="evenodd" fill-opacity="1" /><path clip-path="url(#clip270)" d="M1986.84 216.476 Q1985.04 221.106 1983.32 222.518 Q1981.61 223.93 1978.74 223.93 L1975.34 223.93 L1975.34 220.365 L1977.84 220.365 Q1979.6 220.365 1980.57 219.532 Q1981.54 218.698 1982.72 215.596 L1983.49 213.652 L1973 188.143 L1977.51 188.143 L1985.61 208.421 L1993.72 188.143 L1998.23 188.143 L1986.84 216.476 Z" fill="#000000" fill-rule="evenodd" fill-opacity="1" /><path clip-path="url(#clip270)" d="M2022.72 201.129 Q2022.72 196.43 2020.78 193.768 Q2018.86 191.083 2015.48 191.083 Q2012.1 191.083 2010.15 193.768 Q2008.23 196.43 2008.23 201.129 Q2008.23 205.828 2010.15 208.513 Q2012.1 211.175 2015.48 211.175 Q2018.86 211.175 2020.78 208.513 Q2022.72 205.828 2022.72 201.129 M2008.23 192.078 Q2009.57 189.763 2011.61 188.652 Q2013.67 187.518 2016.52 187.518 Q2021.24 187.518 2024.18 191.268 Q2027.14 195.018 2027.14 201.129 Q2027.14 207.24 2024.18 210.99 Q2021.24 214.74 2016.52 214.74 Q2013.67 214.74 2011.61 213.629 Q2009.57 212.495 2008.23 210.18 L2008.23 214.069 L2003.95 214.069 L2003.95 178.05 L2008.23 178.05 L2008.23 192.078 Z" fill="#000000" fill-rule="evenodd" fill-opacity="1" /><path clip-path="url(#clip270)" d="M2034.2 188.143 L2038.46 188.143 L2038.46 214.069 L2034.2 214.069 L2034.2 188.143 M2034.2 178.05 L2038.46 178.05 L2038.46 183.444 L2034.2 183.444 L2034.2 178.05 Z" fill="#000000" fill-rule="evenodd" fill-opacity="1" /><path clip-path="url(#clip270)" d="M2068.92 198.421 L2068.92 214.069 L2064.67 214.069 L2064.67 198.559 Q2064.67 194.879 2063.23 193.05 Q2061.8 191.222 2058.92 191.222 Q2055.48 191.222 2053.48 193.421 Q2051.49 195.62 2051.49 199.416 L2051.49 214.069 L2047.21 214.069 L2047.21 188.143 L2051.49 188.143 L2051.49 192.171 Q2053.02 189.833 2055.08 188.675 Q2057.17 187.518 2059.87 187.518 Q2064.34 187.518 2066.63 190.296 Q2068.92 193.05 2068.92 198.421 Z" fill="#000000" fill-rule="evenodd" fill-opacity="1" /><polyline clip-path="url(#clip270)" style="stroke:#3da44d; stroke-linecap:butt; stroke-linejoin:round; stroke-width:4; stroke-opacity:1; fill:none" points="
  1673.03,248.629 1818.18,248.629 
  "/>
<path clip-path="url(#clip270)" d="M1842.37 231.349 L1847.05 231.349 L1847.05 261.973 L1863.88 261.973 L1863.88 265.909 L1842.37 265.909 L1842.37 231.349 Z" fill="#000000" fill-rule="evenodd" fill-opacity="1" /><path clip-path="url(#clip270)" d="M1889.5 232.483 L1889.5 237.043 Q1886.84 235.77 1884.48 235.145 Q1882.12 234.52 1879.92 234.52 Q1876.1 234.52 1874.02 236.001 Q1871.96 237.483 1871.96 240.214 Q1871.96 242.506 1873.32 243.687 Q1874.71 244.844 1878.56 245.562 L1881.38 246.14 Q1886.61 247.136 1889.09 249.659 Q1891.59 252.159 1891.59 256.372 Q1891.59 261.395 1888.21 263.987 Q1884.85 266.58 1878.35 266.58 Q1875.89 266.58 1873.12 266.024 Q1870.36 265.469 1867.4 264.381 L1867.4 259.566 Q1870.25 261.163 1872.98 261.973 Q1875.71 262.784 1878.35 262.784 Q1882.35 262.784 1884.53 261.21 Q1886.7 259.636 1886.7 256.719 Q1886.7 254.173 1885.13 252.737 Q1883.58 251.302 1880.01 250.585 L1877.17 250.029 Q1871.94 248.987 1869.6 246.765 Q1867.26 244.543 1867.26 240.585 Q1867.26 236.001 1870.48 233.362 Q1873.72 230.724 1879.39 230.724 Q1881.82 230.724 1884.34 231.163 Q1886.87 231.603 1889.5 232.483 Z" fill="#000000" fill-rule="evenodd" fill-opacity="1" /><path clip-path="url(#clip270)" d="M1903.56 235.191 L1903.56 262.066 L1909.2 262.066 Q1916.36 262.066 1919.67 258.825 Q1923 255.585 1923 248.594 Q1923 241.649 1919.67 238.432 Q1916.36 235.191 1909.2 235.191 L1903.56 235.191 M1898.88 231.349 L1908.49 231.349 Q1918.53 231.349 1923.23 235.538 Q1927.93 239.705 1927.93 248.594 Q1927.93 257.529 1923.21 261.719 Q1918.49 265.909 1908.49 265.909 L1898.88 265.909 L1898.88 231.349 Z" fill="#000000" fill-rule="evenodd" fill-opacity="1" /><path clip-path="url(#clip270)" d="M1967.61 236.187 L1967.61 249.08 L1980.5 249.08 L1980.5 253.015 L1967.61 253.015 L1967.61 265.909 L1963.72 265.909 L1963.72 253.015 L1950.82 253.015 L1950.82 249.08 L1963.72 249.08 L1963.72 236.187 L1967.61 236.187 Z" fill="#000000" fill-rule="evenodd" fill-opacity="1" /><path clip-path="url(#clip270)" d="M2009.92 235.191 L2009.92 248.177 L2015.8 248.177 Q2019.06 248.177 2020.85 246.487 Q2022.63 244.798 2022.63 241.673 Q2022.63 238.571 2020.85 236.881 Q2019.06 235.191 2015.8 235.191 L2009.92 235.191 M2005.24 231.349 L2015.8 231.349 Q2021.61 231.349 2024.57 233.987 Q2027.56 236.603 2027.56 241.673 Q2027.56 246.788 2024.57 249.404 Q2021.61 252.02 2015.8 252.02 L2009.92 252.02 L2009.92 265.909 L2005.24 265.909 L2005.24 231.349 Z" fill="#000000" fill-rule="evenodd" fill-opacity="1" /><path clip-path="url(#clip270)" d="M2049.34 240.747 L2049.34 244.774 Q2047.54 243.849 2045.59 243.386 Q2043.65 242.923 2041.56 242.923 Q2038.39 242.923 2036.8 243.895 Q2035.22 244.867 2035.22 246.811 Q2035.22 248.293 2036.36 249.149 Q2037.49 249.983 2040.92 250.747 L2042.37 251.071 Q2046.91 252.043 2048.81 253.825 Q2050.73 255.585 2050.73 258.756 Q2050.73 262.367 2047.86 264.473 Q2045.01 266.58 2040.01 266.58 Q2037.93 266.58 2035.66 266.163 Q2033.42 265.77 2030.92 264.96 L2030.92 260.561 Q2033.28 261.788 2035.57 262.413 Q2037.86 263.015 2040.11 263.015 Q2043.11 263.015 2044.74 261.997 Q2046.36 260.955 2046.36 259.08 Q2046.36 257.344 2045.17 256.418 Q2044.02 255.492 2040.06 254.636 L2038.58 254.288 Q2034.62 253.455 2032.86 251.742 Q2031.1 250.006 2031.1 246.997 Q2031.1 243.339 2033.69 241.349 Q2036.29 239.358 2041.05 239.358 Q2043.42 239.358 2045.5 239.705 Q2047.58 240.052 2049.34 240.747 Z" fill="#000000" fill-rule="evenodd" fill-opacity="1" /><path clip-path="url(#clip270)" d="M2057.51 239.983 L2061.77 239.983 L2061.77 265.909 L2057.51 265.909 L2057.51 239.983 M2057.51 229.89 L2061.77 229.89 L2061.77 235.284 L2057.51 235.284 L2057.51 229.89 Z" fill="#000000" fill-rule="evenodd" fill-opacity="1" /><path clip-path="url(#clip270)" d="M2070.68 229.89 L2074.94 229.89 L2074.94 265.909 L2070.68 265.909 L2070.68 229.89 Z" fill="#000000" fill-rule="evenodd" fill-opacity="1" /><path clip-path="url(#clip270)" d="M2093.9 242.969 Q2090.48 242.969 2088.48 245.654 Q2086.49 248.316 2086.49 252.969 Q2086.49 257.622 2088.46 260.307 Q2090.45 262.969 2093.9 262.969 Q2097.3 262.969 2099.29 260.284 Q2101.29 257.598 2101.29 252.969 Q2101.29 248.362 2099.29 245.677 Q2097.3 242.969 2093.9 242.969 M2093.9 239.358 Q2099.46 239.358 2102.63 242.969 Q2105.8 246.58 2105.8 252.969 Q2105.8 259.335 2102.63 262.969 Q2099.46 266.58 2093.9 266.58 Q2088.32 266.58 2085.15 262.969 Q2082 259.335 2082 252.969 Q2082 246.58 2085.15 242.969 Q2088.32 239.358 2093.9 239.358 Z" fill="#000000" fill-rule="evenodd" fill-opacity="1" /><path clip-path="url(#clip270)" d="M2131.52 240.978 L2131.52 244.96 Q2129.71 243.964 2127.88 243.478 Q2126.08 242.969 2124.23 242.969 Q2120.08 242.969 2117.79 245.608 Q2115.5 248.224 2115.5 252.969 Q2115.5 257.714 2117.79 260.353 Q2120.08 262.969 2124.23 262.969 Q2126.08 262.969 2127.88 262.483 Q2129.71 261.973 2131.52 260.978 L2131.52 264.913 Q2129.73 265.747 2127.81 266.163 Q2125.92 266.58 2123.76 266.58 Q2117.91 266.58 2114.46 262.899 Q2111.01 259.219 2111.01 252.969 Q2111.01 246.626 2114.48 242.992 Q2117.98 239.358 2124.04 239.358 Q2126.01 239.358 2127.88 239.775 Q2129.76 240.168 2131.52 240.978 Z" fill="#000000" fill-rule="evenodd" fill-opacity="1" /><path clip-path="url(#clip270)" d="M2149.71 268.316 Q2147.91 272.946 2146.19 274.358 Q2144.48 275.77 2141.61 275.77 L2138.21 275.77 L2138.21 272.205 L2140.71 272.205 Q2142.47 272.205 2143.44 271.372 Q2144.41 270.538 2145.59 267.436 L2146.35 265.492 L2135.87 239.983 L2140.38 239.983 L2148.48 260.261 L2156.59 239.983 L2161.1 239.983 L2149.71 268.316 Z" fill="#000000" fill-rule="evenodd" fill-opacity="1" /><path clip-path="url(#clip270)" d="M2185.59 252.969 Q2185.59 248.27 2183.65 245.608 Q2181.73 242.923 2178.35 242.923 Q2174.97 242.923 2173.02 245.608 Q2171.1 248.27 2171.1 252.969 Q2171.1 257.668 2173.02 260.353 Q2174.97 263.015 2178.35 263.015 Q2181.73 263.015 2183.65 260.353 Q2185.59 257.668 2185.59 252.969 M2171.1 243.918 Q2172.44 241.603 2174.48 240.492 Q2176.54 239.358 2179.39 239.358 Q2184.11 239.358 2187.05 243.108 Q2190.01 246.858 2190.01 252.969 Q2190.01 259.08 2187.05 262.83 Q2184.11 266.58 2179.39 266.58 Q2176.54 266.58 2174.48 265.469 Q2172.44 264.335 2171.1 262.02 L2171.1 265.909 L2166.82 265.909 L2166.82 229.89 L2171.1 229.89 L2171.1 243.918 Z" fill="#000000" fill-rule="evenodd" fill-opacity="1" /><path clip-path="url(#clip270)" d="M2197.07 239.983 L2201.33 239.983 L2201.33 265.909 L2197.07 265.909 L2197.07 239.983 M2197.07 229.89 L2201.33 229.89 L2201.33 235.284 L2197.07 235.284 L2197.07 229.89 Z" fill="#000000" fill-rule="evenodd" fill-opacity="1" /><path clip-path="url(#clip270)" d="M2231.79 250.261 L2231.79 265.909 L2227.53 265.909 L2227.53 250.399 Q2227.53 246.719 2226.1 244.89 Q2224.66 243.062 2221.79 243.062 Q2218.35 243.062 2216.35 245.261 Q2214.36 247.46 2214.36 251.256 L2214.36 265.909 L2210.08 265.909 L2210.08 239.983 L2214.36 239.983 L2214.36 244.011 Q2215.89 241.673 2217.95 240.515 Q2220.04 239.358 2222.74 239.358 Q2227.21 239.358 2229.5 242.136 Q2231.79 244.89 2231.79 250.261 Z" fill="#000000" fill-rule="evenodd" fill-opacity="1" /></svg>
