<?xml version="1.0" encoding="utf-8"?>
<svg xmlns="http://www.w3.org/2000/svg" xmlns:xlink="http://www.w3.org/1999/xlink" width="600" height="400" viewBox="0 0 2400 1600">
<defs>
  <clipPath id="clip470">
    <rect x="0" y="0" width="2400" height="1600"/>
  </clipPath>
</defs>
<path clip-path="url(#clip470)" d="
M0 1600 L2400 1600 L2400 0 L0 0  Z
  " fill="#ffffff" fill-rule="evenodd" fill-opacity="1"/>
<defs>
  <clipPath id="clip471">
    <rect x="480" y="0" width="1681" height="1600"/>
  </clipPath>
</defs>
<path clip-path="url(#clip470)" d="
M138.959 1486.45 L2352.76 1486.45 L2352.76 47.2441 L138.959 47.2441  Z
  " fill="#ffffff" fill-rule="evenodd" fill-opacity="1"/>
<defs>
  <clipPath id="clip472">
    <rect x="138" y="47" width="2215" height="1440"/>
  </clipPath>
</defs>
<polyline clip-path="url(#clip472)" style="stroke:#000000; stroke-linecap:butt; stroke-linejoin:round; stroke-width:2; stroke-opacity:0.1; fill:none" points="
  138.959,1486.45 138.959,47.2441 
  "/>
<polyline clip-path="url(#clip472)" style="stroke:#000000; stroke-linecap:butt; stroke-linejoin:round; stroke-width:2; stroke-opacity:0.1; fill:none" points="
  581.719,1486.45 581.719,47.2441 
  "/>
<polyline clip-path="url(#clip472)" style="stroke:#000000; stroke-linecap:butt; stroke-linejoin:round; stroke-width:2; stroke-opacity:0.1; fill:none" points="
  1024.48,1486.45 1024.48,47.2441 
  "/>
<polyline clip-path="url(#clip472)" style="stroke:#000000; stroke-linecap:butt; stroke-linejoin:round; stroke-width:2; stroke-opacity:0.1; fill:none" points="
  1467.24,1486.45 1467.24,47.2441 
  "/>
<polyline clip-path="url(#clip472)" style="stroke:#000000; stroke-linecap:butt; stroke-linejoin:round; stroke-width:2; stroke-opacity:0.1; fill:none" points="
  1910,1486.45 1910,47.2441 
  "/>
<polyline clip-path="url(#clip472)" style="stroke:#000000; stroke-linecap:butt; stroke-linejoin:round; stroke-width:2; stroke-opacity:0.1; fill:none" points="
  2352.76,1486.45 2352.76,47.2441 
  "/>
<polyline clip-path="url(#clip470)" style="stroke:#000000; stroke-linecap:butt; stroke-linejoin:round; stroke-width:4; stroke-opacity:1; fill:none" points="
  138.959,1486.45 2352.76,1486.45 
  "/>
<polyline clip-path="url(#clip470)" style="stroke:#000000; stroke-linecap:butt; stroke-linejoin:round; stroke-width:4; stroke-opacity:1; fill:none" points="
  138.959,1486.45 138.959,1467.55 
  "/>
<polyline clip-path="url(#clip470)" style="stroke:#000000; stroke-linecap:butt; stroke-linejoin:round; stroke-width:4; stroke-opacity:1; fill:none" points="
  581.719,1486.45 581.719,1467.55 
  "/>
<polyline clip-path="url(#clip470)" style="stroke:#000000; stroke-linecap:butt; stroke-linejoin:round; stroke-width:4; stroke-opacity:1; fill:none" points="
  1024.48,1486.45 1024.48,1467.55 
  "/>
<polyline clip-path="url(#clip470)" style="stroke:#000000; stroke-linecap:butt; stroke-linejoin:round; stroke-width:4; stroke-opacity:1; fill:none" points="
  1467.24,1486.45 1467.24,1467.55 
  "/>
<polyline clip-path="url(#clip470)" style="stroke:#000000; stroke-linecap:butt; stroke-linejoin:round; stroke-width:4; stroke-opacity:1; fill:none" points="
  1910,1486.45 1910,1467.55 
  "/>
<polyline clip-path="url(#clip470)" style="stroke:#000000; stroke-linecap:butt; stroke-linejoin:round; stroke-width:4; stroke-opacity:1; fill:none" points="
  2352.76,1486.45 2352.76,1467.55 
  "/>
<path clip-path="url(#clip470)" d="M101.263 1517.37 Q97.6518 1517.37 95.8231 1520.93 Q94.0176 1524.47 94.0176 1531.6 Q94.0176 1538.71 95.8231 1542.27 Q97.6518 1545.82 101.263 1545.82 Q104.897 1545.82 106.703 1542.27 Q108.531 1538.71 108.531 1531.6 Q108.531 1524.47 106.703 1520.93 Q104.897 1517.37 101.263 1517.37 M101.263 1513.66 Q107.073 1513.66 110.129 1518.27 Q113.207 1522.85 113.207 1531.6 Q113.207 1540.33 110.129 1544.94 Q107.073 1549.52 101.263 1549.52 Q95.4527 1549.52 92.374 1544.94 Q89.3185 1540.33 89.3185 1531.6 Q89.3185 1522.85 92.374 1518.27 Q95.4527 1513.66 101.263 1513.66 Z" fill="#000000" fill-rule="evenodd" fill-opacity="1" /><path clip-path="url(#clip470)" d="M121.425 1542.97 L126.309 1542.97 L126.309 1548.85 L121.425 1548.85 L121.425 1542.97 Z" fill="#000000" fill-rule="evenodd" fill-opacity="1" /><path clip-path="url(#clip470)" d="M146.494 1517.37 Q142.883 1517.37 141.054 1520.93 Q139.249 1524.47 139.249 1531.6 Q139.249 1538.71 141.054 1542.27 Q142.883 1545.82 146.494 1545.82 Q150.128 1545.82 151.934 1542.27 Q153.763 1538.71 153.763 1531.6 Q153.763 1524.47 151.934 1520.93 Q150.128 1517.37 146.494 1517.37 M146.494 1513.66 Q152.304 1513.66 155.36 1518.27 Q158.439 1522.85 158.439 1531.6 Q158.439 1540.33 155.36 1544.94 Q152.304 1549.52 146.494 1549.52 Q140.684 1549.52 137.605 1544.94 Q134.55 1540.33 134.55 1531.6 Q134.55 1522.85 137.605 1518.27 Q140.684 1513.66 146.494 1513.66 Z" fill="#000000" fill-rule="evenodd" fill-opacity="1" /><path clip-path="url(#clip470)" d="M176.656 1517.37 Q173.045 1517.37 171.216 1520.93 Q169.411 1524.47 169.411 1531.6 Q169.411 1538.71 171.216 1542.27 Q173.045 1545.82 176.656 1545.82 Q180.29 1545.82 182.096 1542.27 Q183.924 1538.71 183.924 1531.6 Q183.924 1524.47 182.096 1520.93 Q180.29 1517.37 176.656 1517.37 M176.656 1513.66 Q182.466 1513.66 185.522 1518.27 Q188.6 1522.85 188.6 1531.6 Q188.6 1540.33 185.522 1544.94 Q182.466 1549.52 176.656 1549.52 Q170.846 1549.52 167.767 1544.94 Q164.712 1540.33 164.712 1531.6 Q164.712 1522.85 167.767 1518.27 Q170.846 1513.66 176.656 1513.66 Z" fill="#000000" fill-rule="evenodd" fill-opacity="1" /><path clip-path="url(#clip470)" d="M544.52 1517.37 Q540.909 1517.37 539.08 1520.93 Q537.275 1524.47 537.275 1531.6 Q537.275 1538.71 539.08 1542.27 Q540.909 1545.82 544.52 1545.82 Q548.154 1545.82 549.96 1542.27 Q551.788 1538.71 551.788 1531.6 Q551.788 1524.47 549.96 1520.93 Q548.154 1517.37 544.52 1517.37 M544.52 1513.66 Q550.33 1513.66 553.386 1518.27 Q556.464 1522.85 556.464 1531.6 Q556.464 1540.33 553.386 1544.94 Q550.33 1549.52 544.52 1549.52 Q538.71 1549.52 535.631 1544.94 Q532.575 1540.33 532.575 1531.6 Q532.575 1522.85 535.631 1518.27 Q538.71 1513.66 544.52 1513.66 Z" fill="#000000" fill-rule="evenodd" fill-opacity="1" /><path clip-path="url(#clip470)" d="M564.682 1542.97 L569.566 1542.97 L569.566 1548.85 L564.682 1548.85 L564.682 1542.97 Z" fill="#000000" fill-rule="evenodd" fill-opacity="1" /><path clip-path="url(#clip470)" d="M589.751 1517.37 Q586.14 1517.37 584.311 1520.93 Q582.506 1524.47 582.506 1531.6 Q582.506 1538.71 584.311 1542.27 Q586.14 1545.82 589.751 1545.82 Q593.385 1545.82 595.191 1542.27 Q597.02 1538.71 597.02 1531.6 Q597.02 1524.47 595.191 1520.93 Q593.385 1517.37 589.751 1517.37 M589.751 1513.66 Q595.561 1513.66 598.617 1518.27 Q601.695 1522.85 601.695 1531.6 Q601.695 1540.33 598.617 1544.94 Q595.561 1549.52 589.751 1549.52 Q583.941 1549.52 580.862 1544.94 Q577.807 1540.33 577.807 1531.6 Q577.807 1522.85 580.862 1518.27 Q583.941 1513.66 589.751 1513.66 Z" fill="#000000" fill-rule="evenodd" fill-opacity="1" /><path clip-path="url(#clip470)" d="M609.959 1514.29 L628.316 1514.29 L628.316 1518.22 L614.242 1518.22 L614.242 1526.7 Q615.26 1526.35 616.279 1526.19 Q617.297 1526 618.316 1526 Q624.103 1526 627.482 1529.17 Q630.862 1532.34 630.862 1537.76 Q630.862 1543.34 627.39 1546.44 Q623.918 1549.52 617.598 1549.52 Q615.422 1549.52 613.154 1549.15 Q610.908 1548.78 608.501 1548.04 L608.501 1543.34 Q610.584 1544.47 612.807 1545.03 Q615.029 1545.58 617.506 1545.58 Q621.51 1545.58 623.848 1543.48 Q626.186 1541.37 626.186 1537.76 Q626.186 1534.15 623.848 1532.04 Q621.51 1529.94 617.506 1529.94 Q615.631 1529.94 613.756 1530.35 Q611.904 1530.77 609.959 1531.65 L609.959 1514.29 Z" fill="#000000" fill-rule="evenodd" fill-opacity="1" /><path clip-path="url(#clip470)" d="M986.781 1517.37 Q983.17 1517.37 981.342 1520.93 Q979.536 1524.47 979.536 1531.6 Q979.536 1538.71 981.342 1542.27 Q983.17 1545.82 986.781 1545.82 Q990.416 1545.82 992.221 1542.27 Q994.05 1538.71 994.05 1531.6 Q994.05 1524.47 992.221 1520.93 Q990.416 1517.37 986.781 1517.37 M986.781 1513.66 Q992.592 1513.66 995.647 1518.27 Q998.726 1522.85 998.726 1531.6 Q998.726 1540.33 995.647 1544.94 Q992.592 1549.52 986.781 1549.52 Q980.971 1549.52 977.893 1544.94 Q974.837 1540.33 974.837 1531.6 Q974.837 1522.85 977.893 1518.27 Q980.971 1513.66 986.781 1513.66 Z" fill="#000000" fill-rule="evenodd" fill-opacity="1" /><path clip-path="url(#clip470)" d="M1006.94 1542.97 L1011.83 1542.97 L1011.83 1548.85 L1006.94 1548.85 L1006.94 1542.97 Z" fill="#000000" fill-rule="evenodd" fill-opacity="1" /><path clip-path="url(#clip470)" d="M1022.82 1544.91 L1030.46 1544.91 L1030.46 1518.55 L1022.15 1520.21 L1022.15 1515.95 L1030.42 1514.29 L1035.09 1514.29 L1035.09 1544.91 L1042.73 1544.91 L1042.73 1548.85 L1022.82 1548.85 L1022.82 1544.91 Z" fill="#000000" fill-rule="evenodd" fill-opacity="1" /><path clip-path="url(#clip470)" d="M1062.17 1517.37 Q1058.56 1517.37 1056.73 1520.93 Q1054.93 1524.47 1054.93 1531.6 Q1054.93 1538.71 1056.73 1542.27 Q1058.56 1545.82 1062.17 1545.82 Q1065.81 1545.82 1067.61 1542.27 Q1069.44 1538.71 1069.44 1531.6 Q1069.44 1524.47 1067.61 1520.93 Q1065.81 1517.37 1062.17 1517.37 M1062.17 1513.66 Q1067.98 1513.66 1071.04 1518.27 Q1074.12 1522.85 1074.12 1531.6 Q1074.12 1540.33 1071.04 1544.94 Q1067.98 1549.52 1062.17 1549.52 Q1056.36 1549.52 1053.29 1544.94 Q1050.23 1540.33 1050.23 1531.6 Q1050.23 1522.85 1053.29 1518.27 Q1056.36 1513.66 1062.17 1513.66 Z" fill="#000000" fill-rule="evenodd" fill-opacity="1" /><path clip-path="url(#clip470)" d="M1430.04 1517.37 Q1426.43 1517.37 1424.6 1520.93 Q1422.79 1524.47 1422.79 1531.6 Q1422.79 1538.71 1424.6 1542.27 Q1426.43 1545.82 1430.04 1545.82 Q1433.67 1545.82 1435.48 1542.27 Q1437.31 1538.71 1437.31 1531.6 Q1437.31 1524.47 1435.48 1520.93 Q1433.67 1517.37 1430.04 1517.37 M1430.04 1513.66 Q1435.85 1513.66 1438.9 1518.27 Q1441.98 1522.85 1441.98 1531.6 Q1441.98 1540.33 1438.9 1544.94 Q1435.85 1549.52 1430.04 1549.52 Q1424.23 1549.52 1421.15 1544.94 Q1418.09 1540.33 1418.09 1531.6 Q1418.09 1522.85 1421.15 1518.27 Q1424.23 1513.66 1430.04 1513.66 Z" fill="#000000" fill-rule="evenodd" fill-opacity="1" /><path clip-path="url(#clip470)" d="M1450.2 1542.97 L1455.08 1542.97 L1455.08 1548.85 L1450.2 1548.85 L1450.2 1542.97 Z" fill="#000000" fill-rule="evenodd" fill-opacity="1" /><path clip-path="url(#clip470)" d="M1466.08 1544.91 L1473.72 1544.91 L1473.72 1518.55 L1465.41 1520.21 L1465.41 1515.95 L1473.67 1514.29 L1478.35 1514.29 L1478.35 1544.91 L1485.99 1544.91 L1485.99 1548.85 L1466.08 1548.85 L1466.08 1544.91 Z" fill="#000000" fill-rule="evenodd" fill-opacity="1" /><path clip-path="url(#clip470)" d="M1495.48 1514.29 L1513.83 1514.29 L1513.83 1518.22 L1499.76 1518.22 L1499.76 1526.7 Q1500.78 1526.35 1501.8 1526.19 Q1502.82 1526 1503.83 1526 Q1509.62 1526 1513 1529.17 Q1516.38 1532.34 1516.38 1537.76 Q1516.38 1543.34 1512.91 1546.44 Q1509.44 1549.52 1503.12 1549.52 Q1500.94 1549.52 1498.67 1549.15 Q1496.43 1548.78 1494.02 1548.04 L1494.02 1543.34 Q1496.1 1544.47 1498.33 1545.03 Q1500.55 1545.58 1503.02 1545.58 Q1507.03 1545.58 1509.37 1543.48 Q1511.7 1541.37 1511.7 1537.76 Q1511.7 1534.15 1509.37 1532.04 Q1507.03 1529.94 1503.02 1529.94 Q1501.15 1529.94 1499.27 1530.35 Q1497.42 1530.77 1495.48 1531.65 L1495.48 1514.29 Z" fill="#000000" fill-rule="evenodd" fill-opacity="1" /><path clip-path="url(#clip470)" d="M1872.3 1517.37 Q1868.69 1517.37 1866.86 1520.93 Q1865.05 1524.47 1865.05 1531.6 Q1865.05 1538.71 1866.86 1542.27 Q1868.69 1545.82 1872.3 1545.82 Q1875.93 1545.82 1877.74 1542.27 Q1879.57 1538.71 1879.57 1531.6 Q1879.57 1524.47 1877.74 1520.93 Q1875.93 1517.37 1872.3 1517.37 M1872.3 1513.66 Q1878.11 1513.66 1881.17 1518.27 Q1884.24 1522.85 1884.24 1531.6 Q1884.24 1540.33 1881.17 1544.94 Q1878.11 1549.52 1872.3 1549.52 Q1866.49 1549.52 1863.41 1544.94 Q1860.36 1540.33 1860.36 1531.6 Q1860.36 1522.85 1863.41 1518.27 Q1866.49 1513.66 1872.3 1513.66 Z" fill="#000000" fill-rule="evenodd" fill-opacity="1" /><path clip-path="url(#clip470)" d="M1892.46 1542.97 L1897.35 1542.97 L1897.35 1548.85 L1892.46 1548.85 L1892.46 1542.97 Z" fill="#000000" fill-rule="evenodd" fill-opacity="1" /><path clip-path="url(#clip470)" d="M1911.56 1544.91 L1927.88 1544.91 L1927.88 1548.85 L1905.93 1548.85 L1905.93 1544.91 Q1908.6 1542.16 1913.18 1537.53 Q1917.79 1532.88 1918.97 1531.53 Q1921.21 1529.01 1922.09 1527.27 Q1922.99 1525.51 1922.99 1523.82 Q1922.99 1521.07 1921.05 1519.33 Q1919.13 1517.6 1916.03 1517.6 Q1913.83 1517.6 1911.37 1518.36 Q1908.94 1519.13 1906.17 1520.68 L1906.17 1515.95 Q1908.99 1514.82 1911.44 1514.24 Q1913.9 1513.66 1915.93 1513.66 Q1921.3 1513.66 1924.5 1516.35 Q1927.69 1519.03 1927.69 1523.52 Q1927.69 1525.65 1926.88 1527.57 Q1926.1 1529.47 1923.99 1532.07 Q1923.41 1532.74 1920.31 1535.95 Q1917.21 1539.15 1911.56 1544.91 Z" fill="#000000" fill-rule="evenodd" fill-opacity="1" /><path clip-path="url(#clip470)" d="M1947.69 1517.37 Q1944.08 1517.37 1942.25 1520.93 Q1940.45 1524.47 1940.45 1531.6 Q1940.45 1538.71 1942.25 1542.27 Q1944.08 1545.82 1947.69 1545.82 Q1951.33 1545.82 1953.13 1542.27 Q1954.96 1538.71 1954.96 1531.6 Q1954.96 1524.47 1953.13 1520.93 Q1951.33 1517.37 1947.69 1517.37 M1947.69 1513.66 Q1953.5 1513.66 1956.56 1518.27 Q1959.64 1522.85 1959.64 1531.6 Q1959.64 1540.33 1956.56 1544.94 Q1953.5 1549.52 1947.69 1549.52 Q1941.88 1549.52 1938.8 1544.94 Q1935.75 1540.33 1935.75 1531.6 Q1935.75 1522.85 1938.8 1518.27 Q1941.88 1513.66 1947.69 1513.66 Z" fill="#000000" fill-rule="evenodd" fill-opacity="1" /><path clip-path="url(#clip470)" d="M2315.56 1517.37 Q2311.95 1517.37 2310.12 1520.93 Q2308.31 1524.47 2308.31 1531.6 Q2308.31 1538.71 2310.12 1542.27 Q2311.95 1545.82 2315.56 1545.82 Q2319.19 1545.82 2321 1542.27 Q2322.83 1538.71 2322.83 1531.6 Q2322.83 1524.47 2321 1520.93 Q2319.19 1517.37 2315.56 1517.37 M2315.56 1513.66 Q2321.37 1513.66 2324.42 1518.27 Q2327.5 1522.85 2327.5 1531.6 Q2327.5 1540.33 2324.42 1544.94 Q2321.37 1549.52 2315.56 1549.52 Q2309.75 1549.52 2306.67 1544.94 Q2303.61 1540.33 2303.61 1531.6 Q2303.61 1522.85 2306.67 1518.27 Q2309.75 1513.66 2315.56 1513.66 Z" fill="#000000" fill-rule="evenodd" fill-opacity="1" /><path clip-path="url(#clip470)" d="M2335.72 1542.97 L2340.6 1542.97 L2340.6 1548.85 L2335.72 1548.85 L2335.72 1542.97 Z" fill="#000000" fill-rule="evenodd" fill-opacity="1" /><path clip-path="url(#clip470)" d="M2354.82 1544.91 L2371.14 1544.91 L2371.14 1548.85 L2349.19 1548.85 L2349.19 1544.91 Q2351.85 1542.16 2356.44 1537.53 Q2361.04 1532.88 2362.22 1531.53 Q2364.47 1529.01 2365.35 1527.27 Q2366.25 1525.51 2366.25 1523.82 Q2366.25 1521.07 2364.31 1519.33 Q2362.39 1517.6 2359.28 1517.6 Q2357.08 1517.6 2354.63 1518.36 Q2352.2 1519.13 2349.42 1520.68 L2349.42 1515.95 Q2352.25 1514.82 2354.7 1514.24 Q2357.15 1513.66 2359.19 1513.66 Q2364.56 1513.66 2367.76 1516.35 Q2370.95 1519.03 2370.95 1523.52 Q2370.95 1525.65 2370.14 1527.57 Q2369.35 1529.47 2367.25 1532.07 Q2366.67 1532.74 2363.57 1535.95 Q2360.46 1539.15 2354.82 1544.91 Z" fill="#000000" fill-rule="evenodd" fill-opacity="1" /><path clip-path="url(#clip470)" d="M2381 1514.29 L2399.35 1514.29 L2399.35 1518.22 L2385.28 1518.22 L2385.28 1526.7 Q2386.3 1526.35 2387.32 1526.19 Q2388.33 1526 2389.35 1526 Q2395.14 1526 2398.52 1529.17 Q2401.9 1532.34 2401.9 1537.76 Q2401.9 1543.34 2398.43 1546.44 Q2394.95 1549.52 2388.64 1549.52 Q2386.46 1549.52 2384.19 1549.15 Q2381.95 1548.78 2379.54 1548.04 L2379.54 1543.34 Q2381.62 1544.47 2383.84 1545.03 Q2386.07 1545.58 2388.54 1545.58 Q2392.55 1545.58 2394.89 1543.48 Q2397.22 1541.37 2397.22 1537.76 Q2397.22 1534.15 2394.89 1532.04 Q2392.55 1529.94 2388.54 1529.94 Q2386.67 1529.94 2384.79 1530.35 Q2382.94 1530.77 2381 1531.65 L2381 1514.29 Z" fill="#000000" fill-rule="evenodd" fill-opacity="1" /><polyline clip-path="url(#clip472)" style="stroke:#000000; stroke-linecap:butt; stroke-linejoin:round; stroke-width:2; stroke-opacity:0.1; fill:none" points="
  138.959,1445.72 2352.76,1445.72 
  "/>
<polyline clip-path="url(#clip472)" style="stroke:#000000; stroke-linecap:butt; stroke-linejoin:round; stroke-width:2; stroke-opacity:0.1; fill:none" points="
  138.959,1043.19 2352.76,1043.19 
  "/>
<polyline clip-path="url(#clip472)" style="stroke:#000000; stroke-linecap:butt; stroke-linejoin:round; stroke-width:2; stroke-opacity:0.1; fill:none" points="
  138.959,640.656 2352.76,640.656 
  "/>
<polyline clip-path="url(#clip472)" style="stroke:#000000; stroke-linecap:butt; stroke-linejoin:round; stroke-width:2; stroke-opacity:0.1; fill:none" points="
  138.959,238.126 2352.76,238.126 
  "/>
<polyline clip-path="url(#clip470)" style="stroke:#000000; stroke-linecap:butt; stroke-linejoin:round; stroke-width:4; stroke-opacity:1; fill:none" points="
  138.959,1486.45 138.959,47.2441 
  "/>
<polyline clip-path="url(#clip470)" style="stroke:#000000; stroke-linecap:butt; stroke-linejoin:round; stroke-width:4; stroke-opacity:1; fill:none" points="
  138.959,1445.72 157.857,1445.72 
  "/>
<polyline clip-path="url(#clip470)" style="stroke:#000000; stroke-linecap:butt; stroke-linejoin:round; stroke-width:4; stroke-opacity:1; fill:none" points="
  138.959,1043.19 157.857,1043.19 
  "/>
<polyline clip-path="url(#clip470)" style="stroke:#000000; stroke-linecap:butt; stroke-linejoin:round; stroke-width:4; stroke-opacity:1; fill:none" points="
  138.959,640.656 157.857,640.656 
  "/>
<polyline clip-path="url(#clip470)" style="stroke:#000000; stroke-linecap:butt; stroke-linejoin:round; stroke-width:4; stroke-opacity:1; fill:none" points="
  138.959,238.126 157.857,238.126 
  "/>
<path clip-path="url(#clip470)" d="M91.0151 1431.51 Q87.404 1431.51 85.5753 1435.08 Q83.7697 1438.62 83.7697 1445.75 Q83.7697 1452.86 85.5753 1456.42 Q87.404 1459.96 91.0151 1459.96 Q94.6493 1459.96 96.4548 1456.42 Q98.2835 1452.86 98.2835 1445.75 Q98.2835 1438.62 96.4548 1435.08 Q94.6493 1431.51 91.0151 1431.51 M91.0151 1427.81 Q96.8252 1427.81 99.8808 1432.42 Q102.959 1437 102.959 1445.75 Q102.959 1454.48 99.8808 1459.08 Q96.8252 1463.67 91.0151 1463.67 Q85.2049 1463.67 82.1262 1459.08 Q79.0707 1454.48 79.0707 1445.75 Q79.0707 1437 82.1262 1432.42 Q85.2049 1427.81 91.0151 1427.81 Z" fill="#000000" fill-rule="evenodd" fill-opacity="1" /><path clip-path="url(#clip470)" d="M82.0568 1025.91 L100.413 1025.91 L100.413 1029.84 L86.3392 1029.84 L86.3392 1038.31 Q87.3577 1037.97 88.3762 1037.8 Q89.3947 1037.62 90.4132 1037.62 Q96.2002 1037.62 99.5798 1040.79 Q102.959 1043.96 102.959 1049.38 Q102.959 1054.96 99.4872 1058.06 Q96.015 1061.14 89.6956 1061.14 Q87.5197 1061.14 85.2512 1060.77 Q83.0058 1060.4 80.5984 1059.66 L80.5984 1054.96 Q82.6818 1056.09 84.904 1056.65 Q87.1262 1057.2 89.603 1057.2 Q93.6076 1057.2 95.9456 1055.1 Q98.2835 1052.99 98.2835 1049.38 Q98.2835 1045.77 95.9456 1043.66 Q93.6076 1041.55 89.603 1041.55 Q87.728 1041.55 85.8531 1041.97 Q84.0012 1042.39 82.0568 1043.27 L82.0568 1025.91 Z" fill="#000000" fill-rule="evenodd" fill-opacity="1" /><path clip-path="url(#clip470)" d="M51.6634 654.001 L59.3023 654.001 L59.3023 627.635 L50.9921 629.302 L50.9921 625.043 L59.256 623.376 L63.9319 623.376 L63.9319 654.001 L71.5707 654.001 L71.5707 657.936 L51.6634 657.936 L51.6634 654.001 Z" fill="#000000" fill-rule="evenodd" fill-opacity="1" /><path clip-path="url(#clip470)" d="M91.0151 626.455 Q87.404 626.455 85.5753 630.02 Q83.7697 633.561 83.7697 640.691 Q83.7697 647.797 85.5753 651.362 Q87.404 654.904 91.0151 654.904 Q94.6493 654.904 96.4548 651.362 Q98.2835 647.797 98.2835 640.691 Q98.2835 633.561 96.4548 630.02 Q94.6493 626.455 91.0151 626.455 M91.0151 622.751 Q96.8252 622.751 99.8808 627.358 Q102.959 631.941 102.959 640.691 Q102.959 649.418 99.8808 654.024 Q96.8252 658.607 91.0151 658.607 Q85.2049 658.607 82.1262 654.024 Q79.0707 649.418 79.0707 640.691 Q79.0707 631.941 82.1262 627.358 Q85.2049 622.751 91.0151 622.751 Z" fill="#000000" fill-rule="evenodd" fill-opacity="1" /><path clip-path="url(#clip470)" d="M52.6588 251.471 L60.2976 251.471 L60.2976 225.106 L51.9875 226.772 L51.9875 222.513 L60.2513 220.846 L64.9272 220.846 L64.9272 251.471 L72.5661 251.471 L72.5661 255.406 L52.6588 255.406 L52.6588 251.471 Z" fill="#000000" fill-rule="evenodd" fill-opacity="1" /><path clip-path="url(#clip470)" d="M82.0568 220.846 L100.413 220.846 L100.413 224.781 L86.3392 224.781 L86.3392 233.254 Q87.3577 232.906 88.3762 232.744 Q89.3947 232.559 90.4132 232.559 Q96.2002 232.559 99.5798 235.73 Q102.959 238.902 102.959 244.318 Q102.959 249.897 99.4872 252.999 Q96.015 256.078 89.6956 256.078 Q87.5197 256.078 85.2512 255.707 Q83.0058 255.337 80.5984 254.596 L80.5984 249.897 Q82.6818 251.031 84.904 251.587 Q87.1262 252.142 89.603 252.142 Q93.6076 252.142 95.9456 250.036 Q98.2835 247.929 98.2835 244.318 Q98.2835 240.707 95.9456 238.601 Q93.6076 236.494 89.603 236.494 Q87.728 236.494 85.8531 236.911 Q84.0012 237.328 82.0568 238.207 L82.0568 220.846 Z" fill="#000000" fill-rule="evenodd" fill-opacity="1" /><polyline clip-path="url(#clip472)" style="stroke:#009af9; stroke-linecap:butt; stroke-linejoin:round; stroke-width:8; stroke-opacity:1; fill:none" points="
  138.959,1445.72 153.372,1445.72 167.785,1445.72 182.199,1445.72 196.612,1445.72 263.246,1445.71 329.881,1445.5 363.198,1444.72 396.515,1442.2 413.174,1439.65 
  429.833,1435.73 446.491,1429.96 463.15,1421.79 471.479,1416.6 479.809,1410.58 488.138,1403.65 496.467,1395.71 504.797,1386.7 513.126,1376.53 521.455,1365.13 
  529.785,1352.42 538.114,1338.35 546.443,1322.86 554.773,1305.9 563.102,1287.43 571.431,1267.42 579.761,1245.85 588.09,1222.72 596.419,1198.04 604.749,1171.82 
  613.078,1144.09 621.407,1114.91 629.736,1084.33 638.066,1052.41 646.395,1019.25 654.724,984.947 663.054,949.596 679.712,876.249 696.371,800.261 713.03,722.803 
  729.688,645.123 739.7,598.87 749.711,553.284 759.722,508.641 769.733,465.212 779.744,423.259 789.755,383.03 799.766,344.76 809.778,308.666 819.789,274.949 
  829.8,243.787 839.811,215.336 849.822,189.732 859.833,167.086 869.845,147.485 879.856,130.995 889.867,117.655 899.878,107.483 909.889,100.476 919.9,96.6062 
  929.912,95.8287 939.923,98.0782 949.934,103.272 959.945,111.312 969.956,122.084 979.967,135.464 989.978,151.313 999.99,169.485 1010,189.827 1020.01,212.177 
  1030.02,236.372 1040.03,262.242 1050.05,289.62 1066.97,338.871 1083.9,391.139 1100.83,445.64 1117.76,501.63 1151.62,615.354 1185.47,727.469 1202.4,781.697 
  1219.33,834.188 1236.26,884.638 1253.19,932.804 1270.12,978.505 1287.05,1021.61 1303.97,1062.05 1320.9,1099.79 1339.29,1137.72 1357.68,1172.52 1376.07,1204.27 
  1394.46,1233.1 1412.85,1259.13 1431.24,1282.54 1449.63,1303.49 1468.02,1322.16 1486.41,1338.72 1504.8,1353.35 1523.18,1366.23 1541.57,1377.52 1559.96,1387.38 
  1578.35,1395.97 1596.74,1403.41 1615.13,1409.84 1649.04,1419.43 1682.94,1426.64 1716.85,1431.99 1750.76,1435.93 1818.57,1440.86 1886.38,1443.39 2031.79,1445.28 
  2177.19,1445.64 2345.66,1445.71 2514.13,1445.72 2813.55,1445.72 3076.12,1445.72 3362.39,1445.72 3650.36,1445.72 3968.75,1445.72 4271.69,1445.72 4586.68,1445.72 
  4851.84,1445.72 5175.56,1445.72 5472.11,1445.72 5745.99,1445.72 6023.43,1445.72 6334.36,1445.72 6616.11,1445.72 6938.7,1445.72 7237.39,1445.72 7531.86,1445.72 
  7817.77,1445.72 8110.86,1445.72 8431.97,1445.72 8898.45,1445.72 8994.15,1445.72 
  "/>
<polyline clip-path="url(#clip472)" style="stroke:#e26f46; stroke-linecap:butt; stroke-linejoin:round; stroke-width:8; stroke-opacity:1; fill:none" points="
  283.192,1445.72 294.281,1445.71 305.369,1445.71 316.457,1445.69 327.546,1445.64 338.634,1445.52 349.723,1445.28 360.811,1444.82 371.9,1444.06 382.988,1442.89 
  394.076,1441.23 405.165,1439 416.253,1436.1 427.342,1432.49 438.43,1428.11 449.519,1422.85 460.607,1416.48 471.695,1408.65 482.784,1398.98 493.872,1387.33 
  504.961,1373.83 516.049,1358.84 527.138,1342.69 538.226,1325.45 549.315,1306.8 560.403,1286.07 571.491,1262.41 582.58,1235.05 593.668,1203.64 604.757,1168.43 
  615.845,1130.19 626.934,1090.01 638.022,1048.87 649.11,1007.34 660.199,965.355 671.287,922.356 682.376,877.755 693.464,831.325 704.553,783.207 715.641,733.569 
  726.729,682.358 737.818,629.47 748.906,575.21 759.995,520.584 771.083,467.126 782.172,416.397 793.26,369.515 804.348,326.962 815.437,288.665 826.525,254.248 
  837.614,223.312 848.702,195.594 859.791,170.901 870.879,148.989 881.967,129.652 893.056,113.052 904.144,99.9142 915.233,91.287 926.321,87.9763 937.41,90.1516 
  948.498,97.392 959.587,109.002 970.675,124.257 981.763,142.445 992.852,162.825 1003.94,184.601 1015.03,206.937 1026.12,229.105 1037.21,250.916 1048.29,273.254 
  1059.38,298.082 1070.47,327.541 1081.56,362.589 1092.65,402.336 1103.74,444.688 1114.82,487.689 1125.91,530.34 1137,572.331 1148.09,613.313 1159.18,652.645 
  1170.27,689.851 1181.36,725.136 1192.44,759.307 1203.53,793.138 1214.62,826.772 1225.71,859.66 1236.8,891.031 1247.89,920.529 1258.97,948.583 1270.06,976.258 
  1281.15,1004.65 1292.24,1034.13 1303.33,1064.03 1314.42,1092.9 1325.5,1119.22 1336.59,1142.23 1347.68,1162.27 1358.77,1180.6 1369.86,1198.65 1380.95,1217.31 
  1392.04,1236.35 1403.12,1254.63 1414.21,1270.67 1425.3,1283.53 1436.39,1293.21 1447.48,1300.68 1458.57,1307.39 1469.65,1314.66 1480.74,1323.27 1491.83,1333.22 
  1502.92,1343.92 1514.01,1354.53 1525.1,1364.37 1536.18,1373.16 1547.27,1380.96 1558.36,1387.92 1569.45,1394.11 1580.54,1399.55 1591.63,1404.23 1602.72,1408.21 
  1613.8,1411.6 1624.89,1414.5 1635.98,1417 1647.07,1419.21 1658.16,1421.23 1669.25,1423.16 1680.33,1425 1691.42,1426.73 1702.51,1428.24 1713.6,1429.48 
  1724.69,1430.47 1735.78,1431.32 1746.87,1432.15 1757.95,1433.05 1769.04,1434.03 1780.13,1435.07 1791.22,1436.07 1802.31,1436.96 1813.4,1437.72 1824.48,1438.39 
  1835.57,1439.02 1846.66,1439.6 1857.75,1440.11 1868.84,1440.53 1879.93,1440.91 1891.01,1441.39 1902.1,1442.03 1913.19,1442.82 1924.28,1443.65 1935.37,1444.39 
  1946.46,1444.92 1957.55,1445.22 1968.63,1445.31 1979.72,1445.24 1990.81,1445.08 2001.9,1444.92 2012.99,1444.81 2024.08,1444.81 2035.16,1444.91 2046.25,1445.09 
  2057.34,1445.29 2068.43,1445.46 2079.52,1445.58 2090.61,1445.65 2101.7,1445.69 2112.78,1445.71 2123.87,1445.71 2134.96,1445.71 2146.05,1445.72 2157.14,1445.72 
  2168.23,1445.72 2179.31,1445.72 2190.4,1445.72 2201.49,1445.72 2212.58,1445.72 2223.67,1445.72 2234.76,1445.72 2245.84,1445.72 2256.93,1445.71 2268.02,1445.71 
  2279.11,1445.7 2290.2,1445.68 2301.29,1445.63 2312.38,1445.54 2323.46,1445.4 2334.55,1445.21 2345.64,1445.01 2356.73,1444.85 2367.82,1444.78 2378.91,1444.84 
  2389.99,1444.99 2401.08,1445.19 2412.17,1445.38 2423.26,1445.53 2434.35,1445.63 2445.44,1445.68 2456.52,1445.7 2467.61,1445.71 2478.7,1445.71 2489.79,1445.72 
  
  "/>
<path clip-path="url(#clip470)" d="
M1100.42 250.738 L2278.96 250.738 L2278.96 95.2176 L1100.42 95.2176  Z
  " fill="#ffffff" fill-rule="evenodd" fill-opacity="1"/>
<polyline clip-path="url(#clip470)" style="stroke:#000000; stroke-linecap:butt; stroke-linejoin:round; stroke-width:4; stroke-opacity:1; fill:none" points="
  1100.42,250.738 2278.96,250.738 2278.96,95.2176 1100.42,95.2176 1100.42,250.738 
  "/>
<polyline clip-path="url(#clip470)" style="stroke:#009af9; stroke-linecap:butt; stroke-linejoin:round; stroke-width:4; stroke-opacity:1; fill:none" points="
  1125.02,147.058 1272.61,147.058 
  "/>
<path clip-path="url(#clip470)" d="M1315.98 151.398 Q1315.98 146.699 1314.03 144.037 Q1312.11 141.352 1308.73 141.352 Q1305.35 141.352 1303.41 144.037 Q1301.49 146.699 1301.49 151.398 Q1301.49 156.097 1303.41 158.782 Q1305.35 161.444 1308.73 161.444 Q1312.11 161.444 1314.03 158.782 Q1315.98 156.097 1315.98 151.398 M1301.49 142.347 Q1302.83 140.032 1304.86 138.921 Q1306.92 137.787 1309.77 137.787 Q1314.49 137.787 1317.43 141.537 Q1320.4 145.287 1320.4 151.398 Q1320.4 157.509 1317.43 161.259 Q1314.49 165.009 1309.77 165.009 Q1306.92 165.009 1304.86 163.898 Q1302.83 162.763 1301.49 160.449 L1301.49 164.338 L1297.2 164.338 L1297.2 128.319 L1301.49 128.319 L1301.49 142.347 Z" fill="#000000" fill-rule="evenodd" fill-opacity="1" /><path clip-path="url(#clip470)" d="M1349.63 150.31 L1349.63 152.393 L1330.05 152.393 Q1330.33 156.791 1332.69 159.106 Q1335.07 161.398 1339.31 161.398 Q1341.76 161.398 1344.05 160.796 Q1346.37 160.194 1348.64 158.99 L1348.64 163.018 Q1346.35 163.99 1343.94 164.5 Q1341.53 165.009 1339.05 165.009 Q1332.85 165.009 1329.22 161.398 Q1325.61 157.787 1325.61 151.629 Q1325.61 145.264 1329.03 141.537 Q1332.48 137.787 1338.31 137.787 Q1343.55 137.787 1346.58 141.166 Q1349.63 144.523 1349.63 150.31 M1345.37 149.06 Q1345.33 145.565 1343.41 143.481 Q1341.51 141.398 1338.36 141.398 Q1334.8 141.398 1332.64 143.412 Q1330.51 145.426 1330.19 149.083 L1345.37 149.06 Z" fill="#000000" fill-rule="evenodd" fill-opacity="1" /><path clip-path="url(#clip470)" d="M1360.84 131.051 L1360.84 138.412 L1369.61 138.412 L1369.61 141.722 L1360.84 141.722 L1360.84 155.796 Q1360.84 158.967 1361.69 159.87 Q1362.57 160.773 1365.23 160.773 L1369.61 160.773 L1369.61 164.338 L1365.23 164.338 Q1360.3 164.338 1358.43 162.509 Q1356.55 160.657 1356.55 155.796 L1356.55 141.722 L1353.43 141.722 L1353.43 138.412 L1356.55 138.412 L1356.55 131.051 L1360.84 131.051 Z" fill="#000000" fill-rule="evenodd" fill-opacity="1" /><path clip-path="url(#clip470)" d="M1386.99 151.305 Q1381.83 151.305 1379.84 152.486 Q1377.85 153.666 1377.85 156.514 Q1377.85 158.782 1379.33 160.125 Q1380.84 161.444 1383.41 161.444 Q1386.95 161.444 1389.08 158.944 Q1391.23 156.421 1391.23 152.254 L1391.23 151.305 L1386.99 151.305 M1395.49 149.546 L1395.49 164.338 L1391.23 164.338 L1391.23 160.402 Q1389.77 162.763 1387.6 163.898 Q1385.42 165.009 1382.27 165.009 Q1378.29 165.009 1375.93 162.787 Q1373.59 160.541 1373.59 156.791 Q1373.59 152.416 1376.51 150.194 Q1379.45 147.972 1385.26 147.972 L1391.23 147.972 L1391.23 147.555 Q1391.23 144.615 1389.29 143.018 Q1387.36 141.398 1383.87 141.398 Q1381.65 141.398 1379.54 141.93 Q1377.43 142.463 1375.49 143.527 L1375.49 139.592 Q1377.83 138.69 1380.03 138.25 Q1382.23 137.787 1384.31 137.787 Q1389.93 137.787 1392.71 140.703 Q1395.49 143.62 1395.49 149.546 Z" fill="#000000" fill-rule="evenodd" fill-opacity="1" /><path clip-path="url(#clip470)" d="M1436.39 142.347 L1436.39 128.319 L1440.65 128.319 L1440.65 164.338 L1436.39 164.338 L1436.39 160.449 Q1435.05 162.763 1432.99 163.898 Q1430.95 165.009 1428.08 165.009 Q1423.38 165.009 1420.42 161.259 Q1417.48 157.509 1417.48 151.398 Q1417.48 145.287 1420.42 141.537 Q1423.38 137.787 1428.08 137.787 Q1430.95 137.787 1432.99 138.921 Q1435.05 140.032 1436.39 142.347 M1421.88 151.398 Q1421.88 156.097 1423.8 158.782 Q1425.74 161.444 1429.12 161.444 Q1432.5 161.444 1434.45 158.782 Q1436.39 156.097 1436.39 151.398 Q1436.39 146.699 1434.45 144.037 Q1432.5 141.352 1429.12 141.352 Q1425.74 141.352 1423.8 144.037 Q1421.88 146.699 1421.88 151.398 Z" fill="#000000" fill-rule="evenodd" fill-opacity="1" /><path clip-path="url(#clip470)" d="M1449.42 138.412 L1453.68 138.412 L1453.68 164.338 L1449.42 164.338 L1449.42 138.412 M1449.42 128.319 L1453.68 128.319 L1453.68 133.713 L1449.42 133.713 L1449.42 128.319 Z" fill="#000000" fill-rule="evenodd" fill-opacity="1" /><path clip-path="url(#clip470)" d="M1479.12 139.176 L1479.12 143.203 Q1477.32 142.277 1475.37 141.815 Q1473.43 141.352 1471.35 141.352 Q1468.17 141.352 1466.58 142.324 Q1465 143.296 1465 145.24 Q1465 146.722 1466.14 147.578 Q1467.27 148.412 1470.7 149.176 L1472.16 149.5 Q1476.69 150.472 1478.59 152.254 Q1480.51 154.014 1480.51 157.185 Q1480.51 160.796 1477.64 162.902 Q1474.79 165.009 1469.79 165.009 Q1467.71 165.009 1465.44 164.592 Q1463.2 164.199 1460.7 163.388 L1460.7 158.99 Q1463.06 160.217 1465.35 160.842 Q1467.64 161.444 1469.89 161.444 Q1472.9 161.444 1474.52 160.426 Q1476.14 159.384 1476.14 157.509 Q1476.14 155.773 1474.96 154.847 Q1473.8 153.921 1469.84 153.064 L1468.36 152.717 Q1464.4 151.884 1462.64 150.171 Q1460.88 148.435 1460.88 145.426 Q1460.88 141.768 1463.48 139.778 Q1466.07 137.787 1470.84 137.787 Q1473.2 137.787 1475.28 138.134 Q1477.36 138.481 1479.12 139.176 Z" fill="#000000" fill-rule="evenodd" fill-opacity="1" /><path clip-path="url(#clip470)" d="M1491.51 131.051 L1491.51 138.412 L1500.28 138.412 L1500.28 141.722 L1491.51 141.722 L1491.51 155.796 Q1491.51 158.967 1492.36 159.87 Q1493.24 160.773 1495.91 160.773 L1500.28 160.773 L1500.28 164.338 L1495.91 164.338 Q1490.97 164.338 1489.1 162.509 Q1487.22 160.657 1487.22 155.796 L1487.22 141.722 L1484.1 141.722 L1484.1 138.412 L1487.22 138.412 L1487.22 131.051 L1491.51 131.051 Z" fill="#000000" fill-rule="evenodd" fill-opacity="1" /><path clip-path="url(#clip470)" d="M1520.91 142.393 Q1520.19 141.977 1519.33 141.791 Q1518.5 141.583 1517.48 141.583 Q1513.87 141.583 1511.92 143.944 Q1510 146.282 1510 150.68 L1510 164.338 L1505.72 164.338 L1505.72 138.412 L1510 138.412 L1510 142.44 Q1511.35 140.078 1513.5 138.944 Q1515.65 137.787 1518.73 137.787 Q1519.17 137.787 1519.7 137.856 Q1520.23 137.903 1520.88 138.018 L1520.91 142.393 Z" fill="#000000" fill-rule="evenodd" fill-opacity="1" /><path clip-path="url(#clip470)" d="M1525.37 138.412 L1529.63 138.412 L1529.63 164.338 L1525.37 164.338 L1525.37 138.412 M1525.37 128.319 L1529.63 128.319 L1529.63 133.713 L1525.37 133.713 L1525.37 128.319 Z" fill="#000000" fill-rule="evenodd" fill-opacity="1" /><path clip-path="url(#clip470)" d="M1557.16 151.398 Q1557.16 146.699 1555.21 144.037 Q1553.29 141.352 1549.91 141.352 Q1546.53 141.352 1544.59 144.037 Q1542.66 146.699 1542.66 151.398 Q1542.66 156.097 1544.59 158.782 Q1546.53 161.444 1549.91 161.444 Q1553.29 161.444 1555.21 158.782 Q1557.16 156.097 1557.16 151.398 M1542.66 142.347 Q1544.01 140.032 1546.04 138.921 Q1548.1 137.787 1550.95 137.787 Q1555.67 137.787 1558.61 141.537 Q1561.58 145.287 1561.58 151.398 Q1561.58 157.509 1558.61 161.259 Q1555.67 165.009 1550.95 165.009 Q1548.1 165.009 1546.04 163.898 Q1544.01 162.763 1542.66 160.449 L1542.66 164.338 L1538.38 164.338 L1538.38 128.319 L1542.66 128.319 L1542.66 142.347 Z" fill="#000000" fill-rule="evenodd" fill-opacity="1" /><path clip-path="url(#clip470)" d="M1568.2 154.106 L1568.2 138.412 L1572.46 138.412 L1572.46 153.944 Q1572.46 157.625 1573.89 159.476 Q1575.33 161.305 1578.2 161.305 Q1581.65 161.305 1583.64 159.106 Q1585.65 156.907 1585.65 153.111 L1585.65 138.412 L1589.91 138.412 L1589.91 164.338 L1585.65 164.338 L1585.65 160.356 Q1584.1 162.717 1582.04 163.875 Q1580 165.009 1577.29 165.009 Q1572.83 165.009 1570.51 162.231 Q1568.2 159.453 1568.2 154.106 M1578.91 137.787 L1578.91 137.787 Z" fill="#000000" fill-rule="evenodd" fill-opacity="1" /><path clip-path="url(#clip470)" d="M1602.9 131.051 L1602.9 138.412 L1611.67 138.412 L1611.67 141.722 L1602.9 141.722 L1602.9 155.796 Q1602.9 158.967 1603.75 159.87 Q1604.63 160.773 1607.29 160.773 L1611.67 160.773 L1611.67 164.338 L1607.29 164.338 Q1602.36 164.338 1600.49 162.509 Q1598.61 160.657 1598.61 155.796 L1598.61 141.722 L1595.49 141.722 L1595.49 138.412 L1598.61 138.412 L1598.61 131.051 L1602.9 131.051 Z" fill="#000000" fill-rule="evenodd" fill-opacity="1" /><path clip-path="url(#clip470)" d="M1617.27 138.412 L1621.53 138.412 L1621.53 164.338 L1617.27 164.338 L1617.27 138.412 M1617.27 128.319 L1621.53 128.319 L1621.53 133.713 L1617.27 133.713 L1617.27 128.319 Z" fill="#000000" fill-rule="evenodd" fill-opacity="1" /><path clip-path="url(#clip470)" d="M1640.49 141.398 Q1637.06 141.398 1635.07 144.083 Q1633.08 146.745 1633.08 151.398 Q1633.08 156.051 1635.05 158.736 Q1637.04 161.398 1640.49 161.398 Q1643.89 161.398 1645.88 158.713 Q1647.87 156.027 1647.87 151.398 Q1647.87 146.791 1645.88 144.106 Q1643.89 141.398 1640.49 141.398 M1640.49 137.787 Q1646.04 137.787 1649.21 141.398 Q1652.39 145.009 1652.39 151.398 Q1652.39 157.764 1649.21 161.398 Q1646.04 165.009 1640.49 165.009 Q1634.91 165.009 1631.74 161.398 Q1628.59 157.764 1628.59 151.398 Q1628.59 145.009 1631.74 141.398 Q1634.91 137.787 1640.49 137.787 Z" fill="#000000" fill-rule="evenodd" fill-opacity="1" /><path clip-path="url(#clip470)" d="M1681 148.689 L1681 164.338 L1676.74 164.338 L1676.74 148.828 Q1676.74 145.148 1675.3 143.319 Q1673.87 141.49 1671 141.49 Q1667.55 141.49 1665.56 143.69 Q1663.57 145.889 1663.57 149.685 L1663.57 164.338 L1659.28 164.338 L1659.28 138.412 L1663.57 138.412 L1663.57 142.44 Q1665.09 140.102 1667.15 138.944 Q1669.24 137.787 1671.95 137.787 Q1676.41 137.787 1678.71 140.565 Q1681 143.319 1681 148.689 Z" fill="#000000" fill-rule="evenodd" fill-opacity="1" /><path clip-path="url(#clip470)" d="M1702.08 138.412 L1706.34 138.412 L1711.67 158.643 L1716.97 138.412 L1721.99 138.412 L1727.32 158.643 L1732.62 138.412 L1736.88 138.412 L1730.09 164.338 L1725.07 164.338 L1719.49 143.088 L1713.89 164.338 L1708.87 164.338 L1702.08 138.412 Z" fill="#000000" fill-rule="evenodd" fill-opacity="1" /><path clip-path="url(#clip470)" d="M1743.33 138.412 L1747.59 138.412 L1747.59 164.338 L1743.33 164.338 L1743.33 138.412 M1743.33 128.319 L1747.59 128.319 L1747.59 133.713 L1743.33 133.713 L1743.33 128.319 Z" fill="#000000" fill-rule="evenodd" fill-opacity="1" /><path clip-path="url(#clip470)" d="M1760.72 131.051 L1760.72 138.412 L1769.49 138.412 L1769.49 141.722 L1760.72 141.722 L1760.72 155.796 Q1760.72 158.967 1761.58 159.87 Q1762.45 160.773 1765.12 160.773 L1769.49 160.773 L1769.49 164.338 L1765.12 164.338 Q1760.19 164.338 1758.31 162.509 Q1756.44 160.657 1756.44 155.796 L1756.44 141.722 L1753.31 141.722 L1753.31 138.412 L1756.44 138.412 L1756.44 131.051 L1760.72 131.051 Z" fill="#000000" fill-rule="evenodd" fill-opacity="1" /><path clip-path="url(#clip470)" d="M1796.64 148.689 L1796.64 164.338 L1792.39 164.338 L1792.39 148.828 Q1792.39 145.148 1790.95 143.319 Q1789.51 141.49 1786.64 141.49 Q1783.2 141.49 1781.2 143.69 Q1779.21 145.889 1779.21 149.685 L1779.21 164.338 L1774.93 164.338 L1774.93 128.319 L1779.21 128.319 L1779.21 142.44 Q1780.74 140.102 1782.8 138.944 Q1784.89 137.787 1787.59 137.787 Q1792.06 137.787 1794.35 140.565 Q1796.64 143.319 1796.64 148.689 Z" fill="#000000" fill-rule="evenodd" fill-opacity="1" /><path clip-path="url(#clip470)" d="M1833.33 128.319 L1833.33 131.861 L1829.26 131.861 Q1826.97 131.861 1826.07 132.787 Q1825.19 133.713 1825.19 136.12 L1825.19 138.412 L1832.2 138.412 L1832.2 141.722 L1825.19 141.722 L1825.19 164.338 L1820.9 164.338 L1820.9 141.722 L1816.83 141.722 L1816.83 138.412 L1820.9 138.412 L1820.9 136.606 Q1820.9 132.278 1822.92 130.31 Q1824.93 128.319 1829.31 128.319 L1833.33 128.319 Z" fill="#000000" fill-rule="evenodd" fill-opacity="1" /><path clip-path="url(#clip470)" d="M1836.9 138.412 L1841.16 138.412 L1841.16 164.338 L1836.9 164.338 L1836.9 138.412 M1836.9 128.319 L1841.16 128.319 L1841.16 133.713 L1836.9 133.713 L1836.9 128.319 Z" fill="#000000" fill-rule="evenodd" fill-opacity="1" /><path clip-path="url(#clip470)" d="M1854.28 131.051 L1854.28 138.412 L1863.06 138.412 L1863.06 141.722 L1854.28 141.722 L1854.28 155.796 Q1854.28 158.967 1855.14 159.87 Q1856.02 160.773 1858.68 160.773 L1863.06 160.773 L1863.06 164.338 L1858.68 164.338 Q1853.75 164.338 1851.88 162.509 Q1850 160.657 1850 155.796 L1850 141.722 L1846.88 141.722 L1846.88 138.412 L1850 138.412 L1850 131.051 L1854.28 131.051 Z" fill="#000000" fill-rule="evenodd" fill-opacity="1" /><path clip-path="url(#clip470)" d="M1872.87 131.051 L1872.87 138.412 L1881.64 138.412 L1881.64 141.722 L1872.87 141.722 L1872.87 155.796 Q1872.87 158.967 1873.73 159.87 Q1874.61 160.773 1877.27 160.773 L1881.64 160.773 L1881.64 164.338 L1877.27 164.338 Q1872.34 164.338 1870.46 162.509 Q1868.59 160.657 1868.59 155.796 L1868.59 141.722 L1865.46 141.722 L1865.46 138.412 L1868.59 138.412 L1868.59 131.051 L1872.87 131.051 Z" fill="#000000" fill-rule="evenodd" fill-opacity="1" /><path clip-path="url(#clip470)" d="M1909.42 150.31 L1909.42 152.393 L1889.84 152.393 Q1890.12 156.791 1892.48 159.106 Q1894.86 161.398 1899.1 161.398 Q1901.55 161.398 1903.84 160.796 Q1906.16 160.194 1908.43 158.99 L1908.43 163.018 Q1906.13 163.99 1903.73 164.5 Q1901.32 165.009 1898.84 165.009 Q1892.64 165.009 1889.01 161.398 Q1885.39 157.787 1885.39 151.629 Q1885.39 145.264 1888.82 141.537 Q1892.27 137.787 1898.1 137.787 Q1903.33 137.787 1906.37 141.166 Q1909.42 144.523 1909.42 150.31 M1905.16 149.06 Q1905.12 145.565 1903.19 143.481 Q1901.3 141.398 1898.15 141.398 Q1894.58 141.398 1892.43 143.412 Q1890.3 145.426 1889.98 149.083 L1905.16 149.06 Z" fill="#000000" fill-rule="evenodd" fill-opacity="1" /><path clip-path="url(#clip470)" d="M1933.47 142.347 L1933.47 128.319 L1937.73 128.319 L1937.73 164.338 L1933.47 164.338 L1933.47 160.449 Q1932.13 162.763 1930.07 163.898 Q1928.03 165.009 1925.16 165.009 Q1920.46 165.009 1917.5 161.259 Q1914.56 157.509 1914.56 151.398 Q1914.56 145.287 1917.5 141.537 Q1920.46 137.787 1925.16 137.787 Q1928.03 137.787 1930.07 138.921 Q1932.13 140.032 1933.47 142.347 M1918.96 151.398 Q1918.96 156.097 1920.88 158.782 Q1922.82 161.444 1926.2 161.444 Q1929.58 161.444 1931.53 158.782 Q1933.47 156.097 1933.47 151.398 Q1933.47 146.699 1931.53 144.037 Q1929.58 141.352 1926.2 141.352 Q1922.82 141.352 1920.88 144.037 Q1918.96 146.699 1918.96 151.398 Z" fill="#000000" fill-rule="evenodd" fill-opacity="1" /><path clip-path="url(#clip470)" d="M1965.69 160.449 L1965.69 174.199 L1961.41 174.199 L1961.41 138.412 L1965.69 138.412 L1965.69 142.347 Q1967.04 140.032 1969.07 138.921 Q1971.13 137.787 1973.98 137.787 Q1978.7 137.787 1981.64 141.537 Q1984.61 145.287 1984.61 151.398 Q1984.61 157.509 1981.64 161.259 Q1978.7 165.009 1973.98 165.009 Q1971.13 165.009 1969.07 163.898 Q1967.04 162.763 1965.69 160.449 M1980.19 151.398 Q1980.19 146.699 1978.24 144.037 Q1976.32 141.352 1972.94 141.352 Q1969.56 141.352 1967.62 144.037 Q1965.69 146.699 1965.69 151.398 Q1965.69 156.097 1967.62 158.782 Q1969.56 161.444 1972.94 161.444 Q1976.32 161.444 1978.24 158.782 Q1980.19 156.097 1980.19 151.398 Z" fill="#000000" fill-rule="evenodd" fill-opacity="1" /><path clip-path="url(#clip470)" d="M2003.45 151.305 Q1998.29 151.305 1996.3 152.486 Q1994.31 153.666 1994.31 156.514 Q1994.31 158.782 1995.79 160.125 Q1997.29 161.444 1999.86 161.444 Q2003.4 161.444 2005.53 158.944 Q2007.69 156.421 2007.69 152.254 L2007.69 151.305 L2003.45 151.305 M2011.94 149.546 L2011.94 164.338 L2007.69 164.338 L2007.69 160.402 Q2006.23 162.763 2004.05 163.898 Q2001.87 165.009 1998.73 165.009 Q1994.75 165.009 1992.38 162.787 Q1990.05 160.541 1990.05 156.791 Q1990.05 152.416 1992.96 150.194 Q1995.9 147.972 2001.71 147.972 L2007.69 147.972 L2007.69 147.555 Q2007.69 144.615 2005.74 143.018 Q2003.82 141.398 2000.32 141.398 Q1998.1 141.398 1996 141.93 Q1993.89 142.463 1991.94 143.527 L1991.94 139.592 Q1994.28 138.69 1996.48 138.25 Q1998.68 137.787 2000.76 137.787 Q2006.39 137.787 2009.17 140.703 Q2011.94 143.62 2011.94 149.546 Z" fill="#000000" fill-rule="evenodd" fill-opacity="1" /><path clip-path="url(#clip470)" d="M2035.74 142.393 Q2035.02 141.977 2034.17 141.791 Q2033.33 141.583 2032.31 141.583 Q2028.7 141.583 2026.76 143.944 Q2024.84 146.282 2024.84 150.68 L2024.84 164.338 L2020.56 164.338 L2020.56 138.412 L2024.84 138.412 L2024.84 142.44 Q2026.18 140.078 2028.33 138.944 Q2030.49 137.787 2033.56 137.787 Q2034 137.787 2034.54 137.856 Q2035.07 137.903 2035.72 138.018 L2035.74 142.393 Z" fill="#000000" fill-rule="evenodd" fill-opacity="1" /><path clip-path="url(#clip470)" d="M2051.99 151.305 Q2046.83 151.305 2044.84 152.486 Q2042.85 153.666 2042.85 156.514 Q2042.85 158.782 2044.33 160.125 Q2045.83 161.444 2048.4 161.444 Q2051.94 161.444 2054.07 158.944 Q2056.23 156.421 2056.23 152.254 L2056.23 151.305 L2051.99 151.305 M2060.49 149.546 L2060.49 164.338 L2056.23 164.338 L2056.23 160.402 Q2054.77 162.763 2052.59 163.898 Q2050.42 165.009 2047.27 165.009 Q2043.29 165.009 2040.93 162.787 Q2038.59 160.541 2038.59 156.791 Q2038.59 152.416 2041.5 150.194 Q2044.44 147.972 2050.25 147.972 L2056.23 147.972 L2056.23 147.555 Q2056.23 144.615 2054.28 143.018 Q2052.36 141.398 2048.87 141.398 Q2046.64 141.398 2044.54 141.93 Q2042.43 142.463 2040.49 143.527 L2040.49 139.592 Q2042.82 138.69 2045.02 138.25 Q2047.22 137.787 2049.31 137.787 Q2054.93 137.787 2057.71 140.703 Q2060.49 143.62 2060.49 149.546 Z" fill="#000000" fill-rule="evenodd" fill-opacity="1" /><path clip-path="url(#clip470)" d="M2089.44 143.389 Q2091.04 140.518 2093.26 139.153 Q2095.49 137.787 2098.49 137.787 Q2102.55 137.787 2104.74 140.634 Q2106.94 143.458 2106.94 148.689 L2106.94 164.338 L2102.66 164.338 L2102.66 148.828 Q2102.66 145.102 2101.34 143.296 Q2100.02 141.49 2097.31 141.49 Q2094 141.49 2092.08 143.69 Q2090.16 145.889 2090.16 149.685 L2090.16 164.338 L2085.88 164.338 L2085.88 148.828 Q2085.88 145.078 2084.56 143.296 Q2083.24 141.49 2080.49 141.49 Q2077.22 141.49 2075.3 143.713 Q2073.38 145.912 2073.38 149.685 L2073.38 164.338 L2069.1 164.338 L2069.1 138.412 L2073.38 138.412 L2073.38 142.44 Q2074.84 140.055 2076.87 138.921 Q2078.91 137.787 2081.71 137.787 Q2084.54 137.787 2086.5 139.222 Q2088.49 140.657 2089.44 143.389 Z" fill="#000000" fill-rule="evenodd" fill-opacity="1" /><path clip-path="url(#clip470)" d="M2137.61 150.31 L2137.61 152.393 L2118.03 152.393 Q2118.31 156.791 2120.67 159.106 Q2123.05 161.398 2127.29 161.398 Q2129.74 161.398 2132.04 160.796 Q2134.35 160.194 2136.62 158.99 L2136.62 163.018 Q2134.33 163.99 2131.92 164.5 Q2129.51 165.009 2127.04 165.009 Q2120.83 165.009 2117.2 161.398 Q2113.59 157.787 2113.59 151.629 Q2113.59 145.264 2117.01 141.537 Q2120.46 137.787 2126.3 137.787 Q2131.53 137.787 2134.56 141.166 Q2137.61 144.523 2137.61 150.31 M2133.36 149.06 Q2133.31 145.565 2131.39 143.481 Q2129.49 141.398 2126.34 141.398 Q2122.78 141.398 2120.62 143.412 Q2118.49 145.426 2118.17 149.083 L2133.36 149.06 Z" fill="#000000" fill-rule="evenodd" fill-opacity="1" /><path clip-path="url(#clip470)" d="M2148.82 131.051 L2148.82 138.412 L2157.59 138.412 L2157.59 141.722 L2148.82 141.722 L2148.82 155.796 Q2148.82 158.967 2149.68 159.87 Q2150.55 160.773 2153.22 160.773 L2157.59 160.773 L2157.59 164.338 L2153.22 164.338 Q2148.29 164.338 2146.41 162.509 Q2144.54 160.657 2144.54 155.796 L2144.54 141.722 L2141.41 141.722 L2141.41 138.412 L2144.54 138.412 L2144.54 131.051 L2148.82 131.051 Z" fill="#000000" fill-rule="evenodd" fill-opacity="1" /><path clip-path="url(#clip470)" d="M2185.37 150.31 L2185.37 152.393 L2165.79 152.393 Q2166.06 156.791 2168.42 159.106 Q2170.81 161.398 2175.05 161.398 Q2177.5 161.398 2179.79 160.796 Q2182.11 160.194 2184.37 158.99 L2184.37 163.018 Q2182.08 163.99 2179.67 164.5 Q2177.27 165.009 2174.79 165.009 Q2168.59 165.009 2164.95 161.398 Q2161.34 157.787 2161.34 151.629 Q2161.34 145.264 2164.77 141.537 Q2168.22 137.787 2174.05 137.787 Q2179.28 137.787 2182.31 141.166 Q2185.37 144.523 2185.37 150.31 M2181.11 149.06 Q2181.06 145.565 2179.14 143.481 Q2177.24 141.398 2174.1 141.398 Q2170.53 141.398 2168.38 143.412 Q2166.25 145.426 2165.92 149.083 L2181.11 149.06 Z" fill="#000000" fill-rule="evenodd" fill-opacity="1" /><path clip-path="url(#clip470)" d="M2207.38 142.393 Q2206.67 141.977 2205.81 141.791 Q2204.98 141.583 2203.96 141.583 Q2200.35 141.583 2198.4 143.944 Q2196.48 146.282 2196.48 150.68 L2196.48 164.338 L2192.2 164.338 L2192.2 138.412 L2196.48 138.412 L2196.48 142.44 Q2197.82 140.078 2199.98 138.944 Q2202.13 137.787 2205.21 137.787 Q2205.65 137.787 2206.18 137.856 Q2206.71 137.903 2207.36 138.018 L2207.38 142.393 Z" fill="#000000" fill-rule="evenodd" fill-opacity="1" /><path clip-path="url(#clip470)" d="M2228.38 139.176 L2228.38 143.203 Q2226.57 142.277 2224.63 141.815 Q2222.68 141.352 2220.6 141.352 Q2217.43 141.352 2215.83 142.324 Q2214.26 143.296 2214.26 145.24 Q2214.26 146.722 2215.39 147.578 Q2216.53 148.412 2219.95 149.176 L2221.41 149.5 Q2225.95 150.472 2227.85 152.254 Q2229.77 154.014 2229.77 157.185 Q2229.77 160.796 2226.9 162.902 Q2224.05 165.009 2219.05 165.009 Q2216.97 165.009 2214.7 164.592 Q2212.45 164.199 2209.95 163.388 L2209.95 158.99 Q2212.31 160.217 2214.61 160.842 Q2216.9 161.444 2219.14 161.444 Q2222.15 161.444 2223.77 160.426 Q2225.39 159.384 2225.39 157.509 Q2225.39 155.773 2224.21 154.847 Q2223.05 153.921 2219.1 153.064 L2217.61 152.717 Q2213.66 151.884 2211.9 150.171 Q2210.14 148.435 2210.14 145.426 Q2210.14 141.768 2212.73 139.778 Q2215.32 137.787 2220.09 137.787 Q2222.45 137.787 2224.54 138.134 Q2226.62 138.481 2228.38 139.176 Z" fill="#000000" fill-rule="evenodd" fill-opacity="1" /><polyline clip-path="url(#clip470)" style="stroke:#e26f46; stroke-linecap:butt; stroke-linejoin:round; stroke-width:4; stroke-opacity:1; fill:none" points="
  1125.02,198.898 1272.61,198.898 
  "/>
<path clip-path="url(#clip470)" d="M1315.98 203.238 Q1315.98 198.539 1314.03 195.877 Q1312.11 193.192 1308.73 193.192 Q1305.35 193.192 1303.41 195.877 Q1301.49 198.539 1301.49 203.238 Q1301.49 207.937 1303.41 210.622 Q1305.35 213.284 1308.73 213.284 Q1312.11 213.284 1314.03 210.622 Q1315.98 207.937 1315.98 203.238 M1301.49 194.187 Q1302.83 191.872 1304.86 190.761 Q1306.92 189.627 1309.77 189.627 Q1314.49 189.627 1317.43 193.377 Q1320.4 197.127 1320.4 203.238 Q1320.4 209.349 1317.43 213.099 Q1314.49 216.849 1309.77 216.849 Q1306.92 216.849 1304.86 215.738 Q1302.83 214.603 1301.49 212.289 L1301.49 216.178 L1297.2 216.178 L1297.2 180.159 L1301.49 180.159 L1301.49 194.187 Z" fill="#000000" fill-rule="evenodd" fill-opacity="1" /><path clip-path="url(#clip470)" d="M1339.24 203.145 Q1334.08 203.145 1332.09 204.326 Q1330.1 205.506 1330.1 208.354 Q1330.1 210.622 1331.58 211.965 Q1333.08 213.284 1335.65 213.284 Q1339.19 213.284 1341.32 210.784 Q1343.48 208.261 1343.48 204.094 L1343.48 203.145 L1339.24 203.145 M1347.73 201.386 L1347.73 216.178 L1343.48 216.178 L1343.48 212.242 Q1342.02 214.603 1339.84 215.738 Q1337.67 216.849 1334.52 216.849 Q1330.54 216.849 1328.17 214.627 Q1325.84 212.381 1325.84 208.631 Q1325.84 204.256 1328.75 202.034 Q1331.69 199.812 1337.5 199.812 L1343.48 199.812 L1343.48 199.395 Q1343.48 196.455 1341.53 194.858 Q1339.61 193.238 1336.11 193.238 Q1333.89 193.238 1331.79 193.77 Q1329.68 194.303 1327.74 195.367 L1327.74 191.432 Q1330.07 190.53 1332.27 190.09 Q1334.47 189.627 1336.55 189.627 Q1342.18 189.627 1344.96 192.543 Q1347.73 195.46 1347.73 201.386 Z" fill="#000000" fill-rule="evenodd" fill-opacity="1" /><path clip-path="url(#clip470)" d="M1367.29 218.585 Q1365.49 223.215 1363.78 224.627 Q1362.06 226.039 1359.19 226.039 L1355.79 226.039 L1355.79 222.474 L1358.29 222.474 Q1360.05 222.474 1361.02 221.64 Q1361.99 220.807 1363.17 217.705 L1363.94 215.761 L1353.45 190.252 L1357.97 190.252 L1366.07 210.529 L1374.17 190.252 L1378.68 190.252 L1367.29 218.585 Z" fill="#000000" fill-rule="evenodd" fill-opacity="1" /><path clip-path="url(#clip470)" d="M1406.74 202.15 L1406.74 204.233 L1387.16 204.233 Q1387.43 208.631 1389.79 210.946 Q1392.18 213.238 1396.42 213.238 Q1398.87 213.238 1401.16 212.636 Q1403.48 212.034 1405.74 210.83 L1405.74 214.858 Q1403.45 215.83 1401.04 216.34 Q1398.64 216.849 1396.16 216.849 Q1389.96 216.849 1386.32 213.238 Q1382.71 209.627 1382.71 203.469 Q1382.71 197.104 1386.14 193.377 Q1389.59 189.627 1395.42 189.627 Q1400.65 189.627 1403.68 193.006 Q1406.74 196.363 1406.74 202.15 M1402.48 200.9 Q1402.43 197.405 1400.51 195.321 Q1398.61 193.238 1395.47 193.238 Q1391.9 193.238 1389.75 195.252 Q1387.62 197.266 1387.29 200.923 L1402.48 200.9 Z" fill="#000000" fill-rule="evenodd" fill-opacity="1" /><path clip-path="url(#clip470)" d="M1430.26 191.016 L1430.26 195.043 Q1428.45 194.117 1426.51 193.655 Q1424.56 193.192 1422.48 193.192 Q1419.31 193.192 1417.71 194.164 Q1416.14 195.136 1416.14 197.08 Q1416.14 198.562 1417.27 199.418 Q1418.41 200.252 1421.83 201.016 L1423.29 201.34 Q1427.83 202.312 1429.73 204.094 Q1431.65 205.854 1431.65 209.025 Q1431.65 212.636 1428.78 214.742 Q1425.93 216.849 1420.93 216.849 Q1418.85 216.849 1416.58 216.432 Q1414.33 216.039 1411.83 215.228 L1411.83 210.83 Q1414.19 212.057 1416.48 212.682 Q1418.78 213.284 1421.02 213.284 Q1424.03 213.284 1425.65 212.266 Q1427.27 211.224 1427.27 209.349 Q1427.27 207.613 1426.09 206.687 Q1424.93 205.761 1420.98 204.904 L1419.49 204.557 Q1415.54 203.724 1413.78 202.011 Q1412.02 200.275 1412.02 197.266 Q1412.02 193.608 1414.61 191.618 Q1417.2 189.627 1421.97 189.627 Q1424.33 189.627 1426.42 189.974 Q1428.5 190.321 1430.26 191.016 Z" fill="#000000" fill-rule="evenodd" fill-opacity="1" /><path clip-path="url(#clip470)" d="M1438.43 190.252 L1442.69 190.252 L1442.69 216.178 L1438.43 216.178 L1438.43 190.252 M1438.43 180.159 L1442.69 180.159 L1442.69 185.553 L1438.43 185.553 L1438.43 180.159 Z" fill="#000000" fill-rule="evenodd" fill-opacity="1" /><path clip-path="url(#clip470)" d="M1463.38 203.145 Q1458.22 203.145 1456.23 204.326 Q1454.24 205.506 1454.24 208.354 Q1454.24 210.622 1455.72 211.965 Q1457.23 213.284 1459.79 213.284 Q1463.34 213.284 1465.47 210.784 Q1467.62 208.261 1467.62 204.094 L1467.62 203.145 L1463.38 203.145 M1471.88 201.386 L1471.88 216.178 L1467.62 216.178 L1467.62 212.242 Q1466.16 214.603 1463.98 215.738 Q1461.81 216.849 1458.66 216.849 Q1454.68 216.849 1452.32 214.627 Q1449.98 212.381 1449.98 208.631 Q1449.98 204.256 1452.9 202.034 Q1455.84 199.812 1461.65 199.812 L1467.62 199.812 L1467.62 199.395 Q1467.62 196.455 1465.67 194.858 Q1463.75 193.238 1460.26 193.238 Q1458.04 193.238 1455.93 193.77 Q1453.82 194.303 1451.88 195.367 L1451.88 191.432 Q1454.22 190.53 1456.41 190.09 Q1458.61 189.627 1460.7 189.627 Q1466.32 189.627 1469.1 192.543 Q1471.88 195.46 1471.88 201.386 Z" fill="#000000" fill-rule="evenodd" fill-opacity="1" /><path clip-path="url(#clip470)" d="M1502.2 200.529 L1502.2 216.178 L1497.94 216.178 L1497.94 200.668 Q1497.94 196.988 1496.51 195.159 Q1495.07 193.33 1492.2 193.33 Q1488.75 193.33 1486.76 195.53 Q1484.77 197.729 1484.77 201.525 L1484.77 216.178 L1480.49 216.178 L1480.49 190.252 L1484.77 190.252 L1484.77 194.28 Q1486.3 191.942 1488.36 190.784 Q1490.44 189.627 1493.15 189.627 Q1497.62 189.627 1499.91 192.405 Q1502.2 195.159 1502.2 200.529 Z" fill="#000000" fill-rule="evenodd" fill-opacity="1" /><path clip-path="url(#clip470)" d="M1525.77 190.252 L1530.03 190.252 L1530.03 216.178 L1525.77 216.178 L1525.77 190.252 M1525.77 180.159 L1530.03 180.159 L1530.03 185.553 L1525.77 185.553 L1525.77 180.159 Z" fill="#000000" fill-rule="evenodd" fill-opacity="1" /><path clip-path="url(#clip470)" d="M1560.49 200.529 L1560.49 216.178 L1556.23 216.178 L1556.23 200.668 Q1556.23 196.988 1554.79 195.159 Q1553.36 193.33 1550.49 193.33 Q1547.04 193.33 1545.05 195.53 Q1543.06 197.729 1543.06 201.525 L1543.06 216.178 L1538.78 216.178 L1538.78 190.252 L1543.06 190.252 L1543.06 194.28 Q1544.59 191.942 1546.65 190.784 Q1548.73 189.627 1551.44 189.627 Q1555.91 189.627 1558.2 192.405 Q1560.49 195.159 1560.49 200.529 Z" fill="#000000" fill-rule="evenodd" fill-opacity="1" /><path clip-path="url(#clip470)" d="M1582.11 180.159 L1582.11 183.701 L1578.03 183.701 Q1575.74 183.701 1574.84 184.627 Q1573.96 185.553 1573.96 187.96 L1573.96 190.252 L1580.97 190.252 L1580.97 193.562 L1573.96 193.562 L1573.96 216.178 L1569.68 216.178 L1569.68 193.562 L1565.6 193.562 L1565.6 190.252 L1569.68 190.252 L1569.68 188.446 Q1569.68 184.118 1571.69 182.15 Q1573.71 180.159 1578.08 180.159 L1582.11 180.159 Z" fill="#000000" fill-rule="evenodd" fill-opacity="1" /><path clip-path="url(#clip470)" d="M1607.85 202.15 L1607.85 204.233 L1588.27 204.233 Q1588.54 208.631 1590.9 210.946 Q1593.29 213.238 1597.53 213.238 Q1599.98 213.238 1602.27 212.636 Q1604.59 212.034 1606.85 210.83 L1606.85 214.858 Q1604.56 215.83 1602.15 216.34 Q1599.75 216.849 1597.27 216.849 Q1591.07 216.849 1587.43 213.238 Q1583.82 209.627 1583.82 203.469 Q1583.82 197.104 1587.25 193.377 Q1590.7 189.627 1596.53 189.627 Q1601.76 189.627 1604.79 193.006 Q1607.85 196.363 1607.85 202.15 M1603.59 200.9 Q1603.54 197.405 1601.62 195.321 Q1599.72 193.238 1596.58 193.238 Q1593.01 193.238 1590.86 195.252 Q1588.73 197.266 1588.4 200.923 L1603.59 200.9 Z" fill="#000000" fill-rule="evenodd" fill-opacity="1" /><path clip-path="url(#clip470)" d="M1629.86 194.233 Q1629.15 193.817 1628.29 193.631 Q1627.46 193.423 1626.44 193.423 Q1622.83 193.423 1620.88 195.784 Q1618.96 198.122 1618.96 202.52 L1618.96 216.178 L1614.68 216.178 L1614.68 190.252 L1618.96 190.252 L1618.96 194.28 Q1620.3 191.918 1622.46 190.784 Q1624.61 189.627 1627.69 189.627 Q1628.13 189.627 1628.66 189.696 Q1629.19 189.743 1629.84 189.858 L1629.86 194.233 Z" fill="#000000" fill-rule="evenodd" fill-opacity="1" /><path clip-path="url(#clip470)" d="M1655.46 202.15 L1655.46 204.233 L1635.88 204.233 Q1636.16 208.631 1638.52 210.946 Q1640.9 213.238 1645.14 213.238 Q1647.59 213.238 1649.89 212.636 Q1652.2 212.034 1654.47 210.83 L1654.47 214.858 Q1652.18 215.83 1649.77 216.34 Q1647.36 216.849 1644.89 216.849 Q1638.68 216.849 1635.05 213.238 Q1631.44 209.627 1631.44 203.469 Q1631.44 197.104 1634.86 193.377 Q1638.31 189.627 1644.15 189.627 Q1649.38 189.627 1652.41 193.006 Q1655.46 196.363 1655.46 202.15 M1651.21 200.9 Q1651.16 197.405 1649.24 195.321 Q1647.34 193.238 1644.19 193.238 Q1640.63 193.238 1638.47 195.252 Q1636.34 197.266 1636.02 200.923 L1651.21 200.9 Z" fill="#000000" fill-rule="evenodd" fill-opacity="1" /><path clip-path="url(#clip470)" d="M1684.01 200.529 L1684.01 216.178 L1679.75 216.178 L1679.75 200.668 Q1679.75 196.988 1678.31 195.159 Q1676.88 193.33 1674.01 193.33 Q1670.56 193.33 1668.57 195.53 Q1666.58 197.729 1666.58 201.525 L1666.58 216.178 L1662.29 216.178 L1662.29 190.252 L1666.58 190.252 L1666.58 194.28 Q1668.1 191.942 1670.16 190.784 Q1672.25 189.627 1674.96 189.627 Q1679.42 189.627 1681.71 192.405 Q1684.01 195.159 1684.01 200.529 Z" fill="#000000" fill-rule="evenodd" fill-opacity="1" /><path clip-path="url(#clip470)" d="M1711.16 191.247 L1711.16 195.229 Q1709.35 194.233 1707.52 193.747 Q1705.72 193.238 1703.87 193.238 Q1699.72 193.238 1697.43 195.877 Q1695.14 198.492 1695.14 203.238 Q1695.14 207.983 1697.43 210.622 Q1699.72 213.238 1703.87 213.238 Q1705.72 213.238 1707.52 212.752 Q1709.35 212.242 1711.16 211.247 L1711.16 215.182 Q1709.38 216.016 1707.46 216.432 Q1705.56 216.849 1703.4 216.849 Q1697.55 216.849 1694.1 213.168 Q1690.65 209.488 1690.65 203.238 Q1690.65 196.895 1694.12 193.261 Q1697.62 189.627 1703.68 189.627 Q1705.65 189.627 1707.52 190.043 Q1709.4 190.437 1711.16 191.247 Z" fill="#000000" fill-rule="evenodd" fill-opacity="1" /><path clip-path="url(#clip470)" d="M1740.74 202.15 L1740.74 204.233 L1721.16 204.233 Q1721.44 208.631 1723.8 210.946 Q1726.18 213.238 1730.42 213.238 Q1732.87 213.238 1735.16 212.636 Q1737.48 212.034 1739.75 210.83 L1739.75 214.858 Q1737.46 215.83 1735.05 216.34 Q1732.64 216.849 1730.16 216.849 Q1723.96 216.849 1720.33 213.238 Q1716.71 209.627 1716.71 203.469 Q1716.71 197.104 1720.14 193.377 Q1723.59 189.627 1729.42 189.627 Q1734.65 189.627 1737.69 193.006 Q1740.74 196.363 1740.74 202.15 M1736.48 200.9 Q1736.44 197.405 1734.52 195.321 Q1732.62 193.238 1729.47 193.238 Q1725.9 193.238 1723.75 195.252 Q1721.62 197.266 1721.3 200.923 L1736.48 200.9 Z" fill="#000000" fill-rule="evenodd" fill-opacity="1" /><path clip-path="url(#clip470)" d="M1766.92 212.289 L1766.92 226.039 L1762.64 226.039 L1762.64 190.252 L1766.92 190.252 L1766.92 194.187 Q1768.27 191.872 1770.3 190.761 Q1772.36 189.627 1775.21 189.627 Q1779.93 189.627 1782.87 193.377 Q1785.83 197.127 1785.83 203.238 Q1785.83 209.349 1782.87 213.099 Q1779.93 216.849 1775.21 216.849 Q1772.36 216.849 1770.3 215.738 Q1768.27 214.603 1766.92 212.289 M1781.41 203.238 Q1781.41 198.539 1779.47 195.877 Q1777.55 193.192 1774.17 193.192 Q1770.79 193.192 1768.84 195.877 Q1766.92 198.539 1766.92 203.238 Q1766.92 207.937 1768.84 210.622 Q1770.79 213.284 1774.17 213.284 Q1777.55 213.284 1779.47 210.622 Q1781.41 207.937 1781.41 203.238 Z" fill="#000000" fill-rule="evenodd" fill-opacity="1" /><path clip-path="url(#clip470)" d="M1802.94 193.238 Q1799.51 193.238 1797.52 195.923 Q1795.53 198.585 1795.53 203.238 Q1795.53 207.891 1797.5 210.576 Q1799.49 213.238 1802.94 213.238 Q1806.34 213.238 1808.33 210.553 Q1810.33 207.867 1810.33 203.238 Q1810.33 198.631 1808.33 195.946 Q1806.34 193.238 1802.94 193.238 M1802.94 189.627 Q1808.5 189.627 1811.67 193.238 Q1814.84 196.849 1814.84 203.238 Q1814.84 209.604 1811.67 213.238 Q1808.5 216.849 1802.94 216.849 Q1797.36 216.849 1794.19 213.238 Q1791.04 209.604 1791.04 203.238 Q1791.04 196.849 1794.19 193.238 Q1797.36 189.627 1802.94 189.627 Z" fill="#000000" fill-rule="evenodd" fill-opacity="1" /><path clip-path="url(#clip470)" d="M1838.43 191.016 L1838.43 195.043 Q1836.62 194.117 1834.68 193.655 Q1832.73 193.192 1830.65 193.192 Q1827.48 193.192 1825.88 194.164 Q1824.31 195.136 1824.31 197.08 Q1824.31 198.562 1825.44 199.418 Q1826.57 200.252 1830 201.016 L1831.46 201.34 Q1836 202.312 1837.89 204.094 Q1839.82 205.854 1839.82 209.025 Q1839.82 212.636 1836.95 214.742 Q1834.1 216.849 1829.1 216.849 Q1827.01 216.849 1824.75 216.432 Q1822.5 216.039 1820 215.228 L1820 210.83 Q1822.36 212.057 1824.65 212.682 Q1826.95 213.284 1829.19 213.284 Q1832.2 213.284 1833.82 212.266 Q1835.44 211.224 1835.44 209.349 Q1835.44 207.613 1834.26 206.687 Q1833.1 205.761 1829.14 204.904 L1827.66 204.557 Q1823.7 203.724 1821.95 202.011 Q1820.19 200.275 1820.19 197.266 Q1820.19 193.608 1822.78 191.618 Q1825.37 189.627 1830.14 189.627 Q1832.5 189.627 1834.58 189.974 Q1836.67 190.321 1838.43 191.016 Z" fill="#000000" fill-rule="evenodd" fill-opacity="1" /><path clip-path="url(#clip470)" d="M1850.81 182.891 L1850.81 190.252 L1859.58 190.252 L1859.58 193.562 L1850.81 193.562 L1850.81 207.636 Q1850.81 210.807 1851.67 211.71 Q1852.55 212.613 1855.21 212.613 L1859.58 212.613 L1859.58 216.178 L1855.21 216.178 Q1850.28 216.178 1848.4 214.349 Q1846.53 212.497 1846.53 207.636 L1846.53 193.562 L1843.4 193.562 L1843.4 190.252 L1846.53 190.252 L1846.53 182.891 L1850.81 182.891 Z" fill="#000000" fill-rule="evenodd" fill-opacity="1" /><path clip-path="url(#clip470)" d="M1887.36 202.15 L1887.36 204.233 L1867.78 204.233 Q1868.06 208.631 1870.42 210.946 Q1872.8 213.238 1877.04 213.238 Q1879.49 213.238 1881.78 212.636 Q1884.1 212.034 1886.37 210.83 L1886.37 214.858 Q1884.07 215.83 1881.67 216.34 Q1879.26 216.849 1876.78 216.849 Q1870.58 216.849 1866.95 213.238 Q1863.33 209.627 1863.33 203.469 Q1863.33 197.104 1866.76 193.377 Q1870.21 189.627 1876.04 189.627 Q1881.27 189.627 1884.31 193.006 Q1887.36 196.363 1887.36 202.15 M1883.1 200.9 Q1883.06 197.405 1881.13 195.321 Q1879.24 193.238 1876.09 193.238 Q1872.52 193.238 1870.37 195.252 Q1868.24 197.266 1867.92 200.923 L1883.1 200.9 Z" fill="#000000" fill-rule="evenodd" fill-opacity="1" /><path clip-path="url(#clip470)" d="M1909.38 194.233 Q1908.66 193.817 1907.8 193.631 Q1906.97 193.423 1905.95 193.423 Q1902.34 193.423 1900.39 195.784 Q1898.47 198.122 1898.47 202.52 L1898.47 216.178 L1894.19 216.178 L1894.19 190.252 L1898.47 190.252 L1898.47 194.28 Q1899.82 191.918 1901.97 190.784 Q1904.12 189.627 1907.2 189.627 Q1907.64 189.627 1908.17 189.696 Q1908.7 189.743 1909.35 189.858 L1909.38 194.233 Z" fill="#000000" fill-rule="evenodd" fill-opacity="1" /><path clip-path="url(#clip470)" d="M1913.84 190.252 L1918.1 190.252 L1918.1 216.178 L1913.84 216.178 L1913.84 190.252 M1913.84 180.159 L1918.1 180.159 L1918.1 185.553 L1913.84 185.553 L1913.84 180.159 Z" fill="#000000" fill-rule="evenodd" fill-opacity="1" /><path clip-path="url(#clip470)" d="M1937.06 193.238 Q1933.63 193.238 1931.64 195.923 Q1929.65 198.585 1929.65 203.238 Q1929.65 207.891 1931.62 210.576 Q1933.61 213.238 1937.06 213.238 Q1940.46 213.238 1942.45 210.553 Q1944.44 207.867 1944.44 203.238 Q1944.44 198.631 1942.45 195.946 Q1940.46 193.238 1937.06 193.238 M1937.06 189.627 Q1942.62 189.627 1945.79 193.238 Q1948.96 196.849 1948.96 203.238 Q1948.96 209.604 1945.79 213.238 Q1942.62 216.849 1937.06 216.849 Q1931.48 216.849 1928.31 213.238 Q1925.16 209.604 1925.16 203.238 Q1925.16 196.849 1928.31 193.238 Q1931.48 189.627 1937.06 189.627 Z" fill="#000000" fill-rule="evenodd" fill-opacity="1" /><path clip-path="url(#clip470)" d="M1971.04 194.233 Q1970.32 193.817 1969.47 193.631 Q1968.63 193.423 1967.62 193.423 Q1964 193.423 1962.06 195.784 Q1960.14 198.122 1960.14 202.52 L1960.14 216.178 L1955.86 216.178 L1955.86 190.252 L1960.14 190.252 L1960.14 194.28 Q1961.48 191.918 1963.63 190.784 Q1965.79 189.627 1968.87 189.627 Q1969.31 189.627 1969.84 189.696 Q1970.37 189.743 1971.02 189.858 L1971.04 194.233 Z" fill="#000000" fill-rule="evenodd" fill-opacity="1" /></svg>
